<svg xmlns="http://www.w3.org/2000/svg" fill="none" viewBox="0 0 100 14"><g clip-path="url(#clip0)"><path fill="#84BC34" d="M75.522 11.523l.114-1.13h1.958v1.756c0 .716-.115 1.083-.416 1.377-.301.295-.704.422-1.369.422h-.821c-.657 0-1.057-.124-1.37-.43-.311-.306-.418-.689-.418-1.378V9.768c0-.672.115-1.055.419-1.361.304-.306.704-.43 1.369-.43h.821c1.155 0 1.642.394 1.78 1.441l-1.246.116c-.071-.342-.206-.422-.712-.422h-.47c-.587 0-.713.127-.713.717v2.253c0 .601.126.725.712.725h.471c.586 0 .712-.124.712-.725v-.55l-.822-.009zm6.373-1.692c0-.59-.126-.716-.712-.716H80v1.755h1.183c.588 0 .712-.127.712-.716V9.83zm1.423 4.12h-1.486l-1.191-1.943H80v1.943h-1.246V7.99h2.606c.66 0 1.06.127 1.369.43.309.303.418.688.418 1.36v.45c0 1.063-.3 1.504-1.21 1.755l1.38 1.965zm3.901-4.12c0-.592-.123-.716-.712-.716h-.47c-.586 0-.712.124-.712.716v2.265c0 .593.123.717.712.717h.47c.586 0 .712-.124.712-.717V9.831zm.822-1.424c.303.306.416.689.416 1.378v2.372c0 .68-.115 1.066-.416 1.378-.302.31-.704.43-1.37.43h-.82c-.66 0-1.06-.127-1.37-.43-.309-.303-.418-.69-.418-1.378v-2.38c0-.681.115-1.067.419-1.378.303-.312.703-.43 1.368-.43h.822c.657 0 1.06.126 1.368.43v.008zm2.682-.416h-1.245v4.158c0 .68.115 1.063.419 1.377.303.314.7.43 1.368.43h.822c.66 0 1.059-.127 1.368-.43.31-.303.42-.688.42-1.377V7.99h-1.246v4.105c0 .593-.124.717-.712.717h-.482c-.588 0-.712-.124-.712-.717V7.991zm7.304 1.854c0-.592-.123-.716-.712-.716h-1.182v1.893h1.182c.589 0 .712-.124.712-.717v-.46zm.821-1.424c.302.305.416.688.416 1.36v.601c0 .673-.114 1.056-.416 1.362-.3.305-.703.43-1.368.43h-1.37v1.79h-1.245V7.991h2.606c.657 0 1.06.127 1.37.43"/><path fill="#fff" d="M56.035 5.696h-.487c-1.94 0-2.19.217-2.19 1.961v.276h4.876v-.276c0-1.74-.255-1.961-2.19-1.961h-.009zm4.326 4.133h-7.008c0 1.204.079 1.579.36 1.862.283.284.611.361 1.838.361h.487c1.207 0 1.536-.06 1.837-.36.146-.145.246-.33.288-.533h2.162c-.356 2.059-1.42 2.844-3.78 2.844h-1.503c-1.397 0-2.259-.276-2.913-.923-.654-.648-.898-1.471-.898-2.915V7.602c0-1.44.246-2.273.898-2.931.651-.659 1.527-.923 2.913-.923h1.5c1.396 0 2.258.275 2.91.903.651.629.9 1.433.9 2.951l.009 2.227zm8.9 4.15h-2.073c-1.396 0-2.24-.276-2.91-.924-.67-.647-.898-1.468-.898-2.91V5.788h-1.256V3.783h1.256V1.271h2.122v2.512h2.883l-.258 2.004H65.5v4.359c0 1.545.375 1.83 2.19 1.83h1.572v2.002zM45.07 3.782c1.397 0 2.237.276 2.91.923.674.648.901 1.472.901 2.91v6.354h-2.124V7.99c0-1.173-.077-1.545-.359-1.848-.282-.303-.61-.355-1.837-.355h-2.436v8.183h-2.122V3.775l5.067.008zM33.286 5.695H32.8c-1.941 0-2.19.218-2.19 1.962v.276h4.875v-.276c0-1.741-.251-1.962-2.19-1.962h-.008zm4.326 4.133h-7.009c0 1.205.08 1.58.362 1.863.282.284.61.361 1.834.361h.487c1.207 0 1.539-.06 1.837-.361.147-.144.247-.33.288-.532h2.165c-.345 2.067-1.42 2.841-3.78 2.841h-1.493c-1.396 0-2.258-.275-2.91-.923-.651-.648-.922-1.471-.922-2.912V7.601c0-1.441.246-2.273.898-2.932.651-.658 1.53-.923 2.934-.923h1.5c1.397 0 2.26.276 2.91.904.652.628.901 1.433.901 2.951l-.002 2.226zM21.887 5.695h-.493c-1.94 0-2.19.218-2.19 1.962v.276h4.87v-.276c0-1.741-.254-1.962-2.19-1.962h.003zM26.2 9.828h-7.005c0 1.205.08 1.58.361 1.863.282.284.61.361 1.834.361h.488c1.207 0 1.538-.06 1.837-.361.146-.144.246-.33.287-.532h2.166C25.815 13.226 24.748 14 22.388 14h-1.503c-1.396 0-2.259-.275-2.913-.923-.654-.648-.9-1.471-.9-2.915V7.599c0-1.44.246-2.273.9-2.931.654-.659 1.52-.92 2.913-.92h1.5c1.396 0 2.259.275 2.913.903.654.628.9 1.433.9 2.951l.003 2.226zM6.25 5.786H3.378v8.184H1.257V5.786H0V3.775h1.257c.024-1.496.251-2.221.897-2.852C2.801.293 3.671 0 5.064 0h2.073v2.003H5.57c-1.81 0-2.146.204-2.19 1.772h3.148l-.28 2.011zM8.28 13.97V3.775h3.74c2.713 0 3.761.992 3.808 3.394h-2.141a1.549 1.549 0 0 0-.37-1.03c-.293-.306-.684-.353-1.886-.353h-1.03v8.184h-2.12z"/></g><defs><clipPath id="clip0"><path fill="#fff" d="M0 0h99.273v14H0z"/></clipPath></defs></svg>