<svg xmlns="http://www.w3.org/2000/svg" fill="none" viewBox="0 0 1444 666"><path fill="url(#paint0_linear)" fill-opacity=".3" d="M137.5 267.076C66.7 263.877 19.5 300.57 2 338.563V666h1440V204.088c-56.83-63.321-96.5-161.97-271-157.97S1009 148.5 838 278c-141.128 106.878-328.438 139.013-482 98-80.5-21.5-130-104.925-218.5-108.924z"/><path fill="#fff" fill-opacity=".3" d="M27 272h131v394H27zM178 272h131v394H178zM329 366h131v300H329zM480 394h131v272H480zM631 324h131v342H631zM782 272h131v394H782zM933 136h131v530H933zM1084 46h131v620h-131zM1235 99h131v567h-131zM1386 136h56v530h-56z"/><path stroke="#53A1D8" stroke-width="3" d="M2 339.5c17.5-38 64.7-75.2 135.5-72 88.5 4 127.56 71.868 204.5 103 86.5 35 312.5 51.5 521.5-111 117-90.969 133-209 307.5-213s214.17 96.167 271 159.5"/><circle cx="1148" cy="46" r="29" fill="#53A1D8" fill-opacity=".2"/><circle cx="1148" cy="46" r="46" fill="#53A1D8" fill-opacity=".2"/><circle cx="1148" cy="46" r="8" fill="#53A1D8" stroke="#fff" stroke-width="6"/><circle cx="90" cy="272" r="29" fill="#53A1D8" fill-opacity=".2"/><circle cx="90" cy="272" r="46" fill="#53A1D8" fill-opacity=".2"/><circle cx="90" cy="272" r="8" fill="#53A1D8" stroke="#fff" stroke-width="6"/><defs><linearGradient id="paint0_linear" x1="722" x2="722" y1="46" y2="666" gradientUnits="userSpaceOnUse"><stop stop-color="#559BD0"/><stop offset="1" stop-color="#fff"/></linearGradient></defs></svg>