<svg xmlns="http://www.w3.org/2000/svg" fill="none" viewBox="0 0 12 10"><path fill="#53A1D8" fill-rule="evenodd" d="M10.46 2.95a1.074 1.074 0 0 0 0-1.414.848.848 0 0 0-1.282 0L4.69 6.486 2.766 4.363a.848.848 0 0 0-1.282 0 1.074 1.074 0 0 0 0 1.414l2.554 2.817.01.012c.355.39.929.39 1.283 0l5.13-5.657z" clip-rule="evenodd"/><path fill="#53A1D8" d="M10.46 2.95l.336.37-.336-.37zM9.178 1.536l.336.37-.336-.37zM4.69 6.486l-.336.37.336.37.336-.37-.336-.37zM1.484 4.363l.336.37-.336-.37zm2.554 4.231l.341-.364-.005-.006-.336.37zm1.293.012l-.336-.37.336.37zm4.794-6.701a.512.512 0 0 1 0 .673l.671.741c.54-.595.54-1.56 0-2.155l-.671.741zm-.611 0a.404.404 0 0 1 .61 0l.672-.74a1.293 1.293 0 0 0-1.954 0l.672.74zm-4.488 4.95l4.488-4.95-.672-.74-4.488 4.949.672.74zM2.43 4.734l1.924 2.122.672-.741-1.924-2.122-.672.741zm-.61 0a.404.404 0 0 1 .61 0l.672-.74a1.293 1.293 0 0 0-1.954 0l.672.74zm0 .674a.511.511 0 0 1 0-.674l-.672-.74c-.54.595-.54 1.56 0 2.154l.672-.74zm2.554 2.817L1.82 5.408l-.672.74 2.555 2.818.671-.741zm.01.011a.442.442 0 0 1-.005-.005l-.682.73.016.016.671-.74zm.611 0a.404.404 0 0 1-.61 0l-.672.741c.54.595 1.414.595 1.954 0l-.672-.74zm5.13-5.657l-5.13 5.657.672.741 5.13-5.657-.672-.74z"/></svg>