<svg xmlns="http://www.w3.org/2000/svg" fill="none" viewBox="0 0 15 15"><path fill="#18212C" d="M14.16 11.217c0 .179-.033.413-.1.702a3.921 3.921 0 0 1-.208.681c-.139.332-.543.683-1.213 1.054-.623.338-1.24.506-1.85.506-.179 0-.353-.011-.522-.034a4.187 4.187 0 0 1-.571-.124 8.093 8.093 0 0 1-.473-.145 37.834 37.834 0 0 1-.551-.204c-.266-.1-.428-.159-.488-.179a8.924 8.924 0 0 1-1.74-.825c-.848-.525-1.725-1.239-2.63-2.143-.904-.904-1.618-1.782-2.142-2.63a9.01 9.01 0 0 1-.826-1.74c-.02-.06-.08-.222-.179-.487C.567 5.383.5 5.2.463 5.097a7.729 7.729 0 0 1-.144-.473 4.181 4.181 0 0 1-.125-.571 3.883 3.883 0 0 1-.034-.521c0-.61.169-1.226.507-1.85.372-.67.723-1.075 1.055-1.213.165-.073.392-.143.681-.209.289-.066.521-.1.701-.1a.55.55 0 0 1 .209.03c.12.04.294.292.527.756.073.126.173.304.299.537.125.231.241.443.348.631.106.189.209.366.309.532l.174.248c.096.139.167.258.214.353.046.096.07.19.07.283 0 .133-.094.299-.282.497a4.799 4.799 0 0 1-.618.547 6.172 6.172 0 0 0-.617.528c-.188.185-.283.338-.283.457 0 .06.018.134.05.224.033.09.062.157.085.204.023.046.07.126.138.239l.115.188c.504.909 1.08 1.688 1.73 2.338.65.65 1.428 1.225 2.337 1.73.013.007.075.044.188.114s.193.116.239.138c.046.023.114.052.204.085.09.033.164.05.224.05.12 0 .272-.095.458-.283.185-.189.361-.394.527-.617.165-.222.348-.427.547-.617.198-.19.364-.283.497-.283.093 0 .187.023.283.07.096.045.214.117.353.214l.248.174c.166.1.343.203.532.309.188.106.4.221.631.348.232.126.412.226.537.299.465.231.716.407.756.527a.61.61 0 0 1 .027.207z"/></svg>