<svg xmlns="http://www.w3.org/2000/svg" fill="none" viewBox="0 0 20 20"><path fill="#6F6DD4" fill-rule="evenodd" d="M2.62 5.458L.896 7.184A.524.524 0 0 1 0 6.814V.523C0 .234.235 0 .524 0h6.29a.525.525 0 0 1 .37.895L5.458 2.62l4.5 4.5 4.5-4.5L12.732.895a.524.524 0 0 1 .37-.895h6.29c.29 0 .524.235.524.524v6.29a.525.525 0 0 1-.895.37l-1.725-1.726-4.5 4.5 4.5 4.5 1.726-1.726a.524.524 0 0 1 .894.37v6.29c0 .289-.235.524-.524.524h-6.29a.525.525 0 0 1-.37-.895l1.726-1.726-4.5-4.5-4.5 4.5 1.726 1.726a.524.524 0 0 1-.37.895H.523A.524.524 0 0 1 0 19.392v-6.29a.525.525 0 0 1 .895-.37l1.726 1.726 4.5-4.5-4.5-4.5zm2.928-4.41h-4.5v4.5L2.25 4.346a.524.524 0 0 1 .741 0l5.241 5.241a.523.523 0 0 1 0 .741l-5.24 5.241a.524.524 0 0 1-.742 0l-1.202-1.202v4.5h4.5l-1.202-1.201a.523.523 0 0 1 0-.742l5.242-5.24a.524.524 0 0 1 .74 0l5.242 5.24a.523.523 0 0 1 0 .742l-1.202 1.201h4.5v-4.5l-1.202 1.202a.524.524 0 0 1-.74 0l-5.242-5.24a.523.523 0 0 1 0-.742l5.241-5.24a.524.524 0 0 1 .741 0l1.202 1.201v-4.5h-4.5L15.57 2.25a.523.523 0 0 1 0 .741l-5.241 5.241a.523.523 0 0 1-.741 0l-5.242-5.24a.523.523 0 0 1 0-.742l1.202-1.202z" clip-rule="evenodd"/></svg>