<svg xmlns="http://www.w3.org/2000/svg" fill="none" viewBox="0 0 20 22"><path fill="#6F6DD4" fill-rule="evenodd" d="M8.376 20.136c.349.175.874.3 1.489.3.614 0 1.14-.125 1.488-.3.174-.087.281-.174.338-.242a.27.27 0 0 0 .045-.067c.004-.011.004-.016.004-.016h1.25c0 .71-.559 1.184-1.078 1.443-.556.278-1.28.432-2.047.432-.767 0-1.492-.154-2.048-.432-.519-.26-1.078-.733-1.078-1.443h1.25s0 .005.005.016a.267.267 0 0 0 .044.067c.057.068.164.155.338.242zM2.99 7.312a6.876 6.876 0 1 1 13.75 0v6.062l2.501 3.75v2.065H.49v-2.065l2.5-3.75V7.312zm6.875-5.625a5.626 5.626 0 0 0-5.626 5.625v6.44l-2.5 3.75v.437h16.252v-.436l-2.5-3.75v-6.44a5.626 5.626 0 0 0-5.626-5.626z" clip-rule="evenodd"/></svg>