<svg xmlns="http://www.w3.org/2000/svg" fill="none" viewBox="0 0 21 22"><path fill="#3DD9AB" fill-rule="evenodd" d="M6.472 13.794c-1.165-.973-1.848-2.284-1.856-3.585V8.816c0-1.758 1.346-3.151 2.606-3.676l.357.856c-.973.405-2.035 1.463-2.035 2.82v1.389c.01 1.474 1.122 2.926 2.827 3.684l-.377.848a6.75 6.75 0 0 1-.594-.3v2.075l2.784 2.784 3.248-3.248 1.625 1.624 2.505.557a3.248 3.248 0 0 1 2.377 2.143l.43 1.289-.881.294-.43-1.289a2.32 2.32 0 0 0-1.698-1.531l-2.388-.531L11.576 22l-1.392-1.392L8.792 22l-3.396-3.396-2.389.53a2.32 2.32 0 0 0-1.697 1.532l-.43 1.288-.88-.293.43-1.289a3.248 3.248 0 0 1 2.376-2.143l2.506-.557 1.16-1.16v-2.718zm3.056 6.158L6.936 17.36l-.736.736 2.592 2.592.736-.736zm1.312 0l.736.736 2.592-2.592-.736-.736-2.592 2.592zM3.224 6.96v-.794C3.224 3.216 6.164 0 9.952 0s6.728 3.216 6.728 6.166v.794h.464c.768 0 1.392.623 1.392 1.392v2.32c0 .769-.624 1.392-1.392 1.392h-.498c-.244 2.314-2.207 4.008-4.681 4.164-.188.547-.707.94-1.317.94h-.464a1.392 1.392 0 1 1 0-2.784h.464c.6 0 1.113.38 1.308.914 2.117-.156 3.788-1.669 3.788-3.724h.008V6.166c0-2.527-2.556-5.238-5.8-5.238-3.244 0-5.8 2.711-5.8 5.238v5.898H2.76a1.392 1.392 0 0 1-1.392-1.392v-2.32c0-.77.623-1.392 1.392-1.392h.464zm7.888 8.816a.464.464 0 0 1-.464.464h-.464a.464.464 0 1 1 0-.928h.464c.256 0 .464.208.464.464zm2.784-6.254C12.36 9.09 10.51 8.068 9.114 6.845 7.82 5.709 6.936 4.393 6.936 3.248h.928c0 .938.8 1.968 1.862 2.899 1.68 1.472 4.065 2.669 5.562 2.669v.928c-.147 0-.302-.01-.464-.03v.51c0 1.485-.614 3.082-2.066 4.05l-.514-.772c1.171-.782 1.652-2.079 1.652-3.278v-.702zm2.784-1.634v3.248h.464a.464.464 0 0 0 .464-.464v-2.32a.464.464 0 0 0-.464-.464h-.464zM3.224 11.136V7.888H2.76a.464.464 0 0 0-.464.464v2.32c0 .256.208.464.464.464h.464z" clip-rule="evenodd"/></svg>