<svg xmlns="http://www.w3.org/2000/svg" fill="none" viewBox="0 0 74 96"><path fill="#fff" stroke="#fff" stroke-width="2" d="M37 93.212l-.664.747.664.591.664-.59-.664-.748zm0 0l.665.747.002-.002.005-.004.02-.019.078-.07a102.034 102.034 0 0 0 1.42-1.313c.964-.907 2.34-2.232 3.99-3.902 3.299-3.34 7.7-8.064 12.103-13.602 4.4-5.536 8.82-11.904 12.142-18.532C70.744 49.895 73 42.955 73 36.29 73 16.78 56.863 1 37 1S1 16.78 1 36.29c0 6.664 2.256 13.606 5.575 20.225 3.322 6.628 7.741 12.996 12.142 18.532 4.403 5.538 8.804 10.263 12.103 13.602 1.65 1.67 3.026 2.995 3.99 3.903a102.034 102.034 0 0 0 1.42 1.313l.078.07.02.018.005.004.002.002.665-.747z"/><circle cx="37" cy="37.001" r="30.758" fill="#53A1D8"/><path fill="#fff" fill-rule="evenodd" d="M52.239 35.19l-8.033-6.233c-.86-.668-2.093-.038-2.093 1.069v12.466c0 1.107 1.234 1.736 2.093 1.069l8.033-6.233a1.367 1.367 0 0 0 0-2.138zm-12.537 9.379l-8.033-6.235c-.86-.667-2.093-.038-2.093 1.07V51.87c0 1.105 1.233 1.736 2.093 1.068l8.033-6.233c.16-.125.291-.287.381-.472a1.368 1.368 0 0 0-.381-1.666v.002zm.156-16.714l-8.032 6.233c-.86.668-2.094.039-2.094-1.069V20.555c0-1.108 1.234-1.737 2.094-1.07l8.032 6.233c.161.125.292.287.382.472a1.367 1.367 0 0 1-.382 1.665zm-.638 13.378a.738.738 0 0 1-.454-.16l-5.404-4.194a.768.768 0 0 1-.301-.62c0-.247.11-.472.301-.62l5.405-4.195a.739.739 0 0 1 .453-.16c.367 0 .763.3.763.781v8.388a.767.767 0 0 1-.763.78z" clip-rule="evenodd"/></svg>