<svg xmlns="http://www.w3.org/2000/svg" fill="none" viewBox="0 0 27 19"><path fill="#3DD9AB" fill-rule="evenodd" d="M1.636 15.489V2.399c0-.904.733-1.637 1.637-1.637h19.636c.903 0 1.637.733 1.637 1.636V15.49h1.636v.546a2.727 2.727 0 0 1-2.728 2.727H2.727A2.727 2.727 0 0 1 0 16.035v-.546h1.636zm23.362 1.091h-8.954l-.545.545h-4.816l-.545-.545H1.184c.225.636.83 1.09 1.543 1.09h20.727c.713 0 1.319-.455 1.544-1.09zm-1.544-1.091V2.399a.545.545 0 0 0-.545-.546H3.273a.545.545 0 0 0-.546.545V15.49h7.862l.546.546h3.912l.545-.546h7.862zm-7.636-8.727h2.727v6h1.091v1.09H5.454v-1.09h1.091v-2.728h2.728V8.399H12V4.034h3.818v2.728zm-1.09 6V5.125H13.09v7.637h1.636zm-5.455 0v-1.637H7.636v1.637h1.637zm2.727 0V9.489h-1.636v3.273H12zm3.818-4.91v4.91h1.636v-4.91h-1.636z" clip-rule="evenodd"/></svg>