<svg xmlns="http://www.w3.org/2000/svg" fill="none" viewBox="0 0 109 121"><path fill="#18212C" fill-rule="evenodd" d="M58.442 16.004H73.64l.06 8.177a35.353 35.353 0 0 1 9.497 4.047l6.406-5.182 11.537 11.815-5.389 6.218c1.73 2.923 3.106 5.883 3.978 9.32h8.314v18.315l-8.312-.042c-.867 3.505-2.24 7.098-4.004 10.154l5.379 6.907-11.546 11.82-6.406-5.882a35.4 35.4 0 0 1-9.453 4.021l-.06 9.394H58.442v-2.083H71.57l.057-8.95.797-.19a33.326 33.326 0 0 0 10.288-4.373l.675-.432 6.093 5.595 8.864-9.075-5.14-6.6.375-.615c1.947-3.192 3.45-7.15 4.312-10.966l.184-.817 7.883.04V52.482h-7.884l-.183-.812c-.85-3.764-2.336-6.92-4.312-10.16l-.397-.649 5.127-5.916-8.872-9.086-6.092 4.928-.633-.405a33.276 33.276 0 0 0-10.288-4.371l-.796-.189-.057-7.735H58.442v-2.083z" clip-rule="evenodd"/><path fill="#18212C" fill-rule="evenodd" d="M60.469 48.361h3.463c6.43 0 11.74 4.943 11.74 11.158 0 6.216-5.31 11.158-11.74 11.158H60.47v-2.083h3.463c5.39 0 9.658-4.118 9.658-9.075 0-4.956-4.267-9.074-9.658-9.074H60.47V48.36z" clip-rule="evenodd"/><path fill="#18212C" fill-rule="evenodd" d="M87.746 59.517c0-12.61-10.222-22.833-22.832-22.833v-2.083c13.76 0 24.916 11.155 24.916 24.916 0 13.76-11.155 24.915-24.916 24.915V82.35c12.61 0 22.832-10.222 22.832-22.832zM57.4 112.125V8.94h2.084v103.185h-2.083zM59.484.835v4.046h-2.083V.835h2.083zM59.484 116.13v4.046h-2.083v-4.046h2.083z" clip-rule="evenodd"/><path fill="#53A1D8" fill-rule="evenodd" d="M31.588 18.231c2.91-1.61 6.43-2.475 9.785-2.257 4.067.265 7.282 1.878 9.468 3.408a19.936 19.936 0 0 1 2.512 2.08 15.11 15.11 0 0 1 .833.884l.048.058.014.017.005.005s.003.004-.809.657l.812-.653.23.286v75.606l-.243.29-.799-.67.799.67-.004.005-.006.006-.016.02-.057.064a13.36 13.36 0 0 1-.986.96c-.687.605-1.712 1.401-3.084 2.193-2.75 1.589-6.885 3.156-12.475 3.156-7.135 0-13.163-4.675-15.643-10.32-8.427-.08-15.865-7.153-16.952-16.054a17.338 17.338 0 0 1 .274-5.866C2.6 69.1.958 64.27.958 59.08c0-8.094 4.021-14.939 9.947-17.516a16.026 16.026 0 0 1-.053-1.276c0-8.805 6.459-15.706 14.745-15.821 1.09-2.621 3.332-4.767 5.991-6.237zm20.815 79.303v-74.06a13.376 13.376 0 0 0-.509-.525 17.873 17.873 0 0 0-2.248-1.86c-1.972-1.38-4.826-2.803-8.409-3.036-2.927-.19-6.053.57-8.64 2.001-2.598 1.437-4.544 3.484-5.287 5.783l-.241.75-.787-.029c-7.357-.264-13.347 5.723-13.347 13.73 0 .608.047 1.215.119 1.833l.095.818-.774.281c-5.315 1.934-9.333 8.068-9.333 15.86 0 4.935 1.621 9.478 4.203 12.825l.31.401-.125.492a15.196 15.196 0 0 0-.342 5.591c1.003 8.21 8.019 14.506 15.537 14.216l.745-.03.268.697c2.003 5.217 7.503 9.66 13.977 9.66 5.182 0 8.961-1.448 11.433-2.876a17.172 17.172 0 0 0 2.75-1.953c.263-.231.464-.426.605-.57z" clip-rule="evenodd"/><path fill="#53A1D8" fill-rule="evenodd" d="M27.306 25.785a10.824 10.824 0 0 0-.522 3.346c0 6.547 5.713 12.353 12.875 12.82l-.136 2.078C31.39 43.5 24.7 36.896 24.7 29.131c0-1.396.218-2.735.624-3.988l1.982.642zM43.191 53.696c-2.747.269-5.547 1.699-7.68 3.923-3.784 3.944-9.35 6.095-14.279 3.02l1.103-1.768c3.735 2.33 8.228.896 11.672-2.694 2.435-2.538 5.68-4.231 8.98-4.555 3.331-.326 6.7.75 9.226 3.712a15.195 15.195 0 0 1 2.17 3.36l-1.883.892a13.114 13.114 0 0 0-1.873-2.9c-2.043-2.396-4.72-3.257-7.436-2.99zM40.574 26.425c1.914 5.21 7.007 8.686 12.548 7.894l.294 2.062c-6.634.949-12.588-3.224-14.798-9.238l1.956-.718zM38.624 90.38c2.25-5.829 8.302-9.222 14.92-7.416l-.55 2.01c-5.558-1.517-10.551 1.297-12.426 6.155l-1.944-.75zM21.274 77.219c1.168 1.07 2.76 1.91 4.375 2.394l-.598 1.996c-1.861-.558-3.746-1.536-5.184-2.854-1.438-1.317-2.51-3.054-2.51-5.1h2.083c0 1.273.665 2.493 1.834 3.564z" clip-rule="evenodd"/><path fill="#53A1D8" fill-rule="evenodd" d="M40.7 69.697c-1.369.91-2.403 2.373-2.403 4.643v.063c-.01.667-.225 1.336-.68 1.853-.48.546-1.168.856-1.955.86m.552-2.763v-.282l.004-.004c.083-2.886 1.493-4.884 3.328-6.105 1.845-1.228 4.102-1.667 5.87-1.55l-.136 2.078c-1.375-.09-3.165.264-4.58 1.207m-4.486 4.656c0 .265-.082.437-.161.527zm-.161.527c-.067.076-.178.151-.4.152zm-.39 2.235c-7.395.039-12.837 5.42-12.837 11.928 0 2.232.656 4.387 1.827 6.316l-1.78 1.081c-1.35-2.223-2.13-4.75-2.13-7.397 0-7.773 6.49-13.968 14.91-14.01M19.759 59.411c0-2.97-2.613-5.673-5.952-5.89l.136-2.079c4.309.28 7.9 3.78 7.9 7.97 0 4.252-3.687 7.349-8.036 7.066l.136-2.079c3.299.215 5.816-2.086 5.816-4.988zM31.235 40.785c-3.987-.26-7.059 2.527-7.059 6.072h-2.083c0-4.895 4.24-8.478 9.277-8.15l-.135 2.078z" clip-rule="evenodd"/></svg>