<svg width="22" height="15" viewBox="0 0 22 15" fill="none" xmlns="http://www.w3.org/2000/svg">
<path fill-rule="evenodd" clip-rule="evenodd" d="M21.875 1.81545V12.9979C21.875 13.7706 21.2476 14.3979 20.475 14.3979H1.4C0.627375 14.3979 0 13.7706 0 12.9979V2.08757L8.79025 10.8778C9.01862 11.1036 9.28112 11.2926 9.57162 11.4317C10.3416 11.801 11.2612 11.801 12.0312 11.4317C12.3217 11.2926 12.5842 11.1036 12.8126 10.8778L21.875 1.81545ZM20.475 0.397949C20.5502 0.397949 20.6246 0.404074 20.6972 0.415449L11.5237 9.58895C11.4441 9.66682 11.3549 9.73245 11.2542 9.78232C10.9795 9.91795 10.6496 9.92232 10.3714 9.79282C10.262 9.74207 10.1649 9.67207 10.0791 9.58895L0.959 0.468824C1.09812 0.422449 1.246 0.397949 1.4 0.397949H20.475Z" fill="#3C4147"/>
</svg>
