<svg xmlns="http://www.w3.org/2000/svg" fill="none" viewBox="0 0 44 52"><path fill="#18212C" fill-rule="evenodd" d="M21.828.375c.203 0 .394.099.511.265.199.282.563.64 1.101 1.06.53.412 1.2.86 1.976 1.326 1.553.932 3.508 1.918 5.585 2.819 2.077.9 4.265 1.71 6.283 2.295 2.028.587 3.844.933 5.19.933.346 0 .626.28.626.625v21.746c0 2.204-1.348 4.54-3.215 6.742-1.887 2.226-4.4 4.426-6.928 6.372a86.976 86.976 0 0 1-7.1 4.897 61.276 61.276 0 0 1-2.521 1.487c-.326.18-.604.327-.82.434-.197.098-.396.19-.538.228a.625.625 0 0 1-.323 0 3.65 3.65 0 0 1-.526-.214 21.348 21.348 0 0 1-.82-.414 54.639 54.639 0 0 1-2.525-1.429 72.074 72.074 0 0 1-7.11-4.848c-2.533-1.971-5.051-4.256-6.942-6.678C1.849 35.608.533 32.987.533 30.356V9.698c0-.345.28-.625.625-.625 1.224 0 2.979-.345 4.991-.933 2-.584 4.207-1.395 6.318-2.296 2.112-.902 4.115-1.889 5.708-2.821a20.616 20.616 0 0 0 2.026-1.328c.55-.42.92-.777 1.116-1.055a.625.625 0 0 1 .511-.265zm-.002 1.576c-.25.245-.544.492-.869.739a21.85 21.85 0 0 1-2.15 1.411c-1.65.966-3.702 1.976-5.849 2.892C10.81 7.91 8.556 8.74 6.5 9.34c-1.754.513-3.397.87-4.717.96v20.056c0 2.225 1.123 4.575 2.934 6.895 1.804 2.311 4.235 4.523 6.724 6.461a70.83 70.83 0 0 0 6.984 4.763c.987.59 1.834 1.063 2.466 1.395a20.275 20.275 0 0 0 .92.458 20.436 20.436 0 0 0 .92-.48 60.08 60.08 0 0 0 2.469-1.456 85.714 85.714 0 0 0 6.995-4.824c2.494-1.92 4.93-4.059 6.736-6.19 1.827-2.156 2.919-4.197 2.919-5.934v-21.14c-1.415-.086-3.12-.444-4.914-.964-2.077-.6-4.316-1.43-6.432-2.348-2.116-.917-4.121-1.928-5.731-2.894a21.435 21.435 0 0 1-2.1-1.412 9.325 9.325 0 0 1-.847-.735z" clip-rule="evenodd"/><path fill="#18212C" fill-rule="evenodd" d="M38.125 29.731c.346 0 .625.28.625.625 0 1.778-1.093 3.634-2.572 5.355-1.498 1.745-3.491 3.463-5.49 4.978a68.471 68.471 0 0 1-5.616 3.81c-.793.483-1.478.877-1.996 1.158-.26.141-.48.256-.654.34-.152.075-.32.152-.446.185a.625.625 0 1 1-.32-1.208c-.003 0-.001 0 .008-.004.022-.009.087-.036.21-.096.152-.074.356-.18.605-.315.497-.27 1.164-.653 1.943-1.127a67.245 67.245 0 0 0 5.511-3.74c1.965-1.49 3.88-3.146 5.297-4.796 1.438-1.674 2.27-3.233 2.27-4.54 0-.345.28-.625.625-.625zM22.178 5.925c.282.2.348.59.148.871-.256.36-.657.718-1.125 1.062-.476.352-1.059.716-1.713 1.082-1.308.733-2.933 1.49-4.63 2.173a47.907 47.907 0 0 1-5.109 1.742c-1.331.364-2.587.623-3.617.702v15.71a.625.625 0 0 1-1.25 0v-16.31c0-.344.28-.624.625-.624.953 0 2.328-.25 3.913-.684a46.666 46.666 0 0 0 4.971-1.696c1.662-.669 3.237-1.403 4.487-2.103.625-.35 1.16-.687 1.582-.998.43-.317.706-.581.847-.78.2-.281.59-.347.871-.147z" clip-rule="evenodd"/><path fill="#53A1D8" fill-rule="evenodd" d="M30.073 16.867a.625.625 0 0 1 .883 0l3.262 3.262a.625.625 0 0 1 0 .884L20.084 35.147a.625.625 0 0 1-.884 0l-7.611-7.61a.625.625 0 0 1 0-.884l3.262-3.262a.625.625 0 0 1 .883 0l3.908 3.907 10.43-10.43zm.441 1.326l-10.43 10.43a.625.625 0 0 1-.884 0l-3.907-3.906-2.378 2.378 6.727 6.727 13.25-13.251-2.378-2.378z" clip-rule="evenodd"/></svg>