<svg xmlns="http://www.w3.org/2000/svg" fill="none" viewBox="0 0 161 135"><mask id="a" fill="#fff"><path d="M37.222 106.35a7.693 7.693 0 0 1-5.485 2.275 7.693 7.693 0 0 1-5.484-2.275 7.684 7.684 0 0 1-2.237-4.914l3.308-1.075V96.66c.83.465 1.783.722 2.765.732h3.261a5.773 5.773 0 0 0 2.801-.763v3.732l3.308 1.075a7.685 7.685 0 0 1-2.237 4.914zm3.366-28.23a2.777 2.777 0 0 1-2.773 2.774 2.776 2.776 0 0 1-2.773-2.773c0-.306.248-.555.554-.555h4.992v.555zm-7.193-1.666h-3.361a2.76 2.76 0 0 0-2.202-1.106H22.84V68.07c0-.612.498-1.11 1.11-1.11h7.876a5.54 5.54 0 0 0 2.787 3.764l1.54.838c.051 1.537.808 2.888 1.94 3.785h-2.497c-.9 0-1.694.438-2.201 1.106zm-7.782 4.44a2.776 2.776 0 0 1-2.773-2.773v-.555h4.992c.306 0 .554.249.554.555a2.777 2.777 0 0 1-2.773 2.773zm6.101-28.84c2.124 0 3.998 1.2 4.927 3.022a17.91 17.91 0 0 0-4.927-.7c-1.708 0-3.356.255-4.922.708.932-1.812 2.809-3.03 4.922-3.03zm23.364 52.128L38.37 98.75v-3.89c1.393-1.268 2.961-2.918 4.237-4.858.767-1.167 1.448-2.554 2.028-4.13l2.118-1.223a3.614 3.614 0 0 0 1.704-2.304l.525-2.27.029-.25a3.073 3.073 0 0 0-3.069-3.07h-.674c-.661-.002-1.263-.673-1.263-1.407v-1.11H41.21c-1.557 0-2.831-1.267-2.84-2.868v-1.128l-2.698-1.465a3.326 3.326 0 0 1-1.74-2.924v-1.11H23.95a3.331 3.331 0 0 0-3.327 3.328V85.22a5.556 5.556 0 0 1-4.437-5.434v-7.662c0-8.563 6.966-15.53 15.607-15.53 8.563 0 15.53 6.967 15.53 15.53v4.443h2.218v-4.443c0-7.094-4.193-13.211-10.252-16.05v-.06l-.031-.265a7.744 7.744 0 0 0-7.543-5.913c-3.673 0-6.872 2.608-7.607 6.2l.11.023c-6.045 2.833-10.25 8.96-10.25 16.065v7.662c0 4.282 3.482 7.765 7.764 7.765h1.11v-5.283a4.963 4.963 0 0 0 2.772.846c2.564 0 4.658-1.95 4.936-4.44h2.33c.278 2.49 2.373 4.44 4.936 4.44a4.998 4.998 0 0 0 4.992-4.992v-.24c.634.67 1.51 1.09 2.458 1.092h.675c.436 0 .797.328.847.75l-.49 2.123c-.087.37-.325.69-.654.882l-2.825 1.631-.136.388c-.55 1.568-1.199 2.926-1.93 4.036-1.69 2.571-4.027 4.633-5.27 5.634a3.5 3.5 0 0 1-2.143.757h-3.238a3.508 3.508 0 0 1-2.154-.757c-1.243-1-3.582-3.063-5.271-5.634l-1.855 1.22c1.29 1.96 2.879 3.626 4.284 4.899v3.848L8.34 104.2c-4.811 1.862-7.684 5.795-7.684 10.52v6.106h2.219v-6.106c0-3.773 2.342-6.932 6.208-8.431l12.777-4.153a9.872 9.872 0 0 0 2.825 5.781 9.9 9.9 0 0 0 7.053 2.926 9.902 9.902 0 0 0 7.055-2.926 9.88 9.88 0 0 0 2.823-5.781l12.719 4.132c3.925 1.52 3.605-.646 3.605 3.127l.847-.771h1.331l.928-.707c0-3.42-.888-1.568-5.967-3.736z"/></mask><path fill="#18212C" stroke="#fff" stroke-width=".1" d="M37.222 106.35a7.693 7.693 0 0 1-5.485 2.275 7.693 7.693 0 0 1-5.484-2.275 7.684 7.684 0 0 1-2.237-4.914l3.308-1.075V96.66c.83.465 1.783.722 2.765.732h3.261a5.773 5.773 0 0 0 2.801-.763v3.732l3.308 1.075a7.685 7.685 0 0 1-2.237 4.914zm3.366-28.23a2.777 2.777 0 0 1-2.773 2.774 2.776 2.776 0 0 1-2.773-2.773c0-.306.248-.555.554-.555h4.992v.555zm-7.193-1.666h-3.361a2.76 2.76 0 0 0-2.202-1.106H22.84V68.07c0-.612.498-1.11 1.11-1.11h7.876a5.54 5.54 0 0 0 2.787 3.764l1.54.838c.051 1.537.808 2.888 1.94 3.785h-2.497c-.9 0-1.694.438-2.201 1.106zm-7.782 4.44a2.776 2.776 0 0 1-2.773-2.773v-.555h4.992c.306 0 .554.249.554.555a2.777 2.777 0 0 1-2.773 2.773zm6.101-28.84c2.124 0 3.998 1.2 4.927 3.022a17.91 17.91 0 0 0-4.927-.7c-1.708 0-3.356.255-4.922.708.932-1.812 2.809-3.03 4.922-3.03zm23.364 52.128L38.37 98.75v-3.89c1.393-1.268 2.961-2.918 4.237-4.858.767-1.167 1.448-2.554 2.028-4.13l2.118-1.223a3.614 3.614 0 0 0 1.704-2.304l.525-2.27.029-.25a3.073 3.073 0 0 0-3.069-3.07h-.674c-.661-.002-1.263-.673-1.263-1.407v-1.11H41.21c-1.557 0-2.831-1.267-2.84-2.868v-1.128l-2.698-1.465a3.326 3.326 0 0 1-1.74-2.924v-1.11H23.95a3.331 3.331 0 0 0-3.327 3.328V85.22a5.556 5.556 0 0 1-4.437-5.434v-7.662c0-8.563 6.966-15.53 15.607-15.53 8.563 0 15.53 6.967 15.53 15.53v4.443h2.218v-4.443c0-7.094-4.193-13.211-10.252-16.05v-.06l-.031-.265a7.744 7.744 0 0 0-7.543-5.913c-3.673 0-6.872 2.608-7.607 6.2l.11.023c-6.045 2.833-10.25 8.96-10.25 16.065v7.662c0 4.282 3.482 7.765 7.764 7.765h1.11v-5.283a4.963 4.963 0 0 0 2.772.846c2.564 0 4.658-1.95 4.936-4.44h2.33c.278 2.49 2.373 4.44 4.936 4.44a4.998 4.998 0 0 0 4.992-4.992v-.24c.634.67 1.51 1.09 2.458 1.092h.675c.436 0 .797.328.847.75l-.49 2.123c-.087.37-.325.69-.654.882l-2.825 1.631-.136.388c-.55 1.568-1.199 2.926-1.93 4.036-1.69 2.571-4.027 4.633-5.27 5.634a3.5 3.5 0 0 1-2.143.757h-3.238a3.508 3.508 0 0 1-2.154-.757c-1.243-1-3.582-3.063-5.271-5.634l-1.855 1.22c1.29 1.96 2.879 3.626 4.284 4.899v3.848L8.34 104.2c-4.811 1.862-7.684 5.795-7.684 10.52v6.106h2.219v-6.106c0-3.773 2.342-6.932 6.208-8.431l12.777-4.153a9.872 9.872 0 0 0 2.825 5.781 9.9 9.9 0 0 0 7.053 2.926 9.902 9.902 0 0 0 7.055-2.926 9.88 9.88 0 0 0 2.823-5.781l12.719 4.132c3.925 1.52 3.605-.646 3.605 3.127l.847-.771h1.331l.928-.707c0-3.42-.888-1.568-5.967-3.736z" mask="url(#a)"/><path fill="#18212C" stroke="#fff" stroke-width=".05" d="M9.657 120.731v-4.205h2.01v4.205h-2.01z"/><mask id="b" fill="#fff"><path d="M135.95 95.456v-3.904c1.398-1.272 2.972-2.927 4.252-4.874.769-1.17 1.453-2.562 2.036-4.145l2.125-1.226a3.616 3.616 0 0 0 1.71-2.311l.526-2.28.029-.25c0-.393-.081-.765-.215-1.111.103.045.191.093.307.134.116.04.239.06.361.06 1.228 0 2.226.998 2.226 2.226a2.22 2.22 0 0 1-1.67 2.144 1.113 1.113 0 0 0 0 2.154 2.22 2.22 0 0 1 1.67 2.144c0 .995-.678 1.874-1.648 2.136a1.116 1.116 0 0 0-.743 1.49c.206.512.219 1.037.038 1.562a2.234 2.234 0 0 1-1.325 1.345 2.106 2.106 0 0 1-1.748-.093 1.114 1.114 0 0 0-1.49 1.491 2.13 2.13 0 0 1 .158 1.548c-.231.825-.934 1.475-1.751 1.618a1.111 1.111 0 0 0-.905 1.286c.009.057.039.103.056.156l-3.999-1.3zm-1.152 7.627a7.723 7.723 0 0 1-5.503 2.283 7.73 7.73 0 0 1-5.503-2.282 7.72 7.72 0 0 1-2.245-4.932l3.319-1.079V93.36c.834.466 1.79.725 2.776.735h3.273a5.79 5.79 0 0 0 2.809-.765v3.744l3.319 1.079a7.707 7.707 0 0 1-2.245 4.931zm-17.052-7.77c-.817-.142-1.52-.792-1.75-1.617a2.125 2.125 0 0 1 .157-1.548 1.112 1.112 0 0 0-1.49-1.49 2.106 2.106 0 0 1-1.748.092 2.233 2.233 0 0 1-1.325-1.346 2.173 2.173 0 0 1 .038-1.561 1.116 1.116 0 0 0-.743-1.49 2.224 2.224 0 0 1-1.648-2.136 2.22 2.22 0 0 1 1.67-2.144 1.113 1.113 0 0 0 0-2.154 2.22 2.22 0 0 1-1.67-2.144c0-1.228.998-2.226 2.226-2.226.172 0 .343-.04.497-.118a2.2 2.2 0 0 0 .178-.1 3.06 3.06 0 0 0-.222 1.135l.555 2.529a3.62 3.62 0 0 0 1.711 2.312l2.125 1.226c.582 1.583 1.267 2.975 2.035 4.145 1.294 1.968 2.889 3.64 4.298 4.918v3.86l-4.056 1.319c.021-.059.057-.11.068-.175.105-.605-.3-1.18-.906-1.286zm15.306-4.205a3.505 3.505 0 0 1-2.149.76h-3.249a3.514 3.514 0 0 1-2.162-.76c-1.248-1.004-3.594-3.073-5.289-5.652-.733-1.114-1.384-2.476-1.937-4.051l-.136-.389-2.835-1.637a1.381 1.381 0 0 1-.654-.885l-.492-2.13a.854.854 0 0 1 .848-.752h.706a3.502 3.502 0 0 0 3.488-3.496v-.15c.022.002.042.008.063.008 1.336 0 2.523-.604 3.34-1.539.817.935 2.003 1.538 3.339 1.538 1.335 0 2.522-.603 3.339-1.538.817.935 2.004 1.538 3.339 1.538 1.336 0 2.522-.603 3.339-1.538.817.935 2.004 1.538 3.34 1.538.03 0 .059-.007.089-.008v.15a3.5 3.5 0 0 0 3.49 3.496l.678.001c.438 0 .798.33.849.753l-.492 2.129a1.386 1.386 0 0 1-.655.885l-2.835 1.637-.136.389c-.552 1.573-1.203 2.936-1.936 4.051-1.696 2.58-4.042 4.648-5.29 5.652zm-19.918-24.546a2.22 2.22 0 0 1-1.671-2.144c0-.995.678-1.873 1.648-2.136a1.12 1.12 0 0 0 .706-.578 1.12 1.12 0 0 0 .037-.911 2.179 2.179 0 0 1-.038-1.562 2.237 2.237 0 0 1 1.324-1.346 2.108 2.108 0 0 1 1.749.093 1.112 1.112 0 0 0 1.49-1.49 2.12 2.12 0 0 1-.156-1.549c.229-.825.932-1.475 1.749-1.617a2.196 2.196 0 0 1 1.892.558 1.114 1.114 0 0 0 1.863-.744 2.225 2.225 0 0 1 2.206-2.075c1.227 0 2.226.998 2.226 2.226a1.114 1.114 0 0 0 2.226 0c0-1.227.998-2.226 2.226-2.226 1.158 0 2.126.912 2.206 2.075a1.113 1.113 0 0 0 1.862.744c.304-.279.953-.72 1.893-.558.817.142 1.52.792 1.751 1.617.144.521.091 1.042-.159 1.548a1.115 1.115 0 0 0 1.491 1.49 2.104 2.104 0 0 1 1.747-.092c.619.23 1.115.734 1.326 1.346.18.524.168 1.05-.038 1.562a1.115 1.115 0 0 0 .743 1.49 2.224 2.224 0 0 1 1.648 2.135 2.22 2.22 0 0 1-1.671 2.144 1.113 1.113 0 0 0 0 2.155 2.22 2.22 0 0 1 1.671 2.144c0 .819-.448 1.569-1.17 1.96-.42.228-.665.628-.685 1.068a3.052 3.052 0 0 0-1.677-.503l-.676-.001a1.272 1.272 0 0 1-1.268-1.27v-.81c1.277-.783 2.137-2.18 2.137-3.784a1.114 1.114 0 0 0-2.226 0c0 .408-.118.785-.31 1.113a2.24 2.24 0 0 1-1.916 1.113 2.229 2.229 0 0 1-2.227-2.226 1.113 1.113 0 1 0-2.226 0 2.228 2.228 0 0 1-2.226 2.226 2.228 2.228 0 0 1-2.226-2.226 1.114 1.114 0 0 0-2.226 0 2.229 2.229 0 0 1-2.226 2.226 2.228 2.228 0 0 1-2.226-2.226 1.114 1.114 0 0 0-2.227 0 2.228 2.228 0 0 1-2.226 2.226c-.419 0-.809-.123-1.144-.327a2.216 2.216 0 0 1-.772-.786 2.197 2.197 0 0 1-.31-1.113 1.113 1.113 0 1 0-2.226 0c0 1.615.873 3.019 2.163 3.8v.795c0 .699-.569 1.269-1.265 1.27h-.703c-.726 0-1.385.263-1.912.683.004-.032.015-.062.017-.096.033-.5-.207-.962-.657-1.266a2.225 2.225 0 0 1-.982-1.846 2.22 2.22 0 0 1 1.671-2.144 1.113 1.113 0 0 0 0-2.155zm39.583 34.344l-10.927-3.552a4.498 4.498 0 0 0 3.064-4.232 4.482 4.482 0 0 0 4.205-2.992 4.418 4.418 0 0 0 .208-2.048 4.427 4.427 0 0 0 .876-7.086 4.427 4.427 0 0 0 1.39-3.221 4.46 4.46 0 0 0-3.113-4.247 4.446 4.446 0 0 0 .887-2.668c0-1.25-.524-2.403-1.39-3.22a4.427 4.427 0 0 0 1.39-3.222c0-1.623-.892-3.09-2.266-3.865a4.445 4.445 0 0 0-.208-2.048 4.482 4.482 0 0 0-4.205-2.992c0-.391-.054-.783-.162-1.172-.463-1.66-1.842-2.922-3.513-3.212a4.418 4.418 0 0 0-2.348.224 4.453 4.453 0 0 0-3.994-2.518 4.443 4.443 0 0 0-3.339 1.51 4.443 4.443 0 0 0-3.339-1.51 4.451 4.451 0 0 0-3.994 2.518 4.42 4.42 0 0 0-2.349-.224c-1.67.29-3.049 1.552-3.512 3.212-.108.389-.162.78-.162 1.172a4.482 4.482 0 0 0-4.205 2.992 4.445 4.445 0 0 0-.208 2.048 4.447 4.447 0 0 0-2.266 3.865c0 1.25.524 2.403 1.39 3.221a4.427 4.427 0 0 0-1.39 3.222c0 .976.318 1.907.887 2.667a4.46 4.46 0 0 0-3.113 4.247c0 1.25.524 2.403 1.39 3.221a4.427 4.427 0 0 0 .876 7.086 4.418 4.418 0 0 0 .208 2.048 4.483 4.483 0 0 0 4.205 2.992c0 .392.054.784.161 1.172a4.495 4.495 0 0 0 2.931 3.066l-10.966 3.566c-4.827 1.87-7.266 2.934-6.823 6.118.444 3.184 0 .888.888 1.254 2.686 1.108 1.339.888 1.339.888v-1.254c0-3.786 1.463-3.406 5.342-4.909l12.821-4.168a9.916 9.916 0 0 0 2.834 5.802 9.936 9.936 0 0 0 7.078 2.935 9.937 9.937 0 0 0 7.079-2.936 9.915 9.915 0 0 0 2.833-5.8l12.764 4.147c3.937 1.523 6.288 4.693 6.288 8.479v8.354h2.226v-8.354c0-4.741-2.883-8.686-7.768-10.576z"/></mask><path fill="#18212C" stroke="#fff" stroke-width=".1" d="M135.95 95.456v-3.904c1.398-1.272 2.972-2.927 4.252-4.874.769-1.17 1.453-2.562 2.036-4.145l2.125-1.226a3.616 3.616 0 0 0 1.71-2.311l.526-2.28.029-.25c0-.393-.081-.765-.215-1.111.103.045.191.093.307.134.116.04.239.06.361.06 1.228 0 2.226.998 2.226 2.226a2.22 2.22 0 0 1-1.67 2.144 1.113 1.113 0 0 0 0 2.154 2.22 2.22 0 0 1 1.67 2.144c0 .995-.678 1.874-1.648 2.136a1.116 1.116 0 0 0-.743 1.49c.206.512.219 1.037.038 1.562a2.234 2.234 0 0 1-1.325 1.345 2.106 2.106 0 0 1-1.748-.093 1.114 1.114 0 0 0-1.49 1.491 2.13 2.13 0 0 1 .158 1.548c-.231.825-.934 1.475-1.751 1.618a1.111 1.111 0 0 0-.905 1.286c.009.057.039.103.056.156l-3.999-1.3zm-1.152 7.627a7.723 7.723 0 0 1-5.503 2.283 7.73 7.73 0 0 1-5.503-2.282 7.72 7.72 0 0 1-2.245-4.932l3.319-1.079V93.36c.834.466 1.79.725 2.776.735h3.273a5.79 5.79 0 0 0 2.809-.765v3.744l3.319 1.079a7.707 7.707 0 0 1-2.245 4.931zm-17.052-7.77c-.817-.142-1.52-.792-1.75-1.617a2.125 2.125 0 0 1 .157-1.548 1.112 1.112 0 0 0-1.49-1.49 2.106 2.106 0 0 1-1.748.092 2.233 2.233 0 0 1-1.325-1.346 2.173 2.173 0 0 1 .038-1.561 1.116 1.116 0 0 0-.743-1.49 2.224 2.224 0 0 1-1.648-2.136 2.22 2.22 0 0 1 1.67-2.144 1.113 1.113 0 0 0 0-2.154 2.22 2.22 0 0 1-1.67-2.144c0-1.228.998-2.226 2.226-2.226.172 0 .343-.04.497-.118a2.2 2.2 0 0 0 .178-.1 3.06 3.06 0 0 0-.222 1.135l.555 2.529a3.62 3.62 0 0 0 1.711 2.312l2.125 1.226c.582 1.583 1.267 2.975 2.035 4.145 1.294 1.968 2.889 3.64 4.298 4.918v3.86l-4.056 1.319c.021-.059.057-.11.068-.175.105-.605-.3-1.18-.906-1.286zm15.306-4.205a3.505 3.505 0 0 1-2.149.76h-3.249a3.514 3.514 0 0 1-2.162-.76c-1.248-1.004-3.594-3.073-5.289-5.652-.733-1.114-1.384-2.476-1.937-4.051l-.136-.389-2.835-1.637a1.381 1.381 0 0 1-.654-.885l-.492-2.13a.854.854 0 0 1 .848-.752h.706a3.502 3.502 0 0 0 3.488-3.496v-.15c.022.002.042.008.063.008 1.336 0 2.523-.604 3.34-1.539.817.935 2.003 1.538 3.339 1.538 1.335 0 2.522-.603 3.339-1.538.817.935 2.004 1.538 3.339 1.538 1.336 0 2.522-.603 3.339-1.538.817.935 2.004 1.538 3.34 1.538.03 0 .059-.007.089-.008v.15a3.5 3.5 0 0 0 3.49 3.496l.678.001c.438 0 .798.33.849.753l-.492 2.129a1.386 1.386 0 0 1-.655.885l-2.835 1.637-.136.389c-.552 1.573-1.203 2.936-1.936 4.051-1.696 2.58-4.042 4.648-5.29 5.652zm-19.918-24.546a2.22 2.22 0 0 1-1.671-2.144c0-.995.678-1.873 1.648-2.136a1.12 1.12 0 0 0 .706-.578 1.12 1.12 0 0 0 .037-.911 2.179 2.179 0 0 1-.038-1.562 2.237 2.237 0 0 1 1.324-1.346 2.108 2.108 0 0 1 1.749.093 1.112 1.112 0 0 0 1.49-1.49 2.12 2.12 0 0 1-.156-1.549c.229-.825.932-1.475 1.749-1.617a2.196 2.196 0 0 1 1.892.558 1.114 1.114 0 0 0 1.863-.744 2.225 2.225 0 0 1 2.206-2.075c1.227 0 2.226.998 2.226 2.226a1.114 1.114 0 0 0 2.226 0c0-1.227.998-2.226 2.226-2.226 1.158 0 2.126.912 2.206 2.075a1.113 1.113 0 0 0 1.862.744c.304-.279.953-.72 1.893-.558.817.142 1.52.792 1.751 1.617.144.521.091 1.042-.159 1.548a1.115 1.115 0 0 0 1.491 1.49 2.104 2.104 0 0 1 1.747-.092c.619.23 1.115.734 1.326 1.346.18.524.168 1.05-.038 1.562a1.115 1.115 0 0 0 .743 1.49 2.224 2.224 0 0 1 1.648 2.135 2.22 2.22 0 0 1-1.671 2.144 1.113 1.113 0 0 0 0 2.155 2.22 2.22 0 0 1 1.671 2.144c0 .819-.448 1.569-1.17 1.96-.42.228-.665.628-.685 1.068a3.052 3.052 0 0 0-1.677-.503l-.676-.001a1.272 1.272 0 0 1-1.268-1.27v-.81c1.277-.783 2.137-2.18 2.137-3.784a1.114 1.114 0 0 0-2.226 0c0 .408-.118.785-.31 1.113a2.24 2.24 0 0 1-1.916 1.113 2.229 2.229 0 0 1-2.227-2.226 1.113 1.113 0 1 0-2.226 0 2.228 2.228 0 0 1-2.226 2.226 2.228 2.228 0 0 1-2.226-2.226 1.114 1.114 0 0 0-2.226 0 2.229 2.229 0 0 1-2.226 2.226 2.228 2.228 0 0 1-2.226-2.226 1.114 1.114 0 0 0-2.227 0 2.228 2.228 0 0 1-2.226 2.226c-.419 0-.809-.123-1.144-.327a2.216 2.216 0 0 1-.772-.786 2.197 2.197 0 0 1-.31-1.113 1.113 1.113 0 1 0-2.226 0c0 1.615.873 3.019 2.163 3.8v.795c0 .699-.569 1.269-1.265 1.27h-.703c-.726 0-1.385.263-1.912.683.004-.032.015-.062.017-.096.033-.5-.207-.962-.657-1.266a2.225 2.225 0 0 1-.982-1.846 2.22 2.22 0 0 1 1.671-2.144 1.113 1.113 0 0 0 0-2.155zm39.583 34.344l-10.927-3.552a4.498 4.498 0 0 0 3.064-4.232 4.482 4.482 0 0 0 4.205-2.992 4.418 4.418 0 0 0 .208-2.048 4.427 4.427 0 0 0 .876-7.086 4.427 4.427 0 0 0 1.39-3.221 4.46 4.46 0 0 0-3.113-4.247 4.446 4.446 0 0 0 .887-2.668c0-1.25-.524-2.403-1.39-3.22a4.427 4.427 0 0 0 1.39-3.222c0-1.623-.892-3.09-2.266-3.865a4.445 4.445 0 0 0-.208-2.048 4.482 4.482 0 0 0-4.205-2.992c0-.391-.054-.783-.162-1.172-.463-1.66-1.842-2.922-3.513-3.212a4.418 4.418 0 0 0-2.348.224 4.453 4.453 0 0 0-3.994-2.518 4.443 4.443 0 0 0-3.339 1.51 4.443 4.443 0 0 0-3.339-1.51 4.451 4.451 0 0 0-3.994 2.518 4.42 4.42 0 0 0-2.349-.224c-1.67.29-3.049 1.552-3.512 3.212-.108.389-.162.78-.162 1.172a4.482 4.482 0 0 0-4.205 2.992 4.445 4.445 0 0 0-.208 2.048 4.447 4.447 0 0 0-2.266 3.865c0 1.25.524 2.403 1.39 3.221a4.427 4.427 0 0 0-1.39 3.222c0 .976.318 1.907.887 2.667a4.46 4.46 0 0 0-3.113 4.247c0 1.25.524 2.403 1.39 3.221a4.427 4.427 0 0 0 .876 7.086 4.418 4.418 0 0 0 .208 2.048 4.483 4.483 0 0 0 4.205 2.992c0 .392.054.784.161 1.172a4.495 4.495 0 0 0 2.931 3.066l-10.966 3.566c-4.827 1.87-7.266 2.934-6.823 6.118.444 3.184 0 .888.888 1.254 2.686 1.108 1.339.888 1.339.888v-1.254c0-3.786 1.463-3.406 5.342-4.909l12.821-4.168a9.916 9.916 0 0 0 2.834 5.802 9.936 9.936 0 0 0 7.078 2.935 9.937 9.937 0 0 0 7.079-2.936 9.915 9.915 0 0 0 2.833-5.8l12.764 4.147c3.937 1.523 6.288 4.693 6.288 8.479v8.354h2.226v-8.354c0-4.741-2.883-8.686-7.768-10.576z" mask="url(#b)"/><path fill="#18212C" stroke="#fff" stroke-width=".05" d="M149.413 119.736v-6.47h2.018v6.47h-2.018z"/><mask id="c" fill="#fff"><path d="M69.927 93.732l-3.568-7.545-3.485-2.013-1.182-3.77a.722.722 0 0 1 .707-.578h.71v-.005h3.987l2.5-7.463 2.535.004v.013h.006c.07 0 .138-.01.208-.013l4.783.007v.006h.007c.035 0 .068-.005.103-.006l4.888.006h.006a3.74 3.74 0 0 0 3.313-1.995l1.578-2.984a3.722 3.722 0 0 1 2.91 2.74v3.788l2.98 5.897h3.784v.002h.811a.657.657 0 0 1 .653.586l-.829 3.752-3.964 1.984-3.75 7.659c-.452 1.201-2.767 3.13-4.299 4.406l-.738.617c-.776.656-1.772.997-2.881.983l-3.798.002a4.372 4.372 0 0 1-2.784-1.043c-.37-.315-.788-.656-1.228-1.014-1.489-1.21-3.528-2.87-3.963-4.023zm-4.98-27.653c0-4.821 3.924-8.745 8.746-8.745h12.493c4.822 0 8.745 3.924 8.745 8.745v11.244h-.48l-2.018-3.993v-3.34l-.03-.273a6.21 6.21 0 0 0-6.097-4.888h-.752l-2.318 4.383c-.217.411-.666.64-1.107.665l-1.415-.001 1.699-3.213-2.209-1.168-1.965 3.717c-.205.387-.58.659-1.026.659l-1.492-.003 1.695-3.204-2.209-1.169-1.965 3.717c-.193.364-.536.618-.946.651l-1.849-.002 1.096-3.178-2.363-.814-1.375 3.988h-.008l-2.5 7.466h-.35V66.079zm24.974 38.475c-.44 4.346-4.121 7.75-8.581 7.75H78.57c-4.448 0-8.119-3.385-8.576-7.715l2.448-.958v-3.832c.375.305.735.599 1.052.87a6.88 6.88 0 0 0 4.393 1.64h3.798l.084.001c1.653 0 3.22-.557 4.424-1.575l.723-.605.56-.467-.012 3.924 2.456.967zM42.5 117.913c0-1.537.963-2.941 2.4-3.497l22.713-8.894c.884 5.259 5.455 9.28 10.96 9.28h2.768c5.506 0 10.077-4.024 10.959-9.312l22.762 8.96a3.77 3.77 0 0 1 2.388 3.503l-.039 16.877 2.499.005.039-16.876a6.283 6.283 0 0 0-3.976-5.835l-26.003-10.236.011-4.465c.893-.893 1.615-1.788 1.93-2.63l3.33-6.791 4.275-2.139 1.118-5.06.028-.235a3.13 3.13 0 0 0-.89-2.288 3.133 3.133 0 0 0-2.263-.956h-.078V66.079c0-6.2-5.044-11.244-11.244-11.244H73.693c-6.2 0-11.244 5.045-11.244 11.244v11.249h-.05a3.224 3.224 0 0 0-3.22 3.22l1.602 5.302 3.653 2.11 3.193 6.743c.369.988 1.263 1.998 2.318 2.974v4.248l-25.953 10.162A6.288 6.288 0 0 0 40 117.913v16.878h2.499v-16.878z"/></mask><path fill="#18212C" stroke="#fff" stroke-width=".18" d="M69.927 93.732l-3.568-7.545-3.485-2.013-1.182-3.77a.722.722 0 0 1 .707-.578h.71v-.005h3.987l2.5-7.463 2.535.004v.013h.006c.07 0 .138-.01.208-.013l4.783.007v.006h.007c.035 0 .068-.005.103-.006l4.888.006h.006a3.74 3.74 0 0 0 3.313-1.995l1.578-2.984a3.722 3.722 0 0 1 2.91 2.74v3.788l2.98 5.897h3.784v.002h.811a.657.657 0 0 1 .653.586l-.829 3.752-3.964 1.984-3.75 7.659c-.452 1.201-2.767 3.13-4.299 4.406l-.738.617c-.776.656-1.772.997-2.881.983l-3.798.002a4.372 4.372 0 0 1-2.784-1.043c-.37-.315-.788-.656-1.228-1.014-1.489-1.21-3.528-2.87-3.963-4.023zm-4.98-27.653c0-4.821 3.924-8.745 8.746-8.745h12.493c4.822 0 8.745 3.924 8.745 8.745v11.244h-.48l-2.018-3.993v-3.34l-.03-.273a6.21 6.21 0 0 0-6.097-4.888h-.752l-2.318 4.383c-.217.411-.666.64-1.107.665l-1.415-.001 1.699-3.213-2.209-1.168-1.965 3.717c-.205.387-.58.659-1.026.659l-1.492-.003 1.695-3.204-2.209-1.169-1.965 3.717c-.193.364-.536.618-.946.651l-1.849-.002 1.096-3.178-2.363-.814-1.375 3.988h-.008l-2.5 7.466h-.35V66.079zm24.974 38.475c-.44 4.346-4.121 7.75-8.581 7.75H78.57c-4.448 0-8.119-3.385-8.576-7.715l2.448-.958v-3.832c.375.305.735.599 1.052.87a6.88 6.88 0 0 0 4.393 1.64h3.798l.084.001c1.653 0 3.22-.557 4.424-1.575l.723-.605.56-.467-.012 3.924 2.456.967zM42.5 117.913c0-1.537.963-2.941 2.4-3.497l22.713-8.894c.884 5.259 5.455 9.28 10.96 9.28h2.768c5.506 0 10.077-4.024 10.959-9.312l22.762 8.96a3.77 3.77 0 0 1 2.388 3.503l-.039 16.877 2.499.005.039-16.876a6.283 6.283 0 0 0-3.976-5.835l-26.003-10.236.011-4.465c.893-.893 1.615-1.788 1.93-2.63l3.33-6.791 4.275-2.139 1.118-5.06.028-.235a3.13 3.13 0 0 0-.89-2.288 3.133 3.133 0 0 0-2.263-.956h-.078V66.079c0-6.2-5.044-11.244-11.244-11.244H73.693c-6.2 0-11.244 5.045-11.244 11.244v11.249h-.05a3.224 3.224 0 0 0-3.22 3.22l1.602 5.302 3.653 2.11 3.193 6.743c.369.988 1.263 1.998 2.318 2.974v4.248l-25.953 10.162A6.288 6.288 0 0 0 40 117.913v16.878h2.499v-16.878z" mask="url(#c)"/><path fill="#18212C" stroke="#fff" stroke-width=".09" d="M55.14 124.994h2.123v9.619h-2.124v-9.619zM102.614 124.994h2.124v9.619h-2.124v-9.619z"/><path fill="#515151" fill-rule="evenodd" d="M70.363 39.071l8.384 9.195c.046.053.076.06.09.064a.207.207 0 0 0 .114-.012.207.207 0 0 0 .094-.066c.008-.012.026-.038.026-.107V39.07h32.212c1.13 0 2.047-.916 2.047-2.047V3.7c0-1.123-.91-2.032-2.032-2.032h-67.6c-1.122 0-2.031.91-2.031 2.032v33.335c0 1.125.912 2.037 2.036 2.037h26.66zm7.13 10.293c1.125 1.287 3.245.49 3.245-1.22v-7.406h30.545a3.713 3.713 0 0 0 3.713-3.714V3.7A3.699 3.699 0 0 0 111.298 0h-67.6A3.699 3.699 0 0 0 40 3.699v33.335a3.704 3.704 0 0 0 3.703 3.704h25.924l7.865 8.626z" clip-rule="evenodd"/><mask id="d" width="61" height="24" x="47.868" y="11.102" fill="#000" maskUnits="userSpaceOnUse"><path fill="#fff" d="M47.868 11.102h61v24h-61z"/><path d="M60.711 18.645c.01.071-.045.17-.162.293-.117.124-.173.252-.168.385a.95.95 0 0 1-.213.317c-.018.148-.125.252-.323.314l-.29.291-.176.459-.179.023a1.72 1.72 0 0 1-.277.38c-.035.017-.13.077-.285.182l-.323.459-.454.421-.153.074-.124.307-.363.282-.171.222-.122.47-.566.816-.173.349-.066.19.13.165-.102.34.129.291-.09.43.067.245.19.484c-.151.237-.215.445-.192.623.01.084.038.207.084.37.057.163.09.28.099.35l-.042.805.093.441-.05.17.207.627-.115.233.166.305-.086.174.09.134a.516.516 0 0 1 .083.225l.011.09-.067.462.169.468-.117.36.188.193.016.125c.061.477.033.819-.086 1.028-.105.219-.336.351-.693.397l-.27-.836-.228-.497-.061-.337-.25-.113.114-.378-.103-.24.002-.545-.18-.558-.004-.453a51.892 51.892 0 0 1-.016-.125.528.528 0 0 1-.034-.268l-.014-.107-.195-.81.038-.404-.108-.421.015-.728-.197-.265.034-.44-.062-.337-.184-.303c.068-.227.094-.4.079-.518a.295.295 0 0 0-.057-.157l-.112-.312-.146-.29-.197-.12-.128-.146c-.216-.081-.518-.309-.905-.682l-.308-.142-.31-.432-.797-.551-.175-.232-.331-.32-.59-.36-.024-.178-.29-.144c-.086-.292-.23-.424-.433-.398-.523-.211-.826-.596-.91-1.154l.03-.475.214-.028c.074-.082.2-.135.379-.158.178-.023.435-.001.77.065l.162.27.297.052.386.458.507.28.039.158.45.541.294.162 1.156 1.23.374.37c.485.385.864.7 1.138.943l-.007-.054c-.019-.143.034-.3.157-.474l-.007.092c.059-.201.14-.369.244-.503a.636.636 0 0 1 .2-.425c.012-.087.109-.232.288-.437l.152-.092.044-.078c.067-.323.262-.506.583-.547l.045.067.122-.324c.138-.054.195-.08.171-.077.09-.144.166-.263.227-.355l.095-.249c.169-.287.404-.475.708-.563l-.028-.214.107-.159.16-.165.059-.39c.043.056.095.08.154.072.107-.014.184-.169.23-.465l.507-.301.248-.323.505-.028.361-.156.209.355c.06.186.098.338.113.457zM71.984 20.408c.035.274-.016.534-.153.782-.305.172-.564.272-.779.3a.773.773 0 0 1-.2-.011.806.806 0 0 0-.166-.015l-.434.292-.433.02-.239.12-.13-.02-.298.22-.279-.054c-.321.041-.577.08-.765.116l.069-.027-.308.149-.053.007-.112.123-.259-.04-.126.144-.414-.11-.214.172c-.296-.046-.468-.066-.516-.06-.13.017-.286.079-.465.187l-.795.174-.076-.026-.296.093-.009.073.293.87-.06.098.095.17.012.234c.082.17.147.344.194.52l.241.186-.022.112.415.4c.402.215.699.31.89.285l.035-.004a.297.297 0 0 0 .087-.03l.072-.009a.547.547 0 0 1 .203.029l.158-.039c.15-.056.365-.126.645-.21l.182-.132.027-.076.122-.034.132-.108.096.042.274-.126.214-.172.073-.137.274-.271.227-.066.387-.376c.292-.086.475-.351.551-.797l.056.011.011-.056.23-.047.302-.33.123-.034a.399.399 0 0 1 .123-.033c.226-.03.391.173.495.607l-.666 1.03-.19.078-.057.117-.293.4-.446.348-.344.425-.127-.001-.125.161-.764.407-.276.398-.243-.06-.069.173-.167-.033-.078.1-.603-.03-.575.327-.632-.118-.814-.258c-.694-.226-1.31-1.018-1.848-2.376l-.007-.199-.214-.39.138-.199-.171-.486-.039-.158-.347-.3-.028-.215c-.044-.345.02-.595.194-.75a.681.681 0 0 1 .162-.294l-.042-.049-.065-.5-.085-.243.158-.6.017-.293-.176.04-.072.01a.623.623 0 0 1-.449-.106.57.57 0 0 1-.231-.388c-.023-.178.064-.395.261-.65l.109-.141.151-.092c.18-.108.324-.169.43-.183l.09-.011a.53.53 0 0 1 .176-.041l.072-.01.142-.308.81-.05.06.047c.104-.037.263-.07.478-.098l.345-.135.09-.011c.148-.068.285-.182.41-.343l.285.108.09-.011c.059-.008.125-.01.198-.008.085.002.14 0 .163-.002l1.765-.39.188.048.243-.086.124-.161.382.15.114-.105.413.11.259-.106.154.071.565-.127.136.073.293.017c.28.013.433.126.46.34a.518.518 0 0 1-.112.396c-.081.12-.175.186-.283.2l-.071.009-.183.132-.37-.061-.159.038a.714.714 0 0 1-.471.006l-.063-.064c-.116.04-.192.06-.227.065a.593.593 0 0 1-.183-.012c-.109.098-.32.198-.633.299a9.49 9.49 0 0 1-.556.053.505.505 0 0 1 .055-.134l-.448.185c-.013-.01-.026-.015-.038-.014-.083.011-.226.126-.427.346l-.246-.077-.098.085-.445-.07-.233.157-.358.046-.521.176-.421.254-.135-.056-.211.19-.232.03-.042.097.08.207-.257.396h.145l.065.5.224.189-.143.163c-.093.218-.135.362-.125.434.006.047.046.078.12.093l.206-.099a.916.916 0 0 1 .176-.04c.181 0 .315.007.402.02l.305-.166.297.052.156-.056.199-.007.279-.09c.098.01.177.013.236.005.048-.006.138-.06.27-.162a.95.95 0 0 0 .42.02.769.769 0 0 0 .122-.035l.143-.018.036-.005a.16.16 0 0 1-.074-.008l.054-.007c.071-.01.288-.02.65-.03.034-.016.217-.052.548-.106a8.12 8.12 0 0 1 .355-.064c.178-.023.352-.04.52-.049l.158-.038a.955.955 0 0 1 .446-.203 1.02 1.02 0 0 1 .328.012l.243-.085.226.061.691-.27.021.16zM85.788 24.858c.026.299-.143.532-.509.7l-.72-.234-.196.026-.255-.15-.286.038-.26-.33-.19-.066-.285-.381-.365-.298-.018-.143-.159-.106-.072-.281-.26-.185-.483-.79-.186-.176-.135-.491-.272-.274-.381-.005-.381.285-.1-.078-.264.215-.114-.185c-.058.02-.147.037-.266.053a1.62 1.62 0 0 1-.287.018l-.143.019-.35.244h-.418l-.07.009-.266.197-.243-.06c-.227.03-.396.028-.51-.006l-.089.011-.436.274-.204-.173-.333-.048-.065.063c-.217.378-.376.647-.477.805l-.276.108c-.368.713-.609 1.1-.722 1.164l-.069.027-.482.77-.071.009-.286.599-.63.462a1.55 1.55 0 0 1-.281.072 1.004 1.004 0 0 1-.675-.167l.157-.474-.035-.268.06-.098-.01-.362.544-.142.132-.108a.497.497 0 0 0 .201-.407c.207-.087.323-.223.347-.407.3-.208.475-.497.524-.866l.29-.146.361-.718a1.392 1.392 0 0 1-.278-.473l.336-.352-.044-.339.703-.036.167-.112a.655.655 0 0 1 .302-.474l-.008-.344.35-.245a1.08 1.08 0 0 1 .185-.114l-.014-.107a.57.57 0 0 1 .035-.295.905.905 0 0 0 .298-.783l.243-.085.07-.172.122-.034.256-.687.094.025.134-.09-.062-.482.125-.016c.256-.36.378-.587.366-.682l.08-.083-.124-.257c.242-.382.45-.59.628-.625l.302-.33.443.343.535.204.113.457c.069.064.125.129.17.196a1.2 1.2 0 0 1 .366.588l.165.433.318.358.237.568.072.281.372.352-.056.134.16.107.045.357.07.263c-.012.183-.022.25-.028.203l.1.078.126.129c.153-.032.264-.064.333-.097l.535-.069a.989.989 0 0 0 .219.008.387.387 0 0 0 .205-.099c.076-.07.197-.116.364-.137.119-.016.305.021.558.11l.54-.034a.985.985 0 0 1 .064.21c.022.178-.05.327-.216.445l-.279-.055-.454.421h-.417l-.167.112-.389.086-.009-.071-.45.166-.004.11.088.406.274.291.077.317.484.519-.01.2.18.14.514.606.343.265.09.133.341.12.162.27.519.223zm-5.03-4.253l-.017.002-.222-.171.191-.206c-.106-.072-.17-.19-.19-.357l-.135-.055-.183-.72-.254-.277-.092-.296-.045-.067-.125.016-.136-.636-.19-.211-.095-.025-.062-.064-.056.134-.36.59-.103.323-.316.367-.03.33-.388.232c-.013.364-.159.643-.437.836l-.079.373-.202.262.16-.02c.224.044.407.056.55.038l.072-.01a.48.48 0 0 1 .207-.08c.083-.011.182 0 .295.034l.074.009c.07-.021.182-.042.337-.061.19-.025.333-.037.43-.038l.616-.151.438.161c.192-.11.3-.208.325-.296.001.012.008.017.02.016l.002.018zM99.66 16.505l-.191.206c.042.043.118.118.228.224l-.623.516-.071.01c-.06.007-.14 0-.24-.024l-.19.206-.309.003-.287.31-.326-.14-.361.155-.33.26a.2.2 0 0 0-.091-.006c-.096.012-.145.049-.15.11l-.067.607a.456.456 0 0 1 .1.205.773.773 0 0 1-.02.275l-.035.15.076.026a1.01 1.01 0 0 1-.074.554c.093.157.157.282.193.374l-.144.146.1.64-.041.95.005.18c.042.14.066.234.072.281l.012.09.094.169.06.32a1.718 1.718 0 0 1-.055.278c.04.407-.224.658-.793.756l-.086-.389-.172-.213-.149-.308-.08-.625-.173-.359.049-.042-.088-.261-.058-.447-.036-.703-.116-.62.061-.37-.052-.411a2.21 2.21 0 0 1-.008-.344c.017-.148.021-.257.012-.328a.606.606 0 0 0-.15-.326l-.043-.049-.05.043-.24-.042a2.29 2.29 0 0 1-.596.167 1.62 1.62 0 0 1-.288.02l-.738.33-.833.017a4.847 4.847 0 0 0-.45.021c-.155.02-.364.09-.627.208l-.072.009-.387.231-.311-.16-.435.147-.058-.029-.067.045-.36.028-.017.148-.525-.132-.44.11.106.822v.417l.132.328-.108.286.157.234-.026.784.101.223.02.433.206.336-.05.17.063.21c.021.263-.11.413-.396.45-.488.063-.789-.346-.902-1.227l-.289-.271-.117-.203a.698.698 0 0 1 .057-.407l-.003-.308-.077-.171-.268-1.381-.048-.375-.043-.05-.382-.15-.166-.868.463-.35c.035-.198.034-.44-.003-.725a2.376 2.376 0 0 0-.179-.685l.114.04-.05-.248.06-.389-.188-.61-.053-.411.045-.641.648-.465.371.207.391.076.104.386.19.212c-.037.174-.069.353-.093.538.06.186.104.386.131.6.043.334.043.666.001.998l.205.319-.147.273.028.214.167.033.422-.109.308-.003.475-.116.15.035a1.01 1.01 0 0 1 .194-.043.989.989 0 0 1 .219.008l.038.014.268-.035c.011-.001.1-.019.265-.052.177-.035.355-.064.533-.087l.263-.215.289.126.27-.016.091.006c.092-.036.168-.058.228-.065l.089-.012 1.867-.44.27-.016.083-.065-.129-.292.055-.28-.219-.715.095-.248-.431-.816-.052-.12-.083-.08c.009-.026.026-.083.05-.17.019-.051.027-.077.027-.077l-.009-.07c-.012-.096.072-.198.251-.305l.115-.523.511.025.23.097.486-.171.032.25.208-.081.108.839-.071.154.189.339.03.232.125.274-.099.357.084.226.016.832.016.125.373-.066.675-.25.344-.008.21-.063.392-.05a.676.676 0 0 1 .295-.11.696.696 0 0 1 .277.036l.446-.057zM106.53 13.516l-.047.06-.015.311-.089.012-.028.203.053-.007c.043.14.08.244.113.312l-.051.17c.039.116.062.198.068.245a1.22 1.22 0 0 1-.008.22l-.015.164.13 1.436.13.164-.05.46.156.362-.067.19c.051.114.085.23.1.35l.128.292-.1.067.011.09a.569.569 0 0 1-.005.236l.016.125c-.031.33-.182.513-.456.549-.357.046-.566-.164-.625-.628l-.044-.339-.086-.388-.153-.344.064-.207-.112-.167.029-.476-.187-.049.054-.424-.057-.156-.041-.321-.047-.085.01-.201a.843.843 0 0 1 .037-.277l-.042-.049-.014-.107-.184-.158.162-.293-.096-.187.03-.186-.032-.25a2.15 2.15 0 0 1-.041-.176.793.793 0 0 1-.002-.163l-.016-.125a.657.657 0 0 1-.055-.138l-.062-.064c-.006-.048.013-.087.057-.117l-.062-.064-.028-.214-.199-.138-.037-.848.527.004.279-.09.686.111.121.239c.021.07.04.17.057.301.009.072.01.126.003.163l-.04.114-.029.058.201.428zm1.328 7.506l-.022.257a1.22 1.22 0 0 0-.008.219l-.421.399-.315-.05-.251.159-.269-.11-.374.047-.302-.65.085-.465.236-.284.069-.028.156-.201c.181 0 .316.014.404.039.191-.025.331-.013.422.036a1.22 1.22 0 0 1-.167.112l.4.004.155.215.202.301z"/></mask><path fill="#53A1D8" d="M60.711 18.645c.01.071-.045.17-.162.293-.117.124-.173.252-.168.385a.95.95 0 0 1-.213.317c-.018.148-.125.252-.323.314l-.29.291-.176.459-.179.023a1.72 1.72 0 0 1-.277.38c-.035.017-.13.077-.285.182l-.323.459-.454.421-.153.074-.124.307-.363.282-.171.222-.122.47-.566.816-.173.349-.066.19.13.165-.102.34.129.291-.09.43.067.245.19.484c-.151.237-.215.445-.192.623.01.084.038.207.084.37.057.163.09.28.099.35l-.042.805.093.441-.05.17.207.627-.115.233.166.305-.086.174.09.134a.516.516 0 0 1 .083.225l.011.09-.067.462.169.468-.117.36.188.193.016.125c.061.477.033.819-.086 1.028-.105.219-.336.351-.693.397l-.27-.836-.228-.497-.061-.337-.25-.113.114-.378-.103-.24.002-.545-.18-.558-.004-.453a51.892 51.892 0 0 1-.016-.125.528.528 0 0 1-.034-.268l-.014-.107-.195-.81.038-.404-.108-.421.015-.728-.197-.265.034-.44-.062-.337-.184-.303c.068-.227.094-.4.079-.518a.295.295 0 0 0-.057-.157l-.112-.312-.146-.29-.197-.12-.128-.146c-.216-.081-.518-.309-.905-.682l-.308-.142-.31-.432-.797-.551-.175-.232-.331-.32-.59-.36-.024-.178-.29-.144c-.086-.292-.23-.424-.433-.398-.523-.211-.826-.596-.91-1.154l.03-.475.214-.028c.074-.082.2-.135.379-.158.178-.023.435-.001.77.065l.162.27.297.052.386.458.507.28.039.158.45.541.294.162 1.156 1.23.374.37c.485.385.864.7 1.138.943l-.007-.054c-.019-.143.034-.3.157-.474l-.007.092c.059-.201.14-.369.244-.503a.636.636 0 0 1 .2-.425c.012-.087.109-.232.288-.437l.152-.092.044-.078c.067-.323.262-.506.583-.547l.045.067.122-.324c.138-.054.195-.08.171-.077.09-.144.166-.263.227-.355l.095-.249c.169-.287.404-.475.708-.563l-.028-.214.107-.159.16-.165.059-.39c.043.056.095.08.154.072.107-.014.184-.169.23-.465l.507-.301.248-.323.505-.028.361-.156.209.355c.06.186.098.338.113.457zM71.984 20.408c.035.274-.016.534-.153.782-.305.172-.564.272-.779.3a.773.773 0 0 1-.2-.011.806.806 0 0 0-.166-.015l-.434.292-.433.02-.239.12-.13-.02-.298.22-.279-.054c-.321.041-.577.08-.765.116l.069-.027-.308.149-.053.007-.112.123-.259-.04-.126.144-.414-.11-.214.172c-.296-.046-.468-.066-.516-.06-.13.017-.286.079-.465.187l-.795.174-.076-.026-.296.093-.009.073.293.87-.06.098.095.17.012.234c.082.17.147.344.194.52l.241.186-.022.112.415.4c.402.215.699.31.89.285l.035-.004a.297.297 0 0 0 .087-.03l.072-.009a.547.547 0 0 1 .203.029l.158-.039c.15-.056.365-.126.645-.21l.182-.132.027-.076.122-.034.132-.108.096.042.274-.126.214-.172.073-.137.274-.271.227-.066.387-.376c.292-.086.475-.351.551-.797l.056.011.011-.056.23-.047.302-.33.123-.034a.399.399 0 0 1 .123-.033c.226-.03.391.173.495.607l-.666 1.03-.19.078-.057.117-.293.4-.446.348-.344.425-.127-.001-.125.161-.764.407-.276.398-.243-.06-.069.173-.167-.033-.078.1-.603-.03-.575.327-.632-.118-.814-.258c-.694-.226-1.31-1.018-1.848-2.376l-.007-.199-.214-.39.138-.199-.171-.486-.039-.158-.347-.3-.028-.215c-.044-.345.02-.595.194-.75a.681.681 0 0 1 .162-.294l-.042-.049-.065-.5-.085-.243.158-.6.017-.293-.176.04-.072.01a.623.623 0 0 1-.449-.106.57.57 0 0 1-.231-.388c-.023-.178.064-.395.261-.65l.109-.141.151-.092c.18-.108.324-.169.43-.183l.09-.011a.53.53 0 0 1 .176-.041l.072-.01.142-.308.81-.05.06.047c.104-.037.263-.07.478-.098l.345-.135.09-.011c.148-.068.285-.182.41-.343l.285.108.09-.011c.059-.008.125-.01.198-.008.085.002.14 0 .163-.002l1.765-.39.188.048.243-.086.124-.161.382.15.114-.105.413.11.259-.106.154.071.565-.127.136.073.293.017c.28.013.433.126.46.34a.518.518 0 0 1-.112.396c-.081.12-.175.186-.283.2l-.071.009-.183.132-.37-.061-.159.038a.714.714 0 0 1-.471.006l-.063-.064c-.116.04-.192.06-.227.065a.593.593 0 0 1-.183-.012c-.109.098-.32.198-.633.299a9.49 9.49 0 0 1-.556.053.505.505 0 0 1 .055-.134l-.448.185c-.013-.01-.026-.015-.038-.014-.083.011-.226.126-.427.346l-.246-.077-.098.085-.445-.07-.233.157-.358.046-.521.176-.421.254-.135-.056-.211.19-.232.03-.042.097.08.207-.257.396h.145l.065.5.224.189-.143.163c-.093.218-.135.362-.125.434.006.047.046.078.12.093l.206-.099a.916.916 0 0 1 .176-.04c.181 0 .315.007.402.02l.305-.166.297.052.156-.056.199-.007.279-.09c.098.01.177.013.236.005.048-.006.138-.06.27-.162a.95.95 0 0 0 .42.02.769.769 0 0 0 .122-.035l.143-.018.036-.005a.16.16 0 0 1-.074-.008l.054-.007c.071-.01.288-.02.65-.03.034-.016.217-.052.548-.106a8.12 8.12 0 0 1 .355-.064c.178-.023.352-.04.52-.049l.158-.038a.955.955 0 0 1 .446-.203 1.02 1.02 0 0 1 .328.012l.243-.085.226.061.691-.27.021.16zM85.788 24.858c.026.299-.143.532-.509.7l-.72-.234-.196.026-.255-.15-.286.038-.26-.33-.19-.066-.285-.381-.365-.298-.018-.143-.159-.106-.072-.281-.26-.185-.483-.79-.186-.176-.135-.491-.272-.274-.381-.005-.381.285-.1-.078-.264.215-.114-.185c-.058.02-.147.037-.266.053a1.62 1.62 0 0 1-.287.018l-.143.019-.35.244h-.418l-.07.009-.266.197-.243-.06c-.227.03-.396.028-.51-.006l-.089.011-.436.274-.204-.173-.333-.048-.065.063c-.217.378-.376.647-.477.805l-.276.108c-.368.713-.609 1.1-.722 1.164l-.069.027-.482.77-.071.009-.286.599-.63.462a1.55 1.55 0 0 1-.281.072 1.004 1.004 0 0 1-.675-.167l.157-.474-.035-.268.06-.098-.01-.362.544-.142.132-.108a.497.497 0 0 0 .201-.407c.207-.087.323-.223.347-.407.3-.208.475-.497.524-.866l.29-.146.361-.718a1.392 1.392 0 0 1-.278-.473l.336-.352-.044-.339.703-.036.167-.112a.655.655 0 0 1 .302-.474l-.008-.344.35-.245a1.08 1.08 0 0 1 .185-.114l-.014-.107a.57.57 0 0 1 .035-.295.905.905 0 0 0 .298-.783l.243-.085.07-.172.122-.034.256-.687.094.025.134-.09-.062-.482.125-.016c.256-.36.378-.587.366-.682l.08-.083-.124-.257c.242-.382.45-.59.628-.625l.302-.33.443.343.535.204.113.457c.069.064.125.129.17.196a1.2 1.2 0 0 1 .366.588l.165.433.318.358.237.568.072.281.372.352-.056.134.16.107.045.357.07.263c-.012.183-.022.25-.028.203l.1.078.126.129c.153-.032.264-.064.333-.097l.535-.069a.989.989 0 0 0 .219.008.387.387 0 0 0 .205-.099c.076-.07.197-.116.364-.137.119-.016.305.021.558.11l.54-.034a.985.985 0 0 1 .064.21c.022.178-.05.327-.216.445l-.279-.055-.454.421h-.417l-.167.112-.389.086-.009-.071-.45.166-.004.11.088.406.274.291.077.317.484.519-.01.2.18.14.514.606.343.265.09.133.341.12.162.27.519.223zm-5.03-4.253l-.017.002-.222-.171.191-.206c-.106-.072-.17-.19-.19-.357l-.135-.055-.183-.72-.254-.277-.092-.296-.045-.067-.125.016-.136-.636-.19-.211-.095-.025-.062-.064-.056.134-.36.59-.103.323-.316.367-.03.33-.388.232c-.013.364-.159.643-.437.836l-.079.373-.202.262.16-.02c.224.044.407.056.55.038l.072-.01a.48.48 0 0 1 .207-.08c.083-.011.182 0 .295.034l.074.009c.07-.021.182-.042.337-.061.19-.025.333-.037.43-.038l.616-.151.438.161c.192-.11.3-.208.325-.296.001.012.008.017.02.016l.002.018zM99.66 16.505l-.191.206c.042.043.118.118.228.224l-.623.516-.071.01c-.06.007-.14 0-.24-.024l-.19.206-.309.003-.287.31-.326-.14-.361.155-.33.26a.2.2 0 0 0-.091-.006c-.096.012-.145.049-.15.11l-.067.607a.456.456 0 0 1 .1.205.773.773 0 0 1-.02.275l-.035.15.076.026a1.01 1.01 0 0 1-.074.554c.093.157.157.282.193.374l-.144.146.1.64-.041.95.005.18c.042.14.066.234.072.281l.012.09.094.169.06.32a1.718 1.718 0 0 1-.055.278c.04.407-.224.658-.793.756l-.086-.389-.172-.213-.149-.308-.08-.625-.173-.359.049-.042-.088-.261-.058-.447-.036-.703-.116-.62.061-.37-.052-.411a2.21 2.21 0 0 1-.008-.344c.017-.148.021-.257.012-.328a.606.606 0 0 0-.15-.326l-.043-.049-.05.043-.24-.042a2.29 2.29 0 0 1-.596.167 1.62 1.62 0 0 1-.288.02l-.738.33-.833.017a4.847 4.847 0 0 0-.45.021c-.155.02-.364.09-.627.208l-.072.009-.387.231-.311-.16-.435.147-.058-.029-.067.045-.36.028-.017.148-.525-.132-.44.11.106.822v.417l.132.328-.108.286.157.234-.026.784.101.223.02.433.206.336-.05.17.063.21c.021.263-.11.413-.396.45-.488.063-.789-.346-.902-1.227l-.289-.271-.117-.203a.698.698 0 0 1 .057-.407l-.003-.308-.077-.171-.268-1.381-.048-.375-.043-.05-.382-.15-.166-.868.463-.35c.035-.198.034-.44-.003-.725a2.376 2.376 0 0 0-.179-.685l.114.04-.05-.248.06-.389-.188-.61-.053-.411.045-.641.648-.465.371.207.391.076.104.386.19.212c-.037.174-.069.353-.093.538.06.186.104.386.131.6.043.334.043.666.001.998l.205.319-.147.273.028.214.167.033.422-.109.308-.003.475-.116.15.035a1.01 1.01 0 0 1 .194-.043.989.989 0 0 1 .219.008l.038.014.268-.035c.011-.001.1-.019.265-.052.177-.035.355-.064.533-.087l.263-.215.289.126.27-.016.091.006c.092-.036.168-.058.228-.065l.089-.012 1.867-.44.27-.016.083-.065-.129-.292.055-.28-.219-.715.095-.248-.431-.816-.052-.12-.083-.08c.009-.026.026-.083.05-.17.019-.051.027-.077.027-.077l-.009-.07c-.012-.096.072-.198.251-.305l.115-.523.511.025.23.097.486-.171.032.25.208-.081.108.839-.071.154.189.339.03.232.125.274-.099.357.084.226.016.832.016.125.373-.066.675-.25.344-.008.21-.063.392-.05a.676.676 0 0 1 .295-.11.696.696 0 0 1 .277.036l.446-.057zM106.53 13.516l-.047.06-.015.311-.089.012-.028.203.053-.007c.043.14.08.244.113.312l-.051.17c.039.116.062.198.068.245a1.22 1.22 0 0 1-.008.22l-.015.164.13 1.436.13.164-.05.46.156.362-.067.19c.051.114.085.23.1.35l.128.292-.1.067.011.09a.569.569 0 0 1-.005.236l.016.125c-.031.33-.182.513-.456.549-.357.046-.566-.164-.625-.628l-.044-.339-.086-.388-.153-.344.064-.207-.112-.167.029-.476-.187-.049.054-.424-.057-.156-.041-.321-.047-.085.01-.201a.843.843 0 0 1 .037-.277l-.042-.049-.014-.107-.184-.158.162-.293-.096-.187.03-.186-.032-.25a2.15 2.15 0 0 1-.041-.176.793.793 0 0 1-.002-.163l-.016-.125a.657.657 0 0 1-.055-.138l-.062-.064c-.006-.048.013-.087.057-.117l-.062-.064-.028-.214-.199-.138-.037-.848.527.004.279-.09.686.111.121.239c.021.07.04.17.057.301.009.072.01.126.003.163l-.04.114-.029.058.201.428zm1.328 7.506l-.022.257a1.22 1.22 0 0 0-.008.219l-.421.399-.315-.05-.251.159-.269-.11-.374.047-.302-.65.085-.465.236-.284.069-.028.156-.201c.181 0 .316.014.404.039.191-.025.331-.013.422.036a1.22 1.22 0 0 1-.167.112l.4.004.155.215.202.301z"/><path stroke="#53A1D8" stroke-width=".4" d="M60.711 18.645c.01.071-.045.17-.162.293-.117.124-.173.252-.168.385a.95.95 0 0 1-.213.317c-.018.148-.125.252-.323.314l-.29.291-.176.459-.179.023a1.72 1.72 0 0 1-.277.38c-.035.017-.13.077-.285.182l-.323.459-.454.421-.153.074-.124.307-.363.282-.171.222-.122.47-.566.816-.173.349-.066.19.13.165-.102.34.129.291-.09.43.067.245.19.484c-.151.237-.215.445-.192.623.01.084.038.207.084.37.057.163.09.28.099.35l-.042.805.093.441-.05.17.207.627-.115.233.166.305-.086.174.09.134a.516.516 0 0 1 .083.225l.011.09-.067.462.169.468-.117.36.188.193.016.125c.061.477.033.819-.086 1.028-.105.219-.336.351-.693.397l-.27-.836-.228-.497-.061-.337-.25-.113.114-.378-.103-.24.002-.545-.18-.558-.004-.453a51.892 51.892 0 0 1-.016-.125.528.528 0 0 1-.034-.268l-.014-.107-.195-.81.038-.404-.108-.421.015-.728-.197-.265.034-.44-.062-.337-.184-.303c.068-.227.094-.4.079-.518a.295.295 0 0 0-.057-.157l-.112-.312-.146-.29-.197-.12-.128-.146c-.216-.081-.518-.309-.905-.682l-.308-.142-.31-.432-.797-.551-.175-.232-.331-.32-.59-.36-.024-.178-.29-.144c-.086-.292-.23-.424-.433-.398-.523-.211-.826-.596-.91-1.154l.03-.475.214-.028c.074-.082.2-.135.379-.158.178-.023.435-.001.77.065l.162.27.297.052.386.458.507.28.039.158.45.541.294.162 1.156 1.23.374.37c.485.385.864.7 1.138.943l-.007-.054c-.019-.143.034-.3.157-.474l-.007.092c.059-.201.14-.369.244-.503a.636.636 0 0 1 .2-.425c.012-.087.109-.232.288-.437l.152-.092.044-.078c.067-.323.262-.506.583-.547l.045.067.122-.324c.138-.054.195-.08.171-.077.09-.144.166-.263.227-.355l.095-.249c.169-.287.404-.475.708-.563l-.028-.214.107-.159.16-.165.059-.39c.043.056.095.08.154.072.107-.014.184-.169.23-.465l.507-.301.248-.323.505-.028.361-.156.209.355c.06.186.098.338.113.457zM71.984 20.408c.035.274-.016.534-.153.782-.305.172-.564.272-.779.3a.773.773 0 0 1-.2-.011.806.806 0 0 0-.166-.015l-.434.292-.433.02-.239.12-.13-.02-.298.22-.279-.054c-.321.041-.577.08-.765.116l.069-.027-.308.149-.053.007-.112.123-.259-.04-.126.144-.414-.11-.214.172c-.296-.046-.468-.066-.516-.06-.13.017-.286.079-.465.187l-.795.174-.076-.026-.296.093-.009.073.293.87-.06.098.095.17.012.234c.082.17.147.344.194.52l.241.186-.022.112.415.4c.402.215.699.31.89.285l.035-.004a.297.297 0 0 0 .087-.03l.072-.009a.547.547 0 0 1 .203.029l.158-.039c.15-.056.365-.126.645-.21l.182-.132.027-.076.122-.034.132-.108.096.042.274-.126.214-.172.073-.137.274-.271.227-.066.387-.376c.292-.086.475-.351.551-.797l.056.011.011-.056.23-.047.302-.33.123-.034a.399.399 0 0 1 .123-.033c.226-.03.391.173.495.607l-.666 1.03-.19.078-.057.117-.293.4-.446.348-.344.425-.127-.001-.125.161-.764.407-.276.398-.243-.06-.069.173-.167-.033-.078.1-.603-.03-.575.327-.632-.118-.814-.258c-.694-.226-1.31-1.018-1.848-2.376l-.007-.199-.214-.39.138-.199-.171-.486-.039-.158-.347-.3-.028-.215c-.044-.345.02-.595.194-.75a.681.681 0 0 1 .162-.294l-.042-.049-.065-.5-.085-.243.158-.6.017-.293-.176.04-.072.01a.623.623 0 0 1-.449-.106.57.57 0 0 1-.231-.388c-.023-.178.064-.395.261-.65l.109-.141.151-.092c.18-.108.324-.169.43-.183l.09-.011a.53.53 0 0 1 .176-.041l.072-.01.142-.308.81-.05.06.047c.104-.037.263-.07.478-.098l.345-.135.09-.011c.148-.068.285-.182.41-.343l.285.108.09-.011c.059-.008.125-.01.198-.008.085.002.14 0 .163-.002l1.765-.39.188.048.243-.086.124-.161.382.15.114-.105.413.11.259-.106.154.071.565-.127.136.073.293.017c.28.013.433.126.46.34a.518.518 0 0 1-.112.396c-.081.12-.175.186-.283.2l-.071.009-.183.132-.37-.061-.159.038a.714.714 0 0 1-.471.006l-.063-.064c-.116.04-.192.06-.227.065a.593.593 0 0 1-.183-.012c-.109.098-.32.198-.633.299a9.49 9.49 0 0 1-.556.053.505.505 0 0 1 .055-.134l-.448.185c-.013-.01-.026-.015-.038-.014-.083.011-.226.126-.427.346l-.246-.077-.098.085-.445-.07-.233.157-.358.046-.521.176-.421.254-.135-.056-.211.19-.232.03-.042.097.08.207-.257.396h.145l.065.5.224.189-.143.163c-.093.218-.135.362-.125.434.006.047.046.078.12.093l.206-.099a.916.916 0 0 1 .176-.04c.181 0 .315.007.402.02l.305-.166.297.052.156-.056.199-.007.279-.09c.098.01.177.013.236.005.048-.006.138-.06.27-.162a.95.95 0 0 0 .42.02.769.769 0 0 0 .122-.035l.143-.018.036-.005a.16.16 0 0 1-.074-.008l.054-.007c.071-.01.288-.02.65-.03.034-.016.217-.052.548-.106a8.12 8.12 0 0 1 .355-.064c.178-.023.352-.04.52-.049l.158-.038a.955.955 0 0 1 .446-.203 1.02 1.02 0 0 1 .328.012l.243-.085.226.061.691-.27.021.16zM85.788 24.858c.026.299-.143.532-.509.7l-.72-.234-.196.026-.255-.15-.286.038-.26-.33-.19-.066-.285-.381-.365-.298-.018-.143-.159-.106-.072-.281-.26-.185-.483-.79-.186-.176-.135-.491-.272-.274-.381-.005-.381.285-.1-.078-.264.215-.114-.185c-.058.02-.147.037-.266.053a1.62 1.62 0 0 1-.287.018l-.143.019-.35.244h-.418l-.07.009-.266.197-.243-.06c-.227.03-.396.028-.51-.006l-.089.011-.436.274-.204-.173-.333-.048-.065.063c-.217.378-.376.647-.477.805l-.276.108c-.368.713-.609 1.1-.722 1.164l-.069.027-.482.77-.071.009-.286.599-.63.462a1.55 1.55 0 0 1-.281.072 1.004 1.004 0 0 1-.675-.167l.157-.474-.035-.268.06-.098-.01-.362.544-.142.132-.108a.497.497 0 0 0 .201-.407c.207-.087.323-.223.347-.407.3-.208.475-.497.524-.866l.29-.146.361-.718a1.392 1.392 0 0 1-.278-.473l.336-.352-.044-.339.703-.036.167-.112a.655.655 0 0 1 .302-.474l-.008-.344.35-.245a1.08 1.08 0 0 1 .185-.114l-.014-.107a.57.57 0 0 1 .035-.295.905.905 0 0 0 .298-.783l.243-.085.07-.172.122-.034.256-.687.094.025.134-.09-.062-.482.125-.016c.256-.36.378-.587.366-.682l.08-.083-.124-.257c.242-.382.45-.59.628-.625l.302-.33.443.343.535.204.113.457c.069.064.125.129.17.196a1.2 1.2 0 0 1 .366.588l.165.433.318.358.237.568.072.281.372.352-.056.134.16.107.045.357.07.263c-.012.183-.022.25-.028.203l.1.078.126.129c.153-.032.264-.064.333-.097l.535-.069a.989.989 0 0 0 .219.008.387.387 0 0 0 .205-.099c.076-.07.197-.116.364-.137.119-.016.305.021.558.11l.54-.034a.985.985 0 0 1 .064.21c.022.178-.05.327-.216.445l-.279-.055-.454.421h-.417l-.167.112-.389.086-.009-.071-.45.166-.004.11.088.406.274.291.077.317.484.519-.01.2.18.14.514.606.343.265.09.133.341.12.162.27.519.223zm-5.03-4.253l-.017.002-.222-.171.191-.206c-.106-.072-.17-.19-.19-.357l-.135-.055-.183-.72-.254-.277-.092-.296-.045-.067-.125.016-.136-.636-.19-.211-.095-.025-.062-.064-.056.134-.36.59-.103.323-.316.367-.03.33-.388.232c-.013.364-.159.643-.437.836l-.079.373-.202.262.16-.02c.224.044.407.056.55.038l.072-.01a.48.48 0 0 1 .207-.08c.083-.011.182 0 .295.034l.074.009c.07-.021.182-.042.337-.061.19-.025.333-.037.43-.038l.616-.151.438.161c.192-.11.3-.208.325-.296.001.012.008.017.02.016l.002.018zM99.66 16.505l-.191.206c.042.043.118.118.228.224l-.623.516-.071.01c-.06.007-.14 0-.24-.024l-.19.206-.309.003-.287.31-.326-.14-.361.155-.33.26a.2.2 0 0 0-.091-.006c-.096.012-.145.049-.15.11l-.067.607a.456.456 0 0 1 .1.205.773.773 0 0 1-.02.275l-.035.15.076.026a1.01 1.01 0 0 1-.074.554c.093.157.157.282.193.374l-.144.146.1.64-.041.95.005.18c.042.14.066.234.072.281l.012.09.094.169.06.32a1.718 1.718 0 0 1-.055.278c.04.407-.224.658-.793.756l-.086-.389-.172-.213-.149-.308-.08-.625-.173-.359.049-.042-.088-.261-.058-.447-.036-.703-.116-.62.061-.37-.052-.411a2.21 2.21 0 0 1-.008-.344c.017-.148.021-.257.012-.328a.606.606 0 0 0-.15-.326l-.043-.049-.05.043-.24-.042a2.29 2.29 0 0 1-.596.167 1.62 1.62 0 0 1-.288.02l-.738.33-.833.017a4.847 4.847 0 0 0-.45.021c-.155.02-.364.09-.627.208l-.072.009-.387.231-.311-.16-.435.147-.058-.029-.067.045-.36.028-.017.148-.525-.132-.44.11.106.822v.417l.132.328-.108.286.157.234-.026.784.101.223.02.433.206.336-.05.17.063.21c.021.263-.11.413-.396.45-.488.063-.789-.346-.902-1.227l-.289-.271-.117-.203a.698.698 0 0 1 .057-.407l-.003-.308-.077-.171-.268-1.381-.048-.375-.043-.05-.382-.15-.166-.868.463-.35c.035-.198.034-.44-.003-.725a2.376 2.376 0 0 0-.179-.685l.114.04-.05-.248.06-.389-.188-.61-.053-.411.045-.641.648-.465.371.207.391.076.104.386.19.212c-.037.174-.069.353-.093.538.06.186.104.386.131.6.043.334.043.666.001.998l.205.319-.147.273.028.214.167.033.422-.109.308-.003.475-.116.15.035a1.01 1.01 0 0 1 .194-.043.989.989 0 0 1 .219.008l.038.014.268-.035c.011-.001.1-.019.265-.052.177-.035.355-.064.533-.087l.263-.215.289.126.27-.016.091.006c.092-.036.168-.058.228-.065l.089-.012 1.867-.44.27-.016.083-.065-.129-.292.055-.28-.219-.715.095-.248-.431-.816-.052-.12-.083-.08c.009-.026.026-.083.05-.17.019-.051.027-.077.027-.077l-.009-.07c-.012-.096.072-.198.251-.305l.115-.523.511.025.23.097.486-.171.032.25.208-.081.108.839-.071.154.189.339.03.232.125.274-.099.357.084.226.016.832.016.125.373-.066.675-.25.344-.008.21-.063.392-.05a.676.676 0 0 1 .295-.11.696.696 0 0 1 .277.036l.446-.057zM106.53 13.516l-.047.06-.015.311-.089.012-.028.203.053-.007c.043.14.08.244.113.312l-.051.17c.039.116.062.198.068.245a1.22 1.22 0 0 1-.008.22l-.015.164.13 1.436.13.164-.05.46.156.362-.067.19c.051.114.085.23.1.35l.128.292-.1.067.011.09a.569.569 0 0 1-.005.236l.016.125c-.031.33-.182.513-.456.549-.357.046-.566-.164-.625-.628l-.044-.339-.086-.388-.153-.344.064-.207-.112-.167.029-.476-.187-.049.054-.424-.057-.156-.041-.321-.047-.085.01-.201a.843.843 0 0 1 .037-.277l-.042-.049-.014-.107-.184-.158.162-.293-.096-.187.03-.186-.032-.25a2.15 2.15 0 0 1-.041-.176.793.793 0 0 1-.002-.163l-.016-.125a.657.657 0 0 1-.055-.138l-.062-.064c-.006-.048.013-.087.057-.117l-.062-.064-.028-.214-.199-.138-.037-.848.527.004.279-.09.686.111.121.239c.021.07.04.17.057.301.009.072.01.126.003.163l-.04.114-.029.058.201.428zm1.328 7.506l-.022.257a1.22 1.22 0 0 0-.008.219l-.421.399-.315-.05-.251.159-.269-.11-.374.047-.302-.65.085-.465.236-.284.069-.028.156-.201c.181 0 .316.014.404.039.191-.025.331-.013.422.036a1.22 1.22 0 0 1-.167.112l.4.004.155.215.202.301z" mask="url(#d)"/></svg>