<svg xmlns="http://www.w3.org/2000/svg" fill="none" viewBox="0 0 26 26"><path fill="#6F6DD4" fill-rule="evenodd" d="M1.995 7.306c0-.633.513-1.146 1.146-1.146h7.305v1.25H3.245v13.983h-1.25V7.306z" clip-rule="evenodd"/><path fill="#6F6DD4" fill-rule="evenodd" d="M17.75 6.16h2.086c.634 0 1.147.513 1.147 1.146V22.96a2.712 2.712 0 0 1-2.712 2.712H3.141a2.712 2.712 0 0 1-2.712-2.712v-1.147h16.38v1.057c0 .804.587 1.475 1.316 1.544.875.084 1.608-.6 1.608-1.454V7.409H17.75V6.16z" clip-rule="evenodd"/><path fill="#6F6DD4" fill-rule="evenodd" d="M10.864 3.653A3.234 3.234 0 0 1 14.098.419h1.043a3.234 3.234 0 0 1 3.234 3.234v7.304a2.712 2.712 0 0 1-5.424 0v-6.26a1.669 1.669 0 0 1 3.337 0v5.738h-1.25V4.696a.418.418 0 1 0-.837 0v6.261a1.462 1.462 0 0 0 2.924 0V3.653a1.984 1.984 0 0 0-1.984-1.984h-1.043a1.984 1.984 0 0 0-1.984 1.984v6.782h-1.25V3.653zM10.445 5.32H3.663V4.07h6.782v1.25zM10.445 3.23H5.227V1.98h5.218v1.25z" clip-rule="evenodd"/><path fill="#6F6DD4" fill-rule="evenodd" d="M21.82 5.32h-4.071V4.07h4.174c.633 0 1.147.513 1.147 1.147v17.739h-1.25V5.32z" clip-rule="evenodd"/><path fill="#6F6DD4" fill-rule="evenodd" d="M23.907 3.23h-6.158V1.98h6.26c.634 0 1.148.514 1.148 1.147v17.739h-1.25V3.23z" clip-rule="evenodd"/></svg>