<svg xmlns="http://www.w3.org/2000/svg" fill="none" viewBox="0 0 18 15"><path fill="#fff" d="M16.15 3.643c.011.16.011.32.011.48C16.161 9 12.45 14.62 5.665 14.62c-2.09 0-4.032-.605-5.665-1.656.297.034.582.046.89.046a7.388 7.388 0 0 0 4.58-1.576 3.695 3.695 0 0 1-3.448-2.559c.228.035.456.057.696.057.331 0 .663-.045.971-.125a3.69 3.69 0 0 1-2.958-3.62V5.14a3.715 3.715 0 0 0 1.667.468A3.686 3.686 0 0 1 .754 2.536c0-.686.182-1.314.502-1.862a10.486 10.486 0 0 0 7.607 3.86 4.165 4.165 0 0 1-.091-.845A3.687 3.687 0 0 1 12.46 0a3.68 3.68 0 0 1 2.695 1.165 7.262 7.262 0 0 0 2.341-.89 3.679 3.679 0 0 1-1.621 2.032A7.395 7.395 0 0 0 18 1.737a7.928 7.928 0 0 1-1.85 1.906z"/></svg>