<svg xmlns="http://www.w3.org/2000/svg" fill="none" viewBox="0 0 25 26"><path fill="#6F6DD4" fill-rule="evenodd" d="M1.84 14.313c.876-1.581 2.42-3.751 4.671-4.94l-.584-1.105C3.065 9.78 1.283 12.62.442 14.278l-.271.537 4.576 2.543-2.067 2.584 7.387 4.546.655-1.064-6.183-3.805 2.108-2.635-4.808-2.671zM22.56 9.875c.816.686 1.605 1.526 1.973 2.341l.143.316-3.104 4.656 1.702 2.838-10.638 5.599h-1.4l.105-.716c.207-1.402.968-3.617 2.29-5.91 1.326-2.3 3.244-4.727 5.8-6.516l.716 1.024c-2.366 1.657-4.171 3.928-5.433 6.116-.976 1.693-1.611 3.308-1.932 4.512l8.74-4.6-1.429-2.382 3.143-4.715c-.305-.496-.838-1.066-1.48-1.607-.764-.641-1.6-1.174-2.214-1.436l.493-1.15c.757.325 1.698.934 2.525 1.63zM9.243 2.224L7.866 7.42 6.658 7.1 8.05 1.847C8.442.66 9.541.198 10.541.436l1.676.4-.29 1.215-1.676-.399c-.42-.1-.834.068-1.008.572z" clip-rule="evenodd"/><path fill="#6F6DD4" fill-rule="evenodd" d="M15.72 1.756c-.126-.066-.32-.103-.604-.062-.45.063-1.432.46-2.745 1.63l-.832-.933C12.945 1.14 14.15.57 14.94.456m.782 1.3c.114.059.232.17.321.406zm.321.406l1.583 5.274 1.197-.36-1.588-5.293-.012-.035c-.18-.494-.492-.877-.926-1.102-.423-.219-.897-.255-1.356-.19" clip-rule="evenodd"/><path fill="#6F6DD4" fill-rule="evenodd" d="M20.833 7.884H4.653v-1.25h16.18v1.25zM8.41 15.61v-1.563H7.16v1.571c.007.818.423 1.429 1.001 1.868l2.286 1.87.02.016c.45.338 1 .52 1.564.52h.451v-1.25h-.45c-.293 0-.576-.093-.805-.262L8.944 16.51l-.02-.016c-.358-.27-.51-.548-.514-.885zM13.004 9.167l1.323.662-.559 1.118-.764-.382-.765.382-.559-1.118 1.324-.662z" clip-rule="evenodd"/><path fill="#6F6DD4" fill-rule="evenodd" d="M9.873 9.445a1.463 1.463 0 1 0 0 2.926 1.463 1.463 0 0 0 0-2.926zM7.16 10.908a2.713 2.713 0 1 1 5.425 0 2.713 2.713 0 0 1-5.425 0zM16.135 9.445a1.463 1.463 0 1 0 0 2.926 1.463 1.463 0 0 0 0-2.926zm-2.713 1.463a2.713 2.713 0 1 1 5.426 0 2.713 2.713 0 0 1-5.426 0z" clip-rule="evenodd"/></svg>