<svg xmlns="http://www.w3.org/2000/svg" fill="none" viewBox="0 0 28 23"><path fill="#53A1D8" fill-rule="evenodd" d="M20.184 18.513a9.554 9.554 0 0 1-6.412 2.46 9.553 9.553 0 0 1-6.411-2.46l-.755.839a10.678 10.678 0 0 0 7.166 2.749c2.756 0 5.269-1.04 7.167-2.749l-.755-.839zm-.706-3.486a6.766 6.766 0 0 1-5.706 3.125 6.766 6.766 0 0 1-5.705-3.125l-.95.609a7.892 7.892 0 0 0 6.655 3.644 7.892 7.892 0 0 0 6.656-3.644l-.95-.609zm4.448 1.763v-.894h1.128v2.82h-2.82v-1.128h.894l-3.55-3.55.798-.798 3.55 3.55zm-20.308 0l3.55-3.55.798.798-3.55 3.55h.895v1.128H2.49v-2.82h1.127v.894zm10.718-8.792c.935 0 1.693.851 1.693 1.692v.564H14.9V9.69a.585.585 0 0 0-.564-.564h-1.128a.585.585 0 0 0-.564.564v.171c0 .2.163.36.373.423l1.845.553c.712.214 1.167.827 1.167 1.503v.17c0 .842-.758 1.693-1.693 1.693v1.128h-1.128v-1.128c-.927-.007-1.692-.856-1.692-1.692v-.564h1.128v.564c0 .282.263.564.576.564h1.116a.585.585 0 0 0 .564-.564v-.171c0-.198-.154-.36-.362-.423l-1.845-.552c-.712-.214-1.177-.83-1.177-1.504v-.17c0-.842.758-1.693 1.692-1.693V6.87h1.128v1.128zM2.16 11.947l.729.73-.798.797L0 11.383 2.091 9.29l.798.798-.73.73h5.972v1.128H2.16zm23.225-1.128l-.73-.73.798-.798 2.091 2.092-2.09 2.09-.799-.797.73-.73h-5.972V10.82h5.972zm-2.257-5.641h-.894V4.049h2.82v2.82h-1.128v-.894l-3.55 3.55-.798-.798 3.55-3.55zm-19.51.797v.895H2.49V4.05h2.82v1.128h-.894l3.55 3.55-.798.797-3.55-3.55zm16.81.59a7.892 7.892 0 0 0-6.656-3.644 7.892 7.892 0 0 0-6.655 3.645l.95.608a6.766 6.766 0 0 1 5.705-3.125 6.766 6.766 0 0 1 5.706 3.125l.95-.608zm.511-3.716A10.676 10.676 0 0 0 13.772.101c-2.755 0-5.268 1.04-7.166 2.748l.755.839a9.551 9.551 0 0 1 6.411-2.46c2.466 0 4.714.931 6.412 2.46l.755-.839z" clip-rule="evenodd"/></svg>