<svg xmlns="http://www.w3.org/2000/svg" fill="none" viewBox="0 0 160 121"><path fill="#53A1D8" fill-rule="evenodd" d="M64.58 61.719c-1.043 3.23-1.433 5.784-1.433 6.914 0 .73.554 1.678 2.189 2.736 1.588 1.027 3.957 1.992 6.976 2.817 6.025 1.648 14.406 2.68 23.706 2.68 9.3 0 17.681-1.032 23.706-2.68 3.019-.825 5.388-1.79 6.977-2.817 1.634-1.058 2.188-2.005 2.188-2.736 0-1.13-.39-3.683-1.433-6.914-1.036-3.209-2.691-7.013-5.169-10.654-4.938-7.258-13.122-13.856-26.269-13.856-13.147 0-21.33 6.598-26.27 13.856-2.477 3.64-4.132 7.445-5.168 10.654zm3.446-11.826c5.236-7.694 14.008-14.767 27.992-14.767 13.984 0 22.756 7.073 27.992 14.767 2.609 3.835 4.345 7.827 5.429 11.186 1.076 3.336 1.534 6.122 1.534 7.554 0 1.83-1.344 3.323-3.141 4.485-1.843 1.192-4.441 2.226-7.559 3.078-6.249 1.709-14.824 2.752-24.255 2.752-9.43 0-18.006-1.043-24.255-2.752-3.118-.852-5.716-1.886-7.559-3.078-1.797-1.162-3.14-2.654-3.14-4.485 0-1.432.457-4.218 1.533-7.554 1.084-3.36 2.82-7.35 5.43-11.186z" clip-rule="evenodd"/><path fill="#53A1D8" fill-rule="evenodd" d="M92.104 46.237a1.042 1.042 0 0 1-.832 1.216c-6.402 1.202-10.429 4.787-12.872 8.44-2.475 3.7-3.279 7.397-3.279 8.646a1.042 1.042 0 1 1-2.083 0c0-1.73.968-5.825 3.63-9.804 2.694-4.026 7.167-8.006 14.22-9.33a1.042 1.042 0 0 1 1.216.832zM56.573 80.343a1.042 1.042 0 0 1 1.412-.42c2.082 1.13 4.541 2.163 7.302 3.085a1.042 1.042 0 1 1-.66 1.976c-2.847-.95-5.422-2.03-7.634-3.228a1.042 1.042 0 0 1-.42-1.413zM73.587 86.295c.11-.565.656-.934 1.22-.825 2.492.483 5.1.891 7.827 1.2a1.042 1.042 0 1 1-.235 2.07 103.216 103.216 0 0 1-7.988-1.224 1.042 1.042 0 0 1-.824-1.221zM135.47 80.343a1.042 1.042 0 0 1-.42 1.412c-2.212 1.2-4.787 2.278-7.635 3.23a1.041 1.041 0 1 1-.66-1.977c2.761-.922 5.221-1.956 7.303-3.084a1.042 1.042 0 0 1 1.412.42zM118.456 86.295a1.04 1.04 0 0 1-.824 1.22 103.2 103.2 0 0 1-7.988 1.226 1.042 1.042 0 0 1-.235-2.07c2.727-.31 5.335-.718 7.826-1.2.565-.11 1.112.259 1.221.824zM90.69 88.361a1.042 1.042 0 0 1 1.076-1.005c1.408.05 2.822.08 4.258.08s2.85-.03 4.257-.08a1.042 1.042 0 1 1 .073 2.083c-1.425.05-2.865.081-4.33.081-1.465 0-2.905-.032-4.33-.081a1.042 1.042 0 0 1-1.005-1.078zM36.02 78.63c.576 0 1.042.467 1.042 1.042 0 2.982 1.488 5.925 4.394 8.709 2.91 2.786 7.174 5.343 12.529 7.512 10.705 4.337 25.567 7.043 42.036 7.043 3.847 0 7.611-.148 11.251-.43a1.04 1.04 0 1 1 .161 2.077c-3.695.286-7.512.436-11.412.436-16.67 0-31.808-2.735-42.818-7.195-5.503-2.229-10.025-4.909-13.188-7.939-3.166-3.032-5.036-6.483-5.036-10.213 0-.575.467-1.042 1.042-1.042zM156.021 78.63c.575 0 1.041.467 1.041 1.042 0 4.902-3.218 9.31-8.405 12.96-5.208 3.666-12.576 6.702-21.323 8.851a1.042 1.042 0 0 1-.497-2.023c8.598-2.112 15.697-5.066 20.621-8.531 4.945-3.48 7.521-7.341 7.521-11.257 0-.575.467-1.042 1.042-1.042z" clip-rule="evenodd"/><path fill="#53A1D8" fill-rule="evenodd" d="M56.848 60.75c.202.538-.07 1.139-.61 1.34-6.018 2.257-10.85 4.996-14.158 8.024-3.308 3.027-5.017 6.265-5.017 9.56 0 10.577 6.437 20.28 17.108 27.387 10.664 7.102 25.457 11.528 41.85 11.528 16.392 0 31.185-4.426 41.849-11.528 10.672-7.107 17.109-16.81 17.109-27.388 0-3.294-1.709-6.532-5.016-9.559-3.309-3.028-8.14-5.767-14.16-8.024a1.042 1.042 0 1 1 .731-1.95c6.171 2.313 11.265 5.17 14.835 8.437 3.572 3.268 5.693 7.024 5.693 11.096 0 11.492-6.993 21.768-18.037 29.122-11.051 7.36-26.258 11.877-43.004 11.877s-31.953-4.517-43.004-11.877c-11.044-7.354-18.038-17.63-18.038-29.122 0-4.072 2.123-7.828 5.694-11.096 3.57-3.267 8.665-6.124 14.834-8.437.539-.202 1.14.07 1.341.61z" clip-rule="evenodd"/><path fill="#18212C" fill-rule="evenodd" d="M51 21a3 3 0 1 0 0-6 3 3 0 0 0 0 6zm0 2a5 5 0 1 0 0-10 5 5 0 0 0 0 10zM155 39a3 3 0 1 0 0-6 3 3 0 0 0 0 6zm0 2a5 5 0 1 0 0-10 5 5 0 0 0 0 10zM5 69a3 3 0 1 0 0-6 3 3 0 0 0 0 6zm0 2a5 5 0 1 0 0-10 5 5 0 0 0 0 10zM111 .573l1.892 5.823h6.123l-4.954 3.598 1.892 5.823L111 12.22l-4.953 3.598 1.892-5.823-4.954-3.598h6.123L111 .573zm0 4.854l-.802 2.469h-2.596l2.1 1.526-.802 2.468 2.1-1.526 2.1 1.526-.802-2.468 2.1-1.526h-2.596L111 5.426z" clip-rule="evenodd"/></svg>