<svg xmlns="http://www.w3.org/2000/svg" fill="none" viewBox="0 0 132 141"><path fill="#53A1D8" fill-rule="evenodd" d="M61.987 47.794c5.45-5.24 13.04-8.836 21.575-8.836s16.123 3.596 21.573 8.836c5.439 5.23 8.817 12.166 8.817 18.918V79.13h-2.084V66.712c0-6.076-3.06-12.496-8.177-17.416-5.106-4.91-12.192-8.255-20.129-8.255-7.938 0-15.024 3.346-20.13 8.255-5.118 4.92-8.178 11.34-8.178 17.416v5.896H53.17v-5.896c0-6.752 3.378-13.688 8.817-18.918zM103.177 85.706v-4.424h2.084v4.424c0 6.55-2.676 13.698-9.175 18.032l-1.156-1.734c5.792-3.862 8.247-10.275 8.247-16.298z" clip-rule="evenodd"/><path fill="#53A1D8" fill-rule="evenodd" d="M74.83 63.261c-2.566-3.3-4.263-6.816-4.263-10.2h2.083c0 2.714 1.383 5.78 3.825 8.922 2.426 3.121 5.811 6.207 9.606 8.937 3.79 2.727 7.957 5.077 11.921 6.74 3.982 1.672 7.683 2.62 10.563 2.62v2.084c-3.273 0-7.267-1.06-11.369-2.782-4.119-1.73-8.422-4.158-12.332-6.971-3.907-2.811-7.453-6.03-10.034-9.35zM59.695 79.137c0-7.84 6.023-13.893 11.51-16.18l.802 1.924c-4.97 2.07-10.229 7.505-10.229 14.256v6.518c.046 7.139 5.337 14.469 13.917 18.287l-.847 1.903c-9.124-4.06-15.102-12.02-15.153-20.18V79.137zM84.65 108.448a3.305 3.305 0 0 0-3.306 3.306 3.305 3.305 0 0 0 3.307 3.306h2.174a3.307 3.307 0 0 0 0-6.612H84.65zm-5.389 3.306a5.388 5.388 0 0 1 5.39-5.39h2.174a5.39 5.39 0 0 1 0 10.779H84.65a5.388 5.388 0 0 1-5.39-5.389z" clip-rule="evenodd"/><path fill="#53A1D8" fill-rule="evenodd" d="M113.913 92.032c0 12.051-10.241 20.729-22.672 20.729h-2.244v-2.083h2.244c11.504 0 20.589-7.957 20.589-18.646h2.083z" clip-rule="evenodd"/><path fill="#53A1D8" fill-rule="evenodd" d="M111.869 71.586h5.39a5.39 5.39 0 0 1 5.389 5.39v10.869a5.39 5.39 0 0 1-5.389 5.39h-5.39v-21.65zm2.084 2.083v17.482h3.306a3.306 3.306 0 0 0 3.306-3.306v-10.87a3.306 3.306 0 0 0-3.306-3.306h-3.306zM49.872 73.67a3.305 3.305 0 0 0-3.306 3.305v10.87a3.305 3.305 0 0 0 3.306 3.306h3.306V73.669h-3.306zm-5.39 3.305a5.388 5.388 0 0 1 5.39-5.39h5.39v21.65h-5.39a5.388 5.388 0 0 1-5.39-5.39v-10.87zM68.396 118.239v-17.391h2.084v17.391h-2.084z" clip-rule="evenodd"/><path fill="#53A1D8" fill-rule="evenodd" d="M69.435 114.587l16.69 16.691-7.994 7.994-16.69-16.69 7.994-7.995zm-5.048 7.995l13.744 13.744 5.049-5.048-13.745-13.745-5.048 5.049z" clip-rule="evenodd"/><path fill="#53A1D8" fill-rule="evenodd" d="M99.867 114.587l7.995 7.995-16.69 16.69-7.995-7.994 16.69-16.691zm-13.744 16.691l5.049 5.048 13.744-13.744-5.049-5.049-13.744 13.745zM50.33 124.347l12.357-2.746.452 2.034-12.357 2.746A12 12 0 0 0 42 134.302l-2.01 6.037-1.977-.659 2.01-6.037a14.085 14.085 0 0 1 10.309-9.296z" clip-rule="evenodd"/><path fill="#53A1D8" fill-rule="evenodd" d="M106.167 123.635l.452-2.034 12.354 2.746a14.081 14.081 0 0 1 10.308 9.296l2.014 6.037-1.977.659-2.013-6.037a12 12 0 0 0-8.783-7.921l-12.355-2.746z" clip-rule="evenodd"/><path fill="#515151" fill-rule="evenodd" d="M30.363 39.071l8.384 9.195c.046.053.076.06.09.064a.207.207 0 0 0 .114-.012.207.207 0 0 0 .094-.066c.008-.012.026-.038.026-.107V39.07h7.212c1.13 0 2.047-.916 2.047-2.047V3.7c0-1.123-.91-2.032-2.032-2.032h-42.6c-1.122 0-2.031.91-2.031 2.032v33.335c0 1.125.912 2.037 2.036 2.037h26.66zm7.13 10.293c1.125 1.287 3.245.49 3.245-1.22v-7.406h5.545a3.713 3.713 0 0 0 3.713-3.714V3.7A3.699 3.699 0 0 0 46.297 0H3.7A3.699 3.699 0 0 0 0 3.699v33.335a3.704 3.704 0 0 0 3.703 3.704h25.924l7.865 8.626z" clip-rule="evenodd"/><mask id="a" width="24" height="17" x="12.33" y="10.994" fill="#000" maskUnits="userSpaceOnUse"><path fill="#fff" d="M12.33 10.994h24v17h-24z"/><path d="M26.404 18.98l-.19.206c.041.044.117.118.228.225l-.624.516-.071.009c-.06.008-.14 0-.239-.024l-.191.206-.308.004-.287.309-.327-.14-.36.156-.33.26a.2.2 0 0 0-.092-.007c-.095.013-.145.05-.15.11l-.066.608a.455.455 0 0 1 .099.205.77.77 0 0 1-.02.275l-.035.15.076.026a1.01 1.01 0 0 1-.073.554c.092.157.157.282.193.374l-.145.146.1.64-.04.95.004.18c.043.14.067.233.073.281l.011.09.095.169.059.319a1.72 1.72 0 0 1-.055.279c.04.406-.224.658-.792.755l-.086-.388-.173-.214-.148-.307-.08-.625-.174-.359.049-.043-.088-.26-.057-.447-.036-.703-.116-.62.06-.371-.052-.41a2.198 2.198 0 0 1-.008-.345c.017-.147.022-.256.012-.328a.606.606 0 0 0-.15-.325l-.043-.05-.049.044-.241-.042a2.288 2.288 0 0 1-.596.167 1.63 1.63 0 0 1-.288.02l-.738.33-.832.016a4.847 4.847 0 0 0-.451.022c-.155.02-.364.089-.627.207l-.071.01-.388.231-.31-.16-.436.147-.058-.029-.066.045-.36.028-.017.148-.525-.133-.44.111.106.822-.001.417.133.328-.109.286.158.234-.027.784.102.223.019.433.207.336-.051.17.063.21c.022.263-.11.413-.396.45-.488.062-.788-.347-.902-1.227l-.289-.272-.116-.203a.698.698 0 0 1 .056-.406l-.003-.308-.077-.172-.268-1.38-.048-.376-.043-.049-.382-.15-.166-.868.463-.35c.035-.198.034-.44-.002-.726a2.376 2.376 0 0 0-.18-.684l.115.04-.05-.248.059-.389-.188-.611-.053-.41.045-.642.648-.464.372.206.39.077.104.386.191.211c-.038.175-.07.354-.094.539.06.186.104.386.131.6.043.333.044.666.002.998l.204.318-.146.273.027.215.168.032.421-.108.308-.003.476-.116.15.035c.057-.02.122-.034.194-.043a.989.989 0 0 1 .218.008l.038.014.268-.035.266-.052c.177-.035.354-.064.533-.087l.263-.215.288.126.27-.017.092.007c.092-.036.168-.058.227-.066l.09-.011 1.867-.44.27-.016.082-.066-.128-.291.055-.28-.22-.716.096-.248-.432-.816-.052-.12-.082-.08a4.13 4.13 0 0 0 .05-.17l.027-.076-.01-.071c-.012-.095.072-.197.252-.305l.114-.523.511.025.23.098.487-.171.032.25.207-.082.108.84-.07.154.188.338.03.233.126.274-.1.357.084.225.016.833.016.125.373-.066.676-.25.344-.008.21-.063.392-.05A.675.675 0 0 1 25.68 19a.696.696 0 0 1 .277.037l.447-.058zM28.536 12.717c.018.143-.06.286-.235.43l.004.036c-.19.303-.367.482-.53.54l-.226.355-.148.255-.397.16-.147.273-.267.18-.411.47-.32-.231-.004-.453.155-.347c-.01-.168.067-.323.23-.465l-.009-.071.098-.086-.016-.27.276-.108-.02-.16.21-.064c.016-.244.095-.43.236-.556l.049-.043.093-.121.088-.447c.81.09 1.24.33 1.29.723zm3.037 9.228c.036.274.01.453-.076.537l-.08.082-.057.262-.274.126a.995.995 0 0 1-.318.494l-.154.075-.2.28-.207.08c-.056.225-.214.36-.474.406a4.62 4.62 0 0 1-.133.235 1.288 1.288 0 0 1-.526.286l-.087.029-.104.177-.357.046-.258.25-.801-.441-.429-.653-.13-.872-.1-.205.013-1.599.062-.08a2.657 2.657 0 0 1-.12-.511c-.014-.107-.006-.332.022-.675l.037-.422a.726.726 0 0 0-.173-.213l.064-.353-.018-.416.03-.058a1.134 1.134 0 0 1-.136-.345.494.494 0 0 0 .028-.203.97.97 0 0 1-.092-.297c-.037-.286.107-.438.431-.455l.217-.01c.134-.09.218-.137.254-.141.238-.03.416.08.532.33l.01.072c.066.137.107.27.124.401a.559.559 0 0 1-.006.237l-.01.909.157.234a.86.86 0 0 1-.14.598l.098.206-.145.708c.015.3.014.53-.002.69l.058.446-.075.264.04.176.017.415.078.317.295.18.21-.064.028-.058h.145l.223-.101.171-.222.058-.116.123-.034.024-.094.044-.078.117.057.155-.201.11.004.02-.13.035-.004.035-.15.152-.092.318-.204c.25-.226.505-.356.767-.39l.071-.009a.64.64 0 0 1 .31.287zM34.582 15.824l-.047.06-.015.31-.089.012-.028.203.053-.006c.043.14.08.243.113.312l-.05.17c.038.115.061.197.067.245.005.036.002.109-.008.219l-.015.165.13 1.435.13.165-.05.46.156.361-.067.19c.051.115.085.231.1.35l.128.292-.1.068.011.089a.559.559 0 0 1-.005.237l.016.125c-.03.33-.182.513-.456.548-.357.046-.566-.163-.625-.627l-.044-.34-.086-.388-.153-.343.064-.208-.112-.167.03-.476-.188-.048.054-.424-.056-.156-.042-.322-.047-.084.01-.201a.817.817 0 0 1 .038-.277l-.043-.05-.014-.107-.184-.157.162-.293-.096-.188.03-.185-.032-.25a2.112 2.112 0 0 1-.04-.176.84.84 0 0 1-.003-.163l-.016-.125a.587.587 0 0 1-.054-.138l-.063-.065c-.006-.047.013-.086.057-.116l-.062-.065-.028-.214-.2-.138-.036-.848.527.005.28-.09.685.111.121.238c.021.07.04.17.057.302.01.071.01.126.003.163l-.04.114-.029.058.2.428zm1.328 7.506l-.022.257c-.01.11-.012.183-.008.218l-.42.4-.316-.05-.251.159-.269-.111-.375.048-.3-.65.084-.466.236-.284.07-.027.155-.202c.181.001.316.014.404.04.19-.025.331-.013.422.036a1.27 1.27 0 0 1-.167.112l.4.003.155.216.202.3z"/></mask><path fill="#53A1D8" d="M26.404 18.98l-.19.206c.041.044.117.118.228.225l-.624.516-.071.009c-.06.008-.14 0-.239-.024l-.191.206-.308.004-.287.309-.327-.14-.36.156-.33.26a.2.2 0 0 0-.092-.007c-.095.013-.145.05-.15.11l-.066.608a.455.455 0 0 1 .099.205.77.77 0 0 1-.02.275l-.035.15.076.026a1.01 1.01 0 0 1-.073.554c.092.157.157.282.193.374l-.145.146.1.64-.04.95.004.18c.043.14.067.233.073.281l.011.09.095.169.059.319a1.72 1.72 0 0 1-.055.279c.04.406-.224.658-.792.755l-.086-.388-.173-.214-.148-.307-.08-.625-.174-.359.049-.043-.088-.26-.057-.447-.036-.703-.116-.62.06-.371-.052-.41a2.198 2.198 0 0 1-.008-.345c.017-.147.022-.256.012-.328a.606.606 0 0 0-.15-.325l-.043-.05-.049.044-.241-.042a2.288 2.288 0 0 1-.596.167 1.63 1.63 0 0 1-.288.02l-.738.33-.832.016a4.847 4.847 0 0 0-.451.022c-.155.02-.364.089-.627.207l-.071.01-.388.231-.31-.16-.436.147-.058-.029-.066.045-.36.028-.017.148-.525-.133-.44.111.106.822-.001.417.133.328-.109.286.158.234-.027.784.102.223.019.433.207.336-.051.17.063.21c.022.263-.11.413-.396.45-.488.062-.788-.347-.902-1.227l-.289-.272-.116-.203a.698.698 0 0 1 .056-.406l-.003-.308-.077-.172-.268-1.38-.048-.376-.043-.049-.382-.15-.166-.868.463-.35c.035-.198.034-.44-.002-.726a2.376 2.376 0 0 0-.18-.684l.115.04-.05-.248.059-.389-.188-.611-.053-.41.045-.642.648-.464.372.206.39.077.104.386.191.211c-.038.175-.07.354-.094.539.06.186.104.386.131.6.043.333.044.666.002.998l.204.318-.146.273.027.215.168.032.421-.108.308-.003.476-.116.15.035c.057-.02.122-.034.194-.043a.989.989 0 0 1 .218.008l.038.014.268-.035.266-.052c.177-.035.354-.064.533-.087l.263-.215.288.126.27-.017.092.007c.092-.036.168-.058.227-.066l.09-.011 1.867-.44.27-.016.082-.066-.128-.291.055-.28-.22-.716.096-.248-.432-.816-.052-.12-.082-.08a4.13 4.13 0 0 0 .05-.17l.027-.076-.01-.071c-.012-.095.072-.197.252-.305l.114-.523.511.025.23.098.487-.171.032.25.207-.082.108.84-.07.154.188.338.03.233.126.274-.1.357.084.225.016.833.016.125.373-.066.676-.25.344-.008.21-.063.392-.05A.675.675 0 0 1 25.68 19a.696.696 0 0 1 .277.037l.447-.058zM28.536 12.717c.018.143-.06.286-.235.43l.004.036c-.19.303-.367.482-.53.54l-.226.355-.148.255-.397.16-.147.273-.267.18-.411.47-.32-.231-.004-.453.155-.347c-.01-.168.067-.323.23-.465l-.009-.071.098-.086-.016-.27.276-.108-.02-.16.21-.064c.016-.244.095-.43.236-.556l.049-.043.093-.121.088-.447c.81.09 1.24.33 1.29.723zm3.037 9.228c.036.274.01.453-.076.537l-.08.082-.057.262-.274.126a.995.995 0 0 1-.318.494l-.154.075-.2.28-.207.08c-.056.225-.214.36-.474.406a4.62 4.62 0 0 1-.133.235 1.288 1.288 0 0 1-.526.286l-.087.029-.104.177-.357.046-.258.25-.801-.441-.429-.653-.13-.872-.1-.205.013-1.599.062-.08a2.657 2.657 0 0 1-.12-.511c-.014-.107-.006-.332.022-.675l.037-.422a.726.726 0 0 0-.173-.213l.064-.353-.018-.416.03-.058a1.134 1.134 0 0 1-.136-.345.494.494 0 0 0 .028-.203.97.97 0 0 1-.092-.297c-.037-.286.107-.438.431-.455l.217-.01c.134-.09.218-.137.254-.141.238-.03.416.08.532.33l.01.072c.066.137.107.27.124.401a.559.559 0 0 1-.006.237l-.01.909.157.234a.86.86 0 0 1-.14.598l.098.206-.145.708c.015.3.014.53-.002.69l.058.446-.075.264.04.176.017.415.078.317.295.18.21-.064.028-.058h.145l.223-.101.171-.222.058-.116.123-.034.024-.094.044-.078.117.057.155-.201.11.004.02-.13.035-.004.035-.15.152-.092.318-.204c.25-.226.505-.356.767-.39l.071-.009a.64.64 0 0 1 .31.287zM34.582 15.824l-.047.06-.015.31-.089.012-.028.203.053-.006c.043.14.08.243.113.312l-.05.17c.038.115.061.197.067.245.005.036.002.109-.008.219l-.015.165.13 1.435.13.165-.05.46.156.361-.067.19c.051.115.085.231.1.35l.128.292-.1.068.011.089a.559.559 0 0 1-.005.237l.016.125c-.03.33-.182.513-.456.548-.357.046-.566-.163-.625-.627l-.044-.34-.086-.388-.153-.343.064-.208-.112-.167.03-.476-.188-.048.054-.424-.056-.156-.042-.322-.047-.084.01-.201a.817.817 0 0 1 .038-.277l-.043-.05-.014-.107-.184-.157.162-.293-.096-.188.03-.185-.032-.25a2.112 2.112 0 0 1-.04-.176.84.84 0 0 1-.003-.163l-.016-.125a.587.587 0 0 1-.054-.138l-.063-.065c-.006-.047.013-.086.057-.116l-.062-.065-.028-.214-.2-.138-.036-.848.527.005.28-.09.685.111.121.238c.021.07.04.17.057.302.01.071.01.126.003.163l-.04.114-.029.058.2.428zm1.328 7.506l-.022.257c-.01.11-.012.183-.008.218l-.42.4-.316-.05-.251.159-.269-.111-.375.048-.3-.65.084-.466.236-.284.07-.027.155-.202c.181.001.316.014.404.04.19-.025.331-.013.422.036a1.27 1.27 0 0 1-.167.112l.4.003.155.216.202.3z"/><path stroke="#53A1D8" stroke-width=".4" d="M26.404 18.98l-.19.206c.041.044.117.118.228.225l-.624.516-.071.009c-.06.008-.14 0-.239-.024l-.191.206-.308.004-.287.309-.327-.14-.36.156-.33.26a.2.2 0 0 0-.092-.007c-.095.013-.145.05-.15.11l-.066.608a.455.455 0 0 1 .099.205.77.77 0 0 1-.02.275l-.035.15.076.026a1.01 1.01 0 0 1-.073.554c.092.157.157.282.193.374l-.145.146.1.64-.04.95.004.18c.043.14.067.233.073.281l.011.09.095.169.059.319a1.72 1.72 0 0 1-.055.279c.04.406-.224.658-.792.755l-.086-.388-.173-.214-.148-.307-.08-.625-.174-.359.049-.043-.088-.26-.057-.447-.036-.703-.116-.62.06-.371-.052-.41a2.198 2.198 0 0 1-.008-.345c.017-.147.022-.256.012-.328a.606.606 0 0 0-.15-.325l-.043-.05-.049.044-.241-.042a2.288 2.288 0 0 1-.596.167 1.63 1.63 0 0 1-.288.02l-.738.33-.832.016a4.847 4.847 0 0 0-.451.022c-.155.02-.364.089-.627.207l-.071.01-.388.231-.31-.16-.436.147-.058-.029-.066.045-.36.028-.017.148-.525-.133-.44.111.106.822-.001.417.133.328-.109.286.158.234-.027.784.102.223.019.433.207.336-.051.17.063.21c.022.263-.11.413-.396.45-.488.062-.788-.347-.902-1.227l-.289-.272-.116-.203a.698.698 0 0 1 .056-.406l-.003-.308-.077-.172-.268-1.38-.048-.376-.043-.049-.382-.15-.166-.868.463-.35c.035-.198.034-.44-.002-.726a2.376 2.376 0 0 0-.18-.684l.115.04-.05-.248.059-.389-.188-.611-.053-.41.045-.642.648-.464.372.206.39.077.104.386.191.211c-.038.175-.07.354-.094.539.06.186.104.386.131.6.043.333.044.666.002.998l.204.318-.146.273.027.215.168.032.421-.108.308-.003.476-.116.15.035c.057-.02.122-.034.194-.043a.989.989 0 0 1 .218.008l.038.014.268-.035.266-.052c.177-.035.354-.064.533-.087l.263-.215.288.126.27-.017.092.007c.092-.036.168-.058.227-.066l.09-.011 1.867-.44.27-.016.082-.066-.128-.291.055-.28-.22-.716.096-.248-.432-.816-.052-.12-.082-.08a4.13 4.13 0 0 0 .05-.17l.027-.076-.01-.071c-.012-.095.072-.197.252-.305l.114-.523.511.025.23.098.487-.171.032.25.207-.082.108.84-.07.154.188.338.03.233.126.274-.1.357.084.225.016.833.016.125.373-.066.676-.25.344-.008.21-.063.392-.05A.675.675 0 0 1 25.68 19a.696.696 0 0 1 .277.037l.447-.058zM28.536 12.717c.018.143-.06.286-.235.43l.004.036c-.19.303-.367.482-.53.54l-.226.355-.148.255-.397.16-.147.273-.267.18-.411.47-.32-.231-.004-.453.155-.347c-.01-.168.067-.323.23-.465l-.009-.071.098-.086-.016-.27.276-.108-.02-.16.21-.064c.016-.244.095-.43.236-.556l.049-.043.093-.121.088-.447c.81.09 1.24.33 1.29.723zm3.037 9.228c.036.274.01.453-.076.537l-.08.082-.057.262-.274.126a.995.995 0 0 1-.318.494l-.154.075-.2.28-.207.08c-.056.225-.214.36-.474.406a4.62 4.62 0 0 1-.133.235 1.288 1.288 0 0 1-.526.286l-.087.029-.104.177-.357.046-.258.25-.801-.441-.429-.653-.13-.872-.1-.205.013-1.599.062-.08a2.657 2.657 0 0 1-.12-.511c-.014-.107-.006-.332.022-.675l.037-.422a.726.726 0 0 0-.173-.213l.064-.353-.018-.416.03-.058a1.134 1.134 0 0 1-.136-.345.494.494 0 0 0 .028-.203.97.97 0 0 1-.092-.297c-.037-.286.107-.438.431-.455l.217-.01c.134-.09.218-.137.254-.141.238-.03.416.08.532.33l.01.072c.066.137.107.27.124.401a.559.559 0 0 1-.006.237l-.01.909.157.234a.86.86 0 0 1-.14.598l.098.206-.145.708c.015.3.014.53-.002.69l.058.446-.075.264.04.176.017.415.078.317.295.18.21-.064.028-.058h.145l.223-.101.171-.222.058-.116.123-.034.024-.094.044-.078.117.057.155-.201.11.004.02-.13.035-.004.035-.15.152-.092.318-.204c.25-.226.505-.356.767-.39l.071-.009a.64.64 0 0 1 .31.287zM34.582 15.824l-.047.06-.015.31-.089.012-.028.203.053-.006c.043.14.08.243.113.312l-.05.17c.038.115.061.197.067.245.005.036.002.109-.008.219l-.015.165.13 1.435.13.165-.05.46.156.361-.067.19c.051.115.085.231.1.35l.128.292-.1.068.011.089a.559.559 0 0 1-.005.237l.016.125c-.03.33-.182.513-.456.548-.357.046-.566-.163-.625-.627l-.044-.34-.086-.388-.153-.343.064-.208-.112-.167.03-.476-.188-.048.054-.424-.056-.156-.042-.322-.047-.084.01-.201a.817.817 0 0 1 .038-.277l-.043-.05-.014-.107-.184-.157.162-.293-.096-.188.03-.185-.032-.25a2.112 2.112 0 0 1-.04-.176.84.84 0 0 1-.003-.163l-.016-.125a.587.587 0 0 1-.054-.138l-.063-.065c-.006-.047.013-.086.057-.116l-.062-.065-.028-.214-.2-.138-.036-.848.527.005.28-.09.685.111.121.238c.021.07.04.17.057.302.01.071.01.126.003.163l-.04.114-.029.058.2.428zm1.328 7.506l-.022.257c-.01.11-.012.183-.008.218l-.42.4-.316-.05-.251.159-.269-.111-.375.048-.3-.65.084-.466.236-.284.07-.027.155-.202c.181.001.316.014.404.04.19-.025.331-.013.422.036a1.27 1.27 0 0 1-.167.112l.4.003.155.216.202.3z" mask="url(#a)"/></svg>