<svg xmlns="http://www.w3.org/2000/svg" fill="none" viewBox="0 0 24 20"><path fill="#3DD9AB" fill-rule="evenodd" d="M22.44 20a.975.975 0 0 0 .975-.975V.975A.975.975 0 0 0 22.44 0H.976A.976.976 0 0 0 0 .975v18.05c0 .538.438.975.976.975H22.44zm0-16.098H.976v15.123H22.44V3.902zm-6.83 9.269h-.976v4.877h-.975v-1.463h-.975v1.463h-.976V15.61h1.951v-3.415h2.927v1.951h1.952v.975h1.95v2.927h-.975v-1.95h-.975v1.95h-.977v-2.926h-.975v2.926h-.975v-4.877zm-13.17 4.39h4.39v-.976H2.44v.976zm0-1.951h7.317v-.976H2.44v.976zm5.854-6.342a2.44 2.44 0 1 1-2.44-2.439v-.975a3.415 3.415 0 1 0 3.415 3.414h-.975zm3.413 1.463h4.88v-.975h-4.88v.975zm0-1.95h8.781v-.977h-8.78v.977zM6.342 4.877v3.904h3.902v-.489A3.416 3.416 0 0 0 6.83 4.877h-.488zm.975 1.026v1.901H9.22a2.442 2.442 0 0 0-1.903-1.901zm4.39.926h8.781v-.975h-8.78v.975zM22.44 2.927V.975H.976v1.952H22.44zM3.903 2.439h.976v-.976h-.976v.976zm1.95 0h.977v-.976h-.976v.976zm-3.901 0h.975v-.976h-.975v.976z" clip-rule="evenodd"/></svg>