<svg width="18" height="16" viewBox="0 0 18 16" fill="none" xmlns="http://www.w3.org/2000/svg">
<path d="M3.88872 16H0.286962V5.31762H3.88872V16ZM2.0859 3.86044C0.934178 3.86044 0 2.98185 0 1.92111C8.24356e-09 1.4116 0.219764 0.92296 0.610947 0.562681C1.00213 0.202403 1.53269 0 2.0859 0C2.63912 0 3.16968 0.202403 3.56086 0.562681C3.95204 0.92296 4.17181 1.4116 4.17181 1.92111C4.17181 2.98185 3.23724 3.86044 2.0859 3.86044ZM17.369 16H13.775V10.7999C13.775 9.56057 13.7478 7.97125 11.9023 7.97125C10.0297 7.97125 9.74275 9.31771 9.74275 10.7106V16H6.14487V5.31762H9.59927V6.77479H9.64968C10.1305 5.93549 11.3051 5.04976 13.0575 5.04976C16.7027 5.04976 17.3728 7.26052 17.3728 10.132V16H17.369Z" fill="#3C4147"/>
</svg>
