<svg xmlns="http://www.w3.org/2000/svg" fill="none" viewBox="0 0 68 46"><path fill="#53A1D8" d="M2.001 9h42v1h-42V9zM2.001 31h42v1h-42v-1z"/><path fill="#000" d="M23.864 7c3.66-4.286 9.064-7 15.1-7 11.034 0 19.964 9.072 19.964 20.244 0 4.665-1.556 8.962-4.171 12.386l12.396 12.397-.884.884-12.306-12.306c-3.657 4.22-9.019 6.883-14.999 6.883-5.792 0-11.004-2.498-14.649-6.488h1.743c3.358 3.247 7.904 5.238 12.906 5.238 10.327 0 18.714-8.493 18.714-18.994 0-10.498-8.387-18.994-18.714-18.994-5.259 0-10.014 2.202-13.415 5.75h-1.685zM5.623 25H4.517v-4.592c0-.514-.135-.91-.406-1.19-.26-.28-.606-.42-1.036-.42-.522 0-.98.2-1.372.602-.392.401-.588.975-.588 1.722V25H.023v-9.898h1.092v4.032c.42-.887 1.167-1.33 2.24-1.33.682 0 1.228.21 1.638.63.42.42.63.989.63 1.708V25zM11.14 24.818a2.128 2.128 0 0 1-1.036.252c-1.4 0-2.1-.714-2.1-2.142v-4.13H6.87v-.896h1.134v-1.764H9.11v1.764h1.96v.896H9.11v4.158c0 .756.355 1.134 1.064 1.134.364 0 .686-.108.966-.322v1.05zM16.308 24.818a2.128 2.128 0 0 1-1.036.252c-1.4 0-2.1-.714-2.1-2.142v-4.13h-1.134v-.896h1.134v-1.764h1.106v1.764h1.96v.896h-1.96v4.158c0 .756.355 1.134 1.064 1.134.364 0 .686-.108.966-.322v1.05z"/><path fill="#000" d="M19.012 27.758H17.92v-9.856h1.092v1.078c.495-.794 1.227-1.19 2.198-1.19.943 0 1.68.345 2.212 1.036.541.681.812 1.535.812 2.562 0 1.092-.285 1.988-.854 2.688-.56.69-1.293 1.036-2.198 1.036-.933 0-1.657-.397-2.17-1.19v3.836zm0-6.3c0 .905.21 1.572.63 2.002.42.43.887.644 1.4.644.597 0 1.087-.234 1.47-.7.383-.476.574-1.148.574-2.016 0-.775-.187-1.4-.56-1.876-.373-.476-.845-.714-1.414-.714-.57 0-1.064.21-1.484.63-.41.41-.616 1.087-.616 2.03zM30.133 23.11c0 .606-.214 1.087-.644 1.442-.42.354-.998.532-1.736.532-.858 0-1.554-.145-2.086-.434v-1.078c.626.373 1.298.56 2.016.56.43 0 .756-.084.98-.252a.812.812 0 0 0 .336-.686c0-.336-.126-.598-.378-.784-.242-.187-.653-.397-1.232-.63-.532-.206-.961-.462-1.288-.77-.317-.308-.476-.724-.476-1.246 0-.588.22-1.055.658-1.4.448-.355 1.004-.532 1.666-.532.738 0 1.33.102 1.778.308v1.05c-.43-.262-1.017-.392-1.764-.392-.373 0-.672.088-.896.266a.796.796 0 0 0-.322.658c0 .168.033.317.098.448.066.121.192.242.378.364.196.121.336.205.42.252.094.037.29.121.588.252.598.242 1.064.518 1.4.826.336.308.504.723.504 1.246zM33.075 19.68c0 .233-.08.429-.238.588a.826.826 0 0 1-.588.224.826.826 0 0 1-.588-.224.826.826 0 0 1-.224-.588c0-.224.075-.416.224-.574a.8.8 0 0 1 .588-.238.8.8 0 0 1 .588.238c.158.158.238.35.238.574zm-.238 3.934a.799.799 0 0 1 .238.588c0 .233-.08.43-.238.588a.825.825 0 0 1-.588.224.825.825 0 0 1-.588-.224.825.825 0 0 1-.224-.588c0-.234.075-.43.224-.588a.799.799 0 0 1 .588-.238c.233 0 .43.079.588.238zM34.9 26.428h-1.12l5.096-11.326h1.134L34.9 26.428zM40.546 26.428h-1.12l5.096-11.326h1.134l-5.11 11.326z"/></svg>