<svg xmlns="http://www.w3.org/2000/svg" fill="none" viewBox="0 0 24 23"><path fill="#53A1D8" fill-rule="evenodd" d="M11 19.53v2.5a.5.5 0 0 1-.828.378l-7.5-6.5a.5.5 0 0 1-.026-.732l2.5-2.5.708.707-2.12 2.12L10 20.936V19.03a.5.5 0 0 1 .5-.5h6v1H11zm8.5 0h1v-1h-1v1zm-2 0h1v-1h-1v1zm4.5-4h-6v1h6v-1zm-8-12.5V.53a.5.5 0 0 1 .818-.386l8.5 7a.5.5 0 0 1 0 .772l-8.5 7A.5.5 0 0 1 14 14.53v-3h-1v-1h1.5a.5.5 0 0 1 .5.5v2.44l7.213-5.94L15 1.59v1.94a.5.5 0 0 1-.5.5H5v-1h9zm5.5 10.5H24v-1h-4.5v1zm-9-6.5H10v-1h2v1h-.5v3.5h.5v1h-2v-1h.5v-3.5zm-8.5 3v1.5H1v-4a1.5 1.5 0 0 1 1.5-1.5H3a1.5 1.5 0 0 1 1.5 1.5v4h-1v-1.5H2zm4.5 0v1.5h-1v-5.5h2A1.5 1.5 0 0 1 9 7.53v1a1.5 1.5 0 0 1-1.5 1.5h-1zm-3-1v-1.5a.5.5 0 0 0-.5-.5h-.5a.5.5 0 0 0-.5.5v1.5h1.5zm3 0h1a.5.5 0 0 0 .5-.5v-1a.5.5 0 0 0-.5-.5h-1v2zm-2.5-6H3v1h1v-1zm-2 0H1v1h1v-1zm4-2.5H0v1h6v-1z" clip-rule="evenodd"/></svg>