<svg xmlns="http://www.w3.org/2000/svg" fill="none" viewBox="0 0 24 26"><path fill="#6F6DD4" fill-rule="evenodd" d="M20.093 21.999l-.722.721-.789-.79 2.07-2.068 2.068 2.069-.79.79-.72-.722v.885a2.79 2.79 0 0 1-2.791 2.79h-1.117v-1.116h1.117c.924 0 1.674-.75 1.674-1.674v-.885zM0 23.442V7.814c0-.616.499-1.116 1.116-1.116h6.698v1.116H1.116v4.465h6.698v1.116H1.116v4.465h6.698v1.117H1.116v4.465h13.396v-3.907h1.116v3.907c0 .617-.5 1.116-1.116 1.116H1.116A1.115 1.115 0 0 1 0 23.442zm2.233-1.117h1.116V21.21H2.233v1.116zM24 17.86c0 .618-.5 1.117-1.116 1.117H9.488a1.115 1.115 0 0 1-1.116-1.117V2.232c0-.616.5-1.116 1.116-1.116h13.396c.616 0 1.116.5 1.116 1.116V17.86zm-1.116-4.465H9.488v4.465h13.396v-4.465zm-20.651 3.35h1.116v-1.117H2.233v1.116zm8.372 0h1.116v-1.117h-1.116v1.116zm12.279-8.931H9.488v4.465h13.396V7.814zM2.233 11.163h1.116v-1.117H2.233v1.117zm8.372 0h1.116v-1.117h-1.116v1.117zm12.279-4.465V2.232H9.488v4.466h13.396zM2.79 3.676V2.79A2.79 2.79 0 0 1 5.58 0h1.117v1.116H5.58c-.925 0-1.674.75-1.674 1.675v.885l.722-.722.789.79-2.07 2.068L1.28 3.744l.789-.789.722.722zm7.814 1.905h1.116V4.465h-1.116v1.116z" clip-rule="evenodd"/></svg>