<svg xmlns="http://www.w3.org/2000/svg" fill="none" viewBox="0 0 22 20"><path fill="#6F6DD4" fill-rule="evenodd" d="M1.647 2.544h2.631v-1.25h-2.79a1.09 1.09 0 0 0-1.09 1.09v15.814c0 .602.487 1.09 1.09 1.09h19.07a1.09 1.09 0 0 0 1.09-1.09V2.384a1.09 1.09 0 0 0-1.09-1.09h-2.792v1.25h2.631v15.494H1.647V2.544z" clip-rule="evenodd"/><path fill="#6F6DD4" fill-rule="evenodd" d="M21.022 6.264h-20v-1.25h20v1.25zM16.211 3.31V.054h1.25V3.31h-1.25zM15.905 2.544H6.139v-1.25h9.768v1.25zM4.583 3.31V.054h1.25V3.31h-1.25zM9.395 9.984H7.999v-1.25h1.396v1.25zM11.72 9.984h-1.396v-1.25h1.395v1.25zM14.045 9.984H12.65v-1.25h1.395v1.25zM16.372 9.984h-1.396v-1.25h1.396v1.25zM7.068 12.31H5.673v-1.25h1.395v1.25zM9.395 12.31H7.999v-1.25h1.396v1.25zM11.72 12.31h-1.396v-1.25h1.395v1.25zM14.045 12.31H12.65v-1.25h1.395v1.25zM16.372 12.31h-1.396v-1.25h1.396v1.25zM7.068 14.636H5.673v-1.25h1.395v1.25zM9.395 14.636H7.999v-1.25h1.396v1.25zM11.72 14.636h-1.396v-1.25h1.395v1.25zM14.045 14.636H12.65v-1.25h1.395v1.25z" clip-rule="evenodd"/></svg>