<svg xmlns="http://www.w3.org/2000/svg" fill="none" viewBox="0 0 24 24"><path fill="#FF9E56" fill-rule="evenodd" d="M12.5 19.5V16h1v6a1.5 1.5 0 0 1-1.5 1.5H1.5A1.5 1.5 0 0 1 0 22V1.5A1.5 1.5 0 0 1 1.5 0H12a1.5 1.5 0 0 1 1.5 1.5v3h-1v-1H1v16h11.5zm0 1H1V22a.5.5 0 0 0 .5.5H12a.5.5 0 0 0 .5-.5v-1.5zM6 22h1.5v-1H6v1zm-.24-6.5H4.5A1.5 1.5 0 0 1 3 14V6.5A1.5 1.5 0 0 1 4.5 5h18A1.5 1.5 0 0 1 24 6.5V14a1.5 1.5 0 0 1-1.5 1.5H10.24l-1.85 2.312a.5.5 0 0 1-.78 0L5.76 15.5zM8 16.7l1.61-2.012A.5.5 0 0 1 10 14.5h12.5a.5.5 0 0 0 .5-.5V6.5a.5.5 0 0 0-.5-.5h-18a.5.5 0 0 0-.5.5V14a.5.5 0 0 0 .5.5H6a.5.5 0 0 1 .39.188L8 16.7zM18.5 9.69V8h1V9.69l1.276-.638.448.894-1.38.69 1.01 1.01-.708.707L19 11.207l-1.146 1.146-.708-.707 1.01-1.01-1.38-.689.448-.894 1.276.638zm-11 0V8h1V9.69l1.276-.638.447.894-1.379.69 1.01 1.01-.708.707L8 11.207l-1.146 1.146-.708-.707 1.01-1.01-1.38-.689.448-.894L7.5 9.69zm5.5 0V8h1V9.69l1.276-.638.448.894-1.38.69 1.01 1.01-.708.707-1.146-1.147-1.146 1.146-.708-.707 1.01-1.01-1.38-.689.447-.894L13 9.69zM12.5 2.5v-1A.5.5 0 0 0 12 1H1.5a.5.5 0 0 0-.5.5v1h11.5z" clip-rule="evenodd"/></svg>