<svg xmlns="http://www.w3.org/2000/svg" fill="none" viewBox="0 0 41 48"><path stroke="#53A1D8" stroke-miterlimit="2" d="M13.488 47.043v-7.195c0-2.44.82-3.849 2.604-4.908l13.006-8.067c4.502-2.95 5.79-6.751 5.79-10.807v-4.33h5.35L32.101 1.047l-8.413 10.689h4.779v4.33c0 1.66-.414 3.295-2.79 4.908L12.235 29.04C7.562 31.902 6 34.827 6 39.847v7.195"/><path fill="#18212C" fill-rule="evenodd" d="M34.824 34.243c.565 1.534.689 3.338.689 5.609v7.195h-1.25v-7.195c0-2.26-.13-3.868-.612-5.177-.47-1.276-1.297-2.318-2.809-3.39l.723-1.02c1.667 1.182 2.682 2.413 3.26 3.978zM25.245 35.488l-.623-.283.518-1.138.69.314.032.019c1.525.923 3.23 2.565 3.23 5.443v7.195h-1.25v-7.195c0-2.258-1.289-3.556-2.597-4.355zM9.673.197l8.488 11.158-.497 1.003h-4.621v3.705c0 .728.344 1.467.973 2.258.63.79 1.489 1.563 2.414 2.36l-.815.947c-.922-.793-1.866-1.635-2.577-2.528-.71-.893-1.245-1.904-1.245-3.037V11.11h4.61L9.642 2.22l-7.215 8.888h4.197v4.955c0 2.105.375 3.693 1.003 5.01.63 1.32 1.53 2.404 2.638 3.48l-.872.896c-1.163-1.13-2.176-2.334-2.894-3.839-.72-1.509-1.125-3.285-1.125-5.547V12.36H1.115l-.485-1.02L9.673.198z" clip-rule="evenodd"/></svg>