<svg xmlns="http://www.w3.org/2000/svg" fill="none" viewBox="0 0 23 23"><path fill="#53A1D8" fill-rule="evenodd" d="M1.52 12.696c.799-1.44 2.206-3.417 4.256-4.5l-.532-1.007c-2.608 1.378-4.23 3.965-4.996 5.476L0 13.154l4.169 2.316-1.883 2.354 6.729 4.14.597-.969-5.632-3.466 1.92-2.4-4.38-2.433zM20.395 8.653c.744.626 1.462 1.39 1.798 2.133l.13.288-2.828 4.241 1.55 2.585-9.69 5.1H10.08l.096-.652c.188-1.277.881-3.295 2.085-5.384 1.209-2.095 2.956-4.305 5.283-5.934l.653.932c-2.156 1.51-3.8 3.578-4.95 5.57-.888 1.543-1.467 3.014-1.76 4.111l7.963-4.19-1.302-2.17 2.863-4.295c-.278-.452-.763-.97-1.349-1.463-.695-.585-1.457-1.07-2.016-1.31l.449-1.046c.69.296 1.546.85 2.3 1.484zM8.264 1.684L7.01 6.417l-1.1-.292L7.177 1.34C7.535.26 8.537-.162 9.447.055l1.526.364-.263 1.108-1.527-.364c-.383-.091-.76.062-.92.52z" clip-rule="evenodd"/><path fill="#53A1D8" fill-rule="evenodd" d="M14.165 1.257c-.116-.06-.292-.093-.551-.057-.41.059-1.304.42-2.5 1.487l-.758-.85C11.636.696 12.733.175 13.453.072m.712 1.184c.104.054.211.155.293.37zm.293.37l1.441 4.804 1.09-.327-1.446-4.822h.001l-.012-.032C15.368.8 15.085.452 14.69.247c-.385-.2-.818-.233-1.236-.174" clip-rule="evenodd"/><path fill="#53A1D8" fill-rule="evenodd" d="M18.822 6.84H4.084V5.7h14.738V6.84zM7.505 13.878v-1.424H6.367V13.885c.006.744.385 1.301.912 1.701L9.36 17.29l.02.014c.41.309.91.474 1.424.474h.41v-1.14h-.41c-.267 0-.524-.084-.732-.238l-2.08-1.702-.018-.014c-.326-.246-.466-.5-.469-.806zM11.69 8.008l1.205.603-.509 1.019-.696-.349-.696.349-.51-1.019 1.206-.603z" clip-rule="evenodd"/><path fill="#53A1D8" fill-rule="evenodd" d="M8.838 8.262a1.332 1.332 0 1 0 0 2.665 1.332 1.332 0 0 0 0-2.665zM6.367 9.594a2.471 2.471 0 1 1 4.942 0 2.471 2.471 0 0 1-4.942 0zM14.542 8.262a1.332 1.332 0 1 0 0 2.665 1.332 1.332 0 0 0 0-2.665zm-2.47 1.332a2.471 2.471 0 1 1 4.941 0 2.471 2.471 0 0 1-4.942 0z" clip-rule="evenodd"/></svg>