<svg xmlns="http://www.w3.org/2000/svg" fill="none" viewBox="0 0 48 62"><path fill="#53A1D8" fill-rule="evenodd" d="M17.306 29.023a9.157 9.157 0 0 0-9.158 9.158 9.156 9.156 0 0 0 9.158 9.158 9.158 9.158 0 0 0 0-18.316zM6.898 38.181c0-5.748 4.659-10.408 10.408-10.408 5.748 0 10.408 4.66 10.408 10.408 0 5.75-4.66 10.408-10.408 10.408-5.75 0-10.408-4.659-10.408-10.408z" clip-rule="evenodd"/><path fill="#53A1D8" fill-rule="evenodd" d="M30.56 51.004l-6.522-6.521.884-.884 6.522 6.522-.884.883zM15.816 34.667a.68.68 0 0 0-.679.68v1.304c0 .375.305.68.68.68h2.608a1.93 1.93 0 0 1 1.93 1.929v1.304a1.93 1.93 0 0 1-1.93 1.93h-5.217v-1.25h5.217a.68.68 0 0 0 .68-.68V39.26a.68.68 0 0 0-.68-.68h-2.609a1.93 1.93 0 0 1-1.929-1.929v-1.304a1.93 1.93 0 0 1 1.93-1.93h5.217v1.25h-5.218z" clip-rule="evenodd"/><path fill="#53A1D8" fill-rule="evenodd" d="M17.743 30.801v3.244h-1.25V30.8h1.25zM16.493 45.16v-3.296h1.25v3.296h-1.25z" clip-rule="evenodd"/><path fill="#18212C" fill-rule="evenodd" d="M7.263 10.809h29.58v50.816H.375V17.697l6.888-6.888zm.518 1.25l-6.156 6.156v42.16h33.968V12.059H7.781z" clip-rule="evenodd"/><path fill="#18212C" fill-rule="evenodd" d="M11.434 5.6h30.625V55.79h-1.25V6.85H11.434V5.6z" clip-rule="evenodd"/><path fill="#18212C" fill-rule="evenodd" d="M16.65.375h30.626v50.191h-1.25V1.625H16.651V.375zM10.76 14.046v7.147H3.611v-1.25H9.51v-5.897h1.25z" clip-rule="evenodd"/></svg>