<svg xmlns="http://www.w3.org/2000/svg" fill="none" viewBox="0 0 25 22"><path fill="#6F6DD4" fill-rule="evenodd" d="M7.04 21.248L5.183 19.39V9.847h5.397l1.037 1.036h6.004v1.555h-1.036v-.518h-5.397l-1.037-1.037H6.22v8.077l1.036 1.037v-7.04h11.92v8.291H7.041zm1.252-7.256v6.22h9.846v-6.22H8.292zM4.044 7.776l-.138.011a3.107 3.107 0 0 0 .24 6.207h.518v1.036h-.518a4.144 4.144 0 1 1-.925-8.185A5.702 5.702 0 0 1 8.807 0a5.694 5.694 0 0 1 5.114 3.191 4.146 4.146 0 0 1 6.29 3.546v.033a4.146 4.146 0 1 1 .519 8.26h-1.037v-1.037h1.037a3.11 3.11 0 1 0-.947-6.071l-.834.266.168-.859a3.11 3.11 0 0 0-3.051-3.701c-.778 0-1.486.286-2.03.758l-.578.498-.251-.72A4.663 4.663 0 0 0 4.259 6.74c.371.01.743.07 1.104.18l-.303.991a3.132 3.132 0 0 0-1.016-.135z" clip-rule="evenodd"/></svg>