<?xml version="1.0" encoding="UTF-8"?>
<svg xmlns="http://www.w3.org/2000/svg" width="67" height="46" viewBox="0 0 67 46" fill="none">
<path d="M0.978516 8.99969H42.9785V9.99969H0.978516V8.99969Z" fill="#53A1D8"/>
<path d="M0.978516 30.9997H42.9785V31.9997H0.978516V30.9997Z" fill="#53A1D8"/>
<path d="M22.8418 6.99994C26.5007 2.7135 31.9057 -6.10352e-05 37.9415 -6.10352e-05C48.9754 -6.10352e-05 57.9054 9.07243 57.9054 20.2441C57.9054 24.9084 56.3495 29.2061 53.7342 32.6304L66.1306 45.0269L65.2467 45.9108L52.9409 33.605C49.2835 37.8243 43.9215 40.4883 37.9415 40.4883C32.149 40.4883 26.9374 37.9898 23.2927 33.9999H25.0351C28.3937 37.2467 32.9396 39.2383 37.9415 39.2383C48.2682 39.2383 56.6554 30.745 56.6554 20.2441C56.6554 9.74577 48.2681 1.24994 37.9415 1.24994C32.6825 1.24994 27.9275 3.45227 24.5266 6.99994H22.8418Z" fill="black"/>
<path d="M10.5073 23.42C10.5073 24.6067 10.1006 25.5267 9.2873 26.18C8.47397 26.82 7.42731 27.14 6.14731 27.14C4.73397 27.14 3.53397 26.8534 2.5473 26.28V24.54C3.52064 25.2734 4.7073 25.64 6.1073 25.64C6.9473 25.64 7.60731 25.4534 8.08731 25.08C8.56731 24.7067 8.80731 24.1667 8.80731 23.46C8.80731 23.1667 8.7473 22.9067 8.62731 22.68C8.52064 22.44 8.33397 22.2267 8.06731 22.04C7.81397 21.84 7.56731 21.68 7.32731 21.56C7.10064 21.4267 6.7873 21.2667 6.3873 21.08C6.30731 21.04 6.1873 20.9867 6.0273 20.92C5.45397 20.6667 5.01397 20.46 4.7073 20.3C4.41397 20.14 4.06064 19.9067 3.6473 19.6C3.2473 19.28 2.95397 18.9134 2.7673 18.5C2.58064 18.0867 2.4873 17.6067 2.4873 17.06C2.4873 15.9134 2.89397 15.02 3.7073 14.38C4.53397 13.7267 5.56731 13.4 6.8073 13.4C7.96731 13.4 8.95397 13.6067 9.7673 14.02V15.72C8.95397 15.1867 7.98064 14.92 6.8473 14.92C6.03397 14.92 5.3873 15.1134 4.9073 15.5C4.4273 15.8734 4.1873 16.3667 4.1873 16.98C4.1873 17.3 4.2473 17.5867 4.3673 17.84C4.50064 18.0934 4.7273 18.3334 5.0473 18.56C5.3673 18.7734 5.64064 18.94 5.86731 19.06C6.09397 19.1667 6.4473 19.3267 6.92731 19.54C7.38064 19.74 7.7273 19.9 7.9673 20.02C8.2073 20.1267 8.51397 20.3067 8.8873 20.56C9.27397 20.8 9.56064 21.04 9.7473 21.28C9.94731 21.5067 10.1206 21.8134 10.2673 22.2C10.4273 22.5734 10.5073 22.98 10.5073 23.42Z" fill="black"/>
<path d="M16.2156 25.78C16.9356 25.78 17.5089 25.58 17.9356 25.18C18.3623 24.7667 18.5756 24.2467 18.5756 23.62V22.32H16.8156C15.9623 22.32 15.3223 22.4867 14.8956 22.82C14.4689 23.1534 14.2556 23.5734 14.2556 24.08C14.2556 24.5867 14.4223 25 14.7556 25.32C15.0889 25.6267 15.5756 25.78 16.2156 25.78ZM18.5956 25.8C18.0756 26.6667 17.1289 27.1 15.7556 27.1C14.8089 27.1 14.0423 26.82 13.4556 26.26C12.8823 25.7 12.5956 24.9934 12.5956 24.14C12.5956 23.1667 12.9623 22.4134 13.6956 21.88C14.4423 21.3334 15.4556 21.06 16.7356 21.06H18.5756V20.54C18.5756 19.74 18.3956 19.14 18.0356 18.74C17.6756 18.3267 17.0689 18.12 16.2156 18.12C15.1356 18.12 14.1756 18.4067 13.3356 18.98V17.4C14.0956 16.9334 15.0956 16.7 16.3356 16.7C18.8823 16.7 20.1556 17.9934 20.1556 20.58V27H18.5956V25.8Z" fill="black"/>
<path d="M26.0593 25.78C26.7793 25.78 27.3527 25.58 27.7793 25.18C28.206 24.7667 28.4193 24.2467 28.4193 23.62V22.32H26.6593C25.806 22.32 25.166 22.4867 24.7393 22.82C24.3127 23.1534 24.0993 23.5734 24.0993 24.08C24.0993 24.5867 24.266 25 24.5993 25.32C24.9327 25.6267 25.4193 25.78 26.0593 25.78ZM28.4393 25.8C27.9193 26.6667 26.9727 27.1 25.5993 27.1C24.6527 27.1 23.886 26.82 23.2993 26.26C22.726 25.7 22.4393 24.9934 22.4393 24.14C22.4393 23.1667 22.806 22.4134 23.5393 21.88C24.286 21.3334 25.2993 21.06 26.5793 21.06H28.4193V20.54C28.4193 19.74 28.2393 19.14 27.8793 18.74C27.5193 18.3267 26.9127 18.12 26.0593 18.12C24.9793 18.12 24.0193 18.4067 23.1793 18.98V17.4C23.9393 16.9334 24.9393 16.7 26.1793 16.7C28.726 16.7 29.9993 17.9934 29.9993 20.58V27H28.4393V25.8Z" fill="black"/>
<path d="M40.6831 23.42C40.6831 24.6067 40.2764 25.5267 39.4631 26.18C38.6498 26.82 37.6031 27.14 36.3231 27.14C34.9098 27.14 33.7098 26.8534 32.7231 26.28V24.54C33.6964 25.2734 34.8831 25.64 36.2831 25.64C37.1231 25.64 37.7831 25.4534 38.2631 25.08C38.7431 24.7067 38.9831 24.1667 38.9831 23.46C38.9831 23.1667 38.9231 22.9067 38.8031 22.68C38.6964 22.44 38.5098 22.2267 38.2431 22.04C37.9898 21.84 37.7431 21.68 37.5031 21.56C37.2764 21.4267 36.9631 21.2667 36.5631 21.08C36.4831 21.04 36.3631 20.9867 36.2031 20.92C35.6298 20.6667 35.1898 20.46 34.8831 20.3C34.5898 20.14 34.2364 19.9067 33.8231 19.6C33.4231 19.28 33.1298 18.9134 32.9431 18.5C32.7564 18.0867 32.6631 17.6067 32.6631 17.06C32.6631 15.9134 33.0698 15.02 33.8831 14.38C34.7098 13.7267 35.7431 13.4 36.9831 13.4C38.1431 13.4 39.1298 13.6067 39.9431 14.02V15.72C39.1298 15.1867 38.1564 14.92 37.0231 14.92C36.2098 14.92 35.5631 15.1134 35.0831 15.5C34.6031 15.8734 34.3631 16.3667 34.3631 16.98C34.3631 17.3 34.4231 17.5867 34.5431 17.84C34.6764 18.0934 34.9031 18.3334 35.2231 18.56C35.5431 18.7734 35.8164 18.94 36.0431 19.06C36.2698 19.1667 36.6231 19.3267 37.1031 19.54C37.5564 19.74 37.9031 19.9 38.1431 20.02C38.3831 20.1267 38.6898 20.3067 39.0631 20.56C39.4498 20.8 39.7364 21.04 39.9231 21.28C40.1231 21.5067 40.2964 21.8134 40.4431 22.2C40.6031 22.5734 40.6831 22.98 40.6831 23.42Z" fill="black"/>
</svg>