<svg xmlns="http://www.w3.org/2000/svg" fill="none" viewBox="0 0 22 25"><path fill="#3DD9AB" fill-rule="evenodd" d="M7.876 6.585V2.044C7.876.914 8.79 0 9.92 0h7.664c1.128 0 2.043.916 2.043 2.044v1.644a1.676 1.676 0 0 1 1.818.42l.087.09c.638.672.618 1.72-.024 2.329l-.487.46c.118.058.231.132.336.223l.087.075c.665.573.742 1.573.184 2.22l-.556.64c.1.053.195.119.285.196l.087.075c.665.574.743 1.572.184 2.22l-.645.741c.116.058.227.131.33.22l.086.074c.657.567.734 1.555.182 2.194l-1.025 1.179c-.188.218-.468.342-.8.341-.042 0-.085-.002-.129-.006v.504a2.044 2.044 0 0 1-2.043 2.044h-.26c-.592.809-2.28 3.267-6.19 3.078-.549.53-1.359 1.365-1.359 1.365l-.107-.104-.11.11-6.28-6.281-1.833 1.832 3.726 3.726-.722.723L0 19.926l3.277-3.277.931.931c.316-.503.743-1.185.777-1.26.097-.207.086-.62.098-1.117.024-.937.055-2.121.422-3.075.514-1.334.668-2.057 1.498-4.713.131-.417.469-.709.873-.83zm2.734 13.342a8.98 8.98 0 0 1-.208.68l-.965-.338c1.035-2.956.039-5.613-.898-6.796l-.17-.216.086-.262c.408-1.227.574-2.102.71-3.545.068-.718-.25-1.33-.568-1.775-.081-.114-.226-.143-.354-.126-.113.014-.23.06-.264.17-.841 2.692-1 3.424-1.52 4.776-.326.847-.334 1.902-.354 2.733-.017.682-.06 1.24-.194 1.525-.042.09-.634 1.04-.963 1.567l4.71 4.71c.31-.312.674-.675.933-.92l.163-.155.225.017c2.754.202 4.275-1.105 5.066-2.045H10.61zm-7.694.361l1.022 1.022.723-.723-1.022-1.021-.723.722zm15.69-15.793V2.044c0-.564-.458-1.022-1.022-1.022H9.92c-.565 0-1.022.457-1.022 1.022v4.605c.206.092.39.236.53.432.44.616.848 1.472.754 2.465-.135 1.434-.3 2.34-.674 3.517.835 1.183 1.655 3.339 1.307 5.842h6.769c.564 0 1.022-.458 1.022-1.022v-.964a.229.229 0 0 1-.01-.008l-.085-.074c-.37-.319-.587-.725-.64-1.077-.049-.33.033-.624.222-.843l.85-.978a2.148 2.148 0 0 1-.339-.24l-.088-.075c-.374-.323-.593-.735-.647-1.091-.05-.332.033-.63.224-.85l.79-.91a2.127 2.127 0 0 1-.279-.205l-.088-.076c-.374-.323-.594-.734-.647-1.09-.05-.332.033-.63.223-.85l.705-.811a2.241 2.241 0 0 1-.554-.427l-.087-.091c-.358-.378-.548-.83-.57-1.205-.02-.35.094-.65.312-.856l.708-.667zm-5.62 13.899h1.532v-1.022h-1.533v1.022zm6.812-2.035l1.01-1.162c.19-.22.15-.557-.076-.752l-.086-.074c-.226-.195-.566-.184-.756.036l-1.01 1.161a.504.504 0 0 0 .015.096c.041.137.143.279.283.4l.086.073c.14.12.294.2.437.222.03.005.079.001.097 0zm.027-3.207l1.03-1.184c.196-.227.155-.576-.079-.778l-.087-.075c-.233-.202-.585-.19-.781.037l-1.03 1.184a.534.534 0 0 0 .015.103.93.93 0 0 0 .29.41l.088.076a.93.93 0 0 0 .45.228c.033.005.086 0 .104-.001zm0-3.131l1.03-1.185c.195-.227.155-.576-.079-.777l-.087-.076c-.233-.201-.585-.19-.782.038L18.88 9.204c0 .018.004.072.014.104a.93.93 0 0 0 .29.41l.088.076a.931.931 0 0 0 .45.227c.033.005.086.001.104 0zm-1.583-2.708zm1.351-.386l1.212-1.142c.243-.23.228-.628-.013-.882l-.087-.091c-.242-.255-.638-.292-.882-.06L18.61 5.894a.606.606 0 0 0 .005.133c.033.162.134.337.28.491l.087.091c.147.156.317.265.477.307a.612.612 0 0 0 .133.011zm-6.608-4.372h1.533V1.533h-1.533v1.022z" clip-rule="evenodd"/></svg>