<svg xmlns="http://www.w3.org/2000/svg" fill="none" viewBox="0 0 22 20"><path fill="#53A1D8" fill-rule="evenodd" d="M16.479 11.848v1.759h-2.273c-.858 0-1.714-.256-2.549-1.485l-.007-.01-3.554-5.9C6.943 4.33 5.766 3.72 3.741 3.72H0v-.942h3.741c2.396 0 3.793.714 5.159 2.945l3.542 5.88c.583.855 1.164 1.063 1.764 1.063h1.332v-2.649L22 14.641l-6.463 4.472v-2.681h-1.33c-1.933 0-3.744-.641-5.152-2.792L5.496 7.88c-.376-.635-.887-.865-1.755-.865H0v-.942h3.741c1.28 0 2.008.39 2.561 1.319l3.546 5.742c1.19 1.814 2.723 2.356 4.358 2.356h2.273v1.826l3.885-2.688-3.885-2.78zM0 16.432h3.741c2.196 0 3.236-.28 4.327-1.82l-.768-.545c-.892 1.257-1.766 1.423-3.559 1.423H0v.942zm5.445-4.811l.089-.263.892.298-.12.364-.028.045c-.448.741-1.193 1.542-2.537 1.542H0v-.942h3.741c.899 0 1.394-.545 1.704-1.044zm10.092-8.844V.067l6.384 4.703-6.383 4.408V6.544h-1.332c-.31 0-.597.152-.879.366-.345.264-.677.625-1.003 1.006l-.714-.614c.452-.526.917-1.012 1.404-1.32.381-.242.779-.38 1.192-.38h2.273v1.782l3.82-2.64-3.82-2.814v1.79h-2.273c-1.756 0-2.706.603-3.595 1.516l-.675-.657c1.056-1.084 2.185-1.802 4.27-1.802h1.332z" clip-rule="evenodd"/></svg>