<svg xmlns="http://www.w3.org/2000/svg" fill="none" viewBox="0 0 23 24"><path fill="#FF9E56" fill-rule="evenodd" d="M1.52 13.072c.799-1.44 2.206-3.417 4.256-4.5l-.532-1.007C2.636 8.943 1.014 11.53.248 13.041L0 13.53l4.169 2.316L2.286 18.2l6.729 4.14.597-.97-5.632-3.465 1.92-2.4-4.38-2.433zM20.395 9.03c.744.625 1.462 1.39 1.798 2.132l.13.288-2.828 4.241 1.55 2.585-9.69 5.1H10.08l.096-.652c.188-1.277.881-3.295 2.085-5.384 1.209-2.095 2.956-4.306 5.283-5.934l.653.932c-2.156 1.51-3.8 3.578-4.95 5.57-.888 1.543-1.467 3.014-1.76 4.111l7.963-4.19-1.302-2.17 2.863-4.295c-.278-.452-.763-.97-1.349-1.463-.695-.585-1.457-1.07-2.016-1.31l.449-1.046c.69.296 1.546.85 2.3 1.484zM8.264 2.06L7.01 6.793 5.91 6.5l1.267-4.785C7.535.636 8.537.214 9.447.431l1.526.364-.263 1.107-1.527-.363c-.383-.091-.76.062-.92.52z" clip-rule="evenodd"/><path fill="#FF9E56" fill-rule="evenodd" d="M14.165 1.633c-.116-.06-.292-.093-.551-.057-.41.059-1.304.42-2.5 1.487l-.758-.85c1.28-1.14 2.377-1.661 3.097-1.764m.712 1.184c.104.054.211.155.293.37zm.293.37l1.441 4.804 1.09-.327-1.446-4.822h.001l-.012-.032c-.164-.45-.447-.798-.843-1.003-.385-.2-.818-.233-1.236-.174" clip-rule="evenodd"/><path fill="#FF9E56" fill-rule="evenodd" d="M18.822 7.216H4.084V6.077h14.738v1.139zM7.505 14.254V12.83H6.367V14.26c.006.744.385 1.301.912 1.701l2.081 1.704.02.014c.41.308.91.473 1.424.473h.41v-1.138h-.41c-.267 0-.524-.085-.732-.239l-2.08-1.702-.018-.014c-.326-.246-.466-.5-.469-.806zM11.69 8.384l1.205.603-.509 1.018-.696-.348-.696.348-.51-1.018 1.206-.603z" clip-rule="evenodd"/><path fill="#FF9E56" fill-rule="evenodd" d="M8.838 8.638a1.332 1.332 0 1 0 0 2.665 1.332 1.332 0 0 0 0-2.665zM6.367 9.97a2.471 2.471 0 1 1 4.942 0 2.471 2.471 0 0 1-4.942 0zM14.542 8.638a1.332 1.332 0 1 0 0 2.665 1.332 1.332 0 0 0 0-2.665zm-2.47 1.332a2.471 2.471 0 1 1 4.941 0 2.471 2.471 0 0 1-4.942 0z" clip-rule="evenodd"/></svg>