<svg width="100" height="97" viewBox="0 0 100 97" fill="none" xmlns="http://www.w3.org/2000/svg">
<path fill-rule="evenodd" clip-rule="evenodd" d="M55.851 8.66041C55.6344 7.96562 55.1333 7.3302 54.4885 6.73749C53.2604 5.60937 51.5115 4.67291 49.776 3.96978C48.4125 3.41666 47.3146 3.18853 46.4656 3.50833C45.6958 3.79895 45.2406 4.57187 44.9438 5.7802L42.9208 5.28228C43.4281 3.22083 44.4177 2.05416 45.7302 1.55937C46.9635 1.09374 48.5802 1.23645 50.5583 2.03958C52.5281 2.83645 54.5031 3.92187 55.8979 5.20416C56.6281 5.87395 57.2031 6.60312 57.5729 7.37187C58.0938 7.32083 58.6677 7.37708 59.2688 7.53333C61.2865 8.05624 63.6875 9.70833 64.9052 10.8448C66.4833 12.3167 67.1823 13.3458 67.2167 14.574C68.7969 15.1781 70.7938 16.4917 72.3594 17.8687C73.6813 19.0302 74.6833 20.251 74.9927 21.0948C75.401 22.2052 75.4458 22.8708 75.3979 23.625C75.3646 24.1479 75.2698 24.7229 75.249 25.6239C75.999 26.1781 77.7781 27.35 79.3656 28.6667C80.8021 29.8583 82.0677 31.1802 82.5281 32.2948C82.9385 33.2854 83.075 34.7927 82.9958 36.6354C82.8875 39.1437 82.4094 42.3292 81.9417 45.6094C80.9771 52.351 79.4969 53.9875 77.8854 55.9052C77.2333 56.6823 75.7094 58.5125 73.7906 60.7229C70.5708 64.4344 66.2438 69.1958 63.075 71.8427C59.8854 74.5062 56.4771 75.1104 53.8802 75.5239C53.1031 75.6479 52.4073 75.7521 51.8292 75.9062C51.4302 76.0125 51.0979 76.1187 50.8854 76.3333C49.2646 77.9781 30.3667 96.7667 30.3667 96.7667L28.8979 95.2885C28.8979 95.2885 47.7823 76.5146 49.4031 74.8698C50.0083 74.2583 51.0323 73.901 52.376 73.6604C54.774 73.2302 58.4052 73.0281 61.7396 70.2437C64.8396 67.6542 69.0667 62.9896 72.2167 59.3583C74.126 57.1594 75.6406 55.3385 76.2896 54.5656C77.7354 52.8458 79.0146 51.3594 79.8792 45.3146C80.3365 42.1094 80.8083 38.9969 80.9146 36.5458C80.9771 35.0823 80.9292 33.8792 80.6031 33.0917C80.2375 32.2073 79.174 31.2146 78.0354 30.2698C76.9771 29.3917 75.8385 28.5729 74.9573 27.9479L73.8198 34.7885L71.7646 34.4469L73.1604 26.049C73.1583 25.0615 73.2365 24.4021 73.2885 23.849C73.3521 23.1875 73.3708 22.7187 73.0375 21.8125C72.8042 21.176 71.9813 20.3104 70.9844 19.4333C69.7417 18.3406 68.201 17.2573 66.9167 16.6885L65.5865 23.95L63.5365 23.575L64.9021 16.1281L64.8792 16.1229L65.0854 15.1115C65.2969 14.0687 64.6896 13.4927 63.4833 12.3677C62.5948 11.5385 60.9719 10.374 59.4438 9.77812C58.8573 9.54999 58.2948 9.36874 57.8302 9.41666L56.6292 15.9448L54.5802 15.5677L55.851 8.66041ZM1.4875 82.4187L1.11562 82.0542L0.760417 83.0333C0.75625 83.0312 0.684375 83.0677 0.41875 82.8281L0.0135417 82.4333L0 80.9604L5.14167 75.7167C7.84896 72.9562 10.8271 69.9219 11.9094 68.825C12.849 67.8729 13.4969 66.5062 13.9938 65.0427C14.5271 63.4687 14.8688 61.8031 15.1469 60.3823L15.3479 59.3604L17.9031 59.8615L17.7031 60.8833C17.4083 62.3854 17.0365 64.1781 16.4594 65.8792C15.8469 67.6854 14.9885 69.4114 13.7635 70.6531C12.6823 71.7489 9.70729 74.7812 7.00104 77.5396L1.85937 82.7833L1.4875 82.4187Z" fill="#18212C"/>
<path fill-rule="evenodd" clip-rule="evenodd" d="M58.4864 74.467L75.8135 95.9962L77.4322 94.6858L60.2989 73.691L58.4864 74.467ZM79.7656 53.3503L97.7468 68.9108L99.1083 67.3326L80.7031 51.2118L79.7656 53.3503ZM15.3708 9.12326C14.9822 7.24409 15.4958 5.35451 16.501 4.04826C17.3822 2.90347 18.6395 2.19097 20.0281 2.18367C29.6895 2.13367 31.6208 0.974299 35.9093 0.634716H35.9104C39.7239 0.334716 43.3062 0.854508 44.9406 4.40451L45.0833 4.71701L45.0135 5.05242C44.6499 6.79513 44.2114 9.55972 43.7822 11.4066L43.7208 11.6733L43.5364 11.8743C41.9166 13.642 40.9166 15.116 39.4895 16.4378L39.377 16.542L39.2395 16.6087C37.6135 17.4056 35.5135 17.7024 33.2551 17.6462C35.6447 19.491 36.5187 22.8087 35.177 25.6524C34.4562 27.1816 33.2197 28.3035 31.7718 28.9076C33.8072 30.9139 34.4228 34.116 33.3478 37.042C32.5458 39.216 30.8374 40.7941 28.8083 41.5045C30.2697 43.0389 30.9458 45.2597 30.4114 47.4722C29.7093 50.4003 27.1093 52.3806 24.2301 52.4201C24.8062 53.4681 25.0978 54.7316 24.9468 56.0431C24.5926 59.1535 21.776 61.3753 19.2416 61.1139L9.24264 60.6785L9.16868 60.6722C6.30826 60.3399 3.55514 57.2191 4.02285 53.5691C4.27389 51.6108 5.34681 50.0462 6.7291 49.0681C3.80201 47.5649 2.16868 44.2076 2.97493 40.8681C3.4791 38.7743 4.84055 37.1097 6.59681 36.1587C2.71035 34.2931 0.810347 29.7431 2.33014 25.616C3.4791 22.4972 6.27389 20.4628 9.36764 20.1285C8.25722 18.1108 8.09576 15.6066 9.15514 13.366C10.3468 10.8451 12.7739 9.30243 15.3708 9.12326ZM10.3374 50.0316C8.46451 49.8712 6.39472 51.4535 6.08951 53.8347C5.78118 56.2389 7.49472 58.3597 9.37806 58.5993L19.3593 59.0337L19.4333 59.0389C21.002 59.2201 22.6572 57.7358 22.877 55.8056C23.0812 54.0253 22.102 52.2951 20.7156 51.8983L10.3374 50.0316ZM10.2593 37.3618C7.83014 37.2733 5.5916 38.9014 4.99993 41.3566C4.32597 44.1493 6.03951 46.9587 8.82806 47.6441L10.6291 47.9681L10.6666 47.9712V47.9743L20.6031 49.7608V49.7587C20.776 49.7785 20.9478 49.8097 21.1166 49.8535L23.0541 50.2024L23.1135 50.2149C25.4603 50.7806 27.8228 49.3326 28.3864 46.9847C28.9031 44.8451 27.7489 42.6931 25.7624 41.9003C25.1093 41.8483 24.452 41.7087 23.8072 41.4743L10.2593 37.3618ZM11.0728 22.2139C8.19264 21.8451 5.33222 23.4931 4.28535 26.3368C3.07076 29.6326 4.75201 33.2858 8.03951 34.5118L24.4333 39.4868L24.4916 39.5066C27.276 40.5337 30.3666 39.1056 31.3926 36.3222C32.3947 33.5972 31.4603 30.4931 28.8072 29.4056C28.0176 29.3545 27.2228 29.1587 26.4624 28.8045L12.7583 23.2868L12.7031 23.2618C12.102 22.9785 11.5572 22.6243 11.0728 22.2139ZM16.2062 11.1983C14.0864 11.0681 12.002 12.2181 11.0385 14.2566C9.78014 16.9191 10.9156 20.0983 13.5708 21.367L27.2614 26.8806L27.3166 26.9045C29.5593 27.9618 32.2353 27.0045 33.2937 24.7639C34.351 22.5212 33.3916 19.8462 31.151 18.7858L31.1249 18.7733L27.7374 16.9285C23.9343 16.092 20.4114 14.692 18.6874 13.6118C17.5697 12.9108 16.7583 12.0826 16.2062 11.1983ZM42.901 4.98472C41.5947 2.57326 38.8614 2.49201 36.0739 2.7118C31.7437 3.05451 29.7937 4.21701 20.0385 4.26701C19.0041 4.27222 18.1562 5.05867 17.6978 6.08472C16.9218 7.82117 17.2958 10.2806 19.7937 11.8462C21.7718 13.0868 26.3093 14.7493 30.7281 15.3503C33.4968 15.7264 36.2229 15.7056 38.1885 14.8014C39.4593 13.5972 40.3895 12.2545 41.8124 10.6753C42.1906 8.97638 42.5728 6.63159 42.901 4.98472Z" fill="#53A1D8"/>
</svg>
