<svg xmlns="http://www.w3.org/2000/svg" fill="none" viewBox="0 0 50 51"><path fill="#515151" fill-rule="evenodd" d="M30.18 39.559l8.253 9.052a.602.602 0 0 0 1.054-.396v-8.657h6.796a2.463 2.463 0 0 0 2.463-2.463V3.77a2.449 2.449 0 0 0-2.449-2.45H3.7a2.449 2.449 0 0 0-2.45 2.45v33.335a2.454 2.454 0 0 0 2.454 2.454H30.18zm7.312 9.876c1.126 1.286 3.245.49 3.245-1.22v-7.407h5.546a3.713 3.713 0 0 0 3.713-3.713V3.77a3.699 3.699 0 0 0-3.699-3.7H3.7a3.699 3.699 0 0 0-3.7 3.7v33.335a3.704 3.704 0 0 0 3.704 3.704h25.924l7.865 8.626z" clip-rule="evenodd"/><path fill="#53A1D8" fill-rule="evenodd" d="M20.84 28.88c-.88.84-1.94 1.26-3.18 1.26-.8 0-1.5-.14-2.1-.42-.6-.32-1.14-.7-1.62-1.14-.76-1.52-1.14-3.1-1.14-4.74 0-1.32.2-2.58.6-3.78.44-1.24 1.02-2.38 1.74-3.42.76-1.04 1.62-1.98 2.58-2.82 1-.88 2.04-1.62 3.12-2.22l1.2 1.92c-.92.68-1.82 1.54-2.7 2.58-.88 1-1.6 2.12-2.16 3.36l2.28 1.92c1 .8 1.7 1.5 2.1 2.1.4.6.6 1.3.6 2.1 0 1.32-.44 2.42-1.32 3.3zm-.746-8.273l-1.674-1.41a12.31 12.31 0 0 1 1.67-2.436l.007-.008.006-.007c.84-.992 1.684-1.795 2.531-2.422l.744-.55-2.194-3.51-.83.462a18.848 18.848 0 0 0-3.294 2.342 18.292 18.292 0 0 0-2.728 2.982l-.007.01-.007.01a15.489 15.489 0 0 0-1.86 3.656l-.004.009-.003.009a12.876 12.876 0 0 0-.651 4.096c0 1.801.418 3.534 1.245 5.187l.083.165.136.125c.545.5 1.154.928 1.825 1.285l.024.013.024.011c.757.354 1.607.514 2.523.514 1.491 0 2.8-.515 3.87-1.537l.009-.008.008-.008c1.08-1.08 1.613-2.44 1.613-4.007 0-.975-.247-1.873-.768-2.655-.484-.725-1.274-1.498-2.298-2.318zm6.206-.547c.44-1.24 1.02-2.38 1.74-3.42.76-1.04 1.62-1.98 2.58-2.82 1-.88 2.04-1.62 3.12-2.22l1.2 1.92c-.92.68-1.82 1.54-2.7 2.58-.88 1-1.6 2.12-2.16 3.36l2.28 1.92c1 .8 1.7 1.5 2.1 2.1.4.6.6 1.3.6 2.1 0 1.32-.44 2.42-1.32 3.3-.88.84-1.94 1.26-3.18 1.26-.8 0-1.5-.14-2.1-.42-.6-.32-1.14-.7-1.62-1.14-.76-1.52-1.14-3.1-1.14-4.74 0-1.32.2-2.58.6-3.78zm6.694.547l-1.674-1.41a12.31 12.31 0 0 1 1.67-2.436l.007-.008.006-.007c.84-.992 1.684-1.795 2.531-2.422l.744-.55-2.194-3.51-.83.462a18.85 18.85 0 0 0-3.294 2.343 18.287 18.287 0 0 0-2.728 2.981l-.007.01-.007.01a15.489 15.489 0 0 0-1.86 3.656l-.004.009-.003.009a12.876 12.876 0 0 0-.651 4.096c0 1.801.419 3.534 1.245 5.187l.083.165.136.125c.545.5 1.154.928 1.825 1.285l.024.013.024.011c.757.354 1.607.514 2.523.514 1.491 0 2.8-.515 3.87-1.537l.009-.008.008-.008c1.08-1.08 1.613-2.44 1.613-4.007 0-.975-.247-1.873-.768-2.655-.484-.725-1.274-1.498-2.298-2.318z" clip-rule="evenodd"/></svg>