<svg xmlns="http://www.w3.org/2000/svg" fill="none" viewBox="0 0 22 22"><path fill="#53A1D8" fill-rule="evenodd" d="M19.34 3.826A10.961 10.961 0 0 1 22 11c0 6.076-4.924 11-11 11-6.075 0-11-4.924-11-11C0 4.925 4.925 0 11 0c1.413 0 2.764.267 4.004.752l-.349.89a10.018 10.018 0 0 0-3.654-.686C5.453.956.957 5.453.957 11c0 5.547 4.496 10.043 10.044 10.043 5.546 0 10.043-4.496 10.043-10.043a10 10 0 0 0-2.392-6.505v.766h-.956V2.87h2.39v.956h-.746zM2.872 10.804a8.132 8.132 0 1 1 1.524 4.94l.777-.56A7.174 7.174 0 1 0 11 3.826 7.175 7.175 0 0 0 3.83 10.8l.614-.615.678.676-1.774 1.773-1.773-1.773.677-.676.62.62zm12.108 2.85a4.787 4.787 0 0 1-8.418-.865l-.886.357a5.74 5.74 0 0 0 10.1 1.038l-.796-.53zM9.565 8.13v-.956h.957v.956h.479v-.956h.956v.956c.792 0 1.435.643 1.435 1.435v.479c0 .367-.138.702-.365.956.227.254.365.59.365.957v.478c0 .792-.643 1.434-1.435 1.434v.957H11v-.957h-.479v.957h-.957v-.957h-.956v-.956h.956V9.087h-.956V8.13h.956zm.957 4.783h1.435a.479.479 0 0 0 .478-.478v-.479a.479.479 0 0 0-.478-.478h-1.435v1.435zm0-3.826v1.435h1.438a.478.478 0 0 0 .475-.479v-.478a.479.479 0 0 0-.478-.478h-1.435zM6.99 8.392a4.782 4.782 0 0 1 7.956-.095l.788-.542a5.738 5.738 0 0 0-9.545.114l.801.523z" clip-rule="evenodd"/></svg>