<svg xmlns="http://www.w3.org/2000/svg" fill="none" viewBox="0 0 22 22"><path fill="#FF9E56" fill-rule="evenodd" d="M8.522 15.826a7.304 7.304 0 1 0 0-14.608 7.304 7.304 0 0 0 0 14.608zm0 1.218A8.522 8.522 0 1 0 8.522 0a8.522 8.522 0 0 0 0 17.044z" clip-rule="evenodd"/><path fill="#FF9E56" d="M15.113 13.392L22 20.278 20.278 22l-6.886-6.887 1.721-1.721zM7.141 8.514c0 .51-.155.896-.465 1.16-.31.265-.739.397-1.286.397-.538 0-.962-.128-1.273-.385-.31-.26-.465-.636-.465-1.126V6.087h.705v2.468c0 .334.093.58.28.735.192.151.443.227.753.227.698 0 1.046-.33 1.046-.992V6.087h.705v2.427zM9.435 6.589h-.602v1.435h.636c.292 0 .513-.064.664-.193a.665.665 0 0 0 .226-.525c0-.478-.308-.717-.924-.717zm-.602 3.43h-.705V6.087h1.286c.53 0 .938.11 1.225.333.287.217.43.515.43.892a1.107 1.107 0 0 1-.245.706c-.16.19-.381.329-.664.414l1.204 1.587h-.841L9.442 8.525h-.609v1.494zM14.609 10.019h-2.593V6.087h.705v3.401h1.888v.53z"/></svg>