<svg xmlns="http://www.w3.org/2000/svg" fill="none" viewBox="0 0 24 18"><path fill="#53A1D8" fill-rule="evenodd" d="M18 17.637v-6.5c0-.852-.642-1.645-1.627-2.242C15.08 8.11 13.218 7.637 12 7.637c-1.218 0-3.08.474-4.373 1.258C6.642 9.492 6 10.285 6 11.137v6.5h1v-6.5c0-.553.506-1 1.145-1.387 1.14-.691 2.78-1.113 3.855-1.113 1.074 0 2.714.422 3.855 1.113.64.387 1.145.834 1.145 1.387v6.5h1zm0-8h.5c.965 0 2.436.455 3.461 1.145.58.39 1.039.835 1.039 1.355v5h1v-5c0-.803-.584-1.581-1.48-2.185-1.189-.8-2.9-1.315-4.02-1.315H18v1zm-17 7.5v-5c0-.52.46-.965 1.039-1.355 1.024-.69 2.496-1.145 3.461-1.145H6v-1h-.5c-1.12 0-2.831.515-4.02 1.315C.584 10.556 0 11.334 0 12.137v5h1zm18-9c1.748 0 3-1.296 3-3v-1c0-1.704-1.252-3-3-3s-3 1.296-3 3v1c0 1.704 1.252 3 3 3zm-14 0c1.748 0 3-1.296 3-3v-1c0-1.704-1.252-3-3-3s-3 1.296-3 3v1c0 1.704 1.252 3 3 3zm7-1c1.748 0 3-1.296 3-3v-1c0-1.704-1.252-3-3-3s-3 1.296-3 3v1c0 1.704 1.252 3 3 3zm7 0c-1.165 0-2-.864-2-2v-1c0-1.136.835-2 2-2s2 .864 2 2v1c0 1.136-.835 2-2 2zm-14 0c-1.165 0-2-.864-2-2v-1c0-1.136.835-2 2-2s2 .864 2 2v1c0 1.136-.835 2-2 2zm7-1c-1.165 0-2-.864-2-2v-1c0-1.136.835-2 2-2s2 .864 2 2v1c0 1.136-.835 2-2 2z" clip-rule="evenodd"/></svg>