<svg xmlns="http://www.w3.org/2000/svg" fill="none" viewBox="0 0 24 23"><path fill="#53A1D8" fill-rule="evenodd" d="M8.17 20.96c0 .123-.101.217-.222.296-.204.137-.488.215-.8.215-.311 0-.595-.078-.8-.215-.12-.08-.221-.173-.221-.297H5.106c0 .365.162.71.463.982.357.325.929.55 1.58.55.65 0 1.221-.225 1.579-.55.3-.273.463-.617.463-.982H8.169zM6.637 7.2V6.152a.512.512 0 0 1 1.02 0V7.2a5.106 5.106 0 0 1 4.596 5.081v2.042c0 1.884.48 2.822 1.893 4.234.095.096.15.226.15.361v1.022a.51.51 0 0 1-.511.51H.51a.51.51 0 0 1-.511-.51v-1.022c0-.135.054-.265.15-.361 1.412-1.413 1.892-2.35 1.892-4.234V12.28A5.106 5.106 0 0 1 6.638 7.2zm6.637 11.927c-1.534-1.568-2.042-2.671-2.042-4.805V12.28a4.085 4.085 0 1 0-8.17 0v2.042c0 2.134-.508 3.237-2.042 4.805v.3h12.254v-.3zm.51-5.315h9.124c.882 0 1.386-.945.905-1.648L16.224.5c-.429-.625-1.387-.625-1.812-.005l-3.807 5.852a.51.51 0 0 0 .856.557l3.8-5.842c.023-.032.088-.032.117.01l7.589 11.664c.024.033-.022.053-.06.053h-9.122a.51.51 0 1 0 0 1.022zm1.022-3.575v1.021h1.021v-1.021h-1.021zm0-5.616v4.596h1.021V4.62h-1.021z" clip-rule="evenodd"/></svg>