<?xml version="1.0" encoding="UTF-8" standalone="no"?>
<!DOCTYPE svg PUBLIC "-//W3C//DTD SVG 1.1//EN" "http://www.w3.org/Graphics/SVG/1.1/DTD/svg11.dtd">
<svg width="100%" height="100%" viewBox="0 0 22 22" version="1.1" xmlns="http://www.w3.org/2000/svg" xmlns:xlink="http://www.w3.org/1999/xlink" xml:space="preserve" xmlns:serif="http://www.serif.com/" style="fill-rule:evenodd;clip-rule:evenodd;stroke-linejoin:round;stroke-miterlimit:2;">
    <path d="M13.625,15.347C12.203,16.413 10.436,17.044 8.522,17.044C3.815,17.044 0,13.228 0,8.522C0,3.815 3.815,0 8.522,0C13.228,0 17.044,3.815 17.044,8.522C17.044,10.436 16.413,12.203 15.347,13.625L22,20.278L20.278,22L13.625,15.347ZM8.522,15.826C12.556,15.826 15.826,12.556 15.826,8.522C15.826,4.488 12.556,1.217 8.522,1.217C4.488,1.217 1.217,4.488 1.217,8.522C1.217,12.556 4.488,15.826 8.522,15.826Z" style="fill:rgb(111,109,212);"/>
    <g transform="matrix(0.415766,0,0,0.415766,0.553445,2.37639)">
        <g transform="matrix(12,0,0,12,3.39206,19.2019)">
            <path d="M0.6,0L0.473,0L0.473,-0.283L0.196,-0.283L0.196,0L0.07,0L0.07,-0.674L0.196,-0.674L0.196,-0.392L0.473,-0.392L0.473,-0.674L0.6,-0.674L0.6,0Z" style="fill:rgb(111,109,212);fill-rule:nonzero;"/>
        </g>
        <g transform="matrix(12,0,0,12,10.8321,19.2019)">
            <path d="M0.495,-0.57L0.324,-0.57L0.324,0L0.197,0L0.197,-0.57L0.026,-0.57L0.026,-0.674L0.495,-0.674L0.495,-0.57Z" style="fill:rgb(111,109,212);fill-rule:nonzero;"/>
        </g>
        <g transform="matrix(12,0,0,12,16.4721,19.2019)">
            <path d="M0.495,-0.57L0.324,-0.57L0.324,0L0.197,0L0.197,-0.57L0.026,-0.57L0.026,-0.674L0.495,-0.674L0.495,-0.57Z" style="fill:rgb(111,109,212);fill-rule:nonzero;"/>
        </g>
        <g transform="matrix(12,0,0,12,22.1121,19.2019)">
            <path d="M0.284,-0.229L0.196,-0.229L0.196,0L0.07,0L0.07,-0.674L0.281,-0.674C0.357,-0.674 0.418,-0.653 0.464,-0.612C0.509,-0.571 0.532,-0.518 0.532,-0.453C0.532,-0.384 0.509,-0.33 0.462,-0.29C0.415,-0.249 0.355,-0.229 0.284,-0.229ZM0.27,-0.571L0.196,-0.571L0.196,-0.331L0.267,-0.331C0.313,-0.331 0.347,-0.342 0.37,-0.364C0.393,-0.386 0.404,-0.416 0.404,-0.453C0.404,-0.49 0.393,-0.519 0.37,-0.54C0.347,-0.561 0.314,-0.571 0.27,-0.571Z" style="fill:rgb(111,109,212);fill-rule:nonzero;"/>
        </g>
        <g transform="matrix(12,0,0,12,28.1841,19.2019)">
            <path d="M0.477,-0.189C0.477,-0.129 0.456,-0.081 0.413,-0.046C0.37,-0.01 0.313,0.008 0.243,0.008C0.167,0.008 0.104,-0.006 0.054,-0.035L0.054,-0.164C0.111,-0.123 0.174,-0.102 0.242,-0.102C0.273,-0.102 0.297,-0.11 0.316,-0.125C0.335,-0.139 0.344,-0.16 0.344,-0.185C0.344,-0.197 0.342,-0.208 0.337,-0.217C0.332,-0.226 0.323,-0.236 0.309,-0.245C0.294,-0.254 0.283,-0.261 0.276,-0.265C0.268,-0.269 0.252,-0.276 0.228,-0.287C0.221,-0.29 0.216,-0.293 0.213,-0.294C0.188,-0.305 0.168,-0.316 0.153,-0.325C0.138,-0.334 0.121,-0.346 0.103,-0.361C0.085,-0.376 0.071,-0.395 0.063,-0.416C0.054,-0.437 0.049,-0.462 0.049,-0.489C0.049,-0.546 0.07,-0.592 0.113,-0.627C0.155,-0.662 0.211,-0.679 0.281,-0.679C0.344,-0.679 0.399,-0.668 0.445,-0.646L0.445,-0.524C0.395,-0.554 0.342,-0.569 0.285,-0.569C0.254,-0.569 0.229,-0.562 0.212,-0.548C0.194,-0.534 0.185,-0.516 0.185,-0.494C0.185,-0.472 0.195,-0.454 0.214,-0.44C0.233,-0.425 0.261,-0.409 0.299,-0.392C0.326,-0.38 0.347,-0.37 0.364,-0.361C0.381,-0.352 0.399,-0.339 0.419,-0.323C0.438,-0.307 0.453,-0.288 0.463,-0.266C0.472,-0.243 0.477,-0.218 0.477,-0.189Z" style="fill:rgb(111,109,212);fill-rule:nonzero;"/>
        </g>
    </g>
</svg>
