<svg xmlns="http://www.w3.org/2000/svg" fill="none" viewBox="0 0 314 296"><g filter="url(#filter0_d)"><path fill="#fff" fill-rule="evenodd" d="M48 25a8 8 0 0 0-8 8v69.529L25 115l15 12.471V263a8 8 0 0 0 8 8h233a8 8 0 0 0 8-8V33a8 8 0 0 0-8-8H48z" clip-rule="evenodd"/></g><path fill="#559BD0" fill-opacity=".2" d="M50 38h229v31H50z"/><path fill="#18212C" fill-opacity=".05" d="M50 106h229v31H50zM50 165h229v31H50zM50 224h229v31H50z"/><path fill="#53A1D8" d="M190 45h85v17h-85z"/><path fill="#3C4147" d="M68.448 90.56c0 1.696-.437 3.05-1.312 4.064-.864 1.003-2.037 1.504-3.52 1.504-1.461 0-2.635-.507-3.52-1.52-.885-1.013-1.328-2.363-1.328-4.048 0-1.696.432-3.045 1.296-4.048.875-1.003 2.053-1.504 3.536-1.504 1.515 0 2.699.501 3.552 1.504.864.992 1.296 2.341 1.296 4.048zm-8.32 0c0 1.333.315 2.39.944 3.168.64.779 1.488 1.168 2.544 1.168 1.099 0 1.947-.384 2.544-1.152.608-.768.912-1.83.912-3.184 0-1.355-.304-2.416-.912-3.184-.608-.768-1.461-1.152-2.56-1.152-1.088 0-1.941.39-2.56 1.168-.608.768-.912 1.824-.912 3.168zm16.547 2.576c0 .95-.325 1.685-.976 2.208-.65.512-1.488.768-2.512.768-1.13 0-2.09-.23-2.88-.688v-1.392c.779.587 1.728.88 2.848.88.672 0 1.2-.15 1.584-.448.384-.299.576-.73.576-1.296 0-.235-.048-.443-.144-.624a1.258 1.258 0 0 0-.448-.512c-.203-.16-.4-.288-.592-.384a9.307 9.307 0 0 0-.752-.384 4.943 4.943 0 0 0-.288-.128c-.459-.203-.81-.368-1.056-.496a7.583 7.583 0 0 1-.848-.56 2.385 2.385 0 0 1-.704-.88 2.776 2.776 0 0 1-.224-1.152c0-.917.326-1.632.976-2.144.662-.523 1.488-.784 2.48-.784.928 0 1.718.165 2.368.496v1.36c-.65-.427-1.43-.64-2.336-.64-.65 0-1.168.155-1.552.464a1.427 1.427 0 0 0-.576 1.184c0 .256.048.485.144.688.107.203.288.395.544.576.256.17.475.304.656.4.181.085.464.213.848.384.363.16.64.288.832.384.192.085.438.23.736.432.31.192.539.384.688.576.16.181.299.427.416.736.128.299.192.624.192.976zm3.735-3.216c0 .267-.09.49-.272.672a.943.943 0 0 1-.672.256.943.943 0 0 1-.672-.256.943.943 0 0 1-.256-.672c0-.256.085-.475.256-.656a.913.913 0 0 1 .672-.272c.266 0 .49.09.672.272.181.181.272.4.272.656zm-.272 4.496a.913.913 0 0 1 .272.672c0 .267-.09.49-.272.672a.943.943 0 0 1-.672.256.943.943 0 0 1-.672-.256.943.943 0 0 1-.256-.672c0-.267.085-.49.256-.672a.913.913 0 0 1 .672-.272c.266 0 .49.09.672.272zm-13.178 31.04c-.661.448-1.568.672-2.72.672-1.621 0-2.939-.496-3.952-1.488-1.013-1.003-1.52-2.363-1.52-4.08 0-1.621.512-2.939 1.536-3.952 1.035-1.024 2.33-1.536 3.888-1.536 1.12 0 2.032.192 2.736.576v1.328a6.9 6.9 0 0 0-1.264-.528c-.373-.107-.864-.16-1.472-.16-1.163 0-2.133.395-2.912 1.184-.768.789-1.152 1.819-1.152 3.088 0 1.323.384 2.379 1.152 3.168.768.789 1.787 1.184 3.056 1.184 1.024 0 1.899-.272 2.624-.816v1.36zm8.969-3.488c0 1.205-.341 2.203-1.024 2.992-.683.789-1.621 1.184-2.816 1.184-1.163 0-2.085-.389-2.768-1.168-.672-.789-1.008-1.781-1.008-2.976 0-1.205.347-2.208 1.04-3.008.704-.811 1.616-1.216 2.736-1.216 1.227 0 2.17.395 2.832 1.184.672.789 1.008 1.792 1.008 3.008zm-6.304.016c0 .843.224 1.563.672 2.16.448.587 1.045.88 1.792.88.81 0 1.435-.288 1.872-.864.437-.587.656-1.312.656-2.176 0-.896-.208-1.632-.624-2.208-.416-.587-1.05-.88-1.904-.88-.768 0-1.37.299-1.808.896-.437.597-.656 1.328-.656 2.192zM84.081 126h-1.264v-1.408c-.426 1.003-1.274 1.504-2.544 1.504-.8 0-1.434-.235-1.904-.704-.458-.48-.688-1.12-.688-1.92v-5.584h1.264v5.264c0 .587.15 1.035.448 1.344.299.309.704.464 1.216.464.672 0 1.206-.235 1.6-.704.406-.469.608-1.104.608-1.904v-4.464h1.264V126zm8.737 0h-1.264v-5.248c0-.597-.155-1.051-.464-1.36-.299-.32-.693-.48-1.184-.48-.608 0-1.136.235-1.584.704-.437.469-.656 1.12-.656 1.952V126h-1.248v-8.112h1.248v1.408c.48-1.013 1.333-1.52 2.56-1.52.79 0 1.419.24 1.888.72.47.48.704 1.12.704 1.92V126zm6.305-.208a2.431 2.431 0 0 1-1.184.288c-1.6 0-2.4-.816-2.4-2.448v-4.72h-1.296v-1.024h1.296v-2.016h1.264v2.016h2.24v1.024h-2.24v4.752c0 .864.405 1.296 1.216 1.296.416 0 .784-.123 1.104-.368v1.2zm3.09.208h-1.264l.016-8.112h1.248v1.424c.427-1.003 1.163-1.504 2.208-1.504.192 0 .341.011.448.032v1.248a2.151 2.151 0 0 0-.688-.112c-.565 0-1.035.261-1.408.784s-.56 1.125-.56 1.808V126zm7.491-.208c-.416 1.099-.912 1.872-1.488 2.32a3.056 3.056 0 0 1-1.952.672c-.278 0-.502-.027-.672-.08v-1.136c.16.043.341.064.544.064 1.077 0 1.84-.613 2.288-1.84l-3.28-7.904h1.424l1.056 2.672 1.424 3.68c.085-.277.512-1.504 1.28-3.68l.944-2.672h1.36l-2.928 7.904zm6.018-5.872a.91.91 0 0 1-.272.672.94.94 0 0 1-.672.256.944.944 0 0 1-.672-.256.945.945 0 0 1-.256-.672c0-.256.086-.475.256-.656a.916.916 0 0 1 .672-.272c.267 0 .491.091.672.272a.89.89 0 0 1 .272.656zm-.272 4.496a.91.91 0 0 1 .272.672.91.91 0 0 1-.272.672.94.94 0 0 1-.672.256.944.944 0 0 1-.672-.256.945.945 0 0 1-.256-.672c0-.267.086-.491.256-.672a.916.916 0 0 1 .672-.272c.267 0 .491.091.672.272zm-48.49 31.04c-.661.448-1.568.672-2.72.672-1.621 0-2.939-.496-3.952-1.488-1.013-1.003-1.52-2.363-1.52-4.08 0-1.621.512-2.939 1.536-3.952 1.035-1.024 2.33-1.536 3.888-1.536 1.12 0 2.032.192 2.736.576v1.328a6.9 6.9 0 0 0-1.264-.528c-.373-.107-.864-.16-1.472-.16-1.163 0-2.133.395-2.912 1.184-.768.789-1.152 1.819-1.152 3.088 0 1.323.384 2.379 1.152 3.168.768.789 1.787 1.184 3.056 1.184 1.024 0 1.899-.272 2.624-.816v1.36zm3.161.544h-1.264v-8.112h1.264V156zm-.048-11.248c.16.16.24.357.24.592s-.08.432-.24.592a.836.836 0 0 1-.592.224.836.836 0 0 1-.592-.224.834.834 0 0 1-.224-.592c0-.235.075-.432.224-.592.16-.16.357-.24.592-.24s.432.08.592.24zm6.518 11.04a2.432 2.432 0 0 1-1.184.288c-1.6 0-2.4-.816-2.4-2.448v-4.72h-1.296v-1.024h1.296v-2.016h1.264v2.016h2.24v1.024h-2.24v4.752c0 .864.406 1.296 1.216 1.296.416 0 .784-.123 1.104-.368v1.2zm5.363 0c-.416 1.099-.912 1.872-1.488 2.32a3.055 3.055 0 0 1-1.952.672c-.278 0-.502-.027-.672-.08v-1.136a2.1 2.1 0 0 0 .544.064c1.077 0 1.84-.613 2.288-1.84l-3.28-7.904h1.424l1.056 2.672 1.424 3.68c.085-.277.512-1.504 1.28-3.68l.944-2.672h1.36l-2.928 7.904zm6.018-5.872c0 .267-.09.491-.272.672a.942.942 0 0 1-.672.256.942.942 0 0 1-.672-.256.942.942 0 0 1-.256-.672c0-.256.086-.475.256-.656a.914.914 0 0 1 .672-.272c.267 0 .49.091.672.272.182.181.272.4.272.656zm-.272 4.496a.912.912 0 0 1 .272.672c0 .267-.09.491-.272.672a.942.942 0 0 1-.672.256.942.942 0 0 1-.672-.256.942.942 0 0 1-.256-.672c0-.267.086-.491.256-.672a.914.914 0 0 1 .672-.272c.267 0 .49.091.672.272zm-22.292 21.936h-2.912V186H61.2v-9.648h-2.912v-1.136h7.12v1.136zM68.215 186H66.95v-8.112h1.264V186zm-.048-11.248c.16.16.24.357.24.592s-.08.432-.24.592a.836.836 0 0 1-.592.224.836.836 0 0 1-.592-.224.834.834 0 0 1-.224-.592c0-.235.074-.432.224-.592.16-.16.357-.24.592-.24.234 0 .432.08.592.24zM81.469 186h-1.264v-5.248c0-1.227-.517-1.84-1.552-1.84-.512 0-.97.235-1.376.704-.405.459-.608 1.109-.608 1.952V186h-1.264v-5.248c0-1.227-.517-1.84-1.552-1.84-.512 0-.97.235-1.376.704-.405.459-.608 1.109-.608 1.952V186h-1.248v-8.112h1.248v1.312c.448-.949 1.21-1.424 2.288-1.424 1.248 0 2.038.528 2.368 1.584.235-.512.56-.901.976-1.168a2.56 2.56 0 0 1 1.424-.416c.843 0 1.478.24 1.904.72.427.48.64 1.125.64 1.936V186zm8.166-.416c-.63.331-1.398.496-2.304.496-1.227 0-2.219-.373-2.976-1.12-.747-.757-1.12-1.755-1.12-2.992 0-1.291.336-2.309 1.008-3.056.672-.747 1.536-1.12 2.592-1.12 1.013 0 1.819.325 2.416.976s.896 1.573.896 2.768c0 .341-.027.656-.08.944H84.53c.096.8.4 1.413.912 1.84.512.427 1.184.64 2.016.64.906 0 1.632-.187 2.176-.56v1.184zm-2.8-6.688c-.608 0-1.125.219-1.552.656-.427.437-.677 1.061-.752 1.872h4.352v-.32c0-.672-.181-1.205-.544-1.6-.363-.405-.864-.608-1.504-.608zm6.887 1.024c0 .267-.09.491-.272.672a.942.942 0 0 1-.672.256.942.942 0 0 1-.672-.256.942.942 0 0 1-.256-.672c0-.256.086-.475.256-.656a.914.914 0 0 1 .672-.272c.267 0 .49.091.672.272.182.181.272.4.272.656zm-.272 4.496a.912.912 0 0 1 .272.672c0 .267-.09.491-.272.672a.942.942 0 0 1-.672.256.942.942 0 0 1-.672-.256.942.942 0 0 1-.256-.672c0-.267.086-.491.256-.672a.914.914 0 0 1 .672-.272c.267 0 .49.091.672.272zM60.624 216h-1.296v-10.784h1.296V216zm5.521-3.968h-1.664V216h-1.296v-10.784h2.832c1.248 0 2.23.325 2.944.976.725.64 1.088 1.472 1.088 2.496 0 .96-.357 1.76-1.072 2.4-.715.629-1.659.944-2.832.944zm-.112-5.712h-1.552v4.608h1.664c.81 0 1.446-.208 1.904-.624.459-.427.688-.965.688-1.616 0-.725-.234-1.301-.704-1.728-.47-.427-1.136-.64-2-.64zm7.455 3.6c0 .267-.09.491-.272.672a.942.942 0 0 1-.672.256.942.942 0 0 1-.672-.256.942.942 0 0 1-.256-.672c0-.256.085-.475.256-.656a.914.914 0 0 1 .672-.272c.267 0 .49.091.672.272.181.181.272.4.272.656zm-.272 4.496a.912.912 0 0 1 .272.672c0 .267-.09.491-.272.672a.942.942 0 0 1-.672.256.942.942 0 0 1-.672-.256.942.942 0 0 1-.256-.672c0-.267.085-.491.256-.672a.914.914 0 0 1 .672-.272c.267 0 .49.091.672.272zM63.168 246h-3.936v-10.784h3.248c1.11 0 1.995.256 2.656.768.672.512 1.008 1.2 1.008 2.064 0 .619-.176 1.157-.528 1.616a2.205 2.205 0 0 1-1.328.848 2.58 2.58 0 0 1 1.52.816c.427.437.64 1.035.64 1.792 0 .864-.288 1.563-.864 2.096-.565.523-1.37.784-2.416.784zm-.688-9.68h-1.952V240h1.728c.864 0 1.504-.181 1.92-.544.416-.363.624-.832.624-1.408 0-.501-.197-.912-.592-1.232-.384-.331-.96-.496-1.728-.496zm.256 4.784h-2.208v3.792h2.448c.683 0 1.205-.155 1.568-.464.373-.32.56-.784.56-1.392 0-.608-.208-1.083-.624-1.424-.405-.341-.987-.512-1.744-.512zm6.82 4.896h-1.263l.016-8.112h1.248v1.424c.426-1.003 1.162-1.504 2.208-1.504.192 0 .341.011.448.032v1.248a2.152 2.152 0 0 0-.688-.112c-.566 0-1.035.261-1.408.784-.374.523-.56 1.125-.56 1.808V246zm11.107-4.032c0 1.205-.341 2.203-1.024 2.992-.682.789-1.621 1.184-2.816 1.184-1.162 0-2.085-.389-2.768-1.168-.672-.789-1.008-1.781-1.008-2.976 0-1.205.347-2.208 1.04-3.008.704-.811 1.616-1.216 2.736-1.216 1.227 0 2.171.395 2.832 1.184.672.789 1.008 1.792 1.008 3.008zm-6.304.016c0 .843.224 1.563.672 2.16.448.587 1.046.88 1.792.88.811 0 1.435-.288 1.872-.864.438-.587.656-1.312.656-2.176 0-.896-.208-1.632-.624-2.208-.416-.587-1.05-.88-1.904-.88-.768 0-1.37.299-1.808.896-.437.597-.656 1.328-.656 2.192zM85.792 246H84.24l-2.496-8.112h1.344l.784 2.688c.277.939.506 1.76.688 2.464.192.693.314 1.157.368 1.392l.08.336c.16-.683.55-2.085 1.168-4.208l.768-2.672h1.344l.784 2.672 1.2 4.224c.15-.629.56-2.037 1.232-4.224l.816-2.672h1.296L91.056 246h-1.552l-.768-2.656-1.12-4.048c-.16.683-.523 2.032-1.088 4.048L85.792 246zm14.272-2.16c0 .693-.246 1.243-.736 1.648-.48.405-1.142.608-1.984.608-.982 0-1.776-.165-2.384-.496v-1.232c.714.427 1.482.64 2.304.64.49 0 .864-.096 1.12-.288a.927.927 0 0 0 .384-.784c0-.384-.144-.683-.432-.896-.278-.213-.747-.453-1.408-.72-.608-.235-1.099-.528-1.472-.88-.363-.352-.544-.827-.544-1.424 0-.672.25-1.205.752-1.6.512-.405 1.146-.608 1.904-.608.842 0 1.52.117 2.032.352v1.2c-.491-.299-1.163-.448-2.016-.448-.427 0-.768.101-1.024.304a.91.91 0 0 0-.368.752c0 .192.037.363.112.512.074.139.218.277.432.416.224.139.384.235.48.288.106.043.33.139.672.288.682.277 1.216.592 1.6.944.384.352.576.827.576 1.424zm7.633 1.744c-.629.331-1.397.496-2.304.496-1.226 0-2.218-.373-2.976-1.12-.746-.757-1.12-1.755-1.12-2.992 0-1.291.336-2.309 1.008-3.056.672-.747 1.536-1.12 2.592-1.12 1.014 0 1.819.325 2.416.976.598.651.896 1.573.896 2.768 0 .341-.026.656-.08.944h-5.536c.096.8.4 1.413.912 1.84.512.427 1.184.64 2.016.64.907 0 1.632-.187 2.176-.56v1.184zm-2.8-6.688a2.09 2.09 0 0 0-1.552.656c-.426.437-.677 1.061-.752 1.872h4.352v-.32c0-.672-.181-1.205-.544-1.6-.362-.405-.864-.608-1.504-.608zm6.488 7.104h-1.264l.016-8.112h1.248v1.424c.426-1.003 1.162-1.504 2.208-1.504.192 0 .341.011.448.032v1.248a2.156 2.156 0 0 0-.688-.112c-.566 0-1.035.261-1.408.784-.374.523-.56 1.125-.56 1.808V246zm5.619-6.08a.913.913 0 0 1-.272.672.944.944 0 0 1-.672.256.94.94 0 0 1-.672-.256.94.94 0 0 1-.256-.672.92.92 0 0 1 .256-.656.913.913 0 0 1 .672-.272c.266 0 .49.091.672.272.181.181.272.4.272.656zm-.272 4.496a.913.913 0 0 1 .272.672.913.913 0 0 1-.272.672.944.944 0 0 1-.672.256.94.94 0 0 1-.672-.256.94.94 0 0 1-.256-.672.94.94 0 0 1 .256-.672.913.913 0 0 1 .672-.272c.266 0 .49.091.672.272zM64.622 58h-1.106v-4.592c0-.513-.135-.91-.406-1.19-.261-.28-.607-.42-1.036-.42-.523 0-.98.2-1.372.602-.392.401-.588.975-.588 1.722V58h-1.092v-9.898h1.092v4.032c.42-.887 1.167-1.33 2.24-1.33.681 0 1.227.21 1.638.63.42.42.63.99.63 1.708V58zm5.516-.182a2.128 2.128 0 0 1-1.035.252c-1.4 0-2.1-.714-2.1-2.142v-4.13h-1.135v-.896h1.135v-1.764h1.106v1.764h1.96v.896h-1.96v4.158c0 .756.354 1.134 1.064 1.134.364 0 .686-.107.965-.322v1.05zm5.168 0a2.128 2.128 0 0 1-1.035.252c-1.4 0-2.1-.714-2.1-2.142v-4.13h-1.135v-.896h1.135v-1.764h1.105v1.764h1.96v.896h-1.96v4.158c0 .756.355 1.134 1.065 1.134.364 0 .686-.107.966-.322v1.05zm2.704 2.94h-1.092v-9.856h1.092v1.078c.495-.793 1.228-1.19 2.198-1.19.943 0 1.68.345 2.213 1.036.54.681.811 1.535.811 2.562 0 1.092-.284 1.988-.853 2.688-.56.69-1.293 1.036-2.199 1.036-.933 0-1.656-.397-2.17-1.19v3.836zm0-6.3c0 .905.21 1.573.63 2.002.42.43.887.644 1.4.644.598 0 1.088-.233 1.47-.7.383-.476.575-1.148.575-2.016 0-.775-.187-1.4-.56-1.876-.374-.476-.845-.714-1.415-.714-.569 0-1.064.21-1.484.63-.41.41-.616 1.087-.616 2.03zm11.122 1.652c0 .607-.215 1.087-.644 1.442-.42.355-.999.532-1.736.532-.859 0-1.554-.145-2.086-.434v-1.078c.625.373 1.297.56 2.016.56.43 0 .756-.084.98-.252a.812.812 0 0 0 .336-.686c0-.336-.126-.597-.378-.784-.243-.187-.654-.397-1.232-.63-.532-.205-.962-.462-1.288-.77-.317-.308-.476-.723-.476-1.246 0-.588.22-1.055.658-1.4.448-.355 1.003-.532 1.666-.532.737 0 1.33.103 1.778.308v1.05c-.43-.261-1.017-.392-1.764-.392-.374 0-.672.089-.896.266a.797.797 0 0 0-.322.658c0 .168.032.317.098.448.065.121.191.243.378.364.196.121.336.205.42.252.093.037.29.121.588.252.597.243 1.064.518 1.4.826.336.308.504.723.504 1.246zm2.941-3.43a.8.8 0 0 1-.238.588.826.826 0 0 1-.588.224.825.825 0 0 1-.588-.224.825.825 0 0 1-.224-.588c0-.224.075-.415.224-.574a.798.798 0 0 1 .588-.238c.234 0 .43.08.588.238.159.159.238.35.238.574zm-.238 3.934a.8.8 0 0 1 .238.588.8.8 0 0 1-.238.588.826.826 0 0 1-.588.224.825.825 0 0 1-.588-.224.825.825 0 0 1-.224-.588c0-.233.075-.43.224-.588a.798.798 0 0 1 .588-.238c.234 0 .43.08.588.238zm2.063 2.814h-1.12l5.096-11.326h1.134l-5.11 11.326zm5.647 0h-1.12l5.096-11.326h1.134l-5.11 11.326zm10.854-1.792c-.55.29-1.222.434-2.016.434-1.073 0-1.941-.327-2.604-.98-.653-.663-.98-1.535-.98-2.618 0-1.13.294-2.02.882-2.674.588-.653 1.344-.98 2.268-.98.887 0 1.592.285 2.114.854.523.57.784 1.377.784 2.422 0 .299-.023.574-.07.826h-4.844c.084.7.35 1.237.798 1.61.448.373 1.036.56 1.764.56.794 0 1.428-.163 1.904-.49v1.036zm-2.45-5.852c-.532 0-.984.191-1.358.574-.373.383-.592.929-.658 1.638h3.808v-.28c0-.588-.158-1.055-.476-1.4-.317-.355-.756-.532-1.316-.532zM113.08 58h-1.218l2.38-3.64-2.24-3.472h1.274l1.61 2.66 1.624-2.66h1.26l-2.296 3.486 2.38 3.626h-1.274l-1.722-2.8-1.778 2.8zm8.309-.854c.504 0 .906-.14 1.204-.42.299-.29.448-.653.448-1.092v-.91h-1.232c-.597 0-1.045.117-1.344.35-.298.233-.448.527-.448.882s.117.644.35.868c.234.215.574.322 1.022.322zm1.666.014c-.364.607-1.026.91-1.988.91-.662 0-1.199-.196-1.61-.588-.401-.392-.602-.887-.602-1.484 0-.681.257-1.209.77-1.582.523-.383 1.232-.574 2.128-.574h1.288v-.364c0-.56-.126-.98-.378-1.26-.252-.29-.676-.434-1.274-.434-.756 0-1.428.2-2.016.602V51.28c.532-.327 1.232-.49 2.1-.49 1.783 0 2.674.905 2.674 2.716V58h-1.092v-.84zm12.547.84h-1.106v-4.592c0-1.073-.453-1.61-1.358-1.61-.448 0-.849.205-1.204.616-.355.401-.532.97-.532 1.708V58h-1.106v-4.592c0-1.073-.453-1.61-1.358-1.61-.448 0-.849.205-1.204.616-.355.401-.532.97-.532 1.708V58h-1.092v-7.098h1.092v1.148c.392-.83 1.059-1.246 2.002-1.246 1.092 0 1.783.462 2.072 1.386.205-.448.49-.789.854-1.022a2.238 2.238 0 0 1 1.246-.364c.737 0 1.293.21 1.666.63.373.42.56.985.56 1.694V58zm3.057 2.758h-1.092v-9.856h1.092v1.078c.495-.793 1.227-1.19 2.198-1.19.943 0 1.68.345 2.212 1.036.541.681.812 1.535.812 2.562 0 1.092-.285 1.988-.854 2.688-.56.69-1.293 1.036-2.198 1.036-.933 0-1.657-.397-2.17-1.19v3.836zm0-6.3c0 .905.21 1.573.63 2.002.42.43.887.644 1.4.644.597 0 1.087-.233 1.47-.7.383-.476.574-1.148.574-2.016 0-.775-.187-1.4-.56-1.876-.373-.476-.845-.714-1.414-.714s-1.064.21-1.484.63c-.411.41-.616 1.087-.616 2.03zM146.672 58h-1.106v-9.898h1.106V58zm7.286-.364c-.551.29-1.223.434-2.016.434-1.073 0-1.941-.327-2.604-.98-.653-.663-.98-1.535-.98-2.618 0-1.13.294-2.02.882-2.674.588-.653 1.344-.98 2.268-.98.887 0 1.591.285 2.114.854.523.57.784 1.377.784 2.422 0 .299-.023.574-.07.826h-4.844c.084.7.35 1.237.798 1.61.448.373 1.036.56 1.764.56.793 0 1.428-.163 1.904-.49v1.036zm-2.45-5.852c-.532 0-.985.191-1.358.574-.373.383-.593.929-.658 1.638h3.808v-.28c0-.588-.159-1.055-.476-1.4-.317-.355-.756-.532-1.316-.532zm5.312 4.914a.798.798 0 0 1 .238.588c0 .233-.079.43-.238.588a.797.797 0 0 1-.588.238.8.8 0 0 1-.588-.238.801.801 0 0 1-.238-.588c0-.233.08-.43.238-.588a.8.8 0 0 1 .588-.238c.234 0 .43.08.588.238zm6.483 1.05c-.448.27-.999.406-1.652.406-1.12 0-2.012-.355-2.674-1.064-.654-.719-.98-1.591-.98-2.618 0-1.008.326-1.876.98-2.604.662-.728 1.563-1.092 2.702-1.092.606 0 1.148.13 1.624.392v1.05c-.43-.29-.934-.434-1.512-.434-.803 0-1.447.261-1.932.784-.476.513-.714 1.153-.714 1.918.009.765.242 1.405.7 1.918.457.504 1.106.756 1.946.756.541 0 1.045-.154 1.512-.462v1.05zm7.947-3.276c0 1.055-.298 1.927-.896 2.618-.597.69-1.418 1.036-2.464 1.036-1.017 0-1.824-.34-2.422-1.022-.588-.69-.882-1.559-.882-2.604 0-1.055.304-1.932.91-2.632.616-.71 1.414-1.064 2.394-1.064 1.074 0 1.9.345 2.478 1.036.588.69.882 1.568.882 2.632zm-5.516.014c0 .737.196 1.367.588 1.89.392.513.915.77 1.568.77.71 0 1.256-.252 1.638-.756.383-.513.574-1.148.574-1.904 0-.784-.182-1.428-.546-1.932-.364-.513-.919-.77-1.666-.77-.672 0-1.199.261-1.582.784-.382.523-.574 1.162-.574 1.918zM182.36 58h-1.106v-4.592c0-1.073-.453-1.61-1.358-1.61-.448 0-.85.205-1.204.616-.355.401-.532.97-.532 1.708V58h-1.106v-4.592c0-1.073-.453-1.61-1.358-1.61-.448 0-.85.205-1.204.616-.355.401-.532.97-.532 1.708V58h-1.092v-7.098h1.092v1.148c.392-.83 1.059-1.246 2.002-1.246 1.092 0 1.782.462 2.072 1.386.205-.448.49-.789.854-1.022a2.235 2.235 0 0 1 1.246-.364c.737 0 1.292.21 1.666.63.373.42.56.985.56 1.694V58zm1.937 1.428h-1.12l5.096-11.326h1.134l-5.11 11.326z"/><path fill="#fff" d="M198.275 57.748c-.448.27-.998.406-1.652.406-1.12 0-2.011-.355-2.674-1.064-.653-.719-.98-1.591-.98-2.618 0-1.008.327-1.876.98-2.604.663-.728 1.564-1.092 2.702-1.092.607 0 1.148.13 1.624.392v1.05c-.429-.29-.933-.434-1.512-.434-.802 0-1.446.261-1.932.784-.476.513-.714 1.153-.714 1.918.01.765.243 1.405.7 1.918.458.504 1.106.756 1.946.756a2.69 2.69 0 0 0 1.512-.462v1.05zm2.866.252h-1.106v-9.898h1.106V58zm3.268 0h-1.106v-7.098h1.106V58zm-.042-9.842c.14.14.21.313.21.518 0 .205-.07.378-.21.518a.73.73 0 0 1-.518.196.73.73 0 0 1-.518-.196.73.73 0 0 1-.196-.518.73.73 0 0 1 .196-.518c.14-.14.312-.21.518-.21.205 0 .378.07.518.21zm7.033 9.59c-.448.27-.998.406-1.652.406-1.12 0-2.011-.355-2.674-1.064-.653-.719-.98-1.591-.98-2.618 0-1.008.327-1.876.98-2.604.663-.728 1.564-1.092 2.702-1.092.607 0 1.148.13 1.624.392v1.05c-.429-.29-.933-.434-1.512-.434-.802 0-1.446.261-1.932.784-.476.513-.714 1.153-.714 1.918.01.765.243 1.405.7 1.918.458.504 1.106.756 1.946.756a2.69 2.69 0 0 0 1.512-.462v1.05zm2.796.252h-1.092v-9.842h1.092V58zm1.442-3.724L218.522 58h-1.33l-2.856-3.724 2.786-3.374h1.316l-2.8 3.374zM221.105 58h-1.134v-9.436h1.134V58zm5.097 0h-2.856v-9.436h2.8c1.39 0 2.529.434 3.416 1.302.896.859 1.344 1.974 1.344 3.346 0 1.363-.416 2.501-1.246 3.416-.822.915-1.974 1.372-3.458 1.372zm-.07-8.428h-1.638v7.434h1.694c1.166 0 2.048-.36 2.646-1.078.597-.728.896-1.633.896-2.716 0-1.027-.336-1.89-1.008-2.59-.663-.7-1.526-1.05-2.59-1.05zm12.349 2.73h-6.16v-.952h6.16v.952zm0 2.828h-6.16v-.966h6.16v.966zm8.047-.658c0 1.055-.299 1.927-.896 2.618-.598.69-1.419 1.036-2.464 1.036-1.018 0-1.825-.34-2.422-1.022-.588-.69-.882-1.559-.882-2.604 0-1.055.303-1.932.91-2.632.616-.71 1.414-1.064 2.394-1.064 1.073 0 1.899.345 2.478 1.036.588.69.882 1.568.882 2.632zm-5.516.014c0 .737.196 1.367.588 1.89.392.513.914.77 1.568.77.709 0 1.255-.252 1.638-.756.382-.513.574-1.148.574-1.904 0-.784-.182-1.428-.546-1.932-.364-.513-.92-.77-1.666-.77-.672 0-1.2.261-1.582.784-.383.523-.574 1.162-.574 1.918zm10.423-2.688h-1.568V58h-1.106v-6.202h-1.218v-.896h1.218v-.658c0-.69.182-1.237.546-1.638.373-.401.887-.602 1.54-.602.224 0 .453.033.686.098v1.008a2.035 2.035 0 0 0-.644-.112.982.982 0 0 0-.742.308c-.187.205-.28.523-.28.952v.644h1.568v.896zm4.607 0h-1.568V58h-1.106v-6.202h-1.218v-.896h1.218v-.658c0-.69.182-1.237.546-1.638.374-.401.887-.602 1.54-.602.224 0 .453.033.686.098v1.008a2.03 2.03 0 0 0-.644-.112.983.983 0 0 0-.742.308c-.186.205-.28.523-.28.952v.644h1.568v.896zm6.498 5.838c-.551.29-1.223.434-2.016.434-1.073 0-1.941-.327-2.604-.98-.653-.663-.98-1.535-.98-2.618 0-1.13.294-2.02.882-2.674.588-.653 1.344-.98 2.268-.98.887 0 1.591.285 2.114.854.523.57.784 1.377.784 2.422 0 .299-.023.574-.07.826h-4.844c.084.7.35 1.237.798 1.61.448.373 1.036.56 1.764.56.793 0 1.428-.163 1.904-.49v1.036zm-2.45-5.852c-.532 0-.985.191-1.358.574-.373.383-.593.929-.658 1.638h3.808v-.28c0-.588-.159-1.055-.476-1.4-.317-.355-.756-.532-1.316-.532zM265.766 58h-1.106l.014-7.098h1.092v1.246c.374-.877 1.018-1.316 1.932-1.316.168 0 .299.01.392.028v1.092a1.89 1.89 0 0 0-.602-.098c-.494 0-.905.229-1.232.686-.326.457-.49.985-.49 1.582V58zm5.911 0h-1.092v-7.952l-2.114 1.302v-1.19l2.17-1.316h1.036V58z"/><path fill="#18212C" d="M247.5 97h-1.782v-9.126h1.782V97zm.216-11.916c0 .3-.108.558-.324.774-.216.216-.48.324-.792.324a1.11 1.11 0 0 1-.792-.306 1.11 1.11 0 0 1-.306-.792c0-.312.102-.576.306-.792.216-.216.48-.324.792-.324.312 0 .576.108.792.324.216.216.324.48.324.792zm11.576 1.26c.996 1.128 1.494 2.64 1.494 4.536 0 1.896-.504 3.414-1.512 4.554-.996 1.14-2.346 1.71-4.05 1.71-1.692 0-3.048-.57-4.068-1.71-1.008-1.14-1.512-2.658-1.512-4.554 0-1.884.504-3.396 1.512-4.536 1.008-1.14 2.358-1.71 4.05-1.71 1.728 0 3.09.57 4.086 1.71zm-6.75 1.242c-.636.804-.954 1.902-.954 3.294 0 1.392.33 2.496.99 3.312.66.816 1.542 1.224 2.646 1.224 1.14 0 2.028-.402 2.664-1.206.636-.804.954-1.914.954-3.33 0-1.404-.324-2.508-.972-3.312-.636-.804-1.524-1.206-2.664-1.206-1.128 0-2.016.408-2.664 1.224zm17.567 6.102c0 1.068-.378 1.908-1.134 2.52-.756.612-1.734.918-2.934.918-1.332 0-2.436-.258-3.312-.774v-1.926c.948.708 2.046 1.062 3.294 1.062.66 0 1.182-.15 1.566-.45.384-.312.576-.738.576-1.278 0-.324-.114-.618-.342-.882a2.309 2.309 0 0 0-.738-.612c-.264-.144-.66-.336-1.188-.576l-.666-.306c-.12-.06-.324-.168-.612-.324a5.519 5.519 0 0 1-.648-.396c-.132-.108-.3-.258-.504-.45a2.099 2.099 0 0 1-.45-.576 7.936 7.936 0 0 1-.252-.666 3.204 3.204 0 0 1-.108-.846c0-1.032.372-1.848 1.116-2.448.756-.6 1.728-.9 2.916-.9 1.092 0 2.022.192 2.79.576v1.836c-.804-.504-1.716-.756-2.736-.756-.66 0-1.182.15-1.566.45a1.383 1.383 0 0 0-.558 1.152c0 .48.186.864.558 1.152.372.288.942.6 1.71.936.504.216.894.402 1.17.558.288.156.612.378.972.666.372.276.642.612.81 1.008.18.384.27.828.27 1.332zm-58.756 32.322c-1.044.756-2.352 1.134-3.924 1.134-1.896 0-3.426-.558-4.59-1.674-1.152-1.116-1.728-2.634-1.728-4.554 0-1.86.582-3.366 1.746-4.518 1.176-1.164 2.664-1.746 4.464-1.746 1.404 0 2.58.27 3.528.81v1.908c-1.032-.648-2.184-.972-3.456-.972-1.296 0-2.346.414-3.15 1.242-.792.828-1.188 1.92-1.188 3.276 0 1.392.39 2.49 1.17 3.294.792.804 1.878 1.206 3.258 1.206.72 0 1.404-.132 2.052-.396v-3.348h-2.466v-1.602h4.284v5.814h-.018l.018.126zm9.228.504c-.672.384-1.56.576-2.664.576-1.416 0-2.544-.426-3.384-1.278-.84-.852-1.26-1.968-1.26-3.348 0-1.464.384-2.61 1.152-3.438.768-.84 1.746-1.26 2.934-1.26 1.164 0 2.088.366 2.772 1.098.684.72 1.026 1.764 1.026 3.132 0 .372-.036.762-.108 1.17h-5.994c.12.792.456 1.398 1.008 1.818.552.42 1.248.63 2.088.63.972 0 1.782-.228 2.43-.684v1.584zm-3.186-7.29c-.6 0-1.116.222-1.548.666-.432.432-.702 1.062-.81 1.89h4.41v-.324c-.024-.684-.21-1.224-.558-1.62-.348-.408-.846-.612-1.494-.612zm7.603 7.776h-1.764v-9.126h1.764v1.602c.444-1.128 1.242-1.692 2.394-1.692.168 0 .354.018.558.054v1.728a2.127 2.127 0 0 0-.846-.162c-.612 0-1.116.27-1.512.81-.396.54-.594 1.182-.594 1.926V127zm16.882 0h-1.764v-5.76c0-1.308-.528-1.962-1.584-1.962-.528 0-1.002.234-1.422.702-.408.468-.612 1.158-.612 2.07V127h-1.764v-5.76c0-1.308-.534-1.962-1.602-1.962-.516 0-.984.234-1.404.702-.42.468-.63 1.158-.63 2.07V127h-1.764v-9.126h1.764v1.458c.516-1.056 1.374-1.584 2.574-1.584 1.368 0 2.244.588 2.628 1.764.252-.564.618-.996 1.098-1.296a2.908 2.908 0 0 1 1.62-.468c.936 0 1.644.276 2.124.828.492.552.738 1.314.738 2.286V127zm5.347-1.314c.576 0 1.026-.156 1.35-.468.336-.324.504-.744.504-1.26v-1.026h-1.368c-.672 0-1.182.132-1.53.396-.336.264-.504.6-.504 1.008 0 .42.132.75.396.99s.648.36 1.152.36zm1.908.234c-.468.768-1.29 1.152-2.466 1.152-.864 0-1.56-.246-2.088-.738-.516-.504-.774-1.14-.774-1.908 0-.876.33-1.554.99-2.034.66-.492 1.584-.738 2.772-.738h1.512v-.522c0-.624-.15-1.092-.45-1.404-.3-.324-.798-.486-1.494-.486-.972 0-1.854.27-2.646.81v-1.71c.708-.408 1.644-.612 2.808-.612 2.388 0 3.582 1.158 3.582 3.474V127h-1.746v-1.08zM260.8 127h-1.764v-5.76c0-.636-.162-1.122-.486-1.458-.312-.336-.732-.504-1.26-.504-.624 0-1.158.246-1.602.738-.444.48-.666 1.158-.666 2.034V127h-1.764v-9.126h1.764v1.566c.54-1.128 1.488-1.692 2.844-1.692.9 0 1.614.276 2.142.828.528.552.792 1.302.792 2.25V127zm6.674-.252c-.876 2.34-2.214 3.51-4.014 3.51-.324 0-.6-.03-.828-.09v-1.512c.192.048.396.072.612.072 1.164 0 1.98-.642 2.448-1.926l-3.636-8.928h1.962l1.134 2.97 1.422 3.852c.108-.36.54-1.644 1.296-3.852l1.026-2.97h1.872l-3.294 8.874zM232.222 157h-4.662v-12.132h3.978c1.272 0 2.274.3 3.006.9.732.588 1.098 1.368 1.098 2.34 0 .672-.192 1.26-.576 1.764a2.478 2.478 0 0 1-1.44.972 2.86 2.86 0 0 1 1.656.918c.456.492.684 1.152.684 1.98 0 .96-.33 1.746-.99 2.358-.648.6-1.566.9-2.754.9zm-.828-10.602h-1.98v3.726h1.674c.9 0 1.566-.18 1.998-.54.444-.372.666-.852.666-1.44 0-.516-.198-.936-.594-1.26-.384-.324-.972-.486-1.764-.486zm.216 5.238h-2.196v3.834h2.376c1.524 0 2.286-.63 2.286-1.89 0-.612-.21-1.086-.63-1.422-.408-.348-1.02-.522-1.836-.522zm13.141 4.878c-.672.384-1.56.576-2.664.576-1.416 0-2.544-.426-3.384-1.278-.84-.852-1.26-1.968-1.26-3.348 0-1.464.384-2.61 1.152-3.438.768-.84 1.746-1.26 2.934-1.26 1.164 0 2.088.366 2.772 1.098.684.72 1.026 1.764 1.026 3.132 0 .372-.036.762-.108 1.17h-5.994c.12.792.456 1.398 1.008 1.818.552.42 1.248.63 2.088.63.972 0 1.782-.228 2.43-.684v1.584zm-3.186-7.29c-.6 0-1.116.222-1.548.666-.432.432-.702 1.062-.81 1.89h4.41v-.324c-.024-.684-.21-1.224-.558-1.62-.348-.408-.846-.612-1.494-.612zm7.603 7.776h-1.764v-9.126h1.764v1.602c.444-1.128 1.242-1.692 2.394-1.692.168 0 .354.018.558.054v1.728a2.127 2.127 0 0 0-.846-.162c-.612 0-1.116.27-1.512.81-.396.54-.594 1.182-.594 1.926V157zm6.19 0h-1.782v-12.726h1.782V157zm4.412 0h-1.782v-9.126h1.782V157zm.216-11.916c0 .3-.108.558-.324.774-.216.216-.48.324-.792.324a1.11 1.11 0 0 1-.792-.306 1.11 1.11 0 0 1-.306-.792c0-.312.102-.576.306-.792.216-.216.48-.324.792-.324.312 0 .576.108.792.324.216.216.324.48.324.792zM269.87 157h-1.764v-5.76c0-.636-.162-1.122-.486-1.458-.312-.336-.732-.504-1.26-.504-.624 0-1.158.246-1.602.738-.444.48-.666 1.158-.666 2.034V157h-1.764v-9.126h1.764v1.566c.54-1.128 1.488-1.692 2.844-1.692.9 0 1.614.276 2.142.828.528.552.792 1.302.792 2.25V157zm-32.771 30h-1.746v-9.846l-2.79 1.71v-1.89l2.934-1.746h1.602V187zm3.76-4.284h3.546v-6.426l-3.546 6.426zm5.31 4.284h-1.764v-2.754h-5.328v-1.53l4.23-7.506h2.862v7.506h1.656v1.53h-1.656V187zm5.146-7.884c.24.228.36.51.36.846 0 .336-.12.624-.36.864a1.15 1.15 0 0 1-.846.342c-.348 0-.636-.114-.864-.342a1.171 1.171 0 0 1-.342-.864c0-.336.114-.618.342-.846.24-.24.528-.36.864-.36.336 0 .618.12.846.36zm0 5.85c.24.228.36.51.36.846 0 .336-.12.624-.36.864a1.15 1.15 0 0 1-.846.342c-.348 0-.636-.114-.864-.342a1.21 1.21 0 0 1-.342-.864c0-.336.114-.618.342-.846.24-.24.528-.36.864-.36.336 0 .618.12.846.36zm9.036-1.206c0 .972-.348 1.776-1.044 2.412-.696.624-1.674.936-2.934.936-1.188 0-2.19-.204-3.006-.612v-1.728c.888.48 1.86.72 2.916.72.708 0 1.26-.174 1.656-.522.408-.36.612-.816.612-1.368 0-.576-.222-1.02-.666-1.332-.444-.312-1.11-.468-1.998-.468h-.72v-1.512h.72c.66 0 1.212-.162 1.656-.486.456-.336.684-.792.684-1.368 0-.576-.186-1.008-.558-1.296-.36-.288-.858-.432-1.494-.432-.816 0-1.626.252-2.43.756v-1.71c.744-.432 1.572-.648 2.484-.648 1.2 0 2.136.3 2.808.9.684.588 1.026 1.332 1.026 2.232 0 .648-.162 1.218-.486 1.71-.312.48-.78.846-1.404 1.098.684.168 1.218.486 1.602.954.384.468.576 1.056.576 1.764zm9.912-2.682c0 1.836-.366 3.306-1.098 4.41-.72 1.104-1.752 1.656-3.096 1.656-1.284 0-2.298-.552-3.042-1.656-.732-1.104-1.098-2.574-1.098-4.41 0-1.848.366-3.312 1.098-4.392.744-1.092 1.758-1.638 3.042-1.638 1.308 0 2.334.54 3.078 1.62.744 1.08 1.116 2.55 1.116 4.41zm-5.868-3.24c-.444.756-.666 1.836-.666 3.24 0 1.404.216 2.496.648 3.276.444.768 1.008 1.152 1.692 1.152.744 0 1.326-.384 1.746-1.152.42-.768.63-1.86.63-3.276 0-1.428-.222-2.514-.666-3.258-.432-.756-1.002-1.134-1.71-1.134-.672 0-1.23.384-1.674 1.152zM174.413 217h-1.89l4.806-10.242h-5.886v-1.53h7.758v1.53L174.413 217zm9.576-5.688c.912 0 1.65-.354 2.214-1.062-.024-1.104-.228-1.974-.612-2.61-.372-.636-.936-.954-1.692-.954-.624 0-1.122.21-1.494.63-.372.408-.558.966-.558 1.674 0 .72.192 1.29.576 1.71.396.408.918.612 1.566.612zm3.96-.9c0 2.136-.456 3.792-1.368 4.968-.9 1.176-2.196 1.764-3.888 1.764-.768 0-1.458-.114-2.07-.342v-1.71c.612.276 1.26.414 1.944.414 2.064 0 3.252-1.224 3.564-3.672-.576.66-1.434.99-2.574.99a3.434 3.434 0 0 1-2.52-1.044c-.684-.696-1.026-1.614-1.026-2.754s.342-2.082 1.026-2.826c.684-.744 1.614-1.116 2.79-1.116 1.344 0 2.364.498 3.06 1.494.708.984 1.062 2.262 1.062 3.834zm3.307 4.662c.24.228.36.51.36.846 0 .336-.12.624-.36.864-.228.24-.51.36-.846.36a1.2 1.2 0 0 1-1.224-1.224c0-.336.114-.618.342-.846a1.2 1.2 0 0 1 .882-.36c.336 0 .618.12.846.36zm5.713 1.926h-1.746v-9.846l-2.79 1.71v-1.89l2.934-1.746h1.602V217zm4.515 0h-1.89l4.806-10.242h-5.886v-1.53h7.758v1.53L201.484 217zm9.863 0h-1.746v-9.846l-2.79 1.71v-1.89l2.934-1.746h1.602V217zm3.886-1.926c.24.228.36.51.36.846 0 .336-.12.624-.36.864-.228.24-.51.36-.846.36a1.2 1.2 0 0 1-1.224-1.224c0-.336.114-.618.342-.846a1.2 1.2 0 0 1 .882-.36c.336 0 .618.12.846.36zm9.078 1.926h-7.542v-1.458c1.512-1.104 2.784-2.244 3.816-3.42 1.044-1.188 1.566-2.268 1.566-3.24 0-.684-.198-1.206-.594-1.566-.396-.372-.942-.558-1.638-.558-.96 0-1.902.36-2.826 1.08v-1.746c.864-.66 1.89-.99 3.078-.99 1.104 0 2.016.312 2.736.936.72.612 1.08 1.488 1.08 2.628 0 2.112-1.596 4.38-4.788 6.804h5.112V217zm9.812-5.922c0 1.836-.366 3.306-1.098 4.41-.72 1.104-1.752 1.656-3.096 1.656-1.284 0-2.298-.552-3.042-1.656-.732-1.104-1.098-2.574-1.098-4.41 0-1.848.366-3.312 1.098-4.392.744-1.092 1.758-1.638 3.042-1.638 1.308 0 2.334.54 3.078 1.62.744 1.08 1.116 2.55 1.116 4.41zm-5.868-3.24c-.444.756-.666 1.836-.666 3.24 0 1.404.216 2.496.648 3.276.444.768 1.008 1.152 1.692 1.152.744 0 1.326-.384 1.746-1.152.42-.768.63-1.86.63-3.276 0-1.428-.222-2.514-.666-3.258-.432-.756-1.002-1.134-1.71-1.134-.672 0-1.23.384-1.674 1.152zm15.676 3.24c0 1.836-.366 3.306-1.098 4.41-.72 1.104-1.752 1.656-3.096 1.656-1.284 0-2.298-.552-3.042-1.656-.732-1.104-1.098-2.574-1.098-4.41 0-1.848.366-3.312 1.098-4.392.744-1.092 1.758-1.638 3.042-1.638 1.308 0 2.334.54 3.078 1.62.744 1.08 1.116 2.55 1.116 4.41zm-5.868-3.24c-.444.756-.666 1.836-.666 3.24 0 1.404.216 2.496.648 3.276.444.768 1.008 1.152 1.692 1.152.744 0 1.326-.384 1.746-1.152.42-.768.63-1.86.63-3.276 0-1.428-.222-2.514-.666-3.258-.432-.756-1.002-1.134-1.71-1.134-.672 0-1.23.384-1.674 1.152zm9.197 7.236c.24.228.36.51.36.846 0 .336-.12.624-.36.864-.228.24-.51.36-.846.36a1.2 1.2 0 0 1-1.224-1.224c0-.336.114-.618.342-.846a1.2 1.2 0 0 1 .882-.36c.336 0 .618.12.846.36zm5.712 1.926h-1.746v-9.846l-2.79 1.71v-1.89l2.934-1.746h1.602V217zm8.926-3.24c0 .972-.348 1.776-1.044 2.412-.696.624-1.674.936-2.934.936-1.188 0-2.19-.204-3.006-.612v-1.728c.888.48 1.86.72 2.916.72.708 0 1.26-.174 1.656-.522.408-.36.612-.816.612-1.368 0-.576-.222-1.02-.666-1.332-.444-.312-1.11-.468-1.998-.468h-.72v-1.512h.72c.66 0 1.212-.162 1.656-.486.456-.336.684-.792.684-1.368 0-.576-.186-1.008-.558-1.296-.36-.288-.858-.432-1.494-.432-.816 0-1.626.252-2.43.756v-1.71c.744-.432 1.572-.648 2.484-.648 1.2 0 2.136.3 2.808.9.684.588 1.026 1.332 1.026 2.232 0 .648-.162 1.218-.486 1.71-.312.48-.78.846-1.404 1.098.684.168 1.218.486 1.602.954.384.468.576 1.056.576 1.764zm4.062 3.24h-1.89l4.806-10.242h-5.886v-1.53h7.758v1.53L265.96 217zm-46.333 29.406c-.744.492-1.776.738-3.096.738-1.812 0-3.294-.564-4.446-1.692-1.152-1.128-1.728-2.64-1.728-4.536 0-1.836.576-3.33 1.728-4.482 1.164-1.152 2.634-1.728 4.41-1.728 1.296 0 2.334.222 3.114.666v1.818c-.528-.288-1.008-.486-1.44-.594-.42-.12-.96-.18-1.62-.18-1.212 0-2.226.414-3.042 1.242-.804.816-1.206 1.902-1.206 3.258 0 1.38.402 2.478 1.206 3.294.804.816 1.866 1.224 3.186 1.224 1.164 0 2.142-.3 2.934-.9v1.872zm9.585.594h-1.764v-5.76c0-.624-.162-1.104-.486-1.44-.312-.348-.726-.522-1.242-.522-.6 0-1.134.228-1.602.684-.456.456-.684 1.152-.684 2.088V247h-1.764v-12.726h1.764v5.166c.516-1.128 1.458-1.692 2.826-1.692.888 0 1.602.276 2.142.828.54.552.81 1.32.81 2.304V247zm4.136 0h-1.764v-9.126h1.764v1.602c.444-1.128 1.242-1.692 2.394-1.692.168 0 .354.018.558.054v1.728a2.127 2.127 0 0 0-.846-.162c-.612 0-1.116.27-1.512.81-.396.54-.594 1.182-.594 1.926V247zm11.373-7.92c.756.876 1.134 1.998 1.134 3.366s-.39 2.496-1.17 3.384c-.768.888-1.83 1.332-3.186 1.332-1.344 0-2.4-.438-3.168-1.314-.768-.876-1.152-1.986-1.152-3.33 0-1.368.396-2.502 1.188-3.402.792-.912 1.836-1.368 3.132-1.368 1.392 0 2.466.444 3.222 1.332zm-5.706 3.384c0 .9.222 1.662.666 2.286.444.612 1.05.918 1.818.918.816 0 1.434-.3 1.854-.9.432-.6.648-1.362.648-2.286 0-.948-.204-1.722-.612-2.322-.408-.612-1.044-.918-1.908-.918-.78 0-1.386.312-1.818.936-.432.612-.648 1.374-.648 2.286zM260.39 247h-1.764v-5.76c0-1.308-.528-1.962-1.584-1.962-.528 0-1.002.234-1.422.702-.408.468-.612 1.158-.612 2.07V247h-1.764v-5.76c0-1.308-.534-1.962-1.602-1.962-.516 0-.984.234-1.404.702-.42.468-.63 1.158-.63 2.07V247h-1.764v-9.126h1.764v1.458c.516-1.056 1.374-1.584 2.574-1.584 1.368 0 2.244.588 2.628 1.764.252-.564.618-.996 1.098-1.296a2.908 2.908 0 0 1 1.62-.468c.936 0 1.644.276 2.124.828.492.552.738 1.314.738 2.286V247zm9.199-.486c-.672.384-1.56.576-2.664.576-1.416 0-2.544-.426-3.384-1.278-.84-.852-1.26-1.968-1.26-3.348 0-1.464.384-2.61 1.152-3.438.768-.84 1.746-1.26 2.934-1.26 1.164 0 2.088.366 2.772 1.098.684.72 1.026 1.764 1.026 3.132 0 .372-.036.762-.108 1.17h-5.994c.12.792.456 1.398 1.008 1.818.552.42 1.248.63 2.088.63.972 0 1.782-.228 2.43-.684v1.584zm-3.186-7.29c-.6 0-1.116.222-1.548.666-.432.432-.702 1.062-.81 1.89h4.41v-.324c-.024-.684-.21-1.224-.558-1.62-.348-.408-.846-.612-1.494-.612z"/><defs><filter id="filter0_d" width="314" height="296" x="0" y="0" color-interpolation-filters="sRGB" filterUnits="userSpaceOnUse"><feFlood flood-opacity="0" result="BackgroundImageFix"/><feColorMatrix in="SourceAlpha" values="0 0 0 0 0 0 0 0 0 0 0 0 0 0 0 0 0 0 127 0"/><feOffset/><feGaussianBlur stdDeviation="12.5"/><feColorMatrix values="0 0 0 0 0.0941176 0 0 0 0 0.129412 0 0 0 0 0.172549 0 0 0 0.25 0"/><feBlend in2="BackgroundImageFix" result="effect1_dropShadow"/><feBlend in="SourceGraphic" in2="effect1_dropShadow" result="shape"/></filter></defs></svg>