<svg xmlns="http://www.w3.org/2000/svg" fill="none" viewBox="0 0 653 500"><path fill="#53A1D8" fill-opacity=".1" d="M78.563 3.956c-.821 2.165-1.866 5.822-2.463 8.061-1.045 4.628-2.24 6.42-4.628 7.017-2.09.522-4.255 4.105-4.255 7.016 0 3.882 1.194 5.897 3.732 6.345l2.314.522-1.791 2.389c-2.165 2.837-5.673 9.778-6.494 12.69-.448 1.343-.224 2.462.522 3.508.97 1.418.896 1.567-.448 1.567-4.03 0-5.15 2.762-2.015 4.852 2.762 1.866 5.15.746 10.226-4.703 2.538-2.687 4.479-4.627 4.255-4.18-4.106 8.584-5.076 10.898-5.823 13.585-.597 2.464-.597 3.882.075 5.897.821 2.613.896 2.613 1.717 1.045.821-1.418 1.045-1.493 2.314-.448.821.597 2.911 1.12 4.702 1.12h3.135l-.448 4.03c-.298 2.613-.223 4.18.374 4.48 1.493.97.82 4.702-1.792 10.225-1.418 3.06-2.612 6.196-2.612 7.017 0 1.716 5.598 7.613 6.12 6.568.224-.298.598-1.567.896-2.687.373-1.642.821-2.015 1.792-1.642 4.254 1.791 5.3 2.015 7.09 1.642 1.792-.522 2.464-1.045 4.853-3.881.97-1.195 8.36-1.642 8.36-.523 0 .373-.971 1.568-2.24 2.762-5.971 5.748-5.523 15.302.747 16.198 1.045.149 2.239 1.045 2.762 2.09 1.418 2.761 1.194 10.151-.299 12.689-1.12 2.015-1.12 2.239 0 3.881 3.807 5.225 3.732 5.001 2.762 6.27-2.016 2.389-3.732 2.762-5.449 1.195-3.508-3.285-11.645-2.613-15.153 1.119-2.463 2.687-2.314 4.479.523 5.076 1.642.373 2.164.821 1.791 1.642-.224.672.075 1.792.747 2.463 1.045 1.12 1.045 1.642-.15 5.151-1.791 5.523-5.971 10.076-11.27 12.017-2.315.896-4.629 1.941-5.151 2.389-.97.821-1.269 5.001-.523 7.837l.448 1.568 3.434-1.792c2.09-1.119 4.105-1.716 5-1.418.822.224 3.584.747 6.196 1.12 3.807.522 5.225 1.119 7.614 3.284 2.762 2.463 3.06 2.538 5.374 1.792 2.986-.971 6.046-2.986 9.48-6.121l2.463-2.314-1.12 2.239c-1.866 3.658-5.598 8.435-7.613 9.778-1.045.672-4.479 1.493-7.614 1.866-4.478.523-6.494 1.12-8.808 2.762-4.851 3.359-18.511 20.378-17.317 21.497.299.299 2.911-.522 5.897-1.791 7.39-3.21 8.658-3.359 12.465-2.015 4.927 1.716 5.748 1.492 7.838-2.09 1.045-1.792 2.762-3.956 3.732-4.927 2.389-2.239 7.016-2.836 9.928-1.269 1.268.597 3.657 1.344 5.374 1.642 2.762.448 3.06.299 3.06-1.045 0-2.09 1.344-2.314 19.781-3.135 16.57-.746 19.78-1.269 24.781-4.18 2.911-1.642 6.195-5.001 6.195-6.27 0-.298-1.94-.821-4.254-1.045-8.286-.97-10.674-3.284-6.27-5.822 1.194-.672 2.314-1.94 2.463-2.911.149-1.119 1.791-2.836 4.628-4.777 10.002-7.016 11.569-18.362 3.06-22.094-4.777-2.09-11.122-2.09-13.436.074-1.343 1.269-2.239 1.493-4.105 1.12-3.135-.672-3.508-2.09-1.194-5.076 4.926-6.419 2.314-12.241-7.091-15.899-4.703-1.791-4.927-2.239-2.762-4.553 2.687-2.911 5.076-7.016 5.076-8.882 0-2.613-2.613-5.151-8.136-8.062-2.912-1.493-5.748-3.508-6.42-4.404-1.119-1.493-4.404-11.495-6.344-19.108-1.045-3.957-6.27-9.853-11.57-12.839-3.135-1.791-4.553-2.165-9.181-2.165-5.524 0-11.122-1.567-10.3-2.91.298-.374 1.716-1.12 3.283-1.568 7.689-2.538 13.436-7.54 7.166-6.42-1.418.3-3.135.747-3.732.97-2.389.897-.821-1.044 2.836-3.507 5.002-3.434 8.883-8.435 12.914-16.72 4.03-8.286 5.673-14.406 4.03-15.377-3.806-2.388-20.303-1.269-27.841 1.94-8.211 3.434-8.584 3.285-5.225-2.537 1.044-1.791 2.09-4.553 2.239-6.046.15-2.314 1.194-3.583 7.166-9.181 6.643-6.27 6.867-6.569 5.598-7.838C105.434.597 103.493.448 92.67.224L80.055 0l-1.492 3.956zM307.202 27.99c-1.194.598-3.583 2.39-5.225 3.957-5.001 4.702-7.016 5.897-11.196 6.792-2.165.448-5.375 1.792-7.017 2.986-4.852 3.583-5.523 5.524-5.897 18.362-.522 15.974 0 19.034 3.583 22.617 2.24 2.24 2.986 3.583 3.359 6.494.299 2.015.672 4.255.896 5.001.522 2.015 3.359 3.508 7.39 3.956 2.911.299 4.18.075 6.195-1.194 1.717-1.045 2.239-1.792 1.642-2.165-3.359-2.09-2.911-17.989.597-18.96.821-.148 1.568-1.119 1.717-2.09.149-1.119.896-1.865 2.09-2.164 1.568-.373 1.941-.97 2.314-3.732.523-3.657 2.986-6.27 5.225-5.598 1.344.448 5.15-2.463 5.15-3.956 0-.373-1.343-.896-2.911-1.194-4.404-.672-6.046-3.21-6.046-9.107 0-2.687.672-7.24 1.493-10.151 1.717-6.196 1.866-8.883.597-10.152-1.119-1.12-1.269-1.12-3.956.299zM335.986 69.788c-4.404 1.642-11.569 5.45-12.689 6.793-.821 1.045-.821 1.791.298 4.852.747 2.015 1.12 3.956.896 4.403-.97 1.493 12.988 11.496 14.257 10.227.224-.224-.149-1.27-.821-2.24-1.642-2.612-1.493-3.21 1.045-4.553l2.239-1.194-1.642-2.165c-2.165-2.986-1.269-6.12 2.015-6.718 2.09-.373 2.24-.671 2.165-3.508-.075-3.508-1.941-6.942-3.881-6.867-.672 0-2.464.448-3.882.97zM37.519 89.9c-7.39 3.732-7.614 3.956-10.152 8.957-2.165 4.254-1.567 4.702 5.001 3.508 5.374-1.045 8.285-3.508 11.271-9.48 3.36-6.942 2.613-7.39-6.12-2.986zM376.247 90.669c0 1.418 2.687 4.105 4.106 4.105 1.492 0 1.418-.896-.448-3.284-1.642-2.165-3.658-2.613-3.658-.821z"/><path fill="#53A1D8" fill-opacity=".1" d="M54.027 91.742c-4.255 1.716-15.003 10.898-17.69 15.152-1.27 2.016-1.27 2.09.671 4.852 3.508 4.852 5.001 6.419 5.524 5.673 1.94-2.911 6.494-7.763 7.24-7.763.523 0 1.344 1.045 1.866 2.314 1.195 2.911 5.599 5.897 8.733 5.897 1.419 0 3.21-.747 4.554-1.866 3.956-3.285 5.822-10.824 2.687-10.824-1.27 0-2.24-2.164-2.911-6.27-.299-1.94-1.344-3.806-2.986-5.448-2.538-2.538-4.479-2.986-7.688-1.717z"/><path fill="#53A1D8" fill-opacity=".4" d="M285.474 100.456a203.614 203.614 0 0 1 3.359 5.076l1.866 2.911-2.389 2.015c-2.761 2.314-2.911 2.688-.895 3.21.821.224 1.493.97 1.493 1.642 0 2.538 9.33 13.212 14.928 17.093l1.866 1.344-2.612-.523c-2.986-.597-7.912-2.985-8.584-4.105-.672-1.12-5.524-3.433-8.509-4.105l-2.464-.523.224 4.255c.224 3.284 0 4.478-.895 5.076-1.717 1.119-6.42 0-6.868-1.643-.597-2.239-10.076-3.284-12.764-1.343-1.194.896-1.194 1.418-.447 5.747 1.642 8.958-.747 17.616-5.151 18.661-2.762.672-2.687 1.866.299 4.18 2.388 1.792 2.687 2.389 2.314 4.329-.747 3.583-4.031 7.166-8.36 9.107l-4.031 1.791v4.255c0 2.389-.523 6.569-1.269 9.256-1.194 4.851-1.194 5.001.448 9.703 4.404 12.092 4.105 10.824 2.463 13.436l-1.493 2.389 2.165 4.553c1.194 2.538 2.165 5.747 2.165 7.091 0 4.255 2.612 6.195 14.853 10.972 5.972 2.389 10.973 4.33 11.048 4.404.149.075-.821 2.016-2.09 4.33-2.687 5.001-6.494 15.227-7.39 19.78-.746 4.18-.149 4.404 7.763 2.836 8.435-1.642 13.883-1.716 14.779-.223.448.821 1.269 1.119 2.687.821 1.419-.299 3.807.522 8.286 2.761l6.27 3.135 7.165-1.269c3.957-.746 10.674-2.09 15.004-3.135 9.479-2.164 12.614-2.239 16.421-.298 3.508 1.791 3.658 1.418 1.493-4.852-.821-2.463-1.269-5.076-1.045-6.121.299-1.045 3.508-4.404 7.464-7.837l7.017-6.046-9.181-9.48c-9.704-10.151-14.033-16.272-14.108-20.228-.075-1.941.448-2.911 2.538-4.703 3.508-2.985 19.034-11.121 25.229-13.062 6.121-2.016 10.077-4.628 11.645-7.688 1.567-2.986 1.119-8.211-1.568-19.258-2.463-10.301-4.553-15.377-7.763-18.885l-2.612-2.911 1.343-3.434c3.21-8.509 2.986-14.555-.746-21.945-2.015-4.03-4.031-5.374-6.942-4.851-1.269.298-2.762-.075-3.956-.821-8.659-5.897-9.106-6.047-10.973-5.599-3.358.747-13.734 6.42-16.72 9.107-2.537 2.314-3.06 2.463-6.195 2.015-6.718-.896-8.285-3.583-3.657-6.345 4.553-2.687 3.508-3.433-5.897-4.03-3.583-.299-5.449-.747-6.121-1.568-.448-.672-1.866-1.194-3.06-1.194-3.135 0-3.583-.821-1.344-2.538 3.658-2.911.373-5.449-9.405-7.166a198.632 198.632 0 0 1-6.643-1.269l-1.792-.447 1.344 2.164z"/><path fill="#53A1D8" fill-opacity=".1" d="M417.329 103.581c-7.987 2.389-12.092 4.18-16.795 7.464-2.239 1.493-8.658 4.255-15.302 6.643-6.344 2.24-12.166 4.703-12.988 5.524-1.343 1.418-1.418 1.791-.522 6.793 1.045 5.822.672 9.33-1.493 13.585-1.866 3.657-1.791 5.001.373 7.24 4.628 4.852 8.957 18.437 10.152 31.798.746 8.136 1.194 10.077 2.538 10.077.447 0 2.239 1.269 3.956 2.911 2.164 1.94 4.628 3.284 7.613 4.105 2.389.672 5.3 1.941 6.42 2.837 2.015 1.567 2.015 1.642.447 2.164-2.164.821-2.015 1.717 1.045 4.777 3.882 3.807 6.942 3.21 5.823-1.194-.448-1.493-.299-1.567 1.716-1.12 6.793 1.568 24.558 11.869 28.365 16.347 2.762 3.359 3.732 3.732 5.822 2.389 2.314-1.493 3.433-.971 7.763 3.657 1.791 1.866 3.657 3.434 4.254 3.434.523 0 2.911-1.045 5.225-2.239 3.733-1.941 5.001-2.24 10.376-2.24 7.091 0 11.644 1.344 19.631 5.673 2.911 1.642 5.598 2.687 5.897 2.314.298-.299 0-1.717-.672-3.135-2.762-5.747-2.015-7.016 12.316-21.721 8.808-9.032 8.733-8.883 5.598-14.929-2.388-4.628-3.657-10.002-4.628-18.884l-.97-9.181-3.06-3.135c-1.717-1.717-3.061-3.434-3.061-3.882 0-.373 1.717-2.388 3.807-4.404 2.09-2.09 4.404-5.001 5.225-6.494 1.418-2.761 1.418-2.836-.448-11.569-1.791-8.659-5.747-22.02-7.016-23.961-1.12-1.791-12.018-2.463-33.366-2.09-11.495.224-22.691.597-24.93.821-3.583.374-4.628.15-8.211-1.642-3.434-1.717-4.255-2.612-5.076-5.076-2.015-6.27-4.852-6.867-15.824-3.657zM353.155 106.731c0 .448.522 1.941 1.045 3.359 1.194 2.762 2.836 2.911 4.18.373.597-1.12.298-1.717-1.195-2.911-2.164-1.717-4.03-2.015-4.03-.821zM26.433 111.643l.373 3.508-4.852-.522c-4.478-.448-4.852-.373-5.225 1.045-.373 1.493-.448 1.493-2.164-.373-2.016-2.165-4.106-2.389-7.017-.672-2.015 1.269-4.479 4.628-4.479 6.195 0 .448.97.821 2.165.821 5.822 0 6.12 2.911.821 8.211-2.015 2.09-3.732 4.105-3.732 4.479 0 1.642 3.956 3.135 10.002 3.732 3.508.373 6.793.896 7.24 1.119 1.344.896.448 2.314-3.06 5.002-2.538 1.94-3.433 3.06-3.583 4.926-.224 2.015.075 2.538 1.717 3.135 1.045.448 2.986.746 4.33.746 2.985 0 2.015.821-3.583 2.911-6.494 2.389-7.838 3.434-7.838 6.121 0 3.135-1.642 6.046-5.374 9.256-1.792 1.493-2.613 2.538-1.94 2.314.745-.224 2.985-.597 5.075-.896 3.508-.448 3.732-.373 3.732 1.194 0 .971.597 1.792 1.493 2.016 1.045.298 1.493 1.045 1.493 2.538 0 1.716.298 2.164 1.716 2.164 2.314 0 10.45-3.956 12.391-6.046 1.12-1.269 2.314-1.642 4.105-1.567 2.016.149 3.285-.448 6.047-2.837 4.105-3.508 5.15-4.105 8.584-4.852 1.418-.298 3.358-1.194 4.18-2.015 1.567-1.418 1.791-1.418 4.03-.224 3.135 1.568 3.956.821 6.046-5.449 4.255-12.913 1.792-31.126-5.3-39.337-1.567-1.866-3.134-4.105-3.433-5.001-.448-1.567-.746-1.418-4.478 2.762l-3.956 4.404-4.628-5.001c-4.554-5.001-7.689-7.24-10.077-7.24-1.045 0-1.195.597-.821 3.433zM241.932 137.433c-4.106.971-5.822 3.956-5.375 9.181.075.747 1.12 2.165 2.314 3.21 2.464 2.09 4.778 7.24 4.18 9.33-.821 2.538-4.777 5.151-7.762 5.151-4.255 0-5.599-1.941-5.897-8.435-.15-2.986-.373-5.822-.523-6.27-.597-1.866-2.463-.074-3.284 2.986-.373 1.791-2.762 7.24-5.225 12.241l-4.479 9.107 6.121 1.269 6.046 1.343-5.076 2.389c-2.836 1.343-5.225 2.538-5.374 2.687-.075.149 2.09.149 5.001 0 4.927-.299 5.375-.224 10.226 2.762 2.762 1.642 6.121 3.433 7.539 3.881 2.314.821 2.687.747 4.031-.895 1.194-1.493 1.344-2.464.97-5.897-.97-8.062-1.119-7.465 2.687-8.957 4.778-1.792 7.539-3.882 9.182-7.017l1.418-2.687-2.389-2.463c-2.911-2.986-2.911-3.508-.448-5.822 2.911-2.613 6.27-8.136 6.27-10.226 0-2.389-3.583-5.823-7.165-6.793-3.359-.896-9.181-.97-12.988-.075z"/><path fill="#53A1D8" fill-opacity=".1" d="M218.458 186.267c-6.792 2.762-6.942 2.762-14.257 1.344-4.777-.896-10.45 3.807-9.853 8.136.224 1.493.598 1.642 4.106 1.418 3.807-.149 3.956-.149 5.374 2.613 1.791 3.508 3.135 4.777 8.061 7.24 4.479 2.239 6.569 4.852 6.047 7.539-.224 1.045-.15 2.09.223 2.314.822.448 3.359-.821 6.121-3.135 2.538-2.165 3.508-2.239 3.508-.448 0 2.687 3.882 9.181 6.569 10.973 5.076 3.433 8.061 1.94 7.39-3.509-.597-4.03.895-8.509 2.687-8.36 2.015.224 3.732-2.911 3.135-5.598-.597-2.762-3.583-6.046-5.449-6.046-2.015 0-2.911-1.269-3.508-5.225-.672-4.031-1.866-5.598-6.42-7.837-1.866-.971-3.806-2.314-4.329-2.911-1.343-1.568-1.642-1.568-9.405 1.492z"/><path fill="#53A1D8" fill-opacity=".1" d="M184.18 195.701c-3.583 1.791-4.852 3.508-4.926 6.419-.075 8.285-4.927 14.779-15.302 20.303-6.27 3.359-6.718 3.807-6.942 6.195-.373 3.956-1.194 4.404-7.539 4.404-7.613 0-13.062-1.493-15.078-4.031-.821-1.119-2.836-2.687-4.478-3.433-3.359-1.717-3.583-1.344-1.792 3.657.598 1.792 1.643 6.121 2.24 9.629a299.65 299.65 0 0 0 1.567 7.763c.373 1.12-.074 1.344-2.836 1.344-3.359 0-10.973 1.045-13.809 1.94-1.269.374-2.463-.373-5.673-3.358-4.329-4.106-5.076-4.404-6.569-2.613-1.716 2.09-5.374 3.508-11.047 4.105-3.284.374-6.046 1.12-6.718 1.792-1.045 1.045-.895 1.343 1.717 3.508 2.837 2.314 2.837 2.389 2.463 6.718l-.373 4.329h2.463c1.344 0 5.3 1.194 8.734 2.687 3.359 1.493 8.584 3.285 11.42 3.956 4.852 1.195 5.225 1.419 5.225 3.359.075 1.419 1.045 2.911 3.21 4.927 2.463 2.314 3.135 3.433 3.135 5.449 0 3.881 3.582 8.584 9.852 12.913l5.449 3.732-.224 5.225c-.746 17.765-3.433 36.65-6.792 47.324-1.941 6.195-1.941 6.494.299 7.016 1.343.373 1.866.971 1.866 2.314 0 4.031 9.479 7.091 21.87 7.091 13.585 0 21.049 1.642 25.826 5.673 2.912 2.389 7.465 3.06 11.645 1.642 3.135-1.045 4.329-2.687 5.598-7.837.97-3.882 4.404-7.39 10.45-10.6 6.345-3.433 9.704-3.209 23.139 1.12 5.972 1.941 11.719 3.658 12.764 3.807 2.538.448 5.151-.896 11.57-6.27 2.911-2.389 6.345-4.927 7.614-5.598 2.239-1.195 5.374-5.3 5.374-6.942 0-.523-1.045-.672-2.538-.523-1.941.224-3.06-.224-5.225-2.164-3.658-3.135-4.926-5.823-4.926-10.152-.075-1.941-.523-4.404-1.12-5.449-1.642-2.836-1.344-3.508 1.941-5.747 3.359-2.24 3.359-2.24.597-9.405-1.344-3.583-1.493-4.703-.821-5.822 1.269-2.016 1.119-3.658-.747-6.42-2.164-3.135-3.657-3.06-8.808.15-2.239 1.343-4.18 2.388-4.329 2.314-.075-.15.523-1.419 1.344-2.912 1.045-1.716 1.418-3.284 1.119-4.478-.373-1.493 0-2.239 2.09-3.807 1.419-1.12 2.837-2.836 3.061-3.807.298-1.045 2.015-3.583 3.881-5.673 1.792-2.09 3.508-4.702 3.807-5.896.224-1.493 1.045-2.389 2.463-2.911 2.538-.822 3.658-2.837 6.195-11.048 1.12-3.284 2.837-8.21 3.882-10.823 2.687-6.27 3.284-8.509 2.687-9.256-.224-.373-2.463-1.418-4.926-2.239-2.464-.896-8.51-3.284-13.511-5.374-4.926-2.016-10.972-4.18-13.435-4.703-3.061-.671-6.196-2.239-10.376-5.075-6.643-4.479-9.853-6.046-12.615-6.046-2.239 0-2.911-.896-3.433-4.852-.373-2.762-.523-2.986-3.508-3.508-4.18-.672-7.315-3.135-9.256-7.092l-1.568-3.209-3.657.448-3.732.522-1.194-3.135c-1.046-2.687-1.493-3.06-3.509-3.06-1.269.074-3.583.672-5.225 1.493zM371.831 197.674c-11.271 3.06-26.051 10.3-29.484 14.406-2.314 2.687-2.09 4.627.97 9.031 5.001 7.39 19.93 22.319 24.782 24.782 3.359 1.717 4.254 1.418 9.031-3.135l4.479-4.255 3.508.971c1.941.597 5.225 1.492 7.241 2.09 5.598 1.642 18.287 2.239 19.332.895.523-.671 2.165-1.045 4.255-1.045 4.329 0 9.256-3.06 10.823-6.792.821-1.866 2.389-3.434 5.524-5.374 5.672-3.509 5.896-5.151 1.045-8.584-4.554-3.285-18.139-10.227-19.93-10.227-.821 0-2.389.822-3.658 1.867-1.194 1.045-2.537 1.866-2.911 1.866-1.343 0-8.136-6.942-8.584-8.734-.597-2.164-2.985-3.433-8.807-4.777-3.285-.821-4.479-1.418-5.002-2.762-.522-1.418-1.194-1.642-4.18-1.567-2.015 0-5.747.597-8.434 1.344z"/><path fill="#53A1D8" fill-opacity=".1" d="M243.813 216.223c-1.343 3.434.075 10.376 2.24 11.197 1.642.597 4.03-2.314 4.03-4.927 0-4.105-5.15-9.255-6.27-6.27zM443.59 228.945c-2.09 1.642-2.687 1.791-3.956 1.045-.896-.523-2.389-.747-3.732-.448-2.687.597-7.315 4.553-7.315 6.27 0 2.687-8.883 8.957-12.764 9.032-2.09 0-5.076 2.985-5.524 5.523-.896 4.777 3.658 11.719 9.704 14.63 3.06 1.493 3.657 1.493 9.33.672 5.972-.821 8.211-1.941 8.211-4.105 0-1.344 2.314-2.314 6.867-2.911 1.866-.224 3.881-.971 4.404-1.568.597-.746 2.015-1.119 3.956-1.045 4.777.224 4.852.149 7.912-3.135 2.389-2.612 3.434-3.209 6.494-3.583 5.001-.522 12.018.374 13.585 1.792 2.09 1.866 4.255 1.418 6.569-1.418 1.94-2.389 6.718-12.839 6.12-13.287-.149-.149-2.612-1.269-5.523-2.538-11.495-5.001-18.736-5.15-26.872-.597-6.046 3.359-7.763 3.21-9.106-.672-1.194-3.508-2.986-5.673-4.628-5.673-.672 0-2.314.896-3.732 2.016zM377.087 245.188c-4.703 3.882-6.345 4.479-9.256 3.434-4.105-1.568-5.822-.971-12.241 4.031-6.718 5.299-7.017 5.971-5.001 11.569 1.343 3.882 1.418 7.241.224 7.688-.523.15-2.165-.149-3.583-.746-3.583-1.493-7.763-1.344-15.078.448-3.434.821-9.181 2.09-12.913 2.687-3.658.672-7.689 1.418-8.808 1.642-1.269.224-3.285-.149-5.001-.896-4.106-1.866-5.225-1.194-5.225 2.986 0 2.687.447 3.882 1.94 5.374 1.941 1.941 2.314 1.941 7.912.598 1.493-.374 2.538-.075 4.031 1.045 2.463 1.94 4.031 1.94 7.166.074 2.463-1.418 11.793-3.881 15.451-4.031 1.344-.074 2.463.747 4.105 3.061 2.762 3.732 6.27 5.523 14.257 7.315 8.883 1.941 17.093 1.791 26.946-.523 15.227-3.583 19.631-6.792 19.781-14.406.149-6.12.671-7.315 4.702-9.181l3.658-1.791-.448-4.553c-.597-5.897-2.463-12.167-4.18-13.884-.821-.821-2.986-1.493-5.748-1.792-2.388-.223-6.419-1.119-8.808-2.015-6.867-2.388-9.106-2.09-13.883 1.866z"/><path fill="#53A1D8" fill-opacity=".1" d="M467.257 251.539c-1.642.373-4.105 1.791-6.12 3.657-3.061 2.837-3.807 3.135-7.166 3.135-2.015 0-3.732.299-3.732.672 0 .896-4.18 2.314-6.718 2.314-1.941 0-4.479 1.941-4.479 3.508 0 1.642-4.926 2.837-11.644 2.837-6.27 0-7.016-.15-9.927-2.165-1.717-1.194-3.21-2.015-3.285-1.866-.149.149-.821 1.269-1.567 2.389-.747 1.194-2.463 2.612-3.882 3.209-2.015.821-2.537 1.418-2.164 2.463.224.747-.075 1.792-.747 2.314-.597.523-1.642 2.837-2.314 5.076-1.642 5.673-1.045 11.197 1.717 15.078 2.762 4.031 11.346 9.704 18.885 12.615 5.598 2.164 6.195 2.314 8.061 1.269 6.27-3.509 8.957-4.18 29.484-7.913 12.615-2.239 12.466-2.164 14.63-10.076 1.792-6.793 16.272-25.752 19.557-25.752 2.687 0 2.388-1.792-.821-4.628-2.986-2.687-8.808-5.076-12.242-5.076-.821 0-2.164-.672-3.06-1.493-1.792-1.642-8.136-2.463-12.466-1.567z"/><path fill="#53A1D8" fill-opacity=".1" d="M552.848 258.786c-2.837 2.239-11.943 6.195-17.84 7.763-5.673 1.418-6.046 1.418-7.763.149-4.031-2.836-5.001-3.135-7.987-2.762-1.642.224-5.822-.149-9.181-.746-3.433-.672-6.941-.971-7.837-.672-.896.224-3.359 1.791-5.524 3.434-2.164 1.642-4.18 2.761-4.628 2.537-.97-.597-8.434 11.122-12.764 20.079-4.18 8.51-5.225 9.779-11.719 12.988-2.612 1.269-4.702 2.464-4.702 2.613 0 .074 1.344 1.567 2.986 3.284 1.642 1.642 2.985 3.583 2.985 4.255 0 2.463 2.314 5.598 5.225 7.091 3.21 1.642 4.852 3.956 4.18 5.747-1.269 3.21 5.375 7.614 11.57 7.689 5.748 0 10.226 2.239 7.017 3.433-1.792.747-1.344 2.016 1.866 5.151 2.015 1.94 2.985 3.582 2.985 4.926 0 2.09 1.419 2.911 5.225 2.911 1.045 0 3.956.746 6.345 1.568 3.956 1.418 5.524 1.567 13.809 1.194 10.972-.523 13.212-1.045 21.646-5.225 5.748-2.837 6.868-3.135 11.57-3.061 6.867.075 13.585 2.09 15.974 4.852 1.492 1.642 2.537 2.165 4.702 2.165 3.06 0 4.329-1.418 4.329-4.927 0-5.075 4.927-19.705 6.644-19.705.373 0 1.269.746 1.94 1.642 1.045 1.642 1.269 1.642 3.135.597 1.12-.672 2.837-2.314 3.732-3.658 1.568-2.239 1.643-2.761.672-4.105-1.418-2.239-5.747-2.463-8.957-.522-3.508 2.164-8.658 2.09-10.674-.15-2.164-2.388-2.314-3.135-3.583-16.048-.671-6.419-1.567-13.062-1.94-14.705-1.643-5.971-12.242-24.706-16.422-28.961-2.314-2.239-4.777-2.538-7.016-.821zM282.641 271.05c-8.51 1.045-13.958 2.314-17.541 4.031-4.255 2.164-10.674 8.882-11.869 12.54-.597 1.791-1.716 3.209-3.135 3.881-3.806 2.015-2.388 3.657 3.061 3.732 2.911 0 3.508.299 4.852 2.463 4.702 7.614 4.254 7.241 8.36 7.241 4.702-.075 7.389-1.419 8.36-4.18.746-2.09 4.702-5.151 6.643-5.151.522 0 1.418 1.12 2.015 2.464.597 1.418 1.568 2.911 2.165 3.433 1.717 1.418 4.404-.522 7.24-5.15 1.269-2.09 2.687-3.732 3.135-3.732.523 0 1.717.671 2.762 1.492 1.045.822 2.239 1.493 2.612 1.493 1.12 0 6.047-4.18 7.838-6.718l1.567-2.239-3.358.448c-3.135.448-3.583.299-5.972-2.09-2.463-2.463-4.18-6.643-4.18-10.151 0-.971-.373-2.389-.746-3.21-.896-1.568-4.255-1.717-13.809-.597z"/><path fill="#53A1D8" fill-opacity=".1" d="M326.386 285.015c-1.344.373-3.658 1.492-5.225 2.537-2.09 1.419-3.434 1.792-5.449 1.493-2.538-.373-2.762-.224-3.285 1.866-.223 1.269-1.268 2.837-2.313 3.434-.971.672-1.792 1.866-1.792 2.687 0 1.941-2.986 3.359-5.598 2.687-1.12-.298-2.837-1.343-3.956-2.463l-1.941-1.941-2.015 2.314c-1.941 2.165-3.658 6.494-3.658 9.256 0 2.389-1.866 1.418-6.867-3.508-5.523-5.524-7.315-6.121-7.315-2.389 0 3.658-2.015 5.001-9.48 6.643-3.582.747-6.867 1.717-7.24 2.09-.522.523-.224 1.866.896 4.106.895 1.866 1.642 3.881 1.642 4.404 0 .597-1.344 2.164-2.986 3.433-1.642 1.269-2.986 2.687-2.986 3.061 0 .373.971 2.239 2.24 4.254l2.164 3.508-1.567 1.269-1.642 1.195 1.94 2.911c1.867 2.836 5.897 5.449 8.286 5.449 1.567 0 2.836 1.866 2.314 3.284-.971 2.538 2.388 1.045 9.33-4.255 3.882-2.911 7.539-5.672 8.062-5.971 1.418-.896 14.256 5.374 17.914 8.733 3.135 2.837 4.926 7.017 6.121 14.406.671 4.553 2.015 6.42 12.764 18.064 8.509 9.256 17.466 17.317 21.646 19.482 1.418.746 4.628 1.716 7.091 2.239 6.942 1.418 9.554 2.762 13.287 6.718 1.94 2.015 4.403 3.881 5.523 4.18 3.882.821 5.076 1.866 7.315 6.121 1.792 3.433 2.911 4.553 5.972 6.12 2.687 1.344 4.18 2.762 5.523 5.151 2.165 3.881 5.151 12.54 6.121 17.541.597 3.359.522 3.956-1.269 6.494-2.165 3.209-3.956 7.688-4.031 10.226 0 2.015 2.762 3.433 4.33 2.164 2.015-1.642 5.523-7.464 6.717-11.121 1.045-3.285 1.792-4.18 4.628-5.823 2.911-1.716 3.359-2.313 3.583-4.777.224-2.612-.075-3.209-4.329-7.165l-4.553-4.404 1.194-2.688c.597-1.492 2.836-4.926 4.926-7.538 4.479-5.599 5.748-5.897 11.57-2.613 3.583 2.09 7.912 6.27 8.733 8.435.224.746.747.597 2.016-.597 1.567-1.493 1.567-1.717.447-3.882-1.716-3.359-8.882-8.882-20.153-15.526-11.719-6.941-15.899-9.778-16.496-11.345-.224-.597.298-1.866 1.269-2.911 2.612-2.762.97-3.583-7.465-3.583-7.016 0-7.464-.075-11.644-2.613-5.673-3.359-10.226-9.181-13.137-16.794-5.076-13.138-7.315-16.049-15.153-19.855-3.359-1.643-3.508-1.643-4.553-.299-1.866 2.538-3.209.896-3.732-4.628-1.344-13.436-1.344-14.929-.522-15.451 1.045-.672 1.045-4.329-.075-7.987-1.344-4.628-.299-5.971 7.613-9.256 3.807-1.567 7.39-3.358 7.913-3.956 1.343-1.343 1.343-8.36 0-11.644-.896-2.165-1.643-2.687-6.121-4.105-4.852-1.418-6.195-2.165-10.898-5.524-2.239-1.567-8.136-2.239-11.644-1.343z"/><path fill="#53A1D8" fill-opacity=".1" d="M389.748 290.818c-5.075 1.642-13.734 3.359-23.139 4.478-7.166.971-8.435 4.33-4.479 12.167 3.509 7.017 7.166 9.256 10.003 6.121 1.716-1.866 3.433-1.866 7.165.075 3.807 1.866 4.703 1.567 4.703-1.643.074-2.164.448-2.687 2.911-3.806 1.493-.747 2.762-1.792 2.836-2.314 0-.448.075-2.016.15-3.434.149-2.239.746-3.06 4.478-5.897 9.107-6.941 7.091-9.479-4.628-5.747z"/><path fill="#53A1D8" fill-opacity=".1" d="M395.878 298.102c-2.911 1.344-4.255 3.657-3.658 6.494.523 2.538-.074 4.404-1.418 4.404-.522 0-1.866 1.493-2.986 3.433-2.985 5.076-7.986 6.121-10.972 2.314-1.045-1.343-1.418-1.418-2.389-.597-1.866 1.568-1.418 4.18 1.418 7.614 3.285 3.881 3.807 4.777 4.404 8.211.299 1.642 1.717 4.105 3.509 6.195 2.687 3.06 2.985 3.732 2.612 6.046-.448 2.314-.224 2.911 2.762 5.822 4.852 4.927 9.256 7.166 15.152 7.912 2.837.373 5.225.597 5.225.523.075 0-2.911-4.479-6.717-9.853-7.166-10.226-11.645-18.362-11.645-21.124 0-.896.373-2.314.747-3.135.746-1.269 1.642-1.418 8.808-1.418 13.286 0 31.797 2.015 36.201 3.881 2.09.896 3.882 1.344 4.031.971 1.194-3.733 2.986-5.972 4.703-5.972 2.612 0 2.911 2.389.373 3.359-1.642.597-1.792.97-1.12 2.165.373.821 1.12 1.716 1.493 1.94 1.12.672.821 5.001-.373 6.644-1.941 2.537-1.344 5.001 2.09 8.509l3.135 3.21-2.613 2.164-2.612 2.09 2.09 1.941c1.717 1.567 1.941 2.165 1.269 3.433-.448.896-1.568 1.493-2.613 1.493-1.194 0-2.463.896-3.807 2.613-1.343 1.791-2.537 2.612-3.508 2.463-1.194-.149-1.717.373-2.164 2.314-.448 1.567-1.269 2.612-2.24 2.911-1.269.299-1.418.746-1.045 3.359.597 3.434 5.449 11.196 7.241 11.57.746.149 2.687-1.269 4.478-3.285 1.792-1.866 4.031-3.732 4.927-4.105 3.807-1.418 12.614 3.508 13.435 7.614.224 1.269.896 2.463 1.493 2.687.597.224 3.285-.597 6.046-1.866 3.658-1.717 6.942-2.538 12.093-3.135 8.434-.896 9.778-1.941 9.181-6.718-.374-2.762-.15-3.21 3.06-6.345 3.657-3.657 4.105-4.628 2.314-5.3-1.792-.671-5.374-6.792-6.345-10.673-.746-3.061-.672-4.031.299-5.972 1.343-2.538 1.567-8.808.448-10.525-.672-.97-1.045-.821-2.464.896-.97 1.194-1.94 2.09-2.164 2.09-.299 0-2.687-1.493-5.3-3.359-3.284-2.239-5.076-4.105-5.673-5.747-1.866-4.927-3.209-7.017-6.27-9.256-2.239-1.717-3.508-3.359-4.404-5.971-.746-2.165-2.537-4.852-4.329-6.644-2.687-2.612-3.433-2.985-6.568-2.911-4.479 0-11.496 1.568-13.287 2.911-1.344.971-1.344 1.12-.075 6.046 1.12 4.33 1.12 5.225.299 6.121-1.791 1.792-3.508-.821-3.508-5.374 0-3.807-.896-5.673-2.687-5.673-.448 0-1.045.672-1.269 1.493-.896 3.433-10.002.896-22.916-6.345-9.703-5.374-12.54-6.195-16.197-4.553z"/><path fill="#53A1D8" fill-opacity=".1" d="M393.196 322.211c-1.045 1.045-.448 4.18 1.642 8.36 3.732 7.315 12.39 19.631 16.794 23.811 2.314 2.239 4.18 4.628 4.18 5.3 0 2.463 4.33 7.389 9.779 11.271 2.985 2.015 5.822 3.732 6.27 3.732.671 0 .821-.97.597-3.284-.597-5.375 4.18-12.466 7.539-11.197.97.374 1.119-.074.97-2.463-.149-2.687 0-2.836 2.09-3.06 4.18-.373 4.404-.672 2.613-3.434-1.045-1.791-1.493-3.583-1.344-5.673.075-2.239-.224-3.359-1.045-3.806-2.538-1.419-2.165-8.137.522-8.137 1.195 0 2.314-3.135 1.493-4.404-.298-.522-1.642-.671-3.284-.373-2.09.299-3.657 0-5.897-1.119-3.956-2.016-7.763-2.762-20.527-4.18-13.659-1.493-13.137-1.493-14.032 1.119-.448 1.195-.971 2.24-1.12 2.24-.224 0-1.344-1.195-2.613-2.613-2.239-2.538-3.582-3.135-4.627-2.09zM495.401 344.93c-1.344 1.045-1.941 2.24-1.941 3.882 0 3.135 4.031 10.077 6.792 11.57 3.509 2.015 2.688 6.867-1.268 6.867-2.314 0-3.061 1.269-3.583 6.718-.597 6.046.298 9.031 3.657 12.764 2.613 2.911 2.911 3.732 2.613 7.538-.075 1.568.373 2.314 1.791 2.912 1.568.746 3.135.597 8.285-.672 8.211-2.09 11.048-2.09 17.168.224 6.42 2.463 12.988 2.612 17.765.522 2.613-1.119 3.807-2.314 5.375-5.225 3.359-6.121 10.748-8.733 16.048-5.673 2.463 1.493 4.18 1.045 5.3-1.493 1.194-2.537-.598-6.046-3.061-6.046-2.239-.074-2.239-1.94.075-4.851 1.343-1.643 3.21-5.375 6.27-12.54.746-1.643 2.165-2.912 4.404-4.031 4.777-2.314 5.225-5.001.896-5.076-.822 0-4.852-1.567-8.958-3.583-6.941-3.209-7.986-3.508-13.137-3.508-5.299 0-5.897.149-12.316 3.732l-6.718 3.732-13.062-.074c-19.407-.075-27.842-1.792-28.141-5.524 0-1.045-.074-2.314-.149-2.836-.075-1.344-1.866-1.12-4.105.671zM32.196 354.425c-1.642.746-2.687 1.94-2.836 2.911-.373 2.687-3.583 4.702-7.614 4.702-3.508 0-5.15 1.045-6.195 3.882-.224.746.523 3.135 1.866 5.598 1.344 2.389 2.762 6.345 3.21 8.808l.82 4.478h4.48c3.508 0 4.702.299 6.046 1.643 2.463 2.463 7.315 2.911 11.42 1.045 4.105-1.866 10.6-2.09 12.241-.374.672.598 1.195 1.941 1.195 2.911 0 .896.671 2.464 1.418 3.434 1.642 2.09 1.343 3.284-2.613 9.256-2.388 3.508-2.836 4.926-3.284 9.927-.299 3.583-1.045 6.569-1.866 7.838-.821 1.269-1.12 2.762-.896 4.105.448 2.314-1.493 7.39-3.433 9.032-1.717 1.418-1.568 3.359.447 6.643 2.837 4.553 2.912 5.151.448 9.778l-2.313 4.404 1.567 3.509c2.015 4.478 1.94 5.001-.224 7.016-1.045.97-2.389 2.911-3.06 4.329-1.12 2.314-1.12 2.687-.075 4.404.672.971 3.135 2.762 5.524 3.956 5.3 2.687 7.24 4.777 12.017 12.914 3.807 6.493 7.39 10.076 9.405 9.255.597-.224 1.568-1.493 2.314-2.836 1.94-3.882 3.956-5.673 7.688-6.867 5.375-1.792 16.646-3.359 27.693-3.882 11.868-.597 13.66-1.194 18.287-6.643 3.956-4.628 8.062-7.614 11.869-8.659 2.015-.522 2.761-1.268 3.135-2.761.895-3.583 3.135-7.39 7.464-12.466 4.852-5.747 4.926-6.568 1.045-14.928l-2.389-5.225 7.241-10.45c4.03-5.748 8.285-12.242 9.479-14.406 2.688-4.628 5.3-6.345 16.049-10.227 8.285-2.985 15.525-7.538 18.511-11.569 2.613-3.508 2.613-11.197-.075-11.197-.522 0-1.343.672-1.791 1.493-.672 1.269-1.568 1.493-5.822 1.493-2.986 0-5.897-.448-7.166-1.12-1.194-.671-3.359-1.045-4.852-.97-2.314.224-2.687 0-3.359-2.015-.447-1.269-1.119-2.463-1.567-2.762-.373-.299-4.255-.597-8.584-.597-16.198 0-27.245-2.463-32.768-7.241-4.479-3.732-8.286-4.478-30.604-5.449-17.84-.821-26.125-1.716-33.29-3.657-1.643-.448-7.241-.746-12.391-.746-8.062 0-10.003-.224-12.839-1.493-4.18-1.941-7.539-2.016-10.973-.224zM288.066 376.256c-1.568 1.12-2.09 2.165-2.09 4.031 0 4.777 1.642 14.182 2.687 15.227.896.97 1.269.896 2.986-.746 4.478-4.18 7.091-12.914 5.225-17.392-1.045-2.389-1.419-2.687-3.956-2.687-1.643.074-3.658.671-4.852 1.567zM450.075 377.074c-3.135 1.045-4.031 4.105-2.613 8.882 1.493 4.852 1.568 18.512.149 22.468-.821 2.239-.821 3.209 0 5.598.598 1.567 1.045 3.732 1.045 4.852 0 1.418.747 2.463 2.464 3.657 3.284 2.239 5.001 4.479 5.001 6.419 0 .971.298 1.717.672 1.717 1.194 0 5.747-5.822 8.285-10.524 1.269-2.464 2.836-4.703 3.434-4.927 1.642-.597 1.268-2.015-2.09-8.509-3.135-5.897-3.21-6.27-3.21-13.212 0-5.225-.373-7.837-1.269-9.48-2.613-4.851-8.285-8.21-11.868-6.941z"/><path fill="#53A1D8" fill-opacity=".1" d="M475.732 383.872c-.896.896-1.866 1.493-2.09 1.194-1.12-1.045-4.628 1.866-6.569 5.449-2.463 4.554-2.687 7.763-.895 11.719 1.493 3.359 4.18 5.225 7.912 5.449 4.926.373 6.494 0 10.002-2.388 2.165-1.344 5.15-2.613 7.464-2.911 6.867-1.12 9.256-7.017 5.449-13.66-2.463-4.479-5.598-5.897-13.212-6.27-6.046-.299-6.643-.224-8.061 1.418zM24.17 387.471c-1.344.373-2.688 1.194-2.912 1.791-.224.597.15 3.359.896 6.046 2.836 10.45-.523 31.201-7.166 43.666-1.717 3.284-2.165 5.076-2.015 7.464.149 2.24.522 3.135 1.269 2.986 1.866-.373 5.747 1.344 7.762 3.434 1.867 1.94 2.016 2.388 1.344 5.822-1.194 6.643-1.717 16.272-.896 18.287.523 1.568 1.493 2.165 4.479 2.912 6.42 1.492 8.733 1.268 11.271-1.12 1.791-1.717 2.24-2.762 2.24-5.225 0-2.09.746-4.628 2.239-7.315 2.612-4.852 2.761-6.494.97-9.554-1.269-2.165-1.269-2.314.746-5.823 2.688-4.851 2.538-6.717-.895-12.614-1.568-2.762-2.986-5.3-2.986-5.673-.075-.373 1.493-1.194 3.434-1.866l3.582-1.194v-4.106c0-2.687.448-4.777 1.344-5.971.821-1.195 1.269-3.285 1.269-6.345 0-4.404.672-6.27 4.553-13.062 1.866-3.285 1.493-7.614-.896-10.152-2.239-2.388-7.09-2.463-9.703-.224-1.568 1.344-2.538 1.493-7.315 1.269-4.404-.224-5.673-.597-6.718-1.791-1.642-2.016-2.986-2.389-5.897-1.642zM558.635 387.831c-3.284 1.418-5.001 4.18-4.329 7.091.373 1.567.149 2.911-.672 4.105-2.538 3.882-.672 11.645 3.284 13.809 2.314 1.269 4.33.523 8.808-3.284 4.703-4.031 7.315-4.852 18.288-5.524l8.36-.597-4.852-2.314c-5.598-2.687-7.166-3.956-10.151-8.061-2.762-3.807-3.285-4.18-5.225-3.732-.821.149-2.762-.299-4.255-1.12-3.21-1.717-5.897-1.866-9.256-.373zM514.37 398.408c-1.866.597-5.822 1.344-8.882 1.717-4.255.522-5.822 1.045-6.718 2.239-.896 1.12-2.538 1.717-6.27 2.239-4.777.672-9.032 2.538-10.973 4.927-.597.672-2.239 1.12-4.105 1.12-4.404 0-5.598.597-5.598 2.687 0 .97-.971 2.836-2.165 4.254-1.194 1.344-2.463 3.583-2.836 5.001-.523 1.792-1.195 2.688-2.538 2.986-1.642.448-1.792.821-1.717 4.628.149 6.569 4.329 12.839 9.405 14.033l2.463.597-2.388.523c-3.658.821-4.255 1.94-2.837 5.299 1.792 4.329 2.762 4.703 11.719 4.777 4.404 0 9.779.374 11.943.821 5.076 1.045 16.646 6.644 20.527 10.003 1.642 1.418 3.21 2.388 3.434 2.164.746-.746-.896-5.598-2.688-7.987-1.866-2.388-5.15-4.851-14.331-10.674l-4.479-2.761 2.464-.672c2.463-.672 2.463-.672 1.269-2.538-.672-1.045-1.12-2.612-.971-3.508.224-1.418.672-1.642 3.434-1.493 2.612.149 3.209-.075 2.985-1.045-.149-.672-1.268-1.493-2.612-1.866-2.314-.597-2.538-.971-3.583-5.374-.224-1.269-1.12-3.135-1.941-4.255-.746-1.12-1.418-2.762-1.418-3.583 0-1.866 1.568-5.747 3.21-7.912 1.119-1.418 1.194-1.418 1.717.746.746 3.285 2.463 4.852 5.225 4.852 4.553 0 6.046-1.045 6.568-4.702.299-1.866 1.194-3.956 2.016-4.628 1.716-1.642 13.435-4.031 19.407-4.106 2.239 0 5.897.523 8.061 1.195 2.165.597 5.151 1.045 6.643.895 2.613-.224 2.762-.373 2.613-2.836-.075-1.418-.597-2.911-1.269-3.434-.672-.447-4.105-1.045-7.688-1.269-3.658-.298-9.405-1.343-12.839-2.388-7.166-2.09-9.48-2.239-14.257-.672zM285.495 408.396c-4.404 2.09-4.702 2.388-4.702 4.777 0 1.418.522 4.479 1.119 6.867 1.419 5.524 1.419 9.629-.149 15.302l-1.269 4.553 2.911 2.538c1.568 1.344 3.359 2.463 3.882 2.463.597 0 1.94-1.045 2.985-2.314 1.045-1.194 2.389-2.09 2.912-1.866 2.164.821 4.851-6.046 5.896-15.078.896-7.986-3.433-19.556-7.315-19.556-.895 0-3.732 1.045-6.27 2.314z"/><path fill="#53A1D8" fill-opacity=".1" d="M482.613 459.134c-.821.448-3.284 2.165-5.449 3.807l-3.881 2.986 4.479 4.702c4.329 4.479 5.299 6.42 3.732 7.39-1.12.672-.896 4.553.298 5.524.821.746 1.493.746 2.687.074 2.314-1.269 3.434-.522 5.599 3.732 1.045 2.016 2.164 3.733 2.463 3.733.373 0 1.194-1.269 1.941-2.762l1.343-2.837 1.418 1.792c.821.97 1.866 1.567 2.538 1.269 1.792-.672 1.344-5.3-1.194-11.047-1.269-2.837-2.09-5.375-1.866-5.673.224-.224 2.09.373 4.031 1.269 4.18 1.94 7.837 1.866 8.21-.224.224-1.12 0-1.344-1.343-.971-1.195.299-2.463-.298-4.703-2.388-4.478-3.956-7.837-6.345-12.092-8.435-5.076-2.612-6.494-2.911-8.211-1.941zM350.934 463.065c-.597.672-1.94 1.119-3.433.97-1.419-.074-2.986.299-3.434.821-2.239 2.24 11.495 11.495 20.676 13.884 4.927 1.269 7.315 2.612 8.957 5.15.672.971 2.24 2.24 3.434 2.687 1.941.821 2.538.747 4.255-.522 2.537-1.866 2.836-3.807 1.343-8.286-1.269-3.881-.896-6.12 2.09-11.718 2.463-4.628 2.762-4.554-11.122-2.986-8.434.896-10.3.896-14.182 0-5.747-1.344-7.464-1.344-8.584 0z"/><circle cx="57" cy="141" r="4" fill="#53A1D8"/><circle cx="152" cy="182" r="4" fill="#53A1D8"/><circle cx="226" cy="167" r="4" fill="#53A1D8"/><circle cx="218" cy="200" r="4" fill="#53A1D8"/><circle cx="339" cy="80" r="4" fill="#53A1D8"/><circle cx="269" cy="285" r="4" fill="#53A1D8"/><circle cx="192" cy="250" r="4" fill="#53A1D8"/><circle cx="98" cy="420" r="4" fill="#53A1D8"/><circle cx="19" cy="446" r="4" fill="#53A1D8"/><circle cx="336" cy="383" r="4" fill="#53A1D8"/><circle cx="428" cy="345" r="4" fill="#53A1D8"/><circle cx="508" cy="375" r="4" fill="#53A1D8"/><circle cx="453" cy="399" r="4" fill="#53A1D8"/><circle cx="463" cy="337" r="4" fill="#53A1D8"/><circle cx="550" cy="337" r="4" fill="#53A1D8"/><circle cx="345" cy="160" r="5" fill="#53A1D8"/><circle cx="345" cy="160" r="15" stroke="#fff" stroke-opacity=".3" stroke-width="20"/><circle cx="345" cy="160" r="6.5" fill="#53A1D8" stroke="#fff" stroke-width="3"/><g filter="url(#filter0_d)"><path fill="#fff" fill-rule="evenodd" d="M387 69a8 8 0 0 0-8 8v69.529L364 159l15 12.471V307a8 8 0 0 0 8 8h233a8 8 0 0 0 8-8V77a8 8 0 0 0-8-8H387z" clip-rule="evenodd"/></g><path fill="#3C4147" d="M407.448 134.56c0 1.696-.437 3.051-1.312 4.064-.864 1.003-2.037 1.504-3.52 1.504-1.461 0-2.635-.507-3.52-1.52-.885-1.013-1.328-2.363-1.328-4.048 0-1.696.432-3.045 1.296-4.048.875-1.003 2.053-1.504 3.536-1.504 1.515 0 2.699.501 3.552 1.504.864.992 1.296 2.341 1.296 4.048zm-8.32 0c0 1.333.315 2.389.944 3.168.64.779 1.488 1.168 2.544 1.168 1.099 0 1.947-.384 2.544-1.152.608-.768.912-1.829.912-3.184 0-1.355-.304-2.416-.912-3.184-.608-.768-1.461-1.152-2.56-1.152-1.088 0-1.941.389-2.56 1.168-.608.768-.912 1.824-.912 3.168zm16.547 2.576c0 .949-.325 1.685-.976 2.208-.651.512-1.488.768-2.512.768-1.131 0-2.091-.229-2.88-.688v-1.392c.779.587 1.728.88 2.848.88.672 0 1.2-.149 1.584-.448.384-.299.576-.731.576-1.296 0-.235-.048-.443-.144-.624a1.257 1.257 0 0 0-.448-.512 3.48 3.48 0 0 0-.592-.384 9.065 9.065 0 0 0-.752-.384 4.745 4.745 0 0 0-.288-.128 19.237 19.237 0 0 1-1.056-.496 7.617 7.617 0 0 1-.848-.56 2.378 2.378 0 0 1-.704-.88 2.782 2.782 0 0 1-.224-1.152c0-.917.325-1.632.976-2.144.661-.523 1.488-.784 2.48-.784.928 0 1.717.165 2.368.496v1.36c-.651-.427-1.429-.64-2.336-.64-.651 0-1.168.155-1.552.464a1.427 1.427 0 0 0-.576 1.184c0 .256.048.485.144.688.107.203.288.395.544.576a7.8 7.8 0 0 0 .656.4c.181.085.464.213.848.384.363.16.64.288.832.384.192.085.437.229.736.432.309.192.539.384.688.576.16.181.299.427.416.736.128.299.192.624.192.976zm3.735-3.216a.913.913 0 0 1-.272.672.944.944 0 0 1-.672.256.94.94 0 0 1-.672-.256.94.94 0 0 1-.256-.672.92.92 0 0 1 .256-.656.913.913 0 0 1 .672-.272c.266 0 .49.091.672.272.181.181.272.4.272.656zm-.272 4.496a.913.913 0 0 1 .272.672.913.913 0 0 1-.272.672.944.944 0 0 1-.672.256.94.94 0 0 1-.672-.256.94.94 0 0 1-.256-.672.94.94 0 0 1 .256-.672.913.913 0 0 1 .672-.272c.266 0 .49.091.672.272zm-13.178 31.04c-.661.448-1.568.672-2.72.672-1.621 0-2.939-.496-3.952-1.488-1.013-1.003-1.52-2.363-1.52-4.08 0-1.621.512-2.939 1.536-3.952 1.035-1.024 2.331-1.536 3.888-1.536 1.12 0 2.032.192 2.736.576v1.328a6.9 6.9 0 0 0-1.264-.528c-.373-.107-.864-.16-1.472-.16-1.163 0-2.133.395-2.912 1.184-.768.789-1.152 1.819-1.152 3.088 0 1.323.384 2.379 1.152 3.168.768.789 1.787 1.184 3.056 1.184 1.024 0 1.899-.272 2.624-.816v1.36zm8.969-3.488c0 1.205-.341 2.203-1.024 2.992-.683.789-1.621 1.184-2.816 1.184-1.163 0-2.085-.389-2.768-1.168-.672-.789-1.008-1.781-1.008-2.976 0-1.205.347-2.208 1.04-3.008.704-.811 1.616-1.216 2.736-1.216 1.227 0 2.171.395 2.832 1.184.672.789 1.008 1.792 1.008 3.008zm-6.304.016c0 .843.224 1.563.672 2.16.448.587 1.045.88 1.792.88.811 0 1.435-.288 1.872-.864.437-.587.656-1.312.656-2.176 0-.896-.208-1.632-.624-2.208-.416-.587-1.051-.88-1.904-.88-.768 0-1.371.299-1.808.896-.437.597-.656 1.328-.656 2.192zM423.081 170h-1.264v-1.408c-.426 1.003-1.274 1.504-2.544 1.504-.8 0-1.434-.235-1.904-.704-.458-.48-.688-1.12-.688-1.92v-5.584h1.264v5.264c0 .587.15 1.035.448 1.344.299.309.704.464 1.216.464.672 0 1.206-.235 1.6-.704.406-.469.608-1.104.608-1.904v-4.464h1.264V170zm8.737 0h-1.264v-5.248c0-.597-.155-1.051-.464-1.36-.299-.32-.693-.48-1.184-.48-.608 0-1.136.235-1.584.704-.437.469-.656 1.12-.656 1.952V170h-1.248v-8.112h1.248v1.408c.48-1.013 1.333-1.52 2.56-1.52.789 0 1.419.24 1.888.72.469.48.704 1.12.704 1.92V170zm6.305-.208a2.433 2.433 0 0 1-1.184.288c-1.6 0-2.4-.816-2.4-2.448v-4.72h-1.296v-1.024h1.296v-2.016h1.264v2.016h2.24v1.024h-2.24v4.752c0 .864.405 1.296 1.216 1.296.416 0 .784-.123 1.104-.368v1.2zm3.09.208h-1.264l.016-8.112h1.248v1.424c.427-1.003 1.163-1.504 2.208-1.504.192 0 .341.011.448.032v1.248a2.151 2.151 0 0 0-.688-.112c-.565 0-1.035.261-1.408.784s-.56 1.125-.56 1.808V170zm7.491-.208c-.416 1.099-.912 1.872-1.488 2.32a3.056 3.056 0 0 1-1.952.672c-.278 0-.502-.027-.672-.08v-1.136c.16.043.341.064.544.064 1.077 0 1.84-.613 2.288-1.84l-3.28-7.904h1.424l1.056 2.672 1.424 3.68c.085-.277.512-1.504 1.28-3.68l.944-2.672h1.36l-2.928 7.904zm6.018-5.872a.91.91 0 0 1-.272.672.94.94 0 0 1-.672.256.944.944 0 0 1-.672-.256.945.945 0 0 1-.256-.672c0-.256.086-.475.256-.656a.916.916 0 0 1 .672-.272c.267 0 .491.091.672.272a.89.89 0 0 1 .272.656zm-.272 4.496a.91.91 0 0 1 .272.672.91.91 0 0 1-.272.672.94.94 0 0 1-.672.256.944.944 0 0 1-.672-.256.945.945 0 0 1-.256-.672c0-.267.086-.491.256-.672a.916.916 0 0 1 .672-.272c.267 0 .491.091.672.272zm-48.49 31.04c-.661.448-1.568.672-2.72.672-1.621 0-2.939-.496-3.952-1.488-1.013-1.003-1.52-2.363-1.52-4.08 0-1.621.512-2.939 1.536-3.952 1.035-1.024 2.331-1.536 3.888-1.536 1.12 0 2.032.192 2.736.576v1.328a6.9 6.9 0 0 0-1.264-.528c-.373-.107-.864-.16-1.472-.16-1.163 0-2.133.395-2.912 1.184-.768.789-1.152 1.819-1.152 3.088 0 1.323.384 2.379 1.152 3.168.768.789 1.787 1.184 3.056 1.184 1.024 0 1.899-.272 2.624-.816v1.36zm3.161.544h-1.264v-8.112h1.264V200zm-.048-11.248c.16.16.24.357.24.592s-.08.432-.24.592a.836.836 0 0 1-.592.224.836.836 0 0 1-.592-.224.836.836 0 0 1-.224-.592c0-.235.075-.432.224-.592.16-.16.357-.24.592-.24s.432.08.592.24zm6.518 11.04a2.43 2.43 0 0 1-1.184.288c-1.6 0-2.4-.816-2.4-2.448v-4.72h-1.296v-1.024h1.296v-2.016h1.264v2.016h2.24v1.024h-2.24v4.752c0 .864.406 1.296 1.216 1.296.416 0 .784-.123 1.104-.368v1.2zm5.363 0c-.416 1.099-.912 1.872-1.488 2.32a3.056 3.056 0 0 1-1.952.672c-.278 0-.502-.027-.672-.08v-1.136c.16.043.341.064.544.064 1.077 0 1.84-.613 2.288-1.84l-3.28-7.904h1.424l1.056 2.672 1.424 3.68c.085-.277.512-1.504 1.28-3.68l.944-2.672h1.36l-2.928 7.904zm6.018-5.872a.91.91 0 0 1-.272.672.94.94 0 0 1-.672.256.944.944 0 0 1-.672-.256.945.945 0 0 1-.256-.672c0-.256.086-.475.256-.656a.916.916 0 0 1 .672-.272c.267 0 .491.091.672.272a.89.89 0 0 1 .272.656zm-.272 4.496a.91.91 0 0 1 .272.672.91.91 0 0 1-.272.672.94.94 0 0 1-.672.256.944.944 0 0 1-.672-.256.945.945 0 0 1-.256-.672c0-.267.086-.491.256-.672a.916.916 0 0 1 .672-.272c.267 0 .491.091.672.272zm-22.292 21.936h-2.912V230H400.2v-9.648h-2.912v-1.136h7.12v1.136zm2.807 9.648h-1.264v-8.112h1.264V230zm-.048-11.248c.16.16.24.357.24.592s-.08.432-.24.592a.837.837 0 0 1-.592.224.836.836 0 0 1-.592-.224.831.831 0 0 1-.224-.592c0-.235.074-.432.224-.592.16-.16.357-.24.592-.24.234 0 .432.08.592.24zM420.469 230h-1.264v-5.248c0-1.227-.517-1.84-1.552-1.84-.512 0-.971.235-1.376.704-.405.459-.608 1.109-.608 1.952V230h-1.264v-5.248c0-1.227-.517-1.84-1.552-1.84-.512 0-.971.235-1.376.704-.405.459-.608 1.109-.608 1.952V230h-1.248v-8.112h1.248v1.312c.448-.949 1.211-1.424 2.288-1.424 1.248 0 2.037.528 2.368 1.584.235-.512.56-.901.976-1.168a2.56 2.56 0 0 1 1.424-.416c.843 0 1.477.24 1.904.72.427.48.64 1.125.64 1.936V230zm8.166-.416c-.629.331-1.397.496-2.304.496-1.227 0-2.219-.373-2.976-1.12-.747-.757-1.12-1.755-1.12-2.992 0-1.291.336-2.309 1.008-3.056.672-.747 1.536-1.12 2.592-1.12 1.013 0 1.819.325 2.416.976s.896 1.573.896 2.768c0 .341-.027.656-.08.944h-5.536c.096.8.4 1.413.912 1.84.512.427 1.184.64 2.016.64.907 0 1.632-.187 2.176-.56v1.184zm-2.8-6.688a2.09 2.09 0 0 0-1.552.656c-.427.437-.677 1.061-.752 1.872h4.352v-.32c0-.672-.181-1.205-.544-1.6-.363-.405-.864-.608-1.504-.608zm6.887 1.024a.91.91 0 0 1-.272.672.94.94 0 0 1-.672.256.944.944 0 0 1-.672-.256.945.945 0 0 1-.256-.672c0-.256.086-.475.256-.656a.916.916 0 0 1 .672-.272c.267 0 .491.091.672.272a.89.89 0 0 1 .272.656zm-.272 4.496a.91.91 0 0 1 .272.672.91.91 0 0 1-.272.672.94.94 0 0 1-.672.256.944.944 0 0 1-.672-.256.945.945 0 0 1-.256-.672c0-.267.086-.491.256-.672a.916.916 0 0 1 .672-.272c.267 0 .491.091.672.272zM399.624 260h-1.296v-10.784h1.296V260zm5.521-3.968h-1.664V260h-1.296v-10.784h2.832c1.248 0 2.229.325 2.944.976.725.64 1.088 1.472 1.088 2.496 0 .96-.357 1.76-1.072 2.4-.715.629-1.659.944-2.832.944zm-.112-5.712h-1.552v4.608h1.664c.811 0 1.445-.208 1.904-.624.459-.427.688-.965.688-1.616 0-.725-.235-1.301-.704-1.728-.469-.427-1.136-.64-2-.64zm7.455 3.6a.913.913 0 0 1-.272.672.94.94 0 0 1-.672.256.94.94 0 0 1-.672-.256.94.94 0 0 1-.256-.672.92.92 0 0 1 .256-.656.913.913 0 0 1 .672-.272c.267 0 .491.091.672.272.181.181.272.4.272.656zm-.272 4.496a.913.913 0 0 1 .272.672.913.913 0 0 1-.272.672.94.94 0 0 1-.672.256.94.94 0 0 1-.672-.256.94.94 0 0 1-.256-.672.94.94 0 0 1 .256-.672.913.913 0 0 1 .672-.272c.267 0 .491.091.672.272zM402.168 290h-3.936v-10.784h3.248c1.109 0 1.995.256 2.656.768.672.512 1.008 1.2 1.008 2.064 0 .619-.176 1.157-.528 1.616a2.204 2.204 0 0 1-1.328.848 2.581 2.581 0 0 1 1.52.816c.427.437.64 1.035.64 1.792 0 .864-.288 1.563-.864 2.096-.565.523-1.371.784-2.416.784zm-.688-9.68h-1.952V284h1.728c.864 0 1.504-.181 1.92-.544.416-.363.624-.832.624-1.408 0-.501-.197-.912-.592-1.232-.384-.331-.96-.496-1.728-.496zm.256 4.784h-2.208v3.792h2.448c.683 0 1.205-.155 1.568-.464.373-.32.56-.784.56-1.392 0-.608-.208-1.083-.624-1.424-.405-.341-.987-.512-1.744-.512zm6.821 4.896h-1.264l.016-8.112h1.248v1.424c.426-1.003 1.162-1.504 2.208-1.504.192 0 .341.011.448.032v1.248a2.156 2.156 0 0 0-.688-.112c-.566 0-1.035.261-1.408.784-.374.523-.56 1.125-.56 1.808V290zm11.106-4.032c0 1.205-.341 2.203-1.024 2.992-.682.789-1.621 1.184-2.816 1.184-1.162 0-2.085-.389-2.768-1.168-.672-.789-1.008-1.781-1.008-2.976 0-1.205.347-2.208 1.04-3.008.704-.811 1.616-1.216 2.736-1.216 1.227 0 2.171.395 2.832 1.184.672.789 1.008 1.792 1.008 3.008zm-6.304.016c0 .843.224 1.563.672 2.16.448.587 1.046.88 1.792.88.811 0 1.435-.288 1.872-.864.438-.587.656-1.312.656-2.176 0-.896-.208-1.632-.624-2.208-.416-.587-1.05-.88-1.904-.88-.768 0-1.37.299-1.808.896-.437.597-.656 1.328-.656 2.192zM424.792 290h-1.552l-2.496-8.112h1.344l.784 2.688c.277.939.506 1.76.688 2.464.192.693.314 1.157.368 1.392l.08.336c.16-.683.549-2.085 1.168-4.208l.768-2.672h1.344l.784 2.672 1.2 4.224c.149-.629.56-2.037 1.232-4.224l.816-2.672h1.296l-2.56 8.112h-1.552l-.768-2.656-1.12-4.048c-.16.683-.523 2.032-1.088 4.048l-.736 2.656zm14.272-2.16c0 .693-.246 1.243-.736 1.648-.48.405-1.142.608-1.984.608-.982 0-1.776-.165-2.384-.496v-1.232c.714.427 1.482.64 2.304.64.49 0 .864-.096 1.12-.288a.927.927 0 0 0 .384-.784c0-.384-.144-.683-.432-.896-.278-.213-.747-.453-1.408-.72-.608-.235-1.099-.528-1.472-.88-.363-.352-.544-.827-.544-1.424 0-.672.25-1.205.752-1.6.512-.405 1.146-.608 1.904-.608.842 0 1.52.117 2.032.352v1.2c-.491-.299-1.163-.448-2.016-.448-.427 0-.768.101-1.024.304a.909.909 0 0 0-.368.752c0 .192.037.363.112.512.074.139.218.277.432.416.224.139.384.235.48.288.106.043.33.139.672.288.682.277 1.216.592 1.6.944.384.352.576.827.576 1.424zm7.633 1.744c-.629.331-1.397.496-2.304.496-1.226 0-2.218-.373-2.976-1.12-.746-.757-1.12-1.755-1.12-2.992 0-1.291.336-2.309 1.008-3.056.672-.747 1.536-1.12 2.592-1.12 1.014 0 1.819.325 2.416.976.598.651.896 1.573.896 2.768 0 .341-.026.656-.08.944h-5.536c.096.8.4 1.413.912 1.84.512.427 1.184.64 2.016.64.907 0 1.632-.187 2.176-.56v1.184zm-2.8-6.688a2.09 2.09 0 0 0-1.552.656c-.426.437-.677 1.061-.752 1.872h4.352v-.32c0-.672-.181-1.205-.544-1.6-.362-.405-.864-.608-1.504-.608zm6.488 7.104h-1.264l.016-8.112h1.248v1.424c.426-1.003 1.162-1.504 2.208-1.504.192 0 .341.011.448.032v1.248a2.156 2.156 0 0 0-.688-.112c-.566 0-1.035.261-1.408.784-.374.523-.56 1.125-.56 1.808V290zm5.619-6.08a.913.913 0 0 1-.272.672.944.944 0 0 1-.672.256.94.94 0 0 1-.672-.256.94.94 0 0 1-.256-.672.92.92 0 0 1 .256-.656.913.913 0 0 1 .672-.272c.266 0 .49.091.672.272.181.181.272.4.272.656zm-.272 4.496a.913.913 0 0 1 .272.672.913.913 0 0 1-.272.672.944.944 0 0 1-.672.256.94.94 0 0 1-.672-.256.94.94 0 0 1-.256-.672.94.94 0 0 1 .256-.672.913.913 0 0 1 .672-.272c.266 0 .49.091.672.272z"/><path fill="#559BD0" fill-opacity=".2" d="M389 82h229v31H389z"/><path fill="#18212C" fill-opacity=".05" d="M389 150h229v31H389zM389 209h229v31H389zM389 268h229v31H389z"/><path fill="#53A1D8" d="M529 89h85v17h-85z"/><path fill="#3C4147" d="M403.622 102h-1.106v-4.592c0-.513-.135-.91-.406-1.19-.261-.28-.607-.42-1.036-.42-.523 0-.98.2-1.372.602-.392.401-.588.975-.588 1.722V102h-1.092v-9.898h1.092v4.032c.42-.887 1.167-1.33 2.24-1.33.681 0 1.227.21 1.638.63.42.42.63.99.63 1.708V102zm5.517-.182a2.13 2.13 0 0 1-1.036.252c-1.4 0-2.1-.714-2.1-2.142v-4.13h-1.134v-.896h1.134v-1.764h1.106v1.764h1.96v.896h-1.96v4.158c0 .756.354 1.134 1.064 1.134.364 0 .686-.107.966-.322v1.05zm5.168 0a2.13 2.13 0 0 1-1.036.252c-1.4 0-2.1-.714-2.1-2.142v-4.13h-1.134v-.896h1.134v-1.764h1.106v1.764h1.96v.896h-1.96v4.158c0 .756.354 1.134 1.064 1.134.364 0 .686-.107.966-.322v1.05zm2.703 2.94h-1.092v-9.856h1.092v1.078c.495-.793 1.228-1.19 2.198-1.19.943 0 1.68.345 2.212 1.036.542.681.812 1.535.812 2.562 0 1.092-.284 1.988-.854 2.688-.56.691-1.292 1.036-2.198 1.036-.933 0-1.656-.397-2.17-1.19v3.836zm0-6.3c0 .905.21 1.573.63 2.002.42.429.887.644 1.4.644.598 0 1.088-.233 1.47-.7.383-.476.574-1.148.574-2.016 0-.775-.186-1.4-.56-1.876-.373-.476-.844-.714-1.414-.714-.569 0-1.064.21-1.484.63-.41.41-.616 1.087-.616 2.03zm11.122 1.652c0 .607-.215 1.087-.644 1.442-.42.355-.999.532-1.736.532-.859 0-1.554-.145-2.086-.434v-1.078c.625.373 1.297.56 2.016.56.429 0 .756-.084.98-.252a.812.812 0 0 0 .336-.686c0-.336-.126-.597-.378-.784-.243-.187-.653-.397-1.232-.63-.532-.205-.961-.462-1.288-.77-.317-.308-.476-.723-.476-1.246 0-.588.219-1.055.658-1.4.448-.355 1.003-.532 1.666-.532.737 0 1.33.103 1.778.308v1.05c-.429-.261-1.017-.392-1.764-.392-.373 0-.672.089-.896.266a.795.795 0 0 0-.322.658c0 .168.033.317.098.448.065.121.191.243.378.364.196.121.336.205.42.252.093.037.289.121.588.252.597.243 1.064.518 1.4.826.336.308.504.723.504 1.246zm2.941-3.43c0 .233-.079.43-.238.588a.823.823 0 0 1-.588.224.827.827 0 0 1-.588-.224.827.827 0 0 1-.224-.588c0-.224.075-.415.224-.574a.8.8 0 0 1 .588-.238c.234 0 .43.08.588.238.159.159.238.35.238.574zm-.238 3.934a.799.799 0 0 1 .238.588.799.799 0 0 1-.238.588.824.824 0 0 1-.588.224.828.828 0 0 1-.588-.224.828.828 0 0 1-.224-.588c0-.233.075-.429.224-.588a.799.799 0 0 1 .588-.238c.234 0 .43.079.588.238zm2.063 2.814h-1.12l5.096-11.326h1.134l-5.11 11.326zm5.647 0h-1.12l5.096-11.326h1.134l-5.11 11.326zm10.854-1.792c-.55.289-1.222.434-2.016.434-1.073 0-1.941-.327-2.604-.98-.653-.663-.98-1.535-.98-2.618 0-1.13.294-2.02.882-2.674.588-.653 1.344-.98 2.268-.98.887 0 1.592.285 2.114.854.523.57.784 1.377.784 2.422 0 .299-.023.574-.07.826h-4.844c.084.7.35 1.237.798 1.61.448.373 1.036.56 1.764.56.794 0 1.428-.163 1.904-.49v1.036zm-2.45-5.852c-.532 0-.984.191-1.358.574-.373.383-.592.929-.658 1.638h3.808v-.28c0-.588-.158-1.055-.476-1.4-.317-.355-.756-.532-1.316-.532zM452.08 102h-1.218l2.38-3.64-2.24-3.472h1.274l1.61 2.66 1.624-2.66h1.26l-2.296 3.486 2.38 3.626h-1.274l-1.722-2.8-1.778 2.8zm8.309-.854c.504 0 .906-.14 1.204-.42.299-.289.448-.653.448-1.092v-.91h-1.232c-.597 0-1.045.117-1.344.35-.298.233-.448.527-.448.882s.117.644.35.868c.234.215.574.322 1.022.322zm1.666.014c-.364.607-1.026.91-1.988.91-.662 0-1.199-.196-1.61-.588-.401-.392-.602-.887-.602-1.484 0-.681.257-1.209.77-1.582.523-.383 1.232-.574 2.128-.574h1.288v-.364c0-.56-.126-.98-.378-1.26-.252-.29-.676-.434-1.274-.434-.756 0-1.428.2-2.016.602V95.28c.532-.327 1.232-.49 2.1-.49 1.783 0 2.674.905 2.674 2.716V102h-1.092v-.84zm12.547.84h-1.106v-4.592c0-1.073-.453-1.61-1.358-1.61-.448 0-.849.205-1.204.616-.355.401-.532.97-.532 1.708V102h-1.106v-4.592c0-1.073-.453-1.61-1.358-1.61-.448 0-.849.205-1.204.616-.355.401-.532.97-.532 1.708V102h-1.092v-7.098h1.092v1.148c.392-.83 1.059-1.246 2.002-1.246 1.092 0 1.783.462 2.072 1.386.205-.448.49-.789.854-1.022a2.238 2.238 0 0 1 1.246-.364c.737 0 1.293.21 1.666.63.373.42.56.985.56 1.694V102zm3.057 2.758h-1.092v-9.856h1.092v1.078c.495-.793 1.227-1.19 2.198-1.19.943 0 1.68.345 2.212 1.036.541.681.812 1.535.812 2.562 0 1.092-.285 1.988-.854 2.688-.56.691-1.293 1.036-2.198 1.036-.933 0-1.657-.397-2.17-1.19v3.836zm0-6.3c0 .905.21 1.573.63 2.002.42.429.887.644 1.4.644.597 0 1.087-.233 1.47-.7.383-.476.574-1.148.574-2.016 0-.775-.187-1.4-.56-1.876-.373-.476-.845-.714-1.414-.714s-1.064.21-1.484.63c-.411.41-.616 1.087-.616 2.03zm8.013 3.542h-1.106v-9.898h1.106V102zm7.286-.364c-.551.289-1.223.434-2.016.434-1.073 0-1.941-.327-2.604-.98-.653-.663-.98-1.535-.98-2.618 0-1.13.294-2.02.882-2.674.588-.653 1.344-.98 2.268-.98.887 0 1.591.285 2.114.854.523.57.784 1.377.784 2.422 0 .299-.023.574-.07.826h-4.844c.084.7.35 1.237.798 1.61.448.373 1.036.56 1.764.56.793 0 1.428-.163 1.904-.49v1.036zm-2.45-5.852c-.532 0-.985.191-1.358.574-.373.383-.593.929-.658 1.638h3.808v-.28c0-.588-.159-1.055-.476-1.4-.317-.355-.756-.532-1.316-.532zm5.312 4.914a.799.799 0 0 1 .238.588.799.799 0 0 1-.238.588.795.795 0 0 1-.588.238.799.799 0 0 1-.588-.238.802.802 0 0 1-.238-.588c0-.233.08-.429.238-.588a.799.799 0 0 1 .588-.238c.234 0 .43.079.588.238zm6.483 1.05c-.448.271-.999.406-1.652.406-1.12 0-2.012-.355-2.674-1.064-.654-.719-.98-1.591-.98-2.618 0-1.008.326-1.876.98-2.604.662-.728 1.563-1.092 2.702-1.092.606 0 1.148.13 1.624.392v1.05c-.43-.29-.934-.434-1.512-.434-.803 0-1.447.261-1.932.784-.476.513-.714 1.153-.714 1.918.009.765.242 1.405.7 1.918.457.504 1.106.756 1.946.756.541 0 1.045-.154 1.512-.462v1.05zm7.947-3.276c0 1.055-.298 1.927-.896 2.618-.597.691-1.418 1.036-2.464 1.036-1.017 0-1.824-.341-2.422-1.022-.588-.691-.882-1.559-.882-2.604 0-1.055.304-1.932.91-2.632.616-.71 1.414-1.064 2.394-1.064 1.074 0 1.9.345 2.478 1.036.588.69.882 1.568.882 2.632zm-5.516.014c0 .737.196 1.367.588 1.89.392.513.915.77 1.568.77.71 0 1.256-.252 1.638-.756.383-.513.574-1.148.574-1.904 0-.784-.182-1.428-.546-1.932-.364-.513-.919-.77-1.666-.77-.672 0-1.199.261-1.582.784-.382.523-.574 1.162-.574 1.918zM521.36 102h-1.106v-4.592c0-1.073-.453-1.61-1.358-1.61-.448 0-.85.205-1.204.616-.355.401-.532.97-.532 1.708V102h-1.106v-4.592c0-1.073-.453-1.61-1.358-1.61-.448 0-.85.205-1.204.616-.355.401-.532.97-.532 1.708V102h-1.092v-7.098h1.092v1.148c.392-.83 1.059-1.246 2.002-1.246 1.092 0 1.782.462 2.072 1.386.205-.448.49-.789.854-1.022a2.235 2.235 0 0 1 1.246-.364c.737 0 1.292.21 1.666.63.373.42.56.985.56 1.694V102zm1.937 1.428h-1.12l5.096-11.326h1.134l-5.11 11.326z"/><path fill="#fff" d="M537.275 101.748c-.448.271-.998.406-1.652.406-1.12 0-2.011-.355-2.674-1.064-.653-.719-.98-1.591-.98-2.618 0-1.008.327-1.876.98-2.604.663-.728 1.564-1.092 2.702-1.092.607 0 1.148.13 1.624.392v1.05c-.429-.29-.933-.434-1.512-.434-.802 0-1.446.261-1.932.784-.476.513-.714 1.153-.714 1.918.01.765.243 1.405.7 1.918.458.504 1.106.756 1.946.756a2.69 2.69 0 0 0 1.512-.462v1.05zm2.866.252h-1.106v-9.898h1.106V102zm3.268 0h-1.106v-7.098h1.106V102zm-.042-9.842c.14.14.21.313.21.518 0 .205-.07.378-.21.518a.73.73 0 0 1-.518.196.73.73 0 0 1-.518-.196.73.73 0 0 1-.196-.518.73.73 0 0 1 .196-.518c.14-.14.312-.21.518-.21.205 0 .378.07.518.21zm7.033 9.59c-.448.271-.998.406-1.652.406-1.12 0-2.011-.355-2.674-1.064-.653-.719-.98-1.591-.98-2.618 0-1.008.327-1.876.98-2.604.663-.728 1.564-1.092 2.702-1.092.607 0 1.148.13 1.624.392v1.05c-.429-.29-.933-.434-1.512-.434-.802 0-1.446.261-1.932.784-.476.513-.714 1.153-.714 1.918.01.765.243 1.405.7 1.918.458.504 1.106.756 1.946.756a2.69 2.69 0 0 0 1.512-.462v1.05zm2.796.252h-1.092v-9.842h1.092V102zm1.442-3.724l2.884 3.724h-1.33l-2.856-3.724 2.786-3.374h1.316l-2.8 3.374zm5.467 3.724h-1.134v-9.436h1.134V102zm5.097 0h-2.856v-9.436h2.8c1.39 0 2.529.434 3.416 1.302.896.859 1.344 1.974 1.344 3.346 0 1.363-.416 2.501-1.246 3.416-.822.915-1.974 1.372-3.458 1.372zm-.07-8.428h-1.638v7.434h1.694c1.166 0 2.048-.359 2.646-1.078.597-.728.896-1.633.896-2.716 0-1.027-.336-1.89-1.008-2.59-.663-.7-1.526-1.05-2.59-1.05zm12.349 2.73h-6.16v-.952h6.16v.952zm0 2.828h-6.16v-.966h6.16v.966zm8.047-.658c0 1.055-.299 1.927-.896 2.618-.598.691-1.419 1.036-2.464 1.036-1.018 0-1.825-.341-2.422-1.022-.588-.691-.882-1.559-.882-2.604 0-1.055.303-1.932.91-2.632.616-.71 1.414-1.064 2.394-1.064 1.073 0 1.899.345 2.478 1.036.588.69.882 1.568.882 2.632zm-5.516.014c0 .737.196 1.367.588 1.89.392.513.914.77 1.568.77.709 0 1.255-.252 1.638-.756.382-.513.574-1.148.574-1.904 0-.784-.182-1.428-.546-1.932-.364-.513-.92-.77-1.666-.77-.672 0-1.2.261-1.582.784-.383.523-.574 1.162-.574 1.918zm10.423-2.688h-1.568V102h-1.106v-6.202h-1.218v-.896h1.218v-.658c0-.69.182-1.237.546-1.638.373-.401.887-.602 1.54-.602.224 0 .453.033.686.098v1.008a2.035 2.035 0 0 0-.644-.112.982.982 0 0 0-.742.308c-.187.205-.28.523-.28.952v.644h1.568v.896zm4.607 0h-1.568V102h-1.106v-6.202h-1.218v-.896h1.218v-.658c0-.69.182-1.237.546-1.638.374-.401.887-.602 1.54-.602.224 0 .453.033.686.098v1.008a2.03 2.03 0 0 0-.644-.112.983.983 0 0 0-.742.308c-.186.205-.28.523-.28.952v.644h1.568v.896zm6.498 5.838c-.551.289-1.223.434-2.016.434-1.073 0-1.941-.327-2.604-.98-.653-.663-.98-1.535-.98-2.618 0-1.13.294-2.02.882-2.674.588-.653 1.344-.98 2.268-.98.887 0 1.591.285 2.114.854.523.57.784 1.377.784 2.422 0 .299-.023.574-.07.826h-4.844c.084.7.35 1.237.798 1.61.448.373 1.036.56 1.764.56.793 0 1.428-.163 1.904-.49v1.036zm-2.45-5.852c-.532 0-.985.191-1.358.574-.373.383-.593.929-.658 1.638h3.808v-.28c0-.588-.159-1.055-.476-1.4-.317-.355-.756-.532-1.316-.532zm5.676 6.216h-1.106l.014-7.098h1.092v1.246c.374-.877 1.018-1.316 1.932-1.316.168 0 .299.01.392.028v1.092a1.89 1.89 0 0 0-.602-.098c-.494 0-.905.229-1.232.686-.326.457-.49.985-.49 1.582V102zm5.911 0h-1.092v-7.952l-2.114 1.302v-1.19l2.17-1.316h1.036V102z"/><path fill="#18212C" d="M586.5 141h-1.782v-9.126h1.782V141zm.216-11.916c0 .3-.108.558-.324.774-.216.216-.48.324-.792.324a1.11 1.11 0 0 1-.792-.306 1.11 1.11 0 0 1-.306-.792c0-.312.102-.576.306-.792.216-.216.48-.324.792-.324.312 0 .576.108.792.324.216.216.324.48.324.792zm11.576 1.26c.996 1.128 1.494 2.64 1.494 4.536 0 1.896-.504 3.414-1.512 4.554-.996 1.14-2.346 1.71-4.05 1.71-1.692 0-3.048-.57-4.068-1.71-1.008-1.14-1.512-2.658-1.512-4.554 0-1.884.504-3.396 1.512-4.536 1.008-1.14 2.358-1.71 4.05-1.71 1.728 0 3.09.57 4.086 1.71zm-6.75 1.242c-.636.804-.954 1.902-.954 3.294 0 1.392.33 2.496.99 3.312.66.816 1.542 1.224 2.646 1.224 1.14 0 2.028-.402 2.664-1.206.636-.804.954-1.914.954-3.33 0-1.404-.324-2.508-.972-3.312-.636-.804-1.524-1.206-2.664-1.206-1.128 0-2.016.408-2.664 1.224zm17.567 6.102c0 1.068-.378 1.908-1.134 2.52-.756.612-1.734.918-2.934.918-1.332 0-2.436-.258-3.312-.774v-1.926c.948.708 2.046 1.062 3.294 1.062.66 0 1.182-.15 1.566-.45.384-.312.576-.738.576-1.278 0-.324-.114-.618-.342-.882a2.309 2.309 0 0 0-.738-.612c-.264-.144-.66-.336-1.188-.576l-.666-.306c-.12-.06-.324-.168-.612-.324a5.519 5.519 0 0 1-.648-.396c-.132-.108-.3-.258-.504-.45a2.099 2.099 0 0 1-.45-.576 7.936 7.936 0 0 1-.252-.666 3.204 3.204 0 0 1-.108-.846c0-1.032.372-1.848 1.116-2.448.756-.6 1.728-.9 2.916-.9 1.092 0 2.022.192 2.79.576v1.836c-.804-.504-1.716-.756-2.736-.756-.66 0-1.182.15-1.566.45a1.383 1.383 0 0 0-.558 1.152c0 .48.186.864.558 1.152.372.288.942.6 1.71.936.504.216.894.402 1.17.558.288.156.612.378.972.666.372.276.642.612.81 1.008.18.384.27.828.27 1.332zm-58.756 32.322c-1.044.756-2.352 1.134-3.924 1.134-1.896 0-3.426-.558-4.59-1.674-1.152-1.116-1.728-2.634-1.728-4.554 0-1.86.582-3.366 1.746-4.518 1.176-1.164 2.664-1.746 4.464-1.746 1.404 0 2.58.27 3.528.81v1.908c-1.032-.648-2.184-.972-3.456-.972-1.296 0-2.346.414-3.15 1.242-.792.828-1.188 1.92-1.188 3.276 0 1.392.39 2.49 1.17 3.294.792.804 1.878 1.206 3.258 1.206.72 0 1.404-.132 2.052-.396v-3.348h-2.466v-1.602h4.284v5.814h-.018l.018.126zm9.228.504c-.672.384-1.56.576-2.664.576-1.416 0-2.544-.426-3.384-1.278-.84-.852-1.26-1.968-1.26-3.348 0-1.464.384-2.61 1.152-3.438.768-.84 1.746-1.26 2.934-1.26 1.164 0 2.088.366 2.772 1.098.684.72 1.026 1.764 1.026 3.132 0 .372-.036.762-.108 1.17h-5.994c.12.792.456 1.398 1.008 1.818.552.42 1.248.63 2.088.63.972 0 1.782-.228 2.43-.684v1.584zm-3.186-7.29c-.6 0-1.116.222-1.548.666-.432.432-.702 1.062-.81 1.89h4.41v-.324c-.024-.684-.21-1.224-.558-1.62-.348-.408-.846-.612-1.494-.612zm7.603 7.776h-1.764v-9.126h1.764v1.602c.444-1.128 1.242-1.692 2.394-1.692.168 0 .354.018.558.054v1.728a2.127 2.127 0 0 0-.846-.162c-.612 0-1.116.27-1.512.81-.396.54-.594 1.182-.594 1.926V171zm16.882 0h-1.764v-5.76c0-1.308-.528-1.962-1.584-1.962-.528 0-1.002.234-1.422.702-.408.468-.612 1.158-.612 2.07V171h-1.764v-5.76c0-1.308-.534-1.962-1.602-1.962-.516 0-.984.234-1.404.702-.42.468-.63 1.158-.63 2.07V171h-1.764v-9.126h1.764v1.458c.516-1.056 1.374-1.584 2.574-1.584 1.368 0 2.244.588 2.628 1.764.252-.564.618-.996 1.098-1.296a2.908 2.908 0 0 1 1.62-.468c.936 0 1.644.276 2.124.828.492.552.738 1.314.738 2.286V171zm5.347-1.314c.576 0 1.026-.156 1.35-.468.336-.324.504-.744.504-1.26v-1.026h-1.368c-.672 0-1.182.132-1.53.396-.336.264-.504.6-.504 1.008 0 .42.132.75.396.99s.648.36 1.152.36zm1.908.234c-.468.768-1.29 1.152-2.466 1.152-.864 0-1.56-.246-2.088-.738-.516-.504-.774-1.14-.774-1.908 0-.876.33-1.554.99-2.034.66-.492 1.584-.738 2.772-.738h1.512v-.522c0-.624-.15-1.092-.45-1.404-.3-.324-.798-.486-1.494-.486-.972 0-1.854.27-2.646.81v-1.71c.708-.408 1.644-.612 2.808-.612 2.388 0 3.582 1.158 3.582 3.474V171h-1.746v-1.08zM599.8 171h-1.764v-5.76c0-.636-.162-1.122-.486-1.458-.312-.336-.732-.504-1.26-.504-.624 0-1.158.246-1.602.738-.444.48-.666 1.158-.666 2.034V171h-1.764v-9.126h1.764v1.566c.54-1.128 1.488-1.692 2.844-1.692.9 0 1.614.276 2.142.828.528.552.792 1.302.792 2.25V171zm6.674-.252c-.876 2.34-2.214 3.51-4.014 3.51-.324 0-.6-.03-.828-.09v-1.512c.192.048.396.072.612.072 1.164 0 1.98-.642 2.448-1.926l-3.636-8.928h1.962l1.134 2.97 1.422 3.852c.108-.36.54-1.644 1.296-3.852l1.026-2.97h1.872l-3.294 8.874zM571.222 201h-4.662v-12.132h3.978c1.272 0 2.274.3 3.006.9.732.588 1.098 1.368 1.098 2.34 0 .672-.192 1.26-.576 1.764a2.478 2.478 0 0 1-1.44.972 2.86 2.86 0 0 1 1.656.918c.456.492.684 1.152.684 1.98 0 .96-.33 1.746-.99 2.358-.648.6-1.566.9-2.754.9zm-.828-10.602h-1.98v3.726h1.674c.9 0 1.566-.18 1.998-.54.444-.372.666-.852.666-1.44 0-.516-.198-.936-.594-1.26-.384-.324-.972-.486-1.764-.486zm.216 5.238h-2.196v3.834h2.376c1.524 0 2.286-.63 2.286-1.89 0-.612-.21-1.086-.63-1.422-.408-.348-1.02-.522-1.836-.522zm13.141 4.878c-.672.384-1.56.576-2.664.576-1.416 0-2.544-.426-3.384-1.278-.84-.852-1.26-1.968-1.26-3.348 0-1.464.384-2.61 1.152-3.438.768-.84 1.746-1.26 2.934-1.26 1.164 0 2.088.366 2.772 1.098.684.72 1.026 1.764 1.026 3.132 0 .372-.036.762-.108 1.17h-5.994c.12.792.456 1.398 1.008 1.818.552.42 1.248.63 2.088.63.972 0 1.782-.228 2.43-.684v1.584zm-3.186-7.29c-.6 0-1.116.222-1.548.666-.432.432-.702 1.062-.81 1.89h4.41v-.324c-.024-.684-.21-1.224-.558-1.62-.348-.408-.846-.612-1.494-.612zm7.603 7.776h-1.764v-9.126h1.764v1.602c.444-1.128 1.242-1.692 2.394-1.692.168 0 .354.018.558.054v1.728a2.127 2.127 0 0 0-.846-.162c-.612 0-1.116.27-1.512.81-.396.54-.594 1.182-.594 1.926V201zm6.19 0h-1.782v-12.726h1.782V201zm4.412 0h-1.782v-9.126h1.782V201zm.216-11.916c0 .3-.108.558-.324.774-.216.216-.48.324-.792.324a1.11 1.11 0 0 1-.792-.306 1.11 1.11 0 0 1-.306-.792c0-.312.102-.576.306-.792.216-.216.48-.324.792-.324.312 0 .576.108.792.324.216.216.324.48.324.792zM608.87 201h-1.764v-5.76c0-.636-.162-1.122-.486-1.458-.312-.336-.732-.504-1.26-.504-.624 0-1.158.246-1.602.738-.444.48-.666 1.158-.666 2.034V201h-1.764v-9.126h1.764v1.566c.54-1.128 1.488-1.692 2.844-1.692.9 0 1.614.276 2.142.828.528.552.792 1.302.792 2.25V201zm-32.771 30h-1.746v-9.846l-2.79 1.71v-1.89l2.934-1.746h1.602V231zm3.76-4.284h3.546v-6.426l-3.546 6.426zm5.31 4.284h-1.764v-2.754h-5.328v-1.53l4.23-7.506h2.862v7.506h1.656v1.53h-1.656V231zm5.146-7.884c.24.228.36.51.36.846 0 .336-.12.624-.36.864a1.15 1.15 0 0 1-.846.342c-.348 0-.636-.114-.864-.342a1.171 1.171 0 0 1-.342-.864c0-.336.114-.618.342-.846.24-.24.528-.36.864-.36.336 0 .618.12.846.36zm0 5.85c.24.228.36.51.36.846 0 .336-.12.624-.36.864a1.15 1.15 0 0 1-.846.342c-.348 0-.636-.114-.864-.342a1.21 1.21 0 0 1-.342-.864c0-.336.114-.618.342-.846.24-.24.528-.36.864-.36.336 0 .618.12.846.36zm9.036-1.206c0 .972-.348 1.776-1.044 2.412-.696.624-1.674.936-2.934.936-1.188 0-2.19-.204-3.006-.612v-1.728c.888.48 1.86.72 2.916.72.708 0 1.26-.174 1.656-.522.408-.36.612-.816.612-1.368 0-.576-.222-1.02-.666-1.332-.444-.312-1.11-.468-1.998-.468h-.72v-1.512h.72c.66 0 1.212-.162 1.656-.486.456-.336.684-.792.684-1.368 0-.576-.186-1.008-.558-1.296-.36-.288-.858-.432-1.494-.432-.816 0-1.626.252-2.43.756v-1.71c.744-.432 1.572-.648 2.484-.648 1.2 0 2.136.3 2.808.9.684.588 1.026 1.332 1.026 2.232 0 .648-.162 1.218-.486 1.71-.312.48-.78.846-1.404 1.098.684.168 1.218.486 1.602.954.384.468.576 1.056.576 1.764zm9.912-2.682c0 1.836-.366 3.306-1.098 4.41-.72 1.104-1.752 1.656-3.096 1.656-1.284 0-2.298-.552-3.042-1.656-.732-1.104-1.098-2.574-1.098-4.41 0-1.848.366-3.312 1.098-4.392.744-1.092 1.758-1.638 3.042-1.638 1.308 0 2.334.54 3.078 1.62.744 1.08 1.116 2.55 1.116 4.41zm-5.868-3.24c-.444.756-.666 1.836-.666 3.24 0 1.404.216 2.496.648 3.276.444.768 1.008 1.152 1.692 1.152.744 0 1.326-.384 1.746-1.152.42-.768.63-1.86.63-3.276 0-1.428-.222-2.514-.666-3.258-.432-.756-1.002-1.134-1.71-1.134-.672 0-1.23.384-1.674 1.152zM513.413 261h-1.89l4.806-10.242h-5.886v-1.53h7.758v1.53L513.413 261zm9.576-5.688c.912 0 1.65-.354 2.214-1.062-.024-1.104-.228-1.974-.612-2.61-.372-.636-.936-.954-1.692-.954-.624 0-1.122.21-1.494.63-.372.408-.558.966-.558 1.674 0 .72.192 1.29.576 1.71.396.408.918.612 1.566.612zm3.96-.9c0 2.136-.456 3.792-1.368 4.968-.9 1.176-2.196 1.764-3.888 1.764-.768 0-1.458-.114-2.07-.342v-1.71c.612.276 1.26.414 1.944.414 2.064 0 3.252-1.224 3.564-3.672-.576.66-1.434.99-2.574.99a3.434 3.434 0 0 1-2.52-1.044c-.684-.696-1.026-1.614-1.026-2.754s.342-2.082 1.026-2.826c.684-.744 1.614-1.116 2.79-1.116 1.344 0 2.364.498 3.06 1.494.708.984 1.062 2.262 1.062 3.834zm3.307 4.662c.24.228.36.51.36.846 0 .336-.12.624-.36.864-.228.24-.51.36-.846.36a1.2 1.2 0 0 1-1.224-1.224c0-.336.114-.618.342-.846a1.2 1.2 0 0 1 .882-.36c.336 0 .618.12.846.36zm5.713 1.926h-1.746v-9.846l-2.79 1.71v-1.89l2.934-1.746h1.602V261zm4.515 0h-1.89l4.806-10.242h-5.886v-1.53h7.758v1.53L540.484 261zm9.863 0h-1.746v-9.846l-2.79 1.71v-1.89l2.934-1.746h1.602V261zm3.886-1.926c.24.228.36.51.36.846 0 .336-.12.624-.36.864-.228.24-.51.36-.846.36a1.2 1.2 0 0 1-1.224-1.224c0-.336.114-.618.342-.846a1.2 1.2 0 0 1 .882-.36c.336 0 .618.12.846.36zm9.078 1.926h-7.542v-1.458c1.512-1.104 2.784-2.244 3.816-3.42 1.044-1.188 1.566-2.268 1.566-3.24 0-.684-.198-1.206-.594-1.566-.396-.372-.942-.558-1.638-.558-.96 0-1.902.36-2.826 1.08v-1.746c.864-.66 1.89-.99 3.078-.99 1.104 0 2.016.312 2.736.936.72.612 1.08 1.488 1.08 2.628 0 2.112-1.596 4.38-4.788 6.804h5.112V261zm9.812-5.922c0 1.836-.366 3.306-1.098 4.41-.72 1.104-1.752 1.656-3.096 1.656-1.284 0-2.298-.552-3.042-1.656-.732-1.104-1.098-2.574-1.098-4.41 0-1.848.366-3.312 1.098-4.392.744-1.092 1.758-1.638 3.042-1.638 1.308 0 2.334.54 3.078 1.62.744 1.08 1.116 2.55 1.116 4.41zm-5.868-3.24c-.444.756-.666 1.836-.666 3.24 0 1.404.216 2.496.648 3.276.444.768 1.008 1.152 1.692 1.152.744 0 1.326-.384 1.746-1.152.42-.768.63-1.86.63-3.276 0-1.428-.222-2.514-.666-3.258-.432-.756-1.002-1.134-1.71-1.134-.672 0-1.23.384-1.674 1.152zm15.676 3.24c0 1.836-.366 3.306-1.098 4.41-.72 1.104-1.752 1.656-3.096 1.656-1.284 0-2.298-.552-3.042-1.656-.732-1.104-1.098-2.574-1.098-4.41 0-1.848.366-3.312 1.098-4.392.744-1.092 1.758-1.638 3.042-1.638 1.308 0 2.334.54 3.078 1.62.744 1.08 1.116 2.55 1.116 4.41zm-5.868-3.24c-.444.756-.666 1.836-.666 3.24 0 1.404.216 2.496.648 3.276.444.768 1.008 1.152 1.692 1.152.744 0 1.326-.384 1.746-1.152.42-.768.63-1.86.63-3.276 0-1.428-.222-2.514-.666-3.258-.432-.756-1.002-1.134-1.71-1.134-.672 0-1.23.384-1.674 1.152zm9.197 7.236c.24.228.36.51.36.846 0 .336-.12.624-.36.864-.228.24-.51.36-.846.36a1.2 1.2 0 0 1-1.224-1.224c0-.336.114-.618.342-.846a1.2 1.2 0 0 1 .882-.36c.336 0 .618.12.846.36zm5.712 1.926h-1.746v-9.846l-2.79 1.71v-1.89l2.934-1.746h1.602V261zm8.926-3.24c0 .972-.348 1.776-1.044 2.412-.696.624-1.674.936-2.934.936-1.188 0-2.19-.204-3.006-.612v-1.728c.888.48 1.86.72 2.916.72.708 0 1.26-.174 1.656-.522.408-.36.612-.816.612-1.368 0-.576-.222-1.02-.666-1.332-.444-.312-1.11-.468-1.998-.468h-.72v-1.512h.72c.66 0 1.212-.162 1.656-.486.456-.336.684-.792.684-1.368 0-.576-.186-1.008-.558-1.296-.36-.288-.858-.432-1.494-.432-.816 0-1.626.252-2.43.756v-1.71c.744-.432 1.572-.648 2.484-.648 1.2 0 2.136.3 2.808.9.684.588 1.026 1.332 1.026 2.232 0 .648-.162 1.218-.486 1.71-.312.48-.78.846-1.404 1.098.684.168 1.218.486 1.602.954.384.468.576 1.056.576 1.764zm4.062 3.24h-1.89l4.806-10.242h-5.886v-1.53h7.758v1.53L604.96 261zm-46.333 29.406c-.744.492-1.776.738-3.096.738-1.812 0-3.294-.564-4.446-1.692-1.152-1.128-1.728-2.64-1.728-4.536 0-1.836.576-3.33 1.728-4.482 1.164-1.152 2.634-1.728 4.41-1.728 1.296 0 2.334.222 3.114.666v1.818c-.528-.288-1.008-.486-1.44-.594-.42-.12-.96-.18-1.62-.18-1.212 0-2.226.414-3.042 1.242-.804.816-1.206 1.902-1.206 3.258 0 1.38.402 2.478 1.206 3.294.804.816 1.866 1.224 3.186 1.224 1.164 0 2.142-.3 2.934-.9v1.872zm9.585.594h-1.764v-5.76c0-.624-.162-1.104-.486-1.44-.312-.348-.726-.522-1.242-.522-.6 0-1.134.228-1.602.684-.456.456-.684 1.152-.684 2.088V291h-1.764v-12.726h1.764v5.166c.516-1.128 1.458-1.692 2.826-1.692.888 0 1.602.276 2.142.828.54.552.81 1.32.81 2.304V291zm4.136 0h-1.764v-9.126h1.764v1.602c.444-1.128 1.242-1.692 2.394-1.692.168 0 .354.018.558.054v1.728a2.127 2.127 0 0 0-.846-.162c-.612 0-1.116.27-1.512.81-.396.54-.594 1.182-.594 1.926V291zm11.373-7.92c.756.876 1.134 1.998 1.134 3.366s-.39 2.496-1.17 3.384c-.768.888-1.83 1.332-3.186 1.332-1.344 0-2.4-.438-3.168-1.314-.768-.876-1.152-1.986-1.152-3.33 0-1.368.396-2.502 1.188-3.402.792-.912 1.836-1.368 3.132-1.368 1.392 0 2.466.444 3.222 1.332zm-5.706 3.384c0 .9.222 1.662.666 2.286.444.612 1.05.918 1.818.918.816 0 1.434-.3 1.854-.9.432-.6.648-1.362.648-2.286 0-.948-.204-1.722-.612-2.322-.408-.612-1.044-.918-1.908-.918-.78 0-1.386.312-1.818.936-.432.612-.648 1.374-.648 2.286zM599.39 291h-1.764v-5.76c0-1.308-.528-1.962-1.584-1.962-.528 0-1.002.234-1.422.702-.408.468-.612 1.158-.612 2.07V291h-1.764v-5.76c0-1.308-.534-1.962-1.602-1.962-.516 0-.984.234-1.404.702-.42.468-.63 1.158-.63 2.07V291h-1.764v-9.126h1.764v1.458c.516-1.056 1.374-1.584 2.574-1.584 1.368 0 2.244.588 2.628 1.764.252-.564.618-.996 1.098-1.296a2.908 2.908 0 0 1 1.62-.468c.936 0 1.644.276 2.124.828.492.552.738 1.314.738 2.286V291zm9.199-.486c-.672.384-1.56.576-2.664.576-1.416 0-2.544-.426-3.384-1.278-.84-.852-1.26-1.968-1.26-3.348 0-1.464.384-2.61 1.152-3.438.768-.84 1.746-1.26 2.934-1.26 1.164 0 2.088.366 2.772 1.098.684.72 1.026 1.764 1.026 3.132 0 .372-.036.762-.108 1.17h-5.994c.12.792.456 1.398 1.008 1.818.552.42 1.248.63 2.088.63.972 0 1.782-.228 2.43-.684v1.584zm-3.186-7.29c-.6 0-1.116.222-1.548.666-.432.432-.702 1.062-.81 1.89h4.41v-.324c-.024-.684-.21-1.224-.558-1.62-.348-.408-.846-.612-1.494-.612z"/><defs><filter id="filter0_d" width="314" height="296" x="339" y="44" color-interpolation-filters="sRGB" filterUnits="userSpaceOnUse"><feFlood flood-opacity="0" result="BackgroundImageFix"/><feColorMatrix in="SourceAlpha" values="0 0 0 0 0 0 0 0 0 0 0 0 0 0 0 0 0 0 127 0"/><feOffset/><feGaussianBlur stdDeviation="12.5"/><feColorMatrix values="0 0 0 0 0.0941176 0 0 0 0 0.129412 0 0 0 0 0.172549 0 0 0 0.25 0"/><feBlend in2="BackgroundImageFix" result="effect1_dropShadow"/><feBlend in="SourceGraphic" in2="effect1_dropShadow" result="shape"/></filter></defs></svg>