<svg xmlns="http://www.w3.org/2000/svg" fill="none" viewBox="0 0 113 152"><path fill="#fff" d="M29.382 28.34c-.08.175-.317.401-.501.462-.155.05-.361-.03-.506.044-.186.094-.123.294-.052.445.063.137.147.363.279.454.122.085.3.072.44.113.35.102.438.424.679.657.14.135.314.204.486.241.097.021.097.056.209.018.059-.02.146-.084.199-.122.32-.231.63-.544.59-.955-.033-.328.005-.709-.053-1.034-.012-.067-.044-.299-.109-.312-.046-.01-.14.106-.17.13-.146.112-.234.194-.393.067-.236-.187-.103-.641-.041-.888.091-.367.013-.85.445-.995.171-.057.321-.021.494.014.21.042.22.084.307.284.289.668.972.864 1.539 1.23.26.168.339.324.126.688-.15.257-.236.394-.336.693-.103.31.003.693-.066 1.025-.064.313-.386.693-.2 1.002.087.146.145.206.145.397 0 .172.163.346.109.507-.056.165-.165.312-.219.474-.054.165-.043.383-.047.555-.004.172.013.79.332.733.188-.034.202-.697.23-.864.048-.296.262-.736.165-1.021-.052-.154-.186-.273-.227-.436-.043-.177-.026-.43.01-.61.067-.339.064-.658.031-1.008-.026-.273-.045-.668.09-.912.096-.17.226-.157.363-.256.126-.092.114-.227.196-.345.117-.169.218-.173.165-.392-.037-.157-.145-.271-.2-.419-.049-.13-.072-.266-.161-.38-.098-.125-.247-.196-.332-.335a1.236 1.236 0 0 1-.194-.671c.01-.23-.016-.441-.015-.672 0-.21.06-.451.091-.66.028-.178.015-.36.014-.544-.002-.281.097-.587.174-.855.137-.475.143-1.04.423-1.465.234-.355.5-.718.794-1.029.11-.116.23-.284.366-.37.101-.064.406-.127.512-.018.082.086.012.274.072.384.095.171.278.22.42.331.177.139.321.318.502.455.331.252.67.247 1.08.247.194 0 .41.024.597-.02.191-.046.41-.176.602-.19.193-.014.358.128.558.084.17-.037.287-.186.423-.27.171-.107.336-.184.54-.197.327-.02.683.043.99-.039.343-.09.63-.112.929.108.263.194.581.393.781.65.113.146.208.312.214.503a.396.396 0 0 1-.062.24c-.03.05-.14.126-.149.177-.037.207.194.129.315.123.289-.015.206.094.24.333.047.31.07.633.27.9.131.175.279.353.447.493.138.116.291.207.405.35.424.529.457 1.229.889 1.74.098.117.216.256.366.3.174.052.335.243.506.331.247.129.72.701.992.59l.177.056c.095.024.123-.03.21-.018.182.025.26.024.436.07.329.088.472-.2.765-.21.183-.006 1.125.47 1.01.074-.079-.267-.713-.264-.943-.3-.376-.062-.795-.073-1.182-.091-.188-.009-.375-.063-.557-.114-.169-.047-.387-.08-.54-.165-.63-.348-.697-1.043-.983-1.583-.167-.317-.278-.682-.462-.981-.156-.252-.503-.42-.755-.576-.142-.09-.29-.138-.38-.292-.076-.13-.07-.289-.112-.436-.092-.33-.152-.649-.222-.976-.08-.365-.317-.59-.646-.734-.193-.083-.142-.134-.196-.33-.084-.302-.366-.377-.592-.528-.07-.046-.114-.144-.186-.187-.088-.05-.209-.03-.306-.047-.213-.035-.403-.125-.622-.075-.146.033-.307.016-.457.016-.125 0-.25.013-.374-.001-.155-.018-.33-.032-.477-.092-.118-.048-.232-.122-.366-.123a.73.73 0 0 0-.31.046c-.098.042-.174.14-.285.144-.214.01-.362-.148-.499-.281-.167-.163-.367-.28-.524-.463a.637.637 0 0 1-.141-.317c-.025-.136-.074-.256-.1-.394-.02-.1-.038-.185.04-.259.057-.053.16-.136.123-.222-.038-.088-.195-.136-.28-.164a1.093 1.093 0 0 1-.313-.168.472.472 0 0 1-.184-.365c-.01-.127.06-.218.155-.294.079-.063.212-.148.315-.147.06 0 .114.016.173.024.067.01.137.004.203.015.108.017.193.107.29.124.092.016.212-.055.303-.07.044-.008.09-.004.132-.013a.353.353 0 0 0 .137-.066c.04-.039.032-.049.032-.11 0-.084.034-.255-.004-.335-.05-.105-.302-.07-.29-.205.006-.08.086-.132.085-.221 0-.087-.05-.171-.083-.25-.038-.09-.086-.171-.111-.267-.018-.068-.01-.154-.042-.216-.028-.052-.115-.103-.167-.132-.057-.032-.075-.044-.131-.04-.043.004-.082.021-.123.035a.668.668 0 0 0-.22.124c-.115.094-.28.305-.387.099-.04-.078-.062-.16-.092-.243-.043-.123-.118-.216-.178-.33-.113-.217-.255-.41-.149-.663.034-.082.1-.168.186-.197.073-.025.2-.03.261-.078.05-.04.038-.139.04-.197.003-.1.017-.204-.009-.3-.022-.083-.088-.135-.096-.223-.007-.067.016-.132.012-.199-.002-.04-.021-.061-.004-.104.026-.064.112-.112.175-.13.153-.045.34.019.496-.016.068-.015.128-.066.19-.095.04-.02.084-.03.12-.058.047-.038.075-.095.101-.148.03-.06.04-.12.065-.18.028-.067.082-.136.125-.194.132-.186.423-.292.433-.548.007-.175.035-.497-.142-.597a.48.48 0 0 0-.082.207c-.029.136-.111.207-.18.323a.895.895 0 0 0-.08.184c-.027.082-.094.149-.143.219-.056.08-.143.204-.236.247-.089.042-.2.059-.294.087-.123.035-.224.065-.354.06-.112-.005-.206-.068-.32-.066a.573.573 0 0 0-.23.062c-.129.06-.258.031-.397.025-.2-.009-.415-.046-.61.018-.113.038-.205.114-.324.135a1.67 1.67 0 0 1-.386.022c-.078-.004-.118-.042-.172-.097-.063-.065-.167-.18-.189-.27-.036-.142-.047-.294-.092-.436-.03-.094-.069-.164-.064-.267.003-.065.004-.136.013-.2.012-.093.016-.097.092-.088.064.007.126.03.19.037.103.013.17-.027.248-.086.08-.06.258-.1.234-.24-.016-.087-.184-.163-.249-.218-.08-.068-.167-.053-.252.006-.044.03-.069.056-.12.028a.364.364 0 0 1-.104-.111c-.061-.169.086-.334.147-.478a.297.297 0 0 1 .11-.138.321.321 0 0 1 .219-.042l.74-.022c.146-.016.297 0 .445-.012.074-.006.147-.008.22-.008.092 0 .215-.021.302.006.04.013.068.035.112.046.186.045.366.052.557.027a.753.753 0 0 0 .365-.138.795.795 0 0 0 .209-.273c.065-.138.111-.243.252-.318.269-.143.536-.3.809-.435.112-.055.23-.08.352-.097.092-.013.24-.079.267-.178-.072-.005-.12-.08-.183-.103-.084-.032-.202-.007-.28-.056-.089-.055-.09-.211-.118-.3-.02-.059-.045-.062-.093-.114-.043-.047-.064-.12-.13-.127-.042-.005-.097.035-.138.049-.065.021-.108.031-.16.075a.556.556 0 0 0-.138.176c-.059.107-.124.208-.157.327a.655.655 0 0 1-.173.308c-.083.08-.146.128-.26.119a8.948 8.948 0 0 0-.432-.021c-.187-.006-.573-.055-.582-.3-.003-.078.018-.151.032-.223.022-.11.024-.238.074-.342.07-.144.266-.241.391-.33.064-.046.116-.1.171-.158.066-.069.1-.09.18-.02.133.118.376.164.558.135a.772.772 0 0 0 .268-.111c.079-.047.085-.071.027-.147-.05-.065-.118-.107-.17-.17a3.892 3.892 0 0 1-.164-.212c-.101-.142-.197-.222-.223-.405-.011-.08-.016-.122-.085-.168-.07-.047-.14-.084-.09-.166.04-.066.123-.122.12-.207-.177-.01-.307.02-.47.05-.118.023-.23.049-.347.077a.306.306 0 0 1-.157.002c-.144-.04-.077-.132-.017-.225.081-.127.216-.144.347-.204.114-.053.093-.144.052-.252a1.89 1.89 0 0 0-.155-.31c-.053-.084-.122-.18-.214-.223-.151-.072-.334-.016-.486-.068a.658.658 0 0 1-.214-.165c-.096-.104-.07-.19-.021-.312.057-.145.191-.39.008-.5l-.305-.034a.427.427 0 0 1-.02-.155c-.122-.018-.244.007-.294-.124-.07-.183.159-.276.21-.418.045-.127.009-.31-.017-.437-.03-.145-.07-.278-.193-.345-.144-.078-.334-.033-.473-.144-.143-.115-.114-.322-.19-.484-.072-.155-.176-.28-.257-.427-.124-.225-.046-.266-.004-.52.02-.114.028-.365-.135-.346.197-.12.43-.217.589-.382.09-.093.104-.248.248-.217.137.03.352.304.428.406.134.18.157.22.405.196.206-.02.32-.092.505-.162.146-.055.319-.09.472-.052.157.039.232.135.403.122.222-.017.37-.142.596-.14.182.003.348.04.511.123.155.078.208.175.39.191.091.009.175-.001.263.022.117.03.14.103.226.153.261.153.608-.086.91-.07.658.035 1.593.515 1.552 1.288.39.023.834.113 1.215-.036.209-.081.245-.286.4-.398.11-.079.362-.058.49-.013.02.178-.178.241-.154.433.01.078.076.148.097.225.023.087.012.188.028.275.211-.245.408-.619.708-.767.156-.076.303-.053.436-.187s.209-.228.423-.21l.488-.627c.068.113-.137.323-.122.488.02.22.125.357.3.484.244.178.524.097.742.306.114.11.246.232.388.297.147.067.304.03.454.064.243.057.618.328.75.542.069.112.136.34.279.365.159.028.274-.205.4-.262.2-.09.24-.023.19-.282-.037-.183-.081-.326.145-.346.34-.03.427.375.586.594.112.153.178.238.245.422.06.168.151.297.243.45.1.165.039.714-.254.66.046-.403-.375-.012-.496.102-.174.164-.43.313-.376.563.052.242.076.444-.147.624-.136.11-.327.13-.47.23-.153.107-.16.226-.363.263-.104.019-.176-.016-.262.052-.08.063-.074.178-.174.21-.05.016-.17-.045-.241-.033-.012.15-.128.341-.208.469a.705.705 0 0 1-.21.226c-.072.039-.16.028-.245.055.013.41-.77.426-1.012.413.005-.034-.013-.084-.005-.117-.144.065-.223.259-.377.312-.154.052-.313.035-.483.136.177.04.13.156.112.282-.02.138-.05.325.066.437.188.181.194-.022.178-.175-.017-.175-.049-.303.105-.423.11-.085.333-.149.471-.101.211.072.678.548.886.189.086-.148-.051-.255.13-.376.18-.12.346-.012.52-.074.181-.065.092-.226.004-.336-.114-.14-.15-.179.013-.327.284-.258.694-.42 1.05-.545.22-.077.317-.194.497-.328.17-.127.318-.204.411-.4.07-.149.118-.284.118-.454 0-.072-.015-.162.015-.226.043-.092.171-.132.214-.224.053-.002.142.047.186.028.055-.024-.01-.11.055-.137.105-.043.28.135.328.204.361-.24.72.236.283.303-.126.02-.388-.029-.21.122.134.113.353-.002.364.23.008.181-.128.407-.136.603a.8.8 0 0 0 .09.458c.063.12.152.234.123.347-.082.318-.581.649-.841.809-.285.175-.586.283-.822.545-.103.113-.165.252-.278.36-.152.148-.233.051-.401.135-.11.055-.194.292-.087.373.07.052.372-.022.455-.04.317-.068.624-.225.94-.332.351-.12.698-.028 1.051-.104.354-.075.689-.1 1.039.014.285.092.761.275.475.609-.141.166-.183.238-.175.458.006.133.086.417.022.527-.058.1-.237.143-.322.244-.121.142-.123.277-.062.45.058.161.148.24.097.418-.044.158-.204.275-.168.45.164.05.215-.257.272-.363.097-.179.11-.318.165-.502.049-.16.226-.191.276-.352.05-.162-.057-.327.052-.468.056-.072.267-.23.348-.262.135-.054.352.041.468-.06.087-.075.057-.253.13-.357a.407.407 0 0 1 .449-.162c.105.034.101.073.165.154.082.103.012.09.145.126.168.046.26.003.422.1.749.454 1.52.846 2.32 1.204.285.127.301-.075.467.196.108.177.121.286.3.388.85.485 1.674-.605 2.188-1.15.221-.235.453-.575.804-.575.19 0 .595.089.528.36-.048.193-.209.124-.366.14-.205.02-.232.178-.031.244.288.094.613-.075.823-.24.214-.168.41-.58.732-.462.218.08.308.21.254.41-.044.161-.067.24-.209.306-.115.054-.344.066-.398.213-.042.114.019.362.019.492 0 .376.122.72.122 1.1 0 .204-.015.41.035.607.04.15.091.28.104.435.027.311-.19.42-.366.626-.078.092-.107.18-.216.246-.126.077-.283.08-.412.152-.588.326-.864 1.003-1.426 1.37-.188.122-.202.048-.388.013-.21-.04-.321.032-.4-.193-.05-.137-.075-.322-.232-.143-.115.131-.06.346-.065.51-.014.355-.403.505-.315.89.031.14.141.299.192.436.058.155.127.296.245.414.054.054.139.13.208.144.141.032.13-.038.215-.091.137-.087.26-.16.41-.01.117.117.136.334.051.485-.03.053-.116.078-.14.138-.04.105.035.107.045.17.046.282-.109.753-.388.895-.248.125-.812.079-1.006-.12.075.044.1.194.13.28.06.177.06.199.263.236.253.047.398-.01.63-.096.111-.04.225-.053.332-.109.121-.063.168-.167.256-.245.214-.187.245.162.234.343.14.046.182-.056.294-.098.1-.037.261.032.35-.051.165-.155-.3-.296-.398-.371-.126-.097-.12-.227-.23-.345-.126-.134-.29-.273-.112-.44.126-.118.39-.149.547-.227.197-.097.346-.238.525-.359.151-.102.301-.14.452-.216.13-.067.182-.205.296-.279.154-.099.363-.225.542-.131.11.057.208.203.33.223.214.036.256-.205.44-.281.242-.1.3.104.377.28.036.085.073.17.087.261.01.063-.026.21.021.263.09.103.284-.021.385.09.117.13.022.38.052.532.031.16.112.171.243.275.193.152.371.157.59-.03.111-.095.116-.241.191-.345.197-.268.362.207.563.297.145.066.27.023.362.175.082.135.045.296.157.423.074.084.265.194.388.152.193-.065-.05-.19-.035-.349.012-.13.16-.266.223-.388.077-.15.085-.261.091-.431.011-.3.245-.452.28-.733.013-.108-.001-.135.052-.223.04-.066.114-.103.14-.178.067-.2-.022-.223.226-.21.353.02.296-.311.422-.554.06-.112.133-.177.21-.279.099-.128.09-.237.08-.403a1.248 1.248 0 0 0-.485.487c-.097.162-.203.463-.433.415.01-.045 0-.104.012-.148-.144.118-.162.244-.38.165.089-.354.174-.625.413-.921.21-.264.566-.436.845-.623.255-.17.468-.382.708-.567.247-.19.662-.196.963-.123.341.082.63.162.99.162l.38-.135c.022-.022.057-.038.088-.056.226-.133.454-.296.71-.362.176-.046.373-.074.552-.109.123-.023.25-.019.375-.045.061-.013.11-.043.184-.03.11.019.222.082.249.197.04.167-.102.204-.148.326-.043.115.061.189.027.301-.038.121-.13.164-.127.305.003.108.037.258.118.335.188.178.426.167.665.153.025-.108-.144-.185-.205-.254-.074-.082-.182-.203-.205-.31-.05-.226.152-.45.349-.523.12-.044.216-.048.257-.194.034-.124.03-.378-.072-.478-.032-.032-.086-.053-.133-.037-.081.028-.059.109-.111.157-.101.091-.123-.087-.114-.158.033-.246.277-.34.41-.524.134-.184.199-.406.375-.556a4.32 4.32 0 0 1 .594-.415c.275-.163.382-.3.568-.574.112-.165.229-.315.34-.478.07-.101.096-.18.137-.294.058-.163.144-.314.21-.473.091-.224.225-.446.355-.653.054-.085.09-.153.162-.217.21-.182.457-.333.627-.556.1-.13.212-.294.245-.454.039-.187.03-.39.1-.569a.912.912 0 0 1 .194-.279c.073-.065.175-.055.269-.052.014.048.049.087.064.138.026.083.02.176.061.254.046.084.14.152.225.196.257.135.57.116.853.129.678.029 1.377.006 2.06.006.223 0 .42.004.636.037.148.022.21-.016.281.111.052.093.074.145-.012.225-.179.169-.371.079-.598.08-.217.003-.322.189-.525.238a.414.414 0 0 1-.243-.003c-.116-.046-.136-.1-.26-.069-.085.02-.174.068-.257.024-.066-.036-.104-.12-.168-.163-.12-.08-.344-.103-.467-.044-.142.07-.304.257-.47.245a.742.742 0 0 0-.038-.208c-.14.016-.235.164-.345.24-.119.083-.294.162-.379.273.147.197-.211.231-.32.294-.067.04-.119.106-.193.142-.125.062-.286.013-.426.06a.541.541 0 0 0-.19-.185c-.05-.025-.178-.07-.23-.058-.154.033-.079.218-.156.288-.009.008-.09.03-.106.037-.059.026-.124.04-.18.07-.053.029-.155.084-.158.146 0 .012.038.06.042.078.016.062-.002.136.01.2.027.133.075.247.032.38-.041-.068-.148-.096-.223-.09-.042.116.023.228.048.34.033.145-.03.157-.157.192-.065.019-.05.007-.088.048a.53.53 0 0 0-.118.3c0 .154.212.188.193.34-.01.08-.054.156-.035.242.039.177.283.3.447.307.12.006.24.015.353-.011.187-.044.084-.114-.032-.207-.075-.06-.193-.09-.235-.172-.048-.092-.053-.277.008-.36.15-.2.455-.045.608-.25.08-.107.126-.252.046-.36-.038-.052-.195-.226-.14-.313.086-.135.412.063.537.043.182-.03.27-.15.255-.33-.007-.09-.063-.192-.052-.281.012-.1.123-.186.2-.242.06-.044.15-.11.214-.047.06.06.052.182.084.252.128.021.23-.09.322-.162.131-.103.302-.17.428-.282.117-.104.15-.267.223-.402.041-.076.054-.133.143-.156.07-.018.17-.011.241-.007.083.148-.029.312-.11.426-.046.066-.17.261-.116.35.021.034.135.049.176.034.06-.02.106-.103.113-.16.017-.126-.049-.186.079-.277.175.096.192.51.47.304.091-.066.114-.167.177-.251.072-.095.155-.008.208.067.08.11.123.158.13.29.006.11-.02.207.059.298.07.08.157.092.262.078a.404.404 0 0 0 .326-.245c.02-.045.033-.05.042-.102.008-.045.003-.08.017-.124.033-.098.115-.167.179-.244.078-.095.164-.196.256-.28.157-.144.362-.23.534-.357.075-.055-.086-.108.006-.14.2-.068.388-.162.588-.228.033.058.067.06.084.13.022.086-.003.177-.023.258-.027.113-.043.217.01.326.059.123.131.188.26.219.05.011.111.02.163.009.035-.007.065-.042.106-.033.055.011.17.174.175.226.01.119-.212.195-.264.298-.081.162.128.394.2.54.064.125.135.247.214.361.053.078.085.063.157.093.09.038.076.086.076.173 0 .154.023.214.094.342.04.07.092.223.19.23.091.006.127-.13.22-.117.04.083.044.195.118.245.145.098.23-.015.33-.108.066.076.163.122.19.217.034.112.003.156.12.218.162.085.26.096.434.122.08.012.161.028.231.071.067.042.138.103.198.152.05.04.049.073.084.126.028.044.07.066.1.107.027.037.037.084.063.122l.28.349c.041.06.068.063.034.13-.022.045-.08.093-.115.13-.073.074-.145.13-.127.244.095.016.175-.055.25-.101.095-.058.194-.116.288-.17.113-.065.345-.066.443.04.13.14-.356.316-.172.46.114.088.207-.047.314-.035.045.005.048.028.082.056.068.055.134.091.186.16.04.05.065.108.08.168-.197.06-.586.028-.584.324.001.123.102.114.198.12.136.008.328.022.457.07.194.07.41.583.657.418.077-.051.141-.232.138-.32-.008-.188-.22-.313-.314-.445-.091-.13.062-.275.186-.314.17-.054.344.001.516.03.268.047.655.066.842-.162.087-.106.15-.227.205-.35.045-.099.11-.19.24-.157.107.027.177.17.267.234.133.092.274.083.425.091.15.009.28-.007.307.153.017.109 0 .163.07.256.095.126.22.287.384.315.042.07.056.24.045.32-.013.095-.115.148-.147.236-.031.09.012.18-.001.268-.014.098-.106.162-.174.222-.097.086-.162.134-.175.268-.008.08-.029.233 0 .307.014.04.065.098.089.137.028.044.069.073.096.106.057.07.106.133.188.181.088.052.18.081.283.081.19 0 .405.052.545.18.089.078.22.127.238.253.02.134-.056.268-.044.404.009.098.061.14.148.088.083-.05.09-.13.192-.07.11.065.146.165.18.27.03.09.108.157.124.251.044.267-.2.262-.374.36a.449.449 0 0 0-.182.183c-.032.063-.027.14-.081.198-.06.063-.167.081-.251.123-.106.052-.14.13-.192.237-.097.2-.103.471.14.573.299.125.585.017.68.387.022.084.019.178.089.246.052.05.118.056.186.073.09.023.178.046.27.06.017.003.086.003.1.012.049.031.08.138.112.187l.086.127c.068.102.137.207.219.297.197.22.502.34.76.47.195.096.43.133.613.245.075.046.135.101.226.117.118.02.207-.057.321-.064.093-.006.185-.001.277-.009.059-.005.09-.032.142-.044.036-.008.08.012.115.001.07-.02.138-.104.2-.14l.23-.14c.083-.049.164-.131.251-.163.109-.038.246.009.361.008.019.086-.006.17.02.253.04.132-.001.226-.101.328-.079.08-.163.135-.253.196-.067.044-.153.104-.143.198.029.252.523.174.678.166.136-.007.174.009.218.15.036.114.008.238.03.355.043.22.098.405.261.56.11.103.231.193.338.298.061.06.15.132.169.213.026.11-.077.278-.122.376-.05.107-.088.218-.138.325-.045.095-.117.155-.165.244-.099.18-.121.396.048.54.157.134.265.311.417.446.049.043.052.039.082.096.03.057.049.113.085.167.07.1.141.197.166.32.026.126-.015.262.009.387.009.051.038.093.052.143.032.111.025.236.044.352.066.382.186.68.296 1.046.063.212.115.41.158.633.075.388.352.89.17 1.25-.23.455-.462.83-.594 1.335-.13.497-.012.784.371 1.15l.354.785c-.016.252-.11.469-.119.72-.007.22-.178.466-.277.67-.126.26-.29.508-.454.74-.296.418-.6.782-1.067 1.007-.173.083-.516.254-.504.475.014.271.178.533.298.77.084.168.062.332.019.51-.04.17-.104.328-.157.495-.032.101-.114.265-.092.367.301.007.602.005.822.225.108.108.207.208.317.31.102.096.159.22.243.331.07.093.164.21.266.27.151.089.301.044.466.07.267.04.538.26.696.47.306.407.517.951.928 1.272.14.109.299.13.459.193.199.078.438.155.62.272.108.07.197.172.295.252.119.096.255.18.367.277.148.128.186.329.265.497.089.19.277.348.284.573.005.133-.076.23-.105.35a.74.74 0 0 0 .013.34c.131.508.281.937-.003 1.436-.137.24-.331.411-.516.607-.095.1-.215.218-.271.344-.053.12-.038.27-.034.404.01.297.207.516.377.744.161.216.281.43.346.695.038.153.076.504.207.604.081.062.222.031.326.036.138.006.304.049.433.101.301.123.594.362.692.683a.51.51 0 0 1-.053.46c-.077.135-.19.308-.048.443.099.094.186.115.206.262.013.1.014.24 0 .34-.036.242-.214.412-.236.667-.024.287.405.114.589.314.156.17.356.28.382.524.027.247.018.486-.071.719-.092.239-.221.444-.275.694-.043.202-.2.352-.167.576.024.171.079.314.079.497 0 .241-.011.426-.079.653-.043.146-.076.357-.209.455a.57.57 0 0 1-.196.068c-.041.009-.089-.01-.128.002-.042.014-.079.066-.132.079.001.147.132.144.066.298a.64.64 0 0 1-.169.24c-.106.089-.244.116-.321.241-.054.088-.053.172-.049.278.01.258.183.331.393.435.222.11.263.33.274.56.01.185.002.323.063.496.078.223.201.48.376.64.195.177.437.295.621.485.173.18.321.38.367.628.051.278-.011.553.075.825.087.275.019.448-.086.71-.093.23-.215.508-.161.77.059.282.168.39.446.416.198.02.376.217.55.33.235.154.467.349.758.377.32.031.57.09.867.206.189.075.358.324.405.529.059.259-.008.531.034.793.019.118.041.224.091.332.074.161.081.247.082.43 0 .212-.063.42-.04.64.023.213.196.355.344.496.129.123.336.306.379.489.039.16.009.331.008.495 0 .167.06.274.093.429.024.11.015.084-.026.17-.048.103-.113.196-.16.302-.102.231-.062.447-.062.695-.001.298-.02.65-.121.927-.078.214-.191.425-.248.645-.06.226.024.482.002.716a.61.61 0 0 1-.108.31c-.065.089-.177.12-.242.203-.16.203.025.432-.015.654-.049.273-.286.445-.358.714-.072.27.188.458.109.711-.09.288.173.162.039.432-.124.252-.271.436-.442.652-.074.092-.053.208-.134.283-.084.078-.194.078-.265.17-.13.17-.18.436-.242.632-.043.136-.067.291-.107.431-.041.145-.066.266-.209.262a1.803 1.803 0 0 1-.521-.118c-.189-.073-.392-.107-.579-.174-.295-.105-.578-.22-.877-.296-.228-.059-.111-.174-.052-.37.056-.184.124-.354.168-.537.067-.274.221-.604.21-.884-.132-.017-.249.113-.366.158-.15.058-.293.105-.443.154-.159.051-.192.082-.29-.04-.066-.08-.135-.165-.158-.274-.069-.323.306-.305.484-.461.267-.234.102-.72-.013-.981-.066-.149-.135-.323-.288-.398-.181-.092-.404-.095-.598-.137-.236-.051-.466-.166-.693-.243-.125-.043-.379-.143-.509-.12-.059.356-.428.135-.648.052-.305-.116-.662-.173-.988-.21-.123-.014-.203-.05-.264.078-.047.1-.036.233-.091.34-.083.163-.144.264-.169.445-.019.14-.114.308-.106.445.016.245.427.22.602.272.061.018.165.048.184.12.019.074-.06.137-.066.21-.024.312.577.364.772.447.158.067.271.15.43.21.036.25-.207.39-.355.556-.139.155-.237.209-.442.278-.258.086-.507-.029-.779-.024-.184.003-.304.138-.457.227-.301.174-.654.26-.963.422-.211.11-.406.215-.589.368-.185.155-.372.31-.57.445-.168.114-.333.287-.554.224-.145-.04-.236-.177-.379-.223-.15-.048-.257-.01-.391.065-.167.092-.313.239-.453.366-.133.123-.284.231-.41.353-.143.138-.222.203-.174.396.036.145.152.252.183.39.06.261-.305.563-.546.563-.077 0-.156-.035-.236-.04-.108-.006-.218 0-.326 0-.272 0-.532-.008-.798.042-.618.117-1.224.034-1.847.115a.651.651 0 0 0-.368.167c-.159.146-.132.168-.088.344.067.264-.022.522-.115.771-.091.245-.222.669-.46.812-.285.17-.5-.04-.76-.154-.226-.1-.586-.319-.693-.003a2.828 2.828 0 0 1-.353.709c-.2.29-.235.511-.523.289-.217-.168-.737-.36-.812-.056-.066.272-.123.547-.226.81-.098.252-.21.493-.467.602l-.353.092a3.45 3.45 0 0 0-.746-.026c-.079.004-.311-.02-.37.035-.071.068-.03.28-.035.375-.014.22-.105.415-.118.636-.012.193-.017.387-.062.578-.027.114-.063.33-.15.416-.132.13-.533.078-.704.066-.26-.019-.372-.06-.548-.235-.241-.24-.543-.525-.892-.59-.538-.1-.928.355-1.288.684-.312.286-.608.298-1.013.298-.132 0-.262-.016-.38.037-.123.055-.172.148-.261.225l-.892.466c-.414.227-.89.358-1.26.663-.157.13-.319.312-.36.516-.048.237.042.482-.017.719-.05.197-.258.186-.347.338-.082.14-.013.43.002.585.018.198.007.41-.232.473-.16.041-.27-.064-.317-.206-.05-.153-.02-.406-.131-.537-.113-.133-.325-.054-.284-.265.038-.195.238-.323-.048-.432-.172-.066-.336-.056-.491-.166a.991.991 0 0 1-.233-.223c-.045-.065-.044-.155-.094-.213-.135-.159-.593-.182-.787-.118-.294.097-.051.298-.039.507.013.217-.193.205-.283.364-.242.425.627.621.842.769.23.158.266.345.383.576.092.183.22.344.244.552.042.346-.142.985.157 1.24.152.13.32.158.436.336.113.173.074.283.122.47.052.206.258.286.431.37.279.137.542.258.833.367.345.129.698.243 1.042.375.138.053.49.152.572.27.072.103 0 .262.069.397.103.199.31.228.454.37.185.184.333.606.263.869-.055.208-.197.374-.304.556-.103.178-.117.381-.23.546-.209.3-.55.436-.317.851.292.52-.444.572-.772.729-.195.093-.392.311-.437.527-.049.232.277.344.454.45.338.204.705.387 1.091.493.286.079.35.002.41.318.037.193-.017.433.066.609.093.2.388.258.594.261.024.452-.06.875.09 1.305.07.2.155.216.349.292.188.074.277.198.296.406.038.4-.132.686.105 1.064.129.206.332.368.483.564.181.237.348.484.53.723.118.154.259.235.352.408.1.187.125.339.166.537.082.398.647.455.996.487.148.014.33.049.478.019.166-.034.14-.071.152-.242.014-.175.053-.306.262-.334.202-.027.541.107.72.205.214.118.427.242.61.401.205.177.422.545.537.789.088.187.079.302.257.454.17.146.375.243.549.38.283.225.638.354.854.648.1.137.167.329.22.493.143.457.274.878.752 1.068.24.095.372.166.611.059.21-.094.36-.135.542.02.238.204.488.448.606.732.076.187.179.332.335.459.149.122.303.278.345.478.051.239-.126.444-.084.678.042.239.286.383.455.531.136.12.302.399.471.459.298.104.226-.38.226-.573 0-.288-.079-.455.26-.427.22.019.537.065.734.175.192.107.299.353.45.507.144.147.301.281.44.438.173.2.32.509.554.643.164.095.337.018.511.052.083.016.057-.035.138.036.06.053.1.166.176.23.044.038.105.072.144.113.115.121.189.225.344.315.12.071.294.119.388.23.261.31.005.484-.132.746-.18.342.002.476.35.426.033.095.098.262.075.363-.022.093-.136.192-.18.283a1.329 1.329 0 0 0-.1.676c.029.27.219.445.284.699.119.47-.018 1.028.03 1.517.016.158.015.344-.058.487-.08.156-.247.238-.366.38-.052.063-.194.361-.291.355-.126-.009-.129-.421-.328-.211-.073.077-.105.379-.144.492-.043.126-.074.365-.195.45-.15.105-.304-.036-.437-.109-.193-.106-.369-.251-.57-.341-.279-.124-.64-.042-.93-.056-.207-.01-.318-.12-.502-.171-.208-.058-.35.143-.51.261-.188.142-.3.306-.274.561.016.168.144.296.157.461.015.193-.1.397-.118.593-.017.188.032.364.048.545.021.245-.065.455-.153.681-.06.156-.083.335-.148.492-.16.387-.72.377-.937.693-.119.173-.131.43-.222.611-.102.205-.354.399-.529.545-.2.168-.442.161-.695.193-.182.023-.374.012-.56.012l-.62.25c-.117.064-.166.037-.287.064-.224.049-.45.178-.676.232-.22.053-.465.065-.646.225-.083.074-.086.203-.142.29-.058.089-.163.199-.233.283-.155.187-.478.314-.71.365-.236.053-.359.014-.516.205-.153.187-.229.337-.422.479-.124.091-.418.259-.472.415-.062.182.005.384-.07.576-.03.08-.042.214-.143.227-.096.013-.114-.128-.222-.066-.267.151.68.93.803 1.047.156.147.252.272.361.449.12.195.15.425.262.61.096.156.254.243.413.327.224.118.457.318.658.47.194.146.26.431.29.668.037.301-.069.673-.135.965-.089.388-.408.66-.511 1.036-.063.226-.01.588.014.821.017.159.077.299.126.454.048.149.075.301.09.456.012.117-.028.352.053.455.096.123.378.066.498-.005.16-.095.212-.331.405-.258.074.028.12.098.17.158.108.126.226.25.333.38.131.16.273.337.357.527.118.265.11.619.069.899-.034.228-.122.31-.248.496-.289.425-.358.755-.214 1.246.116.394.198.747-.03 1.126-.084.14-.37.475-.555.362-.186-.113.003-.299-.3-.201-.248.081-.404.186-.627.062-.165-.093-.353-.191-.454-.356-.096-.157-.21-.446-.21-.635 0-.204.073-.381.051-.589-.405-.013-.688-.076-.965-.371-.297-.317-.352-.485-.063-.858.082-.105.274-.388.18-.52-.032-.044-.181-.077-.236-.124a.642.642 0 0 1-.15-.205c-.11-.213-.15-.351-.404-.388-.266-.039-.551-.014-.822-.014-.323 0-.678-.026-.993.048-.205.048-.3.049-.349.253-.046.194-.048.362-.239.467-.179.1-.395.168-.595.088-.178-.072-.459-.251-.575-.407-.127-.169-.109-.382-.279-.536-.205-.185-.321-.001-.55.066-.3.087-.57.086-.832-.062-.389-.22-.754-.014-1.166.028.06-.221.19-.383.125-.638-.098-.388-.26-.333-.545-.214-.241.102-.41.186-.59.383-.17.187-.107.356.019.551.203.316.362.597.379.981.017.39-.307.507-.663.475-.297-.028-.592-.086-.89-.123-.336-.041-.672.036-1.01.035-.269 0-.536.001-.8-.03-.364-.042-.786-.196-1.155-.08-.177.056-.238.248-.365.359a1.034 1.034 0 0 1-.465.206c-.251.039-.572.014-.828.016-.245.003-.489-.002-.724-.08-.143-.047-.263-.132-.417-.133-.27-.002-.717.175-.916.352-.17.151-.144.385-.126.577.025.267-.033.547-.131.795-.11.278-.377.255-.643.343-.219.072-.38.179-.618.052-.134-.072-.142-.211-.313-.123-.11.056-.222.255-.278.362-.094.18-.068.298-.022.489.067.282-.053.276-.332.327-.41.076-.972-.086-1.16.405-.073.19.022.405-.078.589-.09.168-.301.222-.485.231-.184.009-.445-.011-.61-.091-.17-.083-.158-.214-.175-.379-.025-.256-.005-.426-.297-.328-.232.078-.363.268-.54.41-.204.165-.317.169-.573.131-.31-.046-.626-.009-.937-.036a4.593 4.593 0 0 1-.845-.143c-.264-.075-.285-.288-.352-.542-.064-.239-.25-.408-.307-.639-.036-.146.015-.314-.003-.464-.014-.111-.06-.215-.09-.324-.246-.012-.47.057-.7.142-.269.099-.52.063-.798-.017-.264-.076-.322-.087-.348-.336-.033-.306-.346-.198-.606-.21a4.438 4.438 0 0 1-.653-.069c-.222-.042-.647-.148-.852.003-.131.097-.146.362-.188.503-.057.197-.063.41-.15.6-.144.32-.398.119-.673.044-.295-.08-.679-.196-.8-.542-.114-.323.147-.539.276-.792.317-.621-.497-.611-.863-.339-.24.178-.086.551-.13.864-.032.23-.172.476-.211.704-.03.178.011.81.183.92.102.066.318-.027.446.049a.51.51 0 0 1 .203.261c.247.658-.575 1.002-.805 1.549-.12.287.008.609-.261.814-.145.109-.41.258-.576.339-.446.218-1.114.248-1.589.111-.264-.076-.523-.134-.504-.458.016-.277.342-.506.336-.78-.733-.106-1.153.809-1.822.099-.151-.16-.558-.624-.577-.837-.034-.394.508-.276.75-.291.002-.141-.086-.236-.172-.343-.12-.148-.29-.404-.45-.492-.212-.116-.46-.028-.653-.181a1.103 1.103 0 0 1-.396-.649c-.07-.302-.15-.34-.444-.135-.205.143-.314.278-.577.178-.183-.069-.34-.28-.522-.37-.307-.152-.44-.11-.313-.491.08-.238.2-.396.179-.675-.377-.019-.561.112-.854.342-.242.19-.35.473-.562.669-.33.305-.373-.185-.55-.387-.209-.238-.596-.054-.84-.245-.312-.242-.389-.495-.827-.566-.09-.015-.211.013-.3-.012-.097-.027-.19-.135-.25-.21a1.794 1.794 0 0 1-.284-.487c-.047-.123-.107-.207-.165-.314-.04-.076-.026-.136-.112-.168-.06-.021-.141.01-.2.014-.32.016-.488-.22-.789-.285-.147-.031-.22.024-.356.065-.137.041.542-.565.39-.565-.257-.001-.488-.153-.694-.287-.214-.139-.434-.25-.667-.37-.187-.095-.576-.285-.573-.518.002-.116.076-.198.02-.317-.072-.151-.143-.157-.298-.157-.22 0-.572-.036-.578-.337-.134-.044-.345.01-.465-.071-.095-.064-.041-.121-.082-.207-.027-.057-.113-.111-.167-.147-.205-.137-.458-.397-.7-.438-.21-.036-.613-.008-.458.285.11.206.292.368.501.458.232.1.42.099.605.297.171.183.388.121.602.249.213.128.287.31.347.539.063.239.28.343.38.563.036.081.105.206.071.291-.061.154-.133-.002-.225-.053a.726.726 0 0 0-.383-.081c-.108 0-.248.042-.34.036-.175-.011-.316-.309-.455-.413-.18-.135-.392-.252-.59-.366-.2-.115-.39-.248-.597-.356-.074-.04-.264-.179-.357-.115-.09.061.003.192-.015.284-.192-.075-.304-.238-.534-.208-.19.024-.236.167-.154.336.084.171.295.283.442.393.21.159.038.265-.094.414a1.454 1.454 0 0 1-.57.378c-.316.117-.643.122-.867-.161-.21-.266-.21-.7-.636-.663-.192.017-.358.124-.415.315-.048.158.009.278-.21.296-.197.015-.605-.138-.744-.283-.247-.254-.092-.544-.01-.837.098-.344-.05-.512-.273-.747-.106-.112-.228-.246-.402-.227-.26.027-.132.219-.262.328-.162.137-.251-.095-.314-.205-.09-.16-.185-.379-.401-.403-.138-.015-.356.042-.492.076-.2.05-.241.092-.35.257-.106.161-.193.169-.38.227-.171.054-.255.139-.4.241-.054.039-.126.044-.188.094-.064.053-.116.132-.178.188-.117.105-.26.19-.35.318-.179.254-.211.549-.213.85-.001.323.104.582.456.593.365.012.846-.025 1.154-.248.165-.119.291-.235.488-.323.18-.082.34-.054.54-.009.26.059.904.305.506.647-.135.115-.262.053-.297.268-.02.118.021.33-.099.42-.122.092-.384.014-.532.013-.179-.002-.358.007-.536 0-.292-.011-.448-.029-.7.105-.173.092-.226.161-.348.293-.088.096-.157.122-.29.111-.252-.021-.452-.218-.695-.269-.24-.05-.342.121-.544.21-.216.094-.297-.016-.437-.153-.171-.168-.318-.361-.52-.485-.222-.136-.272-.146-.528-.087-.22.051.06.222-.156.131-.16-.068-.256-.234-.44-.257-.263-.033-.438.146-.645.252-.227.116-.305.202-.397.454-.069.187-.111.435-.319.502-.193.063-.608-.499-.803-.511-.183-.01-.402-.051-.568.049-.133.081-.192.284-.35.322-.176.042-.104-.352-.153-.489-.143-.393-.886-.405-1.23-.405l-.699-.036c-.113.127-.093.445-.182.607-.109.198-.23.136-.427.126a.856.856 0 0 0-.51.123c-.17.092-.338.124-.503-.017-.209-.179-.189-.594-.176-.853-.009 0-.048.001-.053-.002-.09-.05-.363-.004-.465-.019-.201-.03-.32-.065-.351-.278-.03-.201 0-.326-.118-.497a1.006 1.006 0 0 1-.165-.392c-.084-.34-.252-.72-.201-1.078.029-.208.091-.376.083-.592-.007-.181-.075-.35-.07-.528.012-.423.262-.814.262-1.255 0-.361.08-.64.257-.96.075-.137.176-.254.21-.406.03-.135.043-.266.091-.395.066-.177.166-.288.275-.438.482-.659.058-1.118-.463-1.549-.293-.242-.23-.561-.197-.909.043-.431.61-.649.646-1.033.032-.343-.063-.649.057-.974.083-.225.23-.28.432-.397.208-.119.438-.319.593-.509.2-.247.224-.651.31-.946.106-.367.345-.678.44-1.043.094-.361-.15-.62-.122-.959.026-.318.264-.519.384-.803.143-.343.156-.722.265-1.076.1-.331.348-.62.454-.978.17-.577-.108-1.171.279-1.696.126-.171.292-.311.413-.485.155-.224.277-.447.45-.657.21-.255.458-.567.56-.882.078-.245.118-.427.312-.622.166-.169.358-.263.529-.415.158-.141.166-.309.282-.457.158-.2.457-.177.625-.332.131-.122.191-.378.257-.545.148-.378.386-.651.594-.977.1-.159.188-.312.233-.493.05-.197.101-.436.227-.601.097-.126.273-.161.328-.317.06-.174-.117-.31-.24-.399-.288-.209-.75-.119-1.086-.196-.469-.107-.901-.448-1.347-.64-.503-.216-.753-.535-1.117-.912-.118-.123-.285-.281-.48-.209-.2.073-.157.325-.317.435-.188.13-.494-.178-.668-.266-.2-.102-1.534-.287-1.743-.121-.137.108-.184.279-.363.318-.214.047-.563-.11-.75-.196-.175-.08-.335-.184-.506-.28-.544-.305 1.736-.678 1.234-1.062-.207-.159-.09-.258-.17-.45-.06-.147-.308-.18-.454-.227-.112-.037-.255-.064-.345-.152-.106-.104-.06-.122-.073-.231-.02-.172-.066-.341-.28-.368-.137-.017-.39.099-.522.137-.182.052-.3.14-.454.247-.3.209-.617.545-.994.577-.198.016-.397.001-.593.021-.275.028-.658.078-.925 0-.34-.099-.428-.449-.823-.28-.177.077-.427.184-.624.089-.153-.074-.182-.325-.23-.473-.254-.042-.465-.234-.704-.313-.281-.093-.576-.07-.866-.108-.33-.042-.724-.221-1.061-.14-.32.077-.02.294-.09.488-.087.236-.773-.018-.944-.074-.166-.054-.425-.091-.531-.239-.097-.135-.057-.351-.057-.507 0-.222-.027-.357-.161-.536-.045-.059-.102-.158-.17-.193-.06-.03-.155.01-.206-.041-.08-.082-.071-.358-.074-.468-.006-.325-.449-.507-.627-.731-.158-.198-.365-.424-.476-.647-.101-.204.022-.4-.1-.606-.068-.115-.169-.192-.223-.314-.052-.118-.038-.212-.06-.334-.085-.488-.572-.645-.937-.856-.133-.077-.24-.175-.367-.257-.154-.099-.28-.096-.454-.131-.18-.036-.244-.069-.261-.257-.013-.145.003-.297.017-.437.042-.425.028-.858.218-1.26.127-.268.322-.43.551-.61.222-.175.323-.242.312-.518-.02-.53.194-.867.594-1.166.149-.111.503-.338.489-.562-.007-.097-.07-.128-.11-.213-.055-.117-.054-.237-.047-.367.02-.395.069-.785.05-1.18-.242-.007-.473.07-.714.024-.223-.043-.271-.181-.43-.326-.18-.163-.455-.21-.665-.326-.159-.088-.273-.25-.382-.389-.143-.18-.306-.274-.511-.384-.367-.197-.689-.299-.855-.716-.084-.209-.07-.417-.069-.64.002-.297-.18-.304-.429-.46-.095-.058-.229-.191-.304-.048-.313-.15-.452-.243-.4-.61.06-.424-.1-.851-.005-1.29.092-.422.05-.861.147-1.276.063-.266.282-.459.359-.712.059-.194.386-.775.37-.963-.044-.568.372-.81.869-.903.483-.09.416-.648.785-.911.329-.235.798.387.985-.117.164-.445-.107-.845-.262-1.226-.078-.189-.05-.473-.04-.676.015-.25.02-.468-.002-.713-.346.03-.182-.47-.262-.665-.147-.357-.422-.248-.747-.245-.297.004-.567.04-.803-.153-.264-.218-.427-.384-.456-.722-.028-.328-.107-.652.146-.92.139-.146.44-.142.534-.332.09-.182-.08-.342-.226-.419-.323-.17-.782.15-.73-.437.015-.163.96-.71.96-.871-.002-.233-.195-.385-.332-.537-.328-.366-.88-.287-1.238-.58-.314-.257-.208-.623-.261-.976-.039-.25-.1-.392-.296-.558a2.003 2.003 0 0 0-.475-.3c-.122-.055-.24-.09-.294-.228-.147-.377.05-.918.25-1.24.118-.19.279-.343.36-.553.036-.09.167-.385.137-.476-.032-.097-.204-.134-.292-.162-.203-.065-.43-.07-.627-.146-.205-.08-.286-.323-.315-.52-.049-.325-.088-.662-.05-.998.024-.207.252-.525.502-.45.199.061.312.298.559.259.205-.033.261-.245.348-.41.179-.338.453-.344.786-.462.216-.076.44-.169.645-.266.152-.072-.34.3-.26.126.07-.154-.083-.427.028-.58.093-.126.454-.175.596-.243.014-.13.005-.37-.103-.416-.05-.021-.297.04-.38.036-.26-.01-.586.042-.805-.14-.13-.109-.12-.214-.124-.378-.007-.207-.063-.43-.016-.634.09-.394.56-.8.806-1.116.22-.283.495-.47.816-.592.158-.06.38-.183.493-.31.101-.116.127-.272.135-.422.014-.268 0-.365-.21-.512-.099-.07-.336-.155-.366-.275-.033-.125.135-.358.18-.474.063-.167.163-.323.187-.502.027-.204-.036-.403-.036-.607 0-.35 1.033-.515.825-.808-.24-.337-.567-.62-.847-.915-.1-.105-.22-.2-.304-.321-.107-.155-.1-.32-.092-.506.007-.18-.175-.972-.11-1.133.056-.137.25-.373.247-.504-.301-.024-.608-.044-.906-.108-.108-.023-.266-.058-.33-.156-.151-.23.037-.484-.213-.685-.238-.192-.784-.173-.42-.554.122-.127.262-.227.25-.419-.013-.189-.124-.37-.067-.575.097-.347.78-.438 1.075-.453.261-.014.462.003.685.157.14.097.238.199.434.174.158-.02.265-.21.21-.385-.058-.19-.315-.309-.333-.522-.035-.425.545-.508.856-.506.237.002.253.073.331.262.064.154.18.286.266.436.1.174.067.245.292.244.187-.001.381-.052.567-.018.163.029.33.109.484.165.159.058.303.145.471.154.269.014.343.015.354-.265.006-.154-.027-.348.004-.492l2.133-.134c.236-.04.407-.207.637-.287.134-.046.301-.072.444-.09.064-.009.157-.037.223-.015.072.024.104.103.17.135.284.142.65-.15.784-.382.176-.306.24-.612.223-.97-.009-.19.016-.313-.143-.427-.174-.125-.378-.202-.55-.327-.29-.208-.673-.488-.668-.892.007-.47.504-.204.788-.237.28-.032.206-.475.468-.588.284-.122.611-.04.893-.155.08-.032.06-.015.11-.08.055-.07.1-.182.139-.263.062-.131.05-.289.11-.421.057-.124.176-.235.279-.324l.287.092c.064-.138.035-.288.089-.422.056-.14.216-.171.28-.298.073-.141-.021-.345-.029-.496a3.776 3.776 0 0 1 0-.498c.013-.148.439-.297.495-.432.054-.131.113-.27.17-.402.08-.188.126-.38.251-.55.106-.146.188-.193.196-.382.015-.346-.465-.679-.651-.916-.087-.111-.089-.23-.108-.366a.755.755 0 0 0-.146-.378c-.108.031-.142.224-.257.287a1.07 1.07 0 0 1-.408.105c-.335.022-.688-.182-1.018-.223a4.1 4.1 0 0 1-1.012-.272c-.134-.051-.269-.102-.35-.222-.1-.149-.166-.338-.238-.504-.217-.5-.161-1.248.381-1.5.131-.062.32.002.315-.184-.004-.161-.22-.253-.314-.369-.079-.096-.207-.337-.223-.468-.021-.18.18-.369.274-.498.16-.22.325-.244.594-.193.326.062.637.115.977.115.17 0 .369-.043.534-.003.114.029.19.107.287.164.192.113.5-.001.723-.004.22-.002.505.038.592-.206.076-.213.032-.232.026-.451-.006-.212.08-.4.099-.609.012-.142-.01-.263-.024-.395-.03-.286.156-.591.262-.847.134-.325.424-.562.526-.896a.709.709 0 0 0 .01-.35c-.028-.127-.144-.23-.157-.353-.014-.134.07-.335.114-.464.093-.272.258-.518.347-.79.138-.425.316-.816.505-1.222.157-.337.227-.613.212-.99-.013-.323-.08-.642-.092-.966-.011-.323-.008-.567.128-.866.115-.254.31-.451.44-.693.142-.262.306-.48.374-.772.03-.126.057-.25.052-.383-.005-.143-.025-.372-.081-.504-.026-.06-.083-.107-.09-.172-.013-.141.17-.397.236-.524.049-.092.145-.19.132-.302-.01-.09-.114-.206-.167-.276-.133-.177-.134-.478.14-.534.122-.025.204.02.304.075a.843.843 0 0 0 .457.121c.159.006.305.012.444.102.115.075.105.127.118.262.03.01.064.018.09.038.107.083.264.114.275.262.01.125-.067.218.023.341.193.264.361-.14.33-.325-.04-.237-.253-.348-.393-.519a4.391 4.391 0 0 1-.245-.33c-.077-.113-.136-.122-.278-.157-.239-.06-.484-.056-.733-.066-.307-.013-.593-.078-.889-.144-.255-.057-.51-.025-.772-.052a9.53 9.53 0 0 0-.863-.04c-.27-.002-.458-.074-.458-.353 0-.251.015-.507 0-.758-.015-.248-.061-.463.062-.693.064-.122.153-.239.174-.377.017-.121 0-.26 0-.382 0-.283.036-.495.208-.72.052-.068.153-.21.236-.223.164-.026.362.172.537.158.162-.014.427-.282.395-.445-.05-.254-.248-.414-.353-.641-.24-.518.27-.942.612-1.242.42-.37.796-.741 1.36-.861.128-.027.272.005.392-.03.121-.033.208-.155.328-.17.139-.016.372.07.513.108.137.037.216.08.364.076l.797.17c.449.294.812.04 1.276-.058.424-.09.988-.002 1.386-.184.395-.18.658-.478 1.132-.386.292.057.391.111.679.02.285-.091.564-.098.864-.099.31 0 .362.005.44.314.049.195.045.423.142.602.183.34.597.482.876.74.391.36.513.784.53 1.295.008.209.017.435-.031.634-.048.195-.253.35-.256.55"/><path stroke="#18212C" stroke-width="1.3" d="M29.382 28.34c-.08.175-.317.401-.501.462-.155.05-.361-.03-.506.044-.186.094-.123.294-.052.445.063.137.147.363.279.454.122.085.3.072.44.113.35.102.438.424.679.657.14.135.314.204.486.241.097.021.097.056.209.018.059-.02.146-.084.199-.122.32-.231.63-.544.59-.955-.033-.328.005-.709-.053-1.034-.012-.067-.044-.299-.109-.312-.046-.01-.14.106-.17.13-.146.112-.234.194-.393.067-.236-.187-.103-.641-.041-.888.091-.367.013-.85.445-.995.171-.057.321-.021.494.014.21.042.22.084.307.284.289.668.972.864 1.539 1.23.26.168.339.324.126.688-.15.257-.236.394-.336.693-.103.31.003.693-.066 1.025-.064.313-.386.693-.2 1.002.087.146.145.206.145.397 0 .172.163.346.109.507-.056.165-.165.312-.219.474-.054.165-.043.383-.047.555-.004.172.013.79.332.733.188-.034.202-.697.23-.864.048-.296.262-.736.165-1.021-.052-.154-.186-.273-.227-.436-.043-.177-.026-.43.01-.61.067-.339.064-.658.031-1.008-.026-.273-.045-.668.09-.912.096-.17.226-.157.363-.256.126-.092.114-.227.196-.345.117-.169.218-.173.165-.392-.037-.157-.145-.271-.2-.419-.049-.13-.072-.266-.161-.38-.098-.125-.247-.196-.332-.335a1.236 1.236 0 0 1-.194-.671c.01-.23-.016-.441-.015-.672 0-.21.06-.451.091-.66.028-.178.015-.36.014-.544-.002-.281.097-.587.174-.855.137-.475.143-1.04.423-1.465.234-.355.5-.718.794-1.029.11-.116.23-.284.366-.37.101-.064.406-.127.512-.018.082.086.012.274.072.384.095.171.278.22.42.331.177.139.321.318.502.455.331.252.67.247 1.08.247.194 0 .41.024.597-.02.191-.046.41-.176.602-.19.193-.014.358.128.558.084.17-.037.287-.186.423-.27.171-.107.336-.184.54-.197.327-.02.683.043.99-.039.343-.09.63-.112.929.108.263.194.581.393.781.65.113.146.208.312.214.503a.396.396 0 0 1-.062.24c-.03.05-.14.126-.149.177-.037.207.194.129.315.123.289-.015.206.094.24.333.047.31.07.633.27.9.131.175.279.353.447.493.138.116.291.207.405.35.424.529.457 1.229.889 1.74.098.117.216.256.366.3.174.052.335.243.506.331.247.129.72.701.992.59l.177.056c.095.024.123-.03.21-.018.182.025.26.024.436.07.329.088.472-.2.765-.21.183-.006 1.125.47 1.01.074-.079-.267-.713-.264-.943-.3-.376-.062-.795-.073-1.182-.091-.188-.009-.375-.063-.557-.114-.169-.047-.387-.08-.54-.165-.63-.348-.697-1.043-.983-1.583-.167-.317-.278-.682-.462-.981-.156-.252-.503-.42-.755-.576-.142-.09-.29-.138-.38-.292-.076-.13-.07-.289-.112-.436-.092-.33-.152-.649-.222-.976-.08-.365-.317-.59-.646-.734-.193-.083-.142-.134-.196-.33-.084-.302-.366-.377-.592-.528-.07-.046-.114-.144-.186-.187-.088-.05-.209-.03-.306-.047-.213-.035-.403-.125-.622-.075-.146.033-.307.016-.457.016-.125 0-.25.013-.374-.001-.155-.018-.33-.032-.477-.092-.118-.048-.232-.122-.366-.123a.73.73 0 0 0-.31.046c-.098.042-.174.14-.285.144-.214.01-.362-.148-.499-.281-.167-.163-.367-.28-.524-.463a.637.637 0 0 1-.141-.317c-.025-.136-.074-.256-.1-.394-.02-.1-.038-.185.04-.259.057-.053.16-.136.123-.222-.038-.088-.195-.136-.28-.164a1.093 1.093 0 0 1-.313-.168.472.472 0 0 1-.184-.365c-.01-.127.06-.218.155-.294.079-.063.212-.148.315-.147.06 0 .114.016.173.024.067.01.137.004.203.015.108.017.193.107.29.124.092.016.212-.055.303-.07.044-.008.09-.004.132-.013a.353.353 0 0 0 .137-.066c.04-.039.032-.049.032-.11 0-.084.034-.255-.004-.335-.05-.105-.302-.07-.29-.205.006-.08.086-.132.085-.221 0-.087-.05-.171-.083-.25-.038-.09-.086-.171-.111-.267-.018-.068-.01-.154-.042-.216-.028-.052-.115-.103-.167-.132-.057-.032-.075-.044-.131-.04-.043.004-.082.021-.123.035a.668.668 0 0 0-.22.124c-.115.094-.28.305-.387.099-.04-.078-.062-.16-.092-.243-.043-.123-.118-.216-.178-.33-.113-.217-.255-.41-.149-.663.034-.082.1-.168.186-.197.073-.025.2-.03.261-.078.05-.04.038-.139.04-.197.003-.1.017-.204-.009-.3-.022-.083-.088-.135-.096-.223-.007-.067.016-.132.012-.199-.002-.04-.021-.061-.004-.104.026-.064.112-.112.175-.13.153-.045.34.019.496-.016.068-.015.128-.066.19-.095.04-.02.084-.03.12-.058.047-.038.075-.095.101-.148.03-.06.04-.12.065-.18.028-.067.082-.136.125-.194.132-.186.423-.292.433-.548.007-.175.035-.497-.142-.597a.48.48 0 0 0-.082.207c-.029.136-.111.207-.18.323a.895.895 0 0 0-.08.184c-.027.082-.094.149-.143.219-.056.08-.143.204-.236.247-.089.042-.2.059-.294.087-.123.035-.224.065-.354.06-.112-.005-.206-.068-.32-.066a.573.573 0 0 0-.23.062c-.129.06-.258.031-.397.025-.2-.009-.415-.046-.61.018-.113.038-.205.114-.324.135a1.67 1.67 0 0 1-.386.022c-.078-.004-.118-.042-.172-.097-.063-.065-.167-.18-.189-.27-.036-.142-.047-.294-.092-.436-.03-.094-.069-.164-.064-.267.003-.065.004-.136.013-.2.012-.093.016-.097.092-.088.064.007.126.03.19.037.103.013.17-.027.248-.086.08-.06.258-.1.234-.24-.016-.087-.184-.163-.249-.218-.08-.068-.167-.053-.252.006-.044.03-.069.056-.12.028a.364.364 0 0 1-.104-.111c-.061-.169.086-.334.147-.478a.297.297 0 0 1 .11-.138.321.321 0 0 1 .219-.042l.74-.022c.146-.016.297 0 .445-.012.074-.006.147-.008.22-.008.092 0 .215-.021.302.006.04.013.068.035.112.046.186.045.366.052.557.027a.753.753 0 0 0 .365-.138.795.795 0 0 0 .209-.273c.065-.138.111-.243.252-.318.269-.143.536-.3.809-.435.112-.055.23-.08.352-.097.092-.013.24-.079.267-.178-.072-.005-.12-.08-.183-.103-.084-.032-.202-.007-.28-.056-.089-.055-.09-.211-.118-.3-.02-.059-.045-.062-.093-.114-.043-.047-.064-.12-.13-.127-.042-.005-.097.035-.138.049-.065.021-.108.031-.16.075a.556.556 0 0 0-.138.176c-.059.107-.124.208-.157.327a.655.655 0 0 1-.173.308c-.083.08-.146.128-.26.119a8.948 8.948 0 0 0-.432-.021c-.187-.006-.573-.055-.582-.3-.003-.078.018-.151.032-.223.022-.11.024-.238.074-.342.07-.144.266-.241.391-.33.064-.046.116-.1.171-.158.066-.069.1-.09.18-.02.133.118.376.164.558.135a.772.772 0 0 0 .268-.111c.079-.047.085-.071.027-.147-.05-.065-.118-.107-.17-.17a3.892 3.892 0 0 1-.164-.212c-.101-.142-.197-.222-.223-.405-.011-.08-.016-.122-.085-.168-.07-.047-.14-.084-.09-.166.04-.066.123-.122.12-.207-.177-.01-.307.02-.47.05-.118.023-.23.049-.347.077a.306.306 0 0 1-.157.002c-.144-.04-.077-.132-.017-.225.081-.127.216-.144.347-.204.114-.053.093-.144.052-.252a1.89 1.89 0 0 0-.155-.31c-.053-.084-.122-.18-.214-.223-.151-.072-.334-.016-.486-.068a.658.658 0 0 1-.214-.165c-.096-.104-.07-.19-.021-.312.057-.145.191-.39.008-.5l-.305-.034a.427.427 0 0 1-.02-.155c-.122-.018-.244.007-.294-.124-.07-.183.159-.276.21-.418.045-.127.009-.31-.017-.437-.03-.145-.07-.278-.193-.345-.144-.078-.334-.033-.473-.144-.143-.115-.114-.322-.19-.484-.072-.155-.176-.28-.257-.427-.124-.225-.046-.266-.004-.52.02-.114.028-.365-.135-.346.197-.12.43-.217.589-.382.09-.093.104-.248.248-.217.137.03.352.304.428.406.134.18.157.22.405.196.206-.02.32-.092.505-.162.146-.055.319-.09.472-.052.157.039.232.135.403.122.222-.017.37-.142.596-.14.182.003.348.04.511.123.155.078.208.175.39.191.091.009.175-.001.263.022.117.03.14.103.226.153.261.153.608-.086.91-.07.658.035 1.593.515 1.552 1.288.39.023.834.113 1.215-.036.209-.081.245-.286.4-.398.11-.079.362-.058.49-.013.02.178-.178.241-.154.433.01.078.076.148.097.225.023.087.012.188.028.275.211-.245.408-.619.708-.767.156-.076.303-.053.436-.187s.209-.228.423-.21l.488-.627c.068.113-.137.323-.122.488.02.22.125.357.3.484.244.178.524.097.742.306.114.11.246.232.388.297.147.067.304.03.454.064.243.057.618.328.75.542.069.112.136.34.279.365.159.028.274-.205.4-.262.2-.09.24-.023.19-.282-.037-.183-.081-.326.145-.346.34-.03.427.375.586.594.112.153.178.238.245.422.06.168.151.297.243.45.1.165.039.714-.254.66.046-.403-.375-.012-.496.102-.174.164-.43.313-.376.563.052.242.076.444-.147.624-.136.11-.327.13-.47.23-.153.107-.16.226-.363.263-.104.019-.176-.016-.262.052-.08.063-.074.178-.174.21-.05.016-.17-.045-.241-.033-.012.15-.128.341-.208.469a.705.705 0 0 1-.21.226c-.072.039-.16.028-.245.055.013.41-.77.426-1.012.413.005-.034-.013-.084-.005-.117-.144.065-.223.259-.377.312-.154.052-.313.035-.483.136.177.04.13.156.112.282-.02.138-.05.325.066.437.188.181.194-.022.178-.175-.017-.175-.049-.303.105-.423.11-.085.333-.149.471-.101.211.072.678.548.886.189.086-.148-.051-.255.13-.376.18-.12.346-.012.52-.074.181-.065.092-.226.004-.336-.114-.14-.15-.179.013-.327.284-.258.694-.42 1.05-.545.22-.077.317-.194.497-.328.17-.127.318-.204.411-.4.07-.149.118-.284.118-.454 0-.072-.015-.162.015-.226.043-.092.171-.132.214-.224.053-.002.142.047.186.028.055-.024-.01-.11.055-.137.105-.043.28.135.328.204.361-.24.72.236.283.303-.126.02-.388-.029-.21.122.134.113.353-.002.364.23.008.181-.128.407-.136.603a.8.8 0 0 0 .09.458c.063.12.152.234.123.347-.082.318-.581.649-.841.809-.285.175-.586.283-.822.545-.103.113-.165.252-.278.36-.152.148-.233.051-.401.135-.11.055-.194.292-.087.373.07.052.372-.022.455-.04.317-.068.624-.225.94-.332.351-.12.698-.028 1.051-.104.354-.075.689-.1 1.039.014.285.092.761.275.475.609-.141.166-.183.238-.175.458.006.133.086.417.022.527-.058.1-.237.143-.322.244-.121.142-.123.277-.062.45.058.161.148.24.097.418-.044.158-.204.275-.168.45.164.05.215-.257.272-.363.097-.179.11-.318.165-.502.049-.16.226-.191.276-.352.05-.162-.057-.327.052-.468.056-.072.267-.23.348-.262.135-.054.352.041.468-.06.087-.075.057-.253.13-.357a.407.407 0 0 1 .449-.162c.105.034.101.073.165.154.082.103.012.09.145.126.168.046.26.003.422.1.749.454 1.52.846 2.32 1.204.285.127.301-.075.467.196.108.177.121.286.3.388.85.485 1.674-.605 2.188-1.15.221-.235.453-.575.804-.575.19 0 .595.089.528.36-.048.193-.209.124-.366.14-.205.02-.232.178-.031.244.288.094.613-.075.823-.24.214-.168.41-.58.732-.462.218.08.308.21.254.41-.044.161-.067.24-.209.306-.115.054-.344.066-.398.213-.042.114.019.362.019.492 0 .376.122.72.122 1.1 0 .204-.015.41.035.607.04.15.091.28.104.435.027.311-.19.42-.366.626-.078.092-.107.18-.216.246-.126.077-.283.08-.412.152-.588.326-.864 1.003-1.426 1.37-.188.122-.202.048-.388.013-.21-.04-.321.032-.4-.193-.05-.137-.075-.322-.232-.143-.115.131-.06.346-.065.51-.014.355-.403.505-.315.89.031.14.141.299.192.436.058.155.127.296.245.414.054.054.139.13.208.144.141.032.13-.038.215-.091.137-.087.26-.16.41-.01.117.117.136.334.051.485-.03.053-.116.078-.14.138-.04.105.035.107.045.17.046.282-.109.753-.388.895-.248.125-.812.079-1.006-.12.075.044.1.194.13.28.06.177.06.199.263.236.253.047.398-.01.63-.096.111-.04.225-.053.332-.109.121-.063.168-.167.256-.245.214-.187.245.162.234.343.14.046.182-.056.294-.098.1-.037.261.032.35-.051.165-.155-.3-.296-.398-.371-.126-.097-.12-.227-.23-.345-.126-.134-.29-.273-.112-.44.126-.118.39-.149.547-.227.197-.097.346-.238.525-.359.151-.102.301-.14.452-.216.13-.067.182-.205.296-.279.154-.099.363-.225.542-.131.11.057.208.203.33.223.214.036.256-.205.44-.281.242-.1.3.104.377.28.036.085.073.17.087.261.01.063-.026.21.021.263.09.103.284-.021.385.09.117.13.022.38.052.532.031.16.112.171.243.275.193.152.371.157.59-.03.111-.095.116-.241.191-.345.197-.268.362.207.563.297.145.066.27.023.362.175.082.135.045.296.157.423.074.084.265.194.388.152.193-.065-.05-.19-.035-.349.012-.13.16-.266.223-.388.077-.15.085-.261.091-.431.011-.3.245-.452.28-.733.013-.108-.001-.135.052-.223.04-.066.114-.103.14-.178.067-.2-.022-.223.226-.21.353.02.296-.311.422-.554.06-.112.133-.177.21-.279.099-.128.09-.237.08-.403a1.248 1.248 0 0 0-.485.487c-.097.162-.203.463-.433.415.01-.045 0-.104.012-.148-.144.118-.162.244-.38.165.089-.354.174-.625.413-.921.21-.264.566-.436.845-.623.255-.17.468-.382.708-.567.247-.19.662-.196.963-.123.341.082.63.162.99.162l.38-.135c.022-.022.057-.038.088-.056.226-.133.454-.296.71-.362.176-.046.373-.074.552-.109.123-.023.25-.019.375-.045.061-.013.11-.043.184-.03.11.019.222.082.249.197.04.167-.102.204-.148.326-.043.115.061.189.027.301-.038.121-.13.164-.127.305.003.108.037.258.118.335.188.178.426.167.665.153.025-.108-.144-.185-.205-.254-.074-.082-.182-.203-.205-.31-.05-.226.152-.45.349-.523.12-.044.216-.048.257-.194.034-.124.03-.378-.072-.478-.032-.032-.086-.053-.133-.037-.081.028-.059.109-.111.157-.101.091-.123-.087-.114-.158.033-.246.277-.34.41-.524.134-.184.199-.406.375-.556a4.32 4.32 0 0 1 .594-.415c.275-.163.382-.3.568-.574.112-.165.229-.315.34-.478.07-.101.096-.18.137-.294.058-.163.144-.314.21-.473.091-.224.225-.446.355-.653.054-.085.09-.153.162-.217.21-.182.457-.333.627-.556.1-.13.212-.294.245-.454.039-.187.03-.39.1-.569a.912.912 0 0 1 .194-.279c.073-.065.175-.055.269-.052.014.048.049.087.064.138.026.083.02.176.061.254.046.084.14.152.225.196.257.135.57.116.853.129.678.029 1.377.006 2.06.006.223 0 .42.004.636.037.148.022.21-.016.281.111.052.093.074.145-.012.225-.179.169-.371.079-.598.08-.217.003-.322.189-.525.238a.414.414 0 0 1-.243-.003c-.116-.046-.136-.1-.26-.069-.085.02-.174.068-.257.024-.066-.036-.104-.12-.168-.163-.12-.08-.344-.103-.467-.044-.142.07-.304.257-.47.245a.742.742 0 0 0-.038-.208c-.14.016-.235.164-.345.24-.119.083-.294.162-.379.273.147.197-.211.231-.32.294-.067.04-.119.106-.193.142-.125.062-.286.013-.426.06a.541.541 0 0 0-.19-.185c-.05-.025-.178-.07-.23-.058-.154.033-.079.218-.156.288-.009.008-.09.03-.106.037-.059.026-.124.04-.18.07-.053.029-.155.084-.158.146 0 .012.038.06.042.078.016.062-.002.136.01.2.027.133.075.247.032.38-.041-.068-.148-.096-.223-.09-.042.116.023.228.048.34.033.145-.03.157-.157.192-.065.019-.05.007-.088.048a.53.53 0 0 0-.118.3c0 .154.212.188.193.34-.01.08-.054.156-.035.242.039.177.283.3.447.307.12.006.24.015.353-.011.187-.044.084-.114-.032-.207-.075-.06-.193-.09-.235-.172-.048-.092-.053-.277.008-.36.15-.2.455-.045.608-.25.08-.107.126-.252.046-.36-.038-.052-.195-.226-.14-.313.086-.135.412.063.537.043.182-.03.27-.15.255-.33-.007-.09-.063-.192-.052-.281.012-.1.123-.186.2-.242.06-.044.15-.11.214-.047.06.06.052.182.084.252.128.021.23-.09.322-.162.131-.103.302-.17.428-.282.117-.104.15-.267.223-.402.041-.076.054-.133.143-.156.07-.018.17-.011.241-.007.083.148-.029.312-.11.426-.046.066-.17.261-.116.35.021.034.135.049.176.034.06-.02.106-.103.113-.16.017-.126-.049-.186.079-.277.175.096.192.51.47.304.091-.066.114-.167.177-.251.072-.095.155-.008.208.067.08.11.123.158.13.29.006.11-.02.207.059.298.07.08.157.092.262.078a.404.404 0 0 0 .326-.245c.02-.045.033-.05.042-.102.008-.045.003-.08.017-.124.033-.098.115-.167.179-.244.078-.095.164-.196.256-.28.157-.144.362-.23.534-.357.075-.055-.086-.108.006-.14.2-.068.388-.162.588-.228.033.058.067.06.084.13.022.086-.003.177-.023.258-.027.113-.043.217.01.326.059.123.131.188.26.219.05.011.111.02.163.009.035-.007.065-.042.106-.033.055.011.17.174.175.226.01.119-.212.195-.264.298-.081.162.128.394.2.54.064.125.135.247.214.361.053.078.085.063.157.093.09.038.076.086.076.173 0 .154.023.214.094.342.04.07.092.223.19.23.091.006.127-.13.22-.117.04.083.044.195.118.245.145.098.23-.015.33-.108.066.076.163.122.19.217.034.112.003.156.12.218.162.085.26.096.434.122.08.012.161.028.231.071.067.042.138.103.198.152.05.04.049.073.084.126.028.044.07.066.1.107.027.037.037.084.063.122l.28.349c.041.06.068.063.034.13-.022.045-.08.093-.115.13-.073.074-.145.13-.127.244.095.016.175-.055.25-.101.095-.058.194-.116.288-.17.113-.065.345-.066.443.04.13.14-.356.316-.172.46.114.088.207-.047.314-.035.045.005.048.028.082.056.068.055.134.091.186.16.04.05.065.108.08.168-.197.06-.586.028-.584.324.001.123.102.114.198.12.136.008.328.022.457.07.194.07.41.583.657.418.077-.051.141-.232.138-.32-.008-.188-.22-.313-.314-.445-.091-.13.062-.275.186-.314.17-.054.344.001.516.03.268.047.655.066.842-.162.087-.106.15-.227.205-.35.045-.099.11-.19.24-.157.107.027.177.17.267.234.133.092.274.083.425.091.15.009.28-.007.307.153.017.109 0 .163.07.256.095.126.22.287.384.315.042.07.056.24.045.32-.013.095-.115.148-.147.236-.031.09.012.18-.001.268-.014.098-.106.162-.174.222-.097.086-.162.134-.175.268-.008.08-.029.233 0 .307.014.04.065.098.089.137.028.044.069.073.096.106.057.07.106.133.188.181.088.052.18.081.283.081.19 0 .405.052.545.18.089.078.22.127.238.253.02.134-.056.268-.044.404.009.098.061.14.148.088.083-.05.09-.13.192-.07.11.065.146.165.18.27.03.09.108.157.124.251.044.267-.2.262-.374.36a.449.449 0 0 0-.182.183c-.032.063-.027.14-.081.198-.06.063-.167.081-.251.123-.106.052-.14.13-.192.237-.097.2-.103.471.14.573.299.125.585.017.68.387.022.084.019.178.089.246.052.05.118.056.186.073.09.023.178.046.27.06.017.003.086.003.1.012.049.031.08.138.112.187l.086.127c.068.102.137.207.219.297.197.22.502.34.76.47.195.096.43.133.613.245.075.046.135.101.226.117.118.02.207-.057.321-.064.093-.006.185-.001.277-.009.059-.005.09-.032.142-.044.036-.008.08.012.115.001.07-.02.138-.104.2-.14l.23-.14c.083-.049.164-.131.251-.163.109-.038.246.009.361.008.019.086-.006.17.02.253.04.132-.001.226-.101.328-.079.08-.163.135-.253.196-.067.044-.153.104-.143.198.029.252.523.174.678.166.136-.007.174.009.218.15.036.114.008.238.03.355.043.22.098.405.261.56.11.103.231.193.338.298.061.06.15.132.169.213.026.11-.077.278-.122.376-.05.107-.088.218-.138.325-.045.095-.117.155-.165.244-.099.18-.121.396.048.54.157.134.265.311.417.446.049.043.052.039.082.096.03.057.049.113.085.167.07.1.141.197.166.32.026.126-.015.262.009.387.009.051.038.093.052.143.032.111.025.236.044.352.066.382.186.68.296 1.046.063.212.115.41.158.633.075.388.352.89.17 1.25-.23.455-.462.83-.594 1.335-.13.497-.012.784.371 1.15l.354.785c-.016.252-.11.469-.119.72-.007.22-.178.466-.277.67-.126.26-.29.508-.454.74-.296.418-.6.782-1.067 1.007-.173.083-.516.254-.504.475.014.271.178.533.298.77.084.168.062.332.019.51-.04.17-.104.328-.157.495-.032.101-.114.265-.092.367.301.007.602.005.822.225.108.108.207.208.317.31.102.096.159.22.243.331.07.093.164.21.266.27.151.089.301.044.466.07.267.04.538.26.696.47.306.407.517.951.928 1.272.14.109.299.13.459.193.199.078.438.155.62.272.108.07.197.172.295.252.119.096.255.18.367.277.148.128.186.329.265.497.089.19.277.348.284.573.005.133-.076.23-.105.35a.74.74 0 0 0 .013.34c.131.508.281.937-.003 1.436-.137.24-.331.411-.516.607-.095.1-.215.218-.271.344-.053.12-.038.27-.034.404.01.297.207.516.377.744.161.216.281.43.346.695.038.153.076.504.207.604.081.062.222.031.326.036.138.006.304.049.433.101.301.123.594.362.692.683a.51.51 0 0 1-.053.46c-.077.135-.19.308-.048.443.099.094.186.115.206.262.013.1.014.24 0 .34-.036.242-.214.412-.236.667-.024.287.405.114.589.314.156.17.356.28.382.524.027.247.018.486-.071.719-.092.239-.221.444-.275.694-.043.202-.2.352-.167.576.024.171.079.314.079.497 0 .241-.011.426-.079.653-.043.146-.076.357-.209.455a.57.57 0 0 1-.196.068c-.041.009-.089-.01-.128.002-.042.014-.079.066-.132.079.001.147.132.144.066.298a.64.64 0 0 1-.169.24c-.106.089-.244.116-.321.241-.054.088-.053.172-.049.278.01.258.183.331.393.435.222.11.263.33.274.56.01.185.002.323.063.496.078.223.201.48.376.64.195.177.437.295.621.485.173.18.321.38.367.628.051.278-.011.553.075.825.087.275.019.448-.086.71-.093.23-.215.508-.161.77.059.282.168.39.446.416.198.02.376.217.55.33.235.154.467.349.758.377.32.031.57.09.867.206.189.075.358.324.405.529.059.259-.008.531.034.793.019.118.041.224.091.332.074.161.081.247.082.43 0 .212-.063.42-.04.64.023.213.196.355.344.496.129.123.336.306.379.489.039.16.009.331.008.495 0 .167.06.274.093.429.024.11.015.084-.026.17-.048.103-.113.196-.16.302-.102.231-.062.447-.062.695-.001.298-.02.65-.121.927-.078.214-.191.425-.248.645-.06.226.024.482.002.716a.61.61 0 0 1-.108.31c-.065.089-.177.12-.242.203-.16.203.025.432-.015.654-.049.273-.286.445-.358.714-.072.27.188.458.109.711-.09.288.173.162.039.432-.124.252-.271.436-.442.652-.074.092-.053.208-.134.283-.084.078-.194.078-.265.17-.13.17-.18.436-.242.632-.043.136-.067.291-.107.431-.041.145-.066.266-.209.262a1.803 1.803 0 0 1-.521-.118c-.189-.073-.392-.107-.579-.174-.295-.105-.578-.22-.877-.296-.228-.059-.111-.174-.052-.37.056-.184.124-.354.168-.537.067-.274.221-.604.21-.884-.132-.017-.249.113-.366.158-.15.058-.293.105-.443.154-.159.051-.192.082-.29-.04-.066-.08-.135-.165-.158-.274-.069-.323.306-.305.484-.461.267-.234.102-.72-.013-.981-.066-.149-.135-.323-.288-.398-.181-.092-.404-.095-.598-.137-.236-.051-.466-.166-.693-.243-.125-.043-.379-.143-.509-.12-.059.356-.428.135-.648.052-.305-.116-.662-.173-.988-.21-.123-.014-.203-.05-.264.078-.047.1-.036.233-.091.34-.083.163-.144.264-.169.445-.019.14-.114.308-.106.445.016.245.427.22.602.272.061.018.165.048.184.12.019.074-.06.137-.066.21-.024.312.577.364.772.447.158.067.271.15.43.21.036.25-.207.39-.355.556-.139.155-.237.209-.442.278-.258.086-.507-.029-.779-.024-.184.003-.304.138-.457.227-.301.174-.654.26-.963.422-.211.11-.406.215-.589.368-.185.155-.372.31-.57.445-.168.114-.333.287-.554.224-.145-.04-.236-.177-.379-.223-.15-.048-.257-.01-.391.065-.167.092-.313.239-.453.366-.133.123-.284.231-.41.353-.143.138-.222.203-.174.396.036.145.152.252.183.39.06.261-.305.563-.546.563-.077 0-.156-.035-.236-.04-.108-.006-.218 0-.326 0-.272 0-.532-.008-.798.042-.618.117-1.224.034-1.847.115a.651.651 0 0 0-.368.167c-.159.146-.132.168-.088.344.067.264-.022.522-.115.771-.091.245-.222.669-.46.812-.285.17-.5-.04-.76-.154-.226-.1-.586-.319-.693-.003a2.828 2.828 0 0 1-.353.709c-.2.29-.235.511-.523.289-.217-.168-.737-.36-.812-.056-.066.272-.123.547-.226.81-.098.252-.21.493-.467.602l-.353.092a3.45 3.45 0 0 0-.746-.026c-.079.004-.311-.02-.37.035-.071.068-.03.28-.035.375-.014.22-.105.415-.118.636-.012.193-.017.387-.062.578-.027.114-.063.33-.15.416-.132.13-.533.078-.704.066-.26-.019-.372-.06-.548-.235-.241-.24-.543-.525-.892-.59-.538-.1-.928.355-1.288.684-.312.286-.608.298-1.013.298-.132 0-.262-.016-.38.037-.123.055-.172.148-.261.225l-.892.466c-.414.227-.89.358-1.26.663-.157.13-.319.312-.36.516-.048.237.042.482-.017.719-.05.197-.258.186-.347.338-.082.14-.013.43.002.585.018.198.007.41-.232.473-.16.041-.27-.064-.317-.206-.05-.153-.02-.406-.131-.537-.113-.133-.325-.054-.284-.265.038-.195.238-.323-.048-.432-.172-.066-.336-.056-.491-.166a.991.991 0 0 1-.233-.223c-.045-.065-.044-.155-.094-.213-.135-.159-.593-.182-.787-.118-.294.097-.051.298-.039.507.013.217-.193.205-.283.364-.242.425.627.621.842.769.23.158.266.345.383.576.092.183.22.344.244.552.042.346-.142.985.157 1.24.152.13.32.158.436.336.113.173.074.283.122.47.052.206.258.286.431.37.279.137.542.258.833.367.345.129.698.243 1.042.375.138.053.49.152.572.27.072.103 0 .262.069.397.103.199.31.228.454.37.185.184.333.606.263.869-.055.208-.197.374-.304.556-.103.178-.117.381-.23.546-.209.3-.55.436-.317.851.292.52-.444.572-.772.729-.195.093-.392.311-.437.527-.049.232.277.344.454.45.338.204.705.387 1.091.493.286.079.35.002.41.318.037.193-.017.433.066.609.093.2.388.258.594.261.024.452-.06.875.09 1.305.07.2.155.216.349.292.188.074.277.198.296.406.038.4-.132.686.105 1.064.129.206.332.368.483.564.181.237.348.484.53.723.118.154.259.235.352.408.1.187.125.339.166.537.082.398.647.455.996.487.148.014.33.049.478.019.166-.034.14-.071.152-.242.014-.175.053-.306.262-.334.202-.027.541.107.72.205.214.118.427.242.61.401.205.177.422.545.537.789.088.187.079.302.257.454.17.146.375.243.549.38.283.225.638.354.854.648.1.137.167.329.22.493.143.457.274.878.752 1.068.24.095.372.166.611.059.21-.094.36-.135.542.02.238.204.488.448.606.732.076.187.179.332.335.459.149.122.303.278.345.478.051.239-.126.444-.084.678.042.239.286.383.455.531.136.12.302.399.471.459.298.104.226-.38.226-.573 0-.288-.079-.455.26-.427.22.019.537.065.734.175.192.107.299.353.45.507.144.147.301.281.44.438.173.2.32.509.554.643.164.095.337.018.511.052.083.016.057-.035.138.036.06.053.1.166.176.23.044.038.105.072.144.113.115.121.189.225.344.315.12.071.294.119.388.23.261.31.005.484-.132.746-.18.342.002.476.35.426.033.095.098.262.075.363-.022.093-.136.192-.18.283a1.329 1.329 0 0 0-.1.676c.029.27.219.445.284.699.119.47-.018 1.028.03 1.517.016.158.015.344-.058.487-.08.156-.247.238-.366.38-.052.063-.194.361-.291.355-.126-.009-.129-.421-.328-.211-.073.077-.105.379-.144.492-.043.126-.074.365-.195.45-.15.105-.304-.036-.437-.109-.193-.106-.369-.251-.57-.341-.279-.124-.64-.042-.93-.056-.207-.01-.318-.12-.502-.171-.208-.058-.35.143-.51.261-.188.142-.3.306-.274.561.016.168.144.296.157.461.015.193-.1.397-.118.593-.017.188.032.364.048.545.021.245-.065.455-.153.681-.06.156-.083.335-.148.492-.16.387-.72.377-.937.693-.119.173-.131.43-.222.611-.102.205-.354.399-.529.545-.2.168-.442.161-.695.193-.182.023-.374.012-.56.012l-.62.25c-.117.064-.166.037-.287.064-.224.049-.45.178-.676.232-.22.053-.465.065-.646.225-.083.074-.086.203-.142.29-.058.089-.163.199-.233.283-.155.187-.478.314-.71.365-.236.053-.359.014-.516.205-.153.187-.229.337-.422.479-.124.091-.418.259-.472.415-.062.182.005.384-.07.576-.03.08-.042.214-.143.227-.096.013-.114-.128-.222-.066-.267.151.68.93.803 1.047.156.147.252.272.361.449.12.195.15.425.262.61.096.156.254.243.413.327.224.118.457.318.658.47.194.146.26.431.29.668.037.301-.069.673-.135.965-.089.388-.408.66-.511 1.036-.063.226-.01.588.014.821.017.159.077.299.126.454.048.149.075.301.09.456.012.117-.028.352.053.455.096.123.378.066.498-.005.16-.095.212-.331.405-.258.074.028.12.098.17.158.108.126.226.25.333.38.131.16.273.337.357.527.118.265.11.619.069.899-.034.228-.122.31-.248.496-.289.425-.358.755-.214 1.246.116.394.198.747-.03 1.126-.084.14-.37.475-.555.362-.186-.113.003-.299-.3-.201-.248.081-.404.186-.627.062-.165-.093-.353-.191-.454-.356-.096-.157-.21-.446-.21-.635 0-.204.073-.381.051-.589-.405-.013-.688-.076-.965-.371-.297-.317-.352-.485-.063-.858.082-.105.274-.388.18-.52-.032-.044-.181-.077-.236-.124a.642.642 0 0 1-.15-.205c-.11-.213-.15-.351-.404-.388-.266-.039-.551-.014-.822-.014-.323 0-.678-.026-.993.048-.205.048-.3.049-.349.253-.046.194-.048.362-.239.467-.179.1-.395.168-.595.088-.178-.072-.459-.251-.575-.407-.127-.169-.109-.382-.279-.536-.205-.185-.321-.001-.55.066-.3.087-.57.086-.832-.062-.389-.22-.754-.014-1.166.028.06-.221.19-.383.125-.638-.098-.388-.26-.333-.545-.214-.241.102-.41.186-.59.383-.17.187-.107.356.019.551.203.316.362.597.379.981.017.39-.307.507-.663.475-.297-.028-.592-.086-.89-.123-.336-.041-.672.036-1.01.035-.269 0-.536.001-.8-.03-.364-.042-.786-.196-1.155-.08-.177.056-.238.248-.365.359a1.034 1.034 0 0 1-.465.206c-.251.039-.572.014-.828.016-.245.003-.489-.002-.724-.08-.143-.047-.263-.132-.417-.133-.27-.002-.717.175-.916.352-.17.151-.144.385-.126.577.025.267-.033.547-.131.795-.11.278-.377.255-.643.343-.219.072-.38.179-.618.052-.134-.072-.142-.211-.313-.123-.11.056-.222.255-.278.362-.094.18-.068.298-.022.489.067.282-.053.276-.332.327-.41.076-.972-.086-1.16.405-.073.19.022.405-.078.589-.09.168-.301.222-.485.231-.184.009-.445-.011-.61-.091-.17-.083-.158-.214-.175-.379-.025-.256-.005-.426-.297-.328-.232.078-.363.268-.54.41-.204.165-.317.169-.573.131-.31-.046-.626-.009-.937-.036a4.593 4.593 0 0 1-.845-.143c-.264-.075-.285-.288-.352-.542-.064-.239-.25-.408-.307-.639-.036-.146.015-.314-.003-.464-.014-.111-.06-.215-.09-.324-.246-.012-.47.057-.7.142-.269.099-.52.063-.798-.017-.264-.076-.322-.087-.348-.336-.033-.306-.346-.198-.606-.21a4.438 4.438 0 0 1-.653-.069c-.222-.042-.647-.148-.852.003-.131.097-.146.362-.188.503-.057.197-.063.41-.15.6-.144.32-.398.119-.673.044-.295-.08-.679-.196-.8-.542-.114-.323.147-.539.276-.792.317-.621-.497-.611-.863-.339-.24.178-.086.551-.13.864-.032.23-.172.476-.211.704-.03.178.011.81.183.92.102.066.318-.027.446.049a.51.51 0 0 1 .203.261c.247.658-.575 1.002-.805 1.549-.12.287.008.609-.261.814-.145.109-.41.258-.576.339-.446.218-1.114.248-1.589.111-.264-.076-.523-.134-.504-.458.016-.277.342-.506.336-.78-.733-.106-1.153.809-1.822.099-.151-.16-.558-.624-.577-.837-.034-.394.508-.276.75-.291.002-.141-.086-.236-.172-.343-.12-.148-.29-.404-.45-.492-.212-.116-.46-.028-.653-.181a1.103 1.103 0 0 1-.396-.649c-.07-.302-.15-.34-.444-.135-.205.143-.314.278-.577.178-.183-.069-.34-.28-.522-.37-.307-.152-.44-.11-.313-.491.08-.238.2-.396.179-.675-.377-.019-.561.112-.854.342-.242.19-.35.473-.562.669-.33.305-.373-.185-.55-.387-.209-.238-.596-.054-.84-.245-.312-.242-.389-.495-.827-.566-.09-.015-.211.013-.3-.012-.097-.027-.19-.135-.25-.21a1.794 1.794 0 0 1-.284-.487c-.047-.123-.107-.207-.165-.314-.04-.076-.026-.136-.112-.168-.06-.021-.141.01-.2.014-.32.016-.488-.22-.789-.285-.147-.031-.22.024-.356.065-.137.041.542-.565.39-.565-.257-.001-.488-.153-.694-.287-.214-.139-.434-.25-.667-.37-.187-.095-.576-.285-.573-.518.002-.116.076-.198.02-.317-.072-.151-.143-.157-.298-.157-.22 0-.572-.036-.578-.337-.134-.044-.345.01-.465-.071-.095-.064-.041-.121-.082-.207-.027-.057-.113-.111-.167-.147-.205-.137-.458-.397-.7-.438-.21-.036-.613-.008-.458.285.11.206.292.368.501.458.232.1.42.099.605.297.171.183.388.121.602.249.213.128.287.31.347.539.063.239.28.343.38.563.036.081.105.206.071.291-.061.154-.133-.002-.225-.053a.726.726 0 0 0-.383-.081c-.108 0-.248.042-.34.036-.175-.011-.316-.309-.455-.413-.18-.135-.392-.252-.59-.366-.2-.115-.39-.248-.597-.356-.074-.04-.264-.179-.357-.115-.09.061.003.192-.015.284-.192-.075-.304-.238-.534-.208-.19.024-.236.167-.154.336.084.171.295.283.442.393.21.159.038.265-.094.414a1.454 1.454 0 0 1-.57.378c-.316.117-.643.122-.867-.161-.21-.266-.21-.7-.636-.663-.192.017-.358.124-.415.315-.048.158.009.278-.21.296-.197.015-.605-.138-.744-.283-.247-.254-.092-.544-.01-.837.098-.344-.05-.512-.273-.747-.106-.112-.228-.246-.402-.227-.26.027-.132.219-.262.328-.162.137-.251-.095-.314-.205-.09-.16-.185-.379-.401-.403-.138-.015-.356.042-.492.076-.2.05-.241.092-.35.257-.106.161-.193.169-.38.227-.171.054-.255.139-.4.241-.054.039-.126.044-.188.094-.064.053-.116.132-.178.188-.117.105-.26.19-.35.318-.179.254-.211.549-.213.85-.001.323.104.582.456.593.365.012.846-.025 1.154-.248.165-.119.291-.235.488-.323.18-.082.34-.054.54-.009.26.059.904.305.506.647-.135.115-.262.053-.297.268-.02.118.021.33-.099.42-.122.092-.384.014-.532.013-.179-.002-.358.007-.536 0-.292-.011-.448-.029-.7.105-.173.092-.226.161-.348.293-.088.096-.157.122-.29.111-.252-.021-.452-.218-.695-.269-.24-.05-.342.121-.544.21-.216.094-.297-.016-.437-.153-.171-.168-.318-.361-.52-.485-.222-.136-.272-.146-.528-.087-.22.051.06.222-.156.131-.16-.068-.256-.234-.44-.257-.263-.033-.438.146-.645.252-.227.116-.305.202-.397.454-.069.187-.111.435-.319.502-.193.063-.608-.499-.803-.511-.183-.01-.402-.051-.568.049-.133.081-.192.284-.35.322-.176.042-.104-.352-.153-.489-.143-.393-.886-.405-1.23-.405l-.699-.036c-.113.127-.093.445-.182.607-.109.198-.23.136-.427.126a.856.856 0 0 0-.51.123c-.17.092-.338.124-.503-.017-.209-.179-.189-.594-.176-.853-.009 0-.048.001-.053-.002-.09-.05-.363-.004-.465-.019-.201-.03-.32-.065-.351-.278-.03-.201 0-.326-.118-.497a1.006 1.006 0 0 1-.165-.392c-.084-.34-.252-.72-.201-1.078.029-.208.091-.376.083-.592-.007-.181-.075-.35-.07-.528.012-.423.262-.814.262-1.255 0-.361.08-.64.257-.96.075-.137.176-.254.21-.406.03-.135.043-.266.091-.395.066-.177.166-.288.275-.438.482-.659.058-1.118-.463-1.549-.293-.242-.23-.561-.197-.909.043-.431.61-.649.646-1.033.032-.343-.063-.649.057-.974.083-.225.23-.28.432-.397.208-.119.438-.319.593-.509.2-.247.224-.651.31-.946.106-.367.345-.678.44-1.043.094-.361-.15-.62-.122-.959.026-.318.264-.519.384-.803.143-.343.156-.722.265-1.076.1-.331.348-.62.454-.978.17-.577-.108-1.171.279-1.696.126-.171.292-.311.413-.485.155-.224.277-.447.45-.657.21-.255.458-.567.56-.882.078-.245.118-.427.312-.622.166-.169.358-.263.529-.415.158-.141.166-.309.282-.457.158-.2.457-.177.625-.332.131-.122.191-.378.257-.545.148-.378.386-.651.594-.977.1-.159.188-.312.233-.493.05-.197.101-.436.227-.601.097-.126.273-.161.328-.317.06-.174-.117-.31-.24-.399-.288-.209-.75-.119-1.086-.196-.469-.107-.901-.448-1.347-.64-.503-.216-.753-.535-1.117-.912-.118-.123-.285-.281-.48-.209-.2.073-.157.325-.317.435-.188.13-.494-.178-.668-.266-.2-.102-1.534-.287-1.743-.121-.137.108-.184.279-.363.318-.214.047-.563-.11-.75-.196-.175-.08-.335-.184-.506-.28-.544-.305 1.736-.678 1.234-1.062-.207-.159-.09-.258-.17-.45-.06-.147-.308-.18-.454-.227-.112-.037-.255-.064-.345-.152-.106-.104-.06-.122-.073-.231-.02-.172-.066-.341-.28-.368-.137-.017-.39.099-.522.137-.182.052-.3.14-.454.247-.3.209-.617.545-.994.577-.198.016-.397.001-.593.021-.275.028-.658.078-.925 0-.34-.099-.428-.449-.823-.28-.177.077-.427.184-.624.089-.153-.074-.182-.325-.23-.473-.254-.042-.465-.234-.704-.313-.281-.093-.576-.07-.866-.108-.33-.042-.724-.221-1.061-.14-.32.077-.02.294-.09.488-.087.236-.773-.018-.944-.074-.166-.054-.425-.091-.531-.239-.097-.135-.057-.351-.057-.507 0-.222-.027-.357-.161-.536-.045-.059-.102-.158-.17-.193-.06-.03-.155.01-.206-.041-.08-.082-.071-.358-.074-.468-.006-.325-.449-.507-.627-.731-.158-.198-.365-.424-.476-.647-.101-.204.022-.4-.1-.606-.068-.115-.169-.192-.223-.314-.052-.118-.038-.212-.06-.334-.085-.488-.572-.645-.937-.856-.133-.077-.24-.175-.367-.257-.154-.099-.28-.096-.454-.131-.18-.036-.244-.069-.261-.257-.013-.145.003-.297.017-.437.042-.425.028-.858.218-1.26.127-.268.322-.43.551-.61.222-.175.323-.242.312-.518-.02-.53.194-.867.594-1.166.149-.111.503-.338.489-.562-.007-.097-.07-.128-.11-.213-.055-.117-.054-.237-.047-.367.02-.395.069-.785.05-1.18-.242-.007-.473.07-.714.024-.223-.043-.271-.181-.43-.326-.18-.163-.455-.21-.665-.326-.159-.088-.273-.25-.382-.389-.143-.18-.306-.274-.511-.384-.367-.197-.689-.299-.855-.716-.084-.209-.07-.417-.069-.64.002-.297-.18-.304-.429-.46-.095-.058-.229-.191-.304-.048-.313-.15-.452-.243-.4-.61.06-.424-.1-.851-.005-1.29.092-.422.05-.861.147-1.276.063-.266.282-.459.359-.712.059-.194.386-.775.37-.963-.044-.568.372-.81.869-.903.483-.09.416-.648.785-.911.329-.235.798.387.985-.117.164-.445-.107-.845-.262-1.226-.078-.189-.05-.473-.04-.676.015-.25.02-.468-.002-.713-.346.03-.182-.47-.262-.665-.147-.357-.422-.248-.747-.245-.297.004-.567.04-.803-.153-.264-.218-.427-.384-.456-.722-.028-.328-.107-.652.146-.92.139-.146.44-.142.534-.332.09-.182-.08-.342-.226-.419-.323-.17-.782.15-.73-.437.015-.163.96-.71.96-.871-.002-.233-.195-.385-.332-.537-.328-.366-.88-.287-1.238-.58-.314-.257-.208-.623-.261-.976-.039-.25-.1-.392-.296-.558a2.003 2.003 0 0 0-.475-.3c-.122-.055-.24-.09-.294-.228-.147-.377.05-.918.25-1.24.118-.19.279-.343.36-.553.036-.09.167-.385.137-.476-.032-.097-.204-.134-.292-.162-.203-.065-.43-.07-.627-.146-.205-.08-.286-.323-.315-.52-.049-.325-.088-.662-.05-.998.024-.207.252-.525.502-.45.199.061.312.298.559.259.205-.033.261-.245.348-.41.179-.338.453-.344.786-.462.216-.076.44-.169.645-.266.152-.072-.34.3-.26.126.07-.154-.083-.427.028-.58.093-.126.454-.175.596-.243.014-.13.005-.37-.103-.416-.05-.021-.297.04-.38.036-.26-.01-.586.042-.805-.14-.13-.109-.12-.214-.124-.378-.007-.207-.063-.43-.016-.634.09-.394.56-.8.806-1.116.22-.283.495-.47.816-.592.158-.06.38-.183.493-.31.101-.116.127-.272.135-.422.014-.268 0-.365-.21-.512-.099-.07-.336-.155-.366-.275-.033-.125.135-.358.18-.474.063-.167.163-.323.187-.502.027-.204-.036-.403-.036-.607 0-.35 1.033-.515.825-.808-.24-.337-.567-.62-.847-.915-.1-.105-.22-.2-.304-.321-.107-.155-.1-.32-.092-.506.007-.18-.175-.972-.11-1.133.056-.137.25-.373.247-.504-.301-.024-.608-.044-.906-.108-.108-.023-.266-.058-.33-.156-.151-.23.037-.484-.213-.685-.238-.192-.784-.173-.42-.554.122-.127.262-.227.25-.419-.013-.189-.124-.37-.067-.575.097-.347.78-.438 1.075-.453.261-.014.462.003.685.157.14.097.238.199.434.174.158-.02.265-.21.21-.385-.058-.19-.315-.309-.333-.522-.035-.425.545-.508.856-.506.237.002.253.073.331.262.064.154.18.286.266.436.1.174.067.245.292.244.187-.001.381-.052.567-.018.163.029.33.109.484.165.159.058.303.145.471.154.269.014.343.015.354-.265.006-.154-.027-.348.004-.492l2.133-.134c.236-.04.407-.207.637-.287.134-.046.301-.072.444-.09.064-.009.157-.037.223-.015.072.024.104.103.17.135.284.142.65-.15.784-.382.176-.306.24-.612.223-.97-.009-.19.016-.313-.143-.427-.174-.125-.378-.202-.55-.327-.29-.208-.673-.488-.668-.892.007-.47.504-.204.788-.237.28-.032.206-.475.468-.588.284-.122.611-.04.893-.155.08-.032.06-.015.11-.08.055-.07.1-.182.139-.263.062-.131.05-.289.11-.421.057-.124.176-.235.279-.324l.287.092c.064-.138.035-.288.089-.422.056-.14.216-.171.28-.298.073-.141-.021-.345-.029-.496a3.776 3.776 0 0 1 0-.498c.013-.148.439-.297.495-.432.054-.131.113-.27.17-.402.08-.188.126-.38.251-.55.106-.146.188-.193.196-.382.015-.346-.465-.679-.651-.916-.087-.111-.089-.23-.108-.366a.755.755 0 0 0-.146-.378c-.108.031-.142.224-.257.287a1.07 1.07 0 0 1-.408.105c-.335.022-.688-.182-1.018-.223a4.1 4.1 0 0 1-1.012-.272c-.134-.051-.269-.102-.35-.222-.1-.149-.166-.338-.238-.504-.217-.5-.161-1.248.381-1.5.131-.062.32.002.315-.184-.004-.161-.22-.253-.314-.369-.079-.096-.207-.337-.223-.468-.021-.18.18-.369.274-.498.16-.22.325-.244.594-.193.326.062.637.115.977.115.17 0 .369-.043.534-.003.114.029.19.107.287.164.192.113.5-.001.723-.004.22-.002.505.038.592-.206.076-.213.032-.232.026-.451-.006-.212.08-.4.099-.609.012-.142-.01-.263-.024-.395-.03-.286.156-.591.262-.847.134-.325.424-.562.526-.896a.709.709 0 0 0 .01-.35c-.028-.127-.144-.23-.157-.353-.014-.134.07-.335.114-.464.093-.272.258-.518.347-.79.138-.425.316-.816.505-1.222.157-.337.227-.613.212-.99-.013-.323-.08-.642-.092-.966-.011-.323-.008-.567.128-.866.115-.254.31-.451.44-.693.142-.262.306-.48.374-.772.03-.126.057-.25.052-.383-.005-.143-.025-.372-.081-.504-.026-.06-.083-.107-.09-.172-.013-.141.17-.397.236-.524.049-.092.145-.19.132-.302-.01-.09-.114-.206-.167-.276-.133-.177-.134-.478.14-.534.122-.025.204.02.304.075a.843.843 0 0 0 .457.121c.159.006.305.012.444.102.115.075.105.127.118.262.03.01.064.018.09.038.107.083.264.114.275.262.01.125-.067.218.023.341.193.264.361-.14.33-.325-.04-.237-.253-.348-.393-.519a4.391 4.391 0 0 1-.245-.33c-.077-.113-.136-.122-.278-.157-.239-.06-.484-.056-.733-.066-.307-.013-.593-.078-.889-.144-.255-.057-.51-.025-.772-.052a9.53 9.53 0 0 0-.863-.04c-.27-.002-.458-.074-.458-.353 0-.251.015-.507 0-.758-.015-.248-.061-.463.062-.693.064-.122.153-.239.174-.377.017-.121 0-.26 0-.382 0-.283.036-.495.208-.72.052-.068.153-.21.236-.223.164-.026.362.172.537.158.162-.014.427-.282.395-.445-.05-.254-.248-.414-.353-.641-.24-.518.27-.942.612-1.242.42-.37.796-.741 1.36-.861.128-.027.272.005.392-.03.121-.033.208-.155.328-.17.139-.016.372.07.513.108.137.037.216.08.364.076l.797.17c.449.294.812.04 1.276-.058.424-.09.988-.002 1.386-.184.395-.18.658-.478 1.132-.386.292.057.391.111.679.02.285-.091.564-.098.864-.099.31 0 .362.005.44.314.049.195.045.423.142.602.183.34.597.482.876.74.391.36.513.784.53 1.295.008.209.017.435-.031.634-.048.195-.253.35-.256.55"/><path fill="#53A1D8" d="M90.321 39.845c-1.806-1.519-4.596-1.29-6.323.468-1.728-1.759-4.518-1.99-6.324-.468-2.349 1.977-2.005 5.202-.33 6.91l5.48 5.583a1.638 1.638 0 0 0 2.349.003l5.48-5.583c1.67-1.708 2.02-4.933-.332-6.913zm-.737 5.858l-5.48 5.582c-.075.075-.137.075-.212 0l-5.48-5.582c-1.14-1.163-1.372-3.362.228-4.709 1.215-1.021 3.09-.868 4.264.328l1.094 1.116 1.093-1.116c1.181-1.202 3.056-1.35 4.265-.33 1.596 1.346 1.359 3.558.228 4.71z"/></svg>