<?xml version="1.0" encoding="utf-8"?>
<!-- Generator: Adobe Illustrator 24.2.3, SVG Export Plug-In . SVG Version: 6.00 Build 0)  -->
<svg version="1.1" id="Layer_1" xmlns="http://www.w3.org/2000/svg" xmlns:xlink="http://www.w3.org/1999/xlink" x="0px" y="0px"
	 viewBox="0 0 344 34.1" style="enable-background:new 0 0 344 34.1;" xml:space="preserve">
<style type="text/css">
	.st0{fill:#53A1D8;}
	.st1{fill:#FFFFFF;}
	.st2{fill:none;stroke:#FFFFFF;}
</style>
<path class="st0" d="M335.6,0H8.4C3.8,0,0,3.8,0,8.4v25.7h344V8.4C344,3.8,340.2,0,335.6,0z"/>
<g>
	<g>
		<path class="st1" d="M116.9,22.5h-2l0.9-10.8h2.3l1.5,3.9c0.3,0.7,0.5,1.3,0.7,2s0.4,1.1,0.5,1.5l0.1,0.5c0.3-1.1,0.8-2.4,1.4-3.9
			l1.5-3.9h2.3l1.1,10.8h-2l-0.4-4.2l-0.3-3.8c-0.4,1.1-0.8,2.4-1.4,3.8l-1.5,4h-1.4l-1.5-4l-1.3-3.7c0,0.5-0.1,1.8-0.2,3.7
			L116.9,22.5z"/>
		<path class="st1" d="M137.6,13c-0.9-1-2.2-1.5-3.7-1.5s-2.8,0.5-3.7,1.5c-0.9,1-1.4,2.4-1.4,4c0,1.7,0.5,3,1.4,4s2.2,1.5,3.7,1.5
			s2.8-0.5,3.7-1.5s1.4-2.4,1.4-4C139,15.4,138.5,14,137.6,13z M136,19.8c-0.5,0.7-1.2,1-2.1,1c-0.9,0-1.6-0.3-2.1-1
			s-0.8-1.6-0.8-2.7c0-1.1,0.3-2,0.8-2.7s1.2-1,2.1-1c0.9,0,1.6,0.3,2.2,1c0.5,0.7,0.8,1.6,0.8,2.7S136.5,19.1,136,19.8z"/>
		<path class="st1" d="M147.3,19.5c0,1-0.3,1.7-1,2.3s-1.6,0.8-2.7,0.8c-1.2,0-2.2-0.2-3-0.7v-2.1c0.9,0.7,1.9,1,3,1
			c0.5,0,0.9-0.1,1.2-0.4c0.3-0.2,0.4-0.6,0.4-1c0-0.2,0-0.4-0.1-0.5s-0.2-0.3-0.5-0.4c-0.2-0.1-0.4-0.3-0.5-0.3
			c-0.1-0.1-0.4-0.2-0.8-0.4c-0.1-0.1-0.2-0.1-0.2-0.1c-0.4-0.2-0.7-0.3-1-0.5c-0.2-0.1-0.5-0.3-0.8-0.6c-0.3-0.2-0.5-0.5-0.7-0.9
			c-0.1-0.3-0.2-0.7-0.2-1.2c0-0.9,0.3-1.7,1-2.2c0.7-0.6,1.6-0.8,2.7-0.8c1,0,1.9,0.2,2.6,0.5v2c-0.8-0.5-1.7-0.7-2.6-0.7
			c-0.5,0-0.9,0.1-1.2,0.3s-0.4,0.5-0.4,0.9s0.1,0.6,0.4,0.9c0.3,0.2,0.8,0.5,1.4,0.8c0.4,0.2,0.8,0.4,1,0.5
			c0.3,0.1,0.6,0.3,0.9,0.6c0.3,0.3,0.6,0.6,0.7,0.9C147.2,18.6,147.3,19,147.3,19.5z"/>
		<polygon class="st1" points="155.8,13.4 153.1,13.4 153.1,22.5 151.1,22.5 151.1,13.4 148.3,13.4 148.3,11.7 155.8,11.7 		"/>
	</g>
	<g>
		<path class="st1" d="M169,12.7c-0.7-0.7-1.7-1-2.9-1h-3.4v10.8h2v-3.7h1.4c1.1,0,2.1-0.3,2.8-1c0.8-0.7,1.1-1.5,1.1-2.6
			C170.1,14.2,169.7,13.3,169,12.7z M167.5,16.6c-0.4,0.4-0.9,0.5-1.6,0.5h-1.1v-3.8h1.2c0.7,0,1.2,0.2,1.6,0.5
			c0.4,0.3,0.5,0.8,0.5,1.4C168,15.8,167.8,16.3,167.5,16.6z"/>
		<path class="st1" d="M179.9,13c-0.9-1-2.2-1.5-3.7-1.5s-2.8,0.5-3.7,1.5c-0.9,1-1.4,2.4-1.4,4c0,1.7,0.5,3,1.4,4s2.2,1.5,3.7,1.5
			s2.8-0.5,3.7-1.5s1.4-2.4,1.4-4C181.3,15.4,180.9,14,179.9,13z M178.4,19.7c-0.5,0.7-1.2,1-2.1,1c-0.9,0-1.6-0.3-2.1-1
			s-0.8-1.6-0.8-2.7c0-1.1,0.3-2,0.8-2.7s1.2-1,2.1-1c0.9,0,1.6,0.3,2.2,1c0.5,0.7,0.8,1.6,0.8,2.7S178.9,19.1,178.4,19.7z"/>
		<path class="st1" d="M189.4,12.7c-0.7-0.7-1.7-1-2.9-1h-3.4v10.8h2v-3.7h1.4c1.1,0,2.1-0.3,2.8-1c0.8-0.7,1.1-1.5,1.1-2.6
			C190.5,14.2,190.1,13.3,189.4,12.7z M187.9,16.6c-0.4,0.4-0.9,0.5-1.6,0.5h-1.1v-3.8h1.2c0.7,0,1.2,0.2,1.6,0.5
			c0.4,0.3,0.5,0.8,0.5,1.4C188.5,15.8,188.3,16.3,187.9,16.6z"/>
		<path class="st1" d="M200.4,18.3c0,1.4-0.4,2.5-1.1,3.2c-0.7,0.7-1.8,1.1-3.1,1.1s-2.3-0.4-3.1-1.1c-0.8-0.7-1.1-1.8-1.1-3.1v-6.8
			h2v6.7c0,0.8,0.2,1.4,0.6,1.8c0.4,0.4,0.9,0.5,1.6,0.5c1.5,0,2.2-0.8,2.2-2.4v-6.7h2L200.4,18.3L200.4,18.3z"/>
		<polygon class="st1" points="208.8,22.5 202.6,22.5 202.6,11.7 204.6,11.7 204.6,20.7 208.8,20.7 		"/>
		<path class="st1" d="M215.9,11.7h-2.6l-3.6,10.8h2.1l0.8-2.4h4.1l0.8,2.4h2.2L215.9,11.7z M213,18.4l0.1-0.5
			c0.8-2.6,1.3-4.2,1.4-4.7l0.1,0.3c0.1,0.2,0.2,0.7,0.4,1.5s0.5,1.7,0.9,2.9l0.1,0.5H213z"/>
		<path class="st1" d="M226.3,18.2c0.6-0.3,1.1-0.6,1.5-1.2c0.4-0.5,0.5-1.2,0.6-2c0-1-0.4-1.9-1.1-2.5c-0.7-0.6-1.7-0.9-2.9-0.9
			h-3.3v10.8h2v-3.9h1.1l2.4,3.9h2.4L226.3,18.2z M224.4,16.9h-1.3v-3.5h1.3c0.6,0,1.1,0.1,1.4,0.4c0.3,0.3,0.5,0.7,0.5,1.3
			s-0.2,1-0.5,1.3C225.5,16.7,225.1,16.9,224.4,16.9z"/>
	</g>
</g>
<line class="st2" x1="94.9" y1="8.8" x2="94.9" y2="25.6"/>
<line class="st2" x1="249.1" y1="8.8" x2="249.1" y2="25.6"/>
</svg>
