<svg width="20" height="20" viewBox="0 0 20 20" fill="none" xmlns="http://www.w3.org/2000/svg">
<circle cx="10" cy="10" r="10" fill="#FF6363"/>
<path fill-rule="evenodd" clip-rule="evenodd" d="M13.0422 14.3314C13.4328 14.7219 14.0659 14.7219 14.4565 14.3314C14.847 13.9409 14.847 13.3077 14.4565 12.9172L11.628 10.0888L14.242 7.47474C14.6326 7.08421 14.6326 6.45105 14.242 6.06053C13.8515 5.67 13.2184 5.67 12.8278 6.06053L10.2138 8.67454L7.38539 5.84612C6.99487 5.45559 6.3617 5.45559 5.97118 5.84611C5.58065 6.23664 5.58065 6.8698 5.97117 7.26033L8.7996 10.0888L5.75676 13.1316C5.36624 13.5221 5.36624 14.1553 5.75676 14.5458C6.14729 14.9363 6.78045 14.9363 7.17098 14.5458L10.2138 11.503L13.0422 14.3314Z" fill="white"/>
</svg>
