<svg xmlns="http://www.w3.org/2000/svg" fill="none" viewBox="0 0 22 22"><path fill="#6F6DD4" fill-rule="evenodd" d="M8.522 15.826a7.304 7.304 0 1 0 0-14.608 7.304 7.304 0 0 0 0 14.608zm0 1.218A8.522 8.522 0 1 0 8.522 0a8.522 8.522 0 0 0 0 17.044z" clip-rule="evenodd"/><path fill="#6F6DD4" d="M15.113 13.392L22 20.278 20.278 22l-6.886-6.887 1.721-1.721zM6.809 9.6c0 .422-.16.753-.48.995-.32.241-.735.362-1.243.362-.565 0-1.032-.102-1.403-.306v-.76c.401.28.866.42 1.395.42.28 0 .5-.06.663-.178a.598.598 0 0 0 .244-.504.5.5 0 0 0-.144-.348.967.967 0 0 0-.313-.24 8.612 8.612 0 0 0-.503-.228 63.962 63.962 0 0 0-.282-.12l-.26-.128a2.374 2.374 0 0 1-.274-.157 4.235 4.235 0 0 1-.214-.177.838.838 0 0 1-.19-.227 3 3 0 0 1-.107-.263 1.181 1.181 0 0 1-.046-.334c0-.407.158-.728.473-.965.32-.237.732-.355 1.235-.355.463 0 .857.076 1.182.227v.724a2.256 2.256 0 0 0-1.159-.298c-.28 0-.5.06-.663.178a.533.533 0 0 0-.237.454c0 .19.08.34.237.454.157.114.399.237.724.37.214.085.379.158.496.22.122.061.259.149.411.262a.971.971 0 0 1 .344.398c.076.151.114.326.114.525zM10.785 9.6c0 .422-.16.753-.48.995-.32.241-.735.362-1.243.362-.564 0-1.032-.102-1.403-.306v-.76c.402.28.867.42 1.395.42.28 0 .501-.06.664-.178a.598.598 0 0 0 .244-.504.5.5 0 0 0-.145-.348.967.967 0 0 0-.313-.24 8.613 8.613 0 0 0-.503-.228 62.911 62.911 0 0 0-.282-.12l-.26-.128a2.375 2.375 0 0 1-.274-.157 4.235 4.235 0 0 1-.213-.177.838.838 0 0 1-.191-.227 3 3 0 0 1-.107-.263 1.181 1.181 0 0 1-.045-.334c0-.407.157-.728.472-.965.32-.237.732-.355 1.235-.355.463 0 .857.076 1.182.227v.724A2.256 2.256 0 0 0 9.36 6.74c-.28 0-.5.06-.663.178a.533.533 0 0 0-.236.454c0 .19.078.34.236.454.158.114.399.237.724.37.214.085.38.158.496.22.122.061.26.149.412.262a.97.97 0 0 1 .343.398c.076.151.114.326.114.525zM14.609 10.907h-2.89V6.123h.786v4.138h2.104v.646z"/></svg>