<svg xmlns="http://www.w3.org/2000/svg" fill="none" viewBox="0 0 14 15"><path fill="#18212C" d="M14 11.933c0 .179-.033.413-.1.701a3.9 3.9 0 0 1-.209.682c-.138.331-.542.683-1.212 1.054-.623.337-1.24.506-1.85.506-.179 0-.353-.011-.522-.034a4.189 4.189 0 0 1-.571-.125 8.014 8.014 0 0 1-.473-.144 37.777 37.777 0 0 1-.552-.204c-.265-.1-.427-.159-.487-.179a8.93 8.93 0 0 1-1.74-.825c-.848-.525-1.725-1.239-2.63-2.143-.904-.905-1.618-1.782-2.143-2.63a9.01 9.01 0 0 1-.825-1.74c-.02-.06-.08-.222-.179-.487-.1-.266-.167-.449-.204-.552a7.728 7.728 0 0 1-.144-.473 4.181 4.181 0 0 1-.125-.571A3.883 3.883 0 0 1 0 4.247c0-.61.169-1.225.507-1.85.372-.67.723-1.074 1.054-1.212.166-.073.393-.143.682-.209.288-.066.521-.1.701-.1a.55.55 0 0 1 .209.03c.12.04.294.291.527.756.073.125.173.304.299.537.125.231.241.443.348.631.106.189.209.366.309.532l.174.248c.096.139.167.257.214.353.046.096.07.19.07.283 0 .133-.094.299-.283.497a4.8 4.8 0 0 1-.617.547 6.17 6.17 0 0 0-.617.527c-.188.186-.283.339-.283.458 0 .06.017.134.05.224s.062.157.085.204c.022.046.07.126.138.239l.114.188c.505.909 1.08 1.687 1.73 2.337.65.65 1.429 1.226 2.338 1.73l.188.115c.113.07.193.115.239.138.045.023.114.052.204.085.09.032.164.05.224.05.12 0 .272-.095.457-.283.186-.189.362-.395.528-.617.165-.222.348-.428.547-.618.198-.19.364-.282.497-.282.093 0 .187.022.283.07.095.045.214.117.353.214l.248.174c.166.1.343.203.532.309.188.105.4.221.631.348.231.126.411.226.537.299.464.231.716.407.756.527a.613.613 0 0 1 .027.207z"/></svg>