<svg xmlns="http://www.w3.org/2000/svg" fill="none" viewBox="0 0 20 20"><path fill="#6F6DD4" d="M20 15h-5v5h5v-5z"/><path fill="#6F6DD4" fill-rule="evenodd" d="M11.25 16.25h-2.5v2.5h2.5v-2.5zM12.5 15v5h-5v-5h5zM3.75 16.25h-2.5v2.5h2.5v-2.5zM5 15v5H0v-5h5zM3.75 8.75h-2.5v2.5h2.5v-2.5zM5 7.5v5H0v-5h5zM3.75 1.25h-2.5v2.5h2.5v-2.5zM5 0v5H0V0h5zM11.25 1.25h-2.5v2.5h2.5v-2.5zM12.5 0v5h-5V0h5zM11.25 8.75h-2.5v2.5h2.5v-2.5zM12.5 7.5v5h-5v-5h5zM18.75 8.75h-2.5v2.5h2.5v-2.5zM20 7.5v5h-5v-5h5zM18.75 1.25h-2.5v2.5h2.5v-2.5zM20 0v5h-5V0h5z" clip-rule="evenodd"/></svg>