<svg xmlns="http://www.w3.org/2000/svg" fill="none" viewBox="0 0 100 21"><path fill="#A5A5A5" d="M25.611 9.568V4.605h.758v.753c.193-.352.37-.584.532-.697a.945.945 0 0 1 .543-.168c.283 0 .571.09.864.271l-.29.78a1.204 1.204 0 0 0-.617-.182.794.794 0 0 0-.495.169.886.886 0 0 0-.313.458c-.093.299-.14.626-.14.981v2.598h-.841zm6.595-1.598l.869.108c-.137.507-.391.902-.762 1.182-.37.28-.844.42-1.42.42-.727 0-1.303-.222-1.73-.668-.424-.448-.635-1.076-.635-1.883 0-.835.215-1.483.645-1.944.43-.461.987-.692 1.673-.692.663 0 1.205.226 1.626.678.42.452.63 1.087.63 1.906 0 .05 0 .125-.004.225h-3.701c.031.545.185.963.463 1.252.277.29.623.435 1.037.435.309 0 .572-.081.79-.243.218-.162.39-.42.519-.776zm-2.762-1.36h2.77c-.036-.417-.142-.73-.317-.94a1.29 1.29 0 0 0-1.042-.485c-.386 0-.712.13-.977.388-.261.258-.406.604-.434 1.037zm9.687.556l.907.23c-.19.744-.533 1.312-1.028 1.705-.492.39-1.095.584-1.809.584-.738 0-1.34-.15-1.804-.448-.46-.303-.813-.739-1.056-1.309a4.687 4.687 0 0 1-.36-1.837c0-.713.136-1.335.407-1.864a2.802 2.802 0 0 1 1.164-1.21 3.398 3.398 0 0 1 1.663-.417c.686 0 1.262.175 1.73.524.467.349.792.84.976 1.472l-.892.21c-.16-.498-.39-.861-.692-1.089-.302-.227-.682-.34-1.14-.34-.527 0-.968.125-1.323.378-.352.252-.6.592-.743 1.019a4.071 4.071 0 0 0-.215 1.313c0 .582.084 1.092.252 1.528.172.433.437.757.795.972.358.215.746.322 1.163.322.508 0 .938-.146 1.29-.439.352-.293.59-.727.715-1.304zm1.276 2.402l2.631-6.85h.977l2.804 6.85h-1.033l-.799-2.075h-2.865l-.752 2.075h-.963zm1.977-2.813h2.323l-.715-1.897c-.218-.577-.38-1.05-.486-1.421-.088.44-.21.875-.37 1.309l-.752 2.009zm5.16 2.813v-6.85h2.584c.455 0 .802.021 1.042.065.336.056.618.163.846.322.227.156.41.376.546.66.14.283.21.594.21.934 0 .582-.185 1.076-.555 1.481-.371.402-1.041.603-2.01.603H48.45v2.785h-.907zm.906-3.593h1.771c.586 0 1.002-.11 1.248-.328.246-.218.37-.525.37-.92 0-.287-.074-.531-.22-.734a1.002 1.002 0 0 0-.57-.406c-.153-.041-.435-.061-.847-.061H48.45v2.449zm7.22 3.593V3.526h-2.257v-.809h5.43v.809h-2.266v6.042h-.907zm8.996-2.402l.907.23c-.19.744-.533 1.312-1.028 1.705-.493.39-1.095.584-1.809.584-.738 0-1.34-.15-1.804-.448-.46-.303-.813-.739-1.056-1.309a4.687 4.687 0 0 1-.36-1.837c0-.713.136-1.335.407-1.864a2.802 2.802 0 0 1 1.163-1.21A3.398 3.398 0 0 1 62.75 2.6c.686 0 1.262.175 1.73.524.467.349.792.84.976 1.472l-.892.21c-.16-.498-.39-.861-.692-1.089-.302-.227-.682-.34-1.14-.34-.527 0-.968.125-1.323.378-.352.252-.6.592-.743 1.019a4.071 4.071 0 0 0-.215 1.313c0 .582.084 1.092.252 1.528.172.433.436.757.795.972.358.215.746.322 1.163.322.508 0 .938-.146 1.29-.439.352-.293.59-.727.715-1.304zm2.056 2.402v-6.85h.907V5.53h3.561V2.717h.907v6.851h-.907V6.34h-3.56v3.23h-.907zm6.137 0l2.63-6.85h.977l2.804 6.85h-1.032l-.8-2.075h-2.864l-.753 2.075h-.962zm1.976-2.813h2.323l-.715-1.897c-.218-.577-.38-1.05-.486-1.421a8.74 8.74 0 0 1-.37 1.309l-.752 2.009zM25.618 19.125v-5.83h2.2c.387 0 .683.018.887.055.286.048.526.14.72.274a1.4 1.4 0 0 1 .465.561c.12.242.179.507.179.796 0 .495-.158.916-.473 1.26-.316.343-.886.514-1.71.514H26.39v2.37h-.772zm.772-3.058h1.507c.499 0 .853-.093 1.062-.279.21-.186.314-.447.314-.784 0-.243-.062-.451-.186-.624a.853.853 0 0 0-.486-.346c-.13-.034-.37-.052-.72-.052H26.39v2.085zm4.562 3.058v-4.224h.644v.64c.165-.3.316-.497.454-.592a.804.804 0 0 1 .461-.143c.241 0 .487.077.736.23l-.247.665a1.024 1.024 0 0 0-.525-.155.676.676 0 0 0-.421.143.755.755 0 0 0-.267.39 2.79 2.79 0 0 0-.12.835v2.211h-.715zm2.724-5.007v-.824h.716v.824h-.716zm0 5.007v-4.224h.716v4.224h-.716zm2.983 0l-1.606-4.224h.755l.907 2.53c.098.273.188.556.27.85.064-.222.153-.49.267-.803l.939-2.577h.735l-1.599 4.224h-.668zm5.656-.521a2.658 2.658 0 0 1-.768.477c-.244.093-.506.14-.787.14-.464 0-.82-.113-1.07-.339a1.128 1.128 0 0 1-.374-.87 1.19 1.19 0 0 1 .51-.978c.153-.104.325-.183.516-.236.14-.037.353-.073.637-.107.578-.069 1.003-.151 1.276-.247l.004-.187c0-.291-.067-.497-.203-.616-.182-.162-.454-.243-.815-.243-.337 0-.586.06-.748.18-.159.116-.277.324-.354.624l-.7-.096c.064-.3.169-.54.315-.724.146-.185.356-.327.632-.425.276-.1.595-.151.958-.151.361 0 .654.042.88.127.225.085.39.192.497.322.106.127.18.29.222.485.024.122.036.342.036.66v.955c0 .666.015 1.087.044 1.265.032.175.093.343.183.505h-.748a1.517 1.517 0 0 1-.143-.521zm-.06-1.599c-.26.106-.65.196-1.169.27-.294.043-.502.09-.624.144a.618.618 0 0 0-.382.572c0 .191.071.35.215.478.145.127.358.19.636.19.276 0 .52-.059.736-.178.215-.122.372-.288.473-.498.077-.161.115-.4.115-.715v-.263zm4.594.573l.704.091c-.077.485-.274.866-.593 1.142-.315.273-.703.41-1.165.41-.578 0-1.043-.189-1.396-.565-.35-.38-.525-.922-.525-1.627 0-.456.076-.855.227-1.197.15-.342.38-.598.688-.768.31-.172.647-.258 1.01-.258.459 0 .834.116 1.126.35.291.23.478.56.56.986l-.696.107c-.066-.283-.184-.497-.354-.64a.903.903 0 0 0-.608-.215c-.36 0-.654.13-.88.39-.224.257-.337.666-.337 1.225 0 .567.109.98.326 1.237.217.257.501.386.851.386.281 0 .516-.086.704-.259.188-.172.308-.437.358-.795zm1.285 3.174l-.08-.672c.157.042.293.063.41.063a.786.786 0 0 0 .382-.08.65.65 0 0 0 .234-.222c.045-.072.118-.25.22-.533.012-.04.034-.098.063-.175l-1.603-4.232h.772l.878 2.446c.115.31.217.636.307.979.082-.33.18-.65.294-.963l.903-2.462h.716l-1.607 4.296c-.172.464-.306.783-.402.958-.127.236-.273.408-.437.517-.165.111-.36.167-.589.167-.138 0-.292-.029-.461-.087zm6.093-3.377v-.72h2.2v.72h-2.2zm6.682 1.75v-5.143h-1.921v-.688h4.621v.688H61.68v5.143h-.771zm5.389-1.36l.74.091c-.117.432-.333.768-.649 1.006-.315.24-.718.359-1.209.359-.618 0-1.108-.19-1.471-.57-.36-.381-.541-.915-.541-1.602 0-.71.183-1.262.549-1.655.366-.392.84-.588 1.424-.588.564 0 1.026.192 1.384.576.358.385.537.926.537 1.623l-.004.191h-3.15c.026.464.157.82.393 1.066.236.247.53.37.883.37.263 0 .487-.07.672-.207.186-.138.333-.358.442-.66zm-2.35-1.158h2.358c-.032-.355-.122-.621-.27-.799a1.097 1.097 0 0 0-.888-.414c-.328 0-.605.11-.83.33-.224.22-.347.515-.37.883zm3.985 2.518v-4.224h.644v.64c.164-.3.316-.497.453-.592a.804.804 0 0 1 .462-.143c.241 0 .486.077.736.23l-.247.665a1.024 1.024 0 0 0-.525-.155.676.676 0 0 0-.422.143.755.755 0 0 0-.266.39 2.79 2.79 0 0 0-.12.835v2.211h-.715zm2.72 0v-4.224h.64v.593c.133-.207.31-.373.53-.497.22-.128.47-.191.751-.191.313 0 .569.065.768.195.201.13.343.311.425.545.334-.494.77-.74 1.305-.74.419 0 .74.116.966.35.226.23.338.587.338 1.07v2.899h-.712v-2.66c0-.287-.023-.493-.071-.617a.588.588 0 0 0-.25-.307.789.789 0 0 0-.43-.115c-.297 0-.544.1-.74.298-.196.197-.294.512-.294.947v2.454h-.716v-2.744c0-.319-.059-.557-.175-.716-.117-.16-.308-.239-.573-.239a1.05 1.05 0 0 0-.56.16.906.906 0 0 0-.37.465c-.078.204-.116.498-.116.883v2.191h-.716zm6.499-1.26l.708-.112c.04.284.15.501.33.652.183.151.438.227.764.227.328 0 .572-.067.731-.199.16-.135.24-.293.24-.473 0-.162-.071-.29-.212-.382-.098-.064-.342-.145-.731-.243-.525-.132-.89-.246-1.094-.342a1.09 1.09 0 0 1-.462-.401 1.084 1.084 0 0 1-.155-.57c0-.187.043-.361.127-.52.088-.162.206-.296.355-.402.11-.082.262-.151.453-.207.194-.058.4-.087.62-.087.332 0 .622.047.871.143.252.095.438.225.557.39.12.161.202.379.247.652l-.7.095a.762.762 0 0 0-.279-.509c-.15-.122-.366-.183-.644-.183-.329 0-.563.055-.704.163-.14.11-.21.236-.21.382 0 .093.029.177.087.25.058.078.15.141.274.192.072.026.283.087.633.183.506.135.859.246 1.058.334.201.085.359.21.473.374.114.164.17.368.17.612 0 .239-.07.464-.21.676-.138.21-.338.373-.6.49-.263.113-.56.17-.891.17-.55 0-.968-.114-1.257-.342-.287-.228-.47-.566-.55-1.014z"/><g filter="url(#filter0_d)"><path fill="#000" d="M10.675 2c4.36 0 6.657 2.967 6.887 3.281l1.666-1.708.094 7.287-7.148-.059 2.307-2.363c-.206-.301-1.358-1.827-3.68-2.056a4.166 4.166 0 0 0-2.153.378L6.075 3.23a9.084 9.084 0 0 1 4.6-1.23z"/></g><path fill="#2B4CB9" d="M10.675 2c4.36 0 6.657 2.967 6.887 3.281l1.666-1.708.094 7.287-7.148-.059 2.307-2.363c-.206-.301-1.358-1.827-3.68-2.056a4.166 4.166 0 0 0-2.153.378L6.075 3.23a9.084 9.084 0 0 1 4.6-1.23z"/><g filter="url(#filter1_d)"><path fill="#000" d="M10.24 2.024l-.06 7.148-2.336-2.28c-.264.177-1.837 1.328-2.07 3.688a4.056 4.056 0 0 0 .199 1.698l-4.426.13a9.312 9.312 0 0 1-.155-1.702c0-4.432 3.067-6.732 3.294-6.896L2.952 2.118l7.287-.094z"/></g><path fill="#5A96F6" d="M10.24 2.024l-.06 7.148-2.336-2.28c-.264.177-1.837 1.328-2.07 3.688a4.056 4.056 0 0 0 .199 1.698l-4.426.13a9.312 9.312 0 0 1-.155-1.702c0-4.432 3.067-6.732 3.294-6.896L2.952 2.118l7.287-.094z"/><g filter="url(#filter2_d)"><path fill="#000" d="M1.414 11.14l7.148.059-2.307 2.363c.206.301 1.358 1.827 3.68 2.056 2.577.255 4.325-2.1 4.325-2.1l2.827 3.21S14.665 20 10.061 20c-4.36 0-6.657-2.967-6.887-3.28l-1.666 1.707-.094-7.287z"/></g><path fill="#BEBEBE" d="M1.414 11.14l7.148.059-2.307 2.363c.206.301 1.358 1.827 3.68 2.056 2.577.255 4.325-2.1 4.325-2.1l2.827 3.21S14.665 20 10.061 20c-4.36 0-6.657-2.967-6.887-3.28l-1.666 1.707-.094-7.287z"/><defs><filter id="filter0_d" width="15.247" height="10.86" x="5.075" y="1" color-interpolation-filters="sRGB" filterUnits="userSpaceOnUse"><feFlood flood-opacity="0" result="BackgroundImageFix"/><feColorMatrix in="SourceAlpha" values="0 0 0 0 0 0 0 0 0 0 0 0 0 0 0 0 0 0 127 0"/><feOffset/><feGaussianBlur stdDeviation=".5"/><feColorMatrix values="0 0 0 0 0 0 0 0 0 0 0 0 0 0 0 0 0 0 0.5 0"/><feBlend in2="BackgroundImageFix" result="effect1_dropShadow"/><feBlend in="SourceGraphic" in2="effect1_dropShadow" result="shape"/></filter><filter id="filter1_d" width="10.847" height="12.384" x=".392" y="1.024" color-interpolation-filters="sRGB" filterUnits="userSpaceOnUse"><feFlood flood-opacity="0" result="BackgroundImageFix"/><feColorMatrix in="SourceAlpha" values="0 0 0 0 0 0 0 0 0 0 0 0 0 0 0 0 0 0 127 0"/><feOffset/><feGaussianBlur stdDeviation=".5"/><feColorMatrix values="0 0 0 0 0 0 0 0 0 0 0 0 0 0 0 0 0 0 0.5 0"/><feBlend in2="BackgroundImageFix" result="effect1_dropShadow"/><feBlend in="SourceGraphic" in2="effect1_dropShadow" result="shape"/></filter><filter id="filter2_d" width="17.673" height="10.86" x=".414" y="10.14" color-interpolation-filters="sRGB" filterUnits="userSpaceOnUse"><feFlood flood-opacity="0" result="BackgroundImageFix"/><feColorMatrix in="SourceAlpha" values="0 0 0 0 0 0 0 0 0 0 0 0 0 0 0 0 0 0 127 0"/><feOffset/><feGaussianBlur stdDeviation=".5"/><feColorMatrix values="0 0 0 0 0 0 0 0 0 0 0 0 0 0 0 0 0 0 0.382529 0"/><feBlend in2="BackgroundImageFix" result="effect1_dropShadow"/><feBlend in="SourceGraphic" in2="effect1_dropShadow" result="shape"/></filter></defs></svg>