<?xml version="1.0" encoding="utf-8"?>
<!-- Generator: Adobe Illustrator 24.2.3, SVG Export Plug-In . SVG Version: 6.00 Build 0)  -->
<svg version="1.1" id="Layer_1" xmlns="http://www.w3.org/2000/svg" xmlns:xlink="http://www.w3.org/1999/xlink" x="0px" y="0px"
	 viewBox="0 0 181 200" style="enable-background:new 0 0 181 200;" xml:space="preserve">
<style type="text/css">
	.st0{fill:#FFFFFF;}
</style>
<g>
	<g>
		<path class="st0" d="M76.1,139l-21.6-23.6l0.7-2c0.4-1.2,10.6-31,38.5-68.2c28.5-38,80.5-44.4,82.7-44.6l3.7-0.4l0.3,3.7
			c0.1,1.4,2.7,34.7-23.7,73.3c-26.3,38.4-76.2,60-78.3,60.9L76.1,139z M62.8,113.6L78,130.2c10.1-4.8,50.9-25.2,72.8-57.3
			c19.8-28.9,22.3-55,22.5-64.6c-12.5,2.3-51.5,11.5-73.7,41.1C76.4,80.3,65.6,106.4,62.8,113.6z"/>
	</g>
	<g>
		<path class="st0" d="M60.3,119.4l-24.3-12.7l-22.8,5.9l13.6-39.3l56.4-1L60.3,119.4z M36.8,99L57,109.5l14.5-29.7L32,80.5
			l-7.5,21.7L36.8,99z"/>
	</g>
	<g>
		<path class="st0" d="M78.3,185.4l6.1-26.4l-12.1-25.9l44-25l-1.6,62.9L78.3,185.4z M81.8,136.1l10.3,22.1l-3.6,15.3l19-7.5
			l1.2-45.2L81.8,136.1z"/>
	</g>
	<g>
		<path class="st0" d="M53.6,144.4c-0.9,0-1.8-0.3-2.5-1c-1.5-1.4-1.6-3.7-0.2-5.1l35.6-38.7c1.4-1.5,3.7-1.6,5.1-0.2
			c1.5,1.4,1.6,3.7,0.2,5.1l-35.6,38.7C55.6,144,54.6,144.4,53.6,144.4z"/>
	</g>
	<g>
		<path class="st0" d="M4.4,200c-0.7,0-1.5-0.2-2.2-0.8c-2.6-1.8-1.9-4.2-0.2-10.5c1.5-5.7,4.1-15.3,7-30.9
			c6.8-36.9,38-35.1,38.3-35.1c2,0.1,3.5,1.9,3.4,3.9c-0.1,2-2,3.6-3.9,3.4c-1-0.1-25.1-1.1-30.7,29.2c-2.8,15-5.3,24.5-6.9,30.5
			c3.2-1.4,6.5-2,10.4-2.6c6.2-1,14-2.3,25.9-7.3c19.6-8.1,18-29.3,17.9-30.2c-0.2-2,1.3-3.8,3.3-3.9c2-0.2,3.8,1.3,4,3.3
			c0,0.3,2.3,27.4-22.4,37.6c-12.7,5.3-21.3,6.7-27.5,7.7c-4.8,0.8-8,1.3-10.8,3.2C7.9,198.8,6.1,200,4.4,200z"/>
	</g>
	<g>
		<path class="st0" d="M116.1,90.1c-9.7,0-17.6-7.9-17.6-17.6S106.4,55,116.1,55s17.6,7.9,17.6,17.6S125.8,90.1,116.1,90.1z
			 M116.1,62.2c-5.7,0-10.3,4.6-10.3,10.3c0,5.7,4.6,10.3,10.3,10.3c5.7,0,10.3-4.6,10.3-10.3C126.4,66.8,121.8,62.2,116.1,62.2z"/>
	</g>
</g>
</svg>
