<svg width="28" height="28" viewBox="0 0 28 28" fill="none" xmlns="http://www.w3.org/2000/svg">
<path fill-rule="evenodd" clip-rule="evenodd" d="M6 0C2.68628 0 0 2.68628 0 6V22C0 25.3137 2.68628 28 6 28H22C25.3137 28 28 25.3137 28 22V6C28 2.68628 25.3137 0 22 0H6ZM6.26016 20.7498H9.52548V10.2344H6.26016V20.7498ZM6 6.89111C6 7.9353 6.84692 8.80005 7.89105 8.80005C8.93484 8.80005 9.7821 7.9353 9.7821 6.89111C9.7821 6.3894 9.58289 5.90845 9.22824 5.55396C8.8736 5.19922 8.39261 5 7.89105 5C7.38953 5 6.90851 5.19922 6.55386 5.55396C6.19925 5.90845 6 6.3894 6 6.89111ZM18.4882 20.7498H21.7465H21.75V14.9734C21.75 12.147 21.1425 9.9707 17.8378 9.9707C16.2491 9.9707 15.1842 10.8425 14.7483 11.6687H14.7026V10.2344H11.5709V20.7498H14.8326V15.543C14.8326 14.1719 15.0928 12.8464 16.7905 12.8464C18.4636 12.8464 18.4882 14.4109 18.4882 15.6309V20.7498Z" fill="#3C4147"/>
</svg>
