<svg width="28" height="28" viewBox="0 0 28 28" fill="none" xmlns="http://www.w3.org/2000/svg">
<path fill-rule="evenodd" clip-rule="evenodd" d="M6 0C2.68628 0 0 2.68628 0 6V22C0 25.3137 2.68628 28 6 28H22C25.3137 28 28 25.3137 28 22V6C28 2.68628 25.3137 0 22 0H6ZM18.5087 11.8674L18.0088 15.125H15.383V23H11.8614V15.125H9V11.8674H11.8614V9.38477C11.8614 6.5603 13.5439 5 16.1181 5C17.351 5 18.6405 5.21997 18.6405 5.21997V7.99365H17.2195C15.8196 7.99365 15.383 8.8623 15.383 9.75342V11.8674H18.5087Z" fill="#3C4147"/>
</svg>
