<svg width="28" height="28" viewBox="0 0 28 28" fill="none" xmlns="http://www.w3.org/2000/svg">
<path fill-rule="evenodd" clip-rule="evenodd" d="M6 0C2.68628 0 0 2.68628 0 6V22C0 25.3137 2.68628 28 6 28H22C25.3137 28 28 25.3137 28 22V6C28 2.68628 25.3137 0 22 0H6ZM22.1575 10.7964C22.1559 10.7454 22.1534 10.6943 22.1497 10.6433C22.8693 10.1179 23.4975 9.46704 23.9999 8.73608C23.3375 9.02148 22.618 9.22729 21.8756 9.30713C22.6408 8.85034 23.2233 8.13062 23.4974 7.27417C22.7892 7.69678 21.9898 8.00513 21.156 8.16504C20.4821 7.44531 19.5228 7 18.4606 7C16.4162 7 14.7715 8.65601 14.7715 10.689C14.7715 10.9746 14.8058 11.26 14.8629 11.5342C11.802 11.3743 9.0723 9.91235 7.25632 7.67383C6.93649 8.22217 6.75378 8.85034 6.75378 9.5354C6.75378 10.8147 7.40479 11.9453 8.39844 12.6079C7.79315 12.585 7.22205 12.4138 6.73093 12.1396V12.1853C6.73093 13.9785 7.99875 15.4631 9.68909 15.8059C9.54214 15.844 9.39001 15.8743 9.2352 15.8955C9.06509 15.9189 8.89169 15.9314 8.71829 15.9314C8.47842 15.9314 8.25 15.9087 8.02155 15.8743C8.48984 17.3362 9.84897 18.3984 11.4708 18.4329C10.203 19.4265 8.61545 20.0088 6.89087 20.0088C6.58246 20.0088 6.29697 19.9976 6 19.9631C7.63324 21.0139 9.57486 21.6194 11.665 21.6194C18.4492 21.6194 22.1612 16 22.1612 11.123C22.1612 11.0142 22.1612 10.9053 22.1575 10.7964Z" fill="#3C4147"/>
</svg>
