<svg xmlns="http://www.w3.org/2000/svg" fill-rule="evenodd" clip-rule="evenodd" viewBox="0 0 1453 626"><path fill="url(#_Linear1)" fill-rule="nonzero" d="M137.5 267.076C66.7 263.877 19.5 300.57 2 338.563V666h1440V204.088c-56.83-63.321-96.5-161.969-271-157.97C996.5 50.117 1009 148.5 838 278c-141.128 106.878-328.438 139.013-482 98-80.5-21.5-130-104.925-218.5-108.924z" transform="translate(4.185 -40.2)"/><path fill="#fff" fill-opacity=".3" d="M31.185 231.8h131v394h-131zM182.185 231.8h131v394h-131zM333.185 325.8h131v300h-131zM484.185 353.8h131v272h-131zM635.185 283.8h131v342h-131zM786.185 231.8h131v394h-131zM937.185 95.8h131v530h-131zM1088.185 5.8h131v620h-131zM1239.185 58.8h131v567h-131zM1390.185 95.8h56v530h-56z"/><path fill="none" stroke="#53a1d8" stroke-width="3" d="M6.185 299.3c17.5-38 64.7-75.2 135.5-72 88.5 4 127.56 71.869 204.5 103 86.5 35 312.5 51.5 521.5-111 117-90.968 133-209 307.5-213s214.17 96.168 271 159.5"/><defs><linearGradient id="_Linear1" x1="0" x2="1" y1="0" y2="0" gradientTransform="matrix(0 620 -620 0 722 46)" gradientUnits="userSpaceOnUse"><stop offset="0" stop-color="#559bd0" stop-opacity=".3"/><stop offset="1" stop-color="#fff" stop-opacity=".3"/></linearGradient></defs></svg>