<?xml version="1.0" encoding="utf-8"?>
<!-- Generator: Adobe Illustrator 24.2.3, SVG Export Plug-In . SVG Version: 6.00 Build 0)  -->
<svg version="1.1" id="Layer_1" xmlns="http://www.w3.org/2000/svg" xmlns:xlink="http://www.w3.org/1999/xlink" x="0px" y="0px"
	 viewBox="0 0 399 200" style="enable-background:new 0 0 399 200;" xml:space="preserve">
<style type="text/css">
	.st0{fill:#FFFFFF;}
</style>
<g>
	<g>
		<path class="st0" d="M170.7,194.1c2.7-8.1,6.5-15.2,10.6-21.9c4.1-6.8,8.6-13,13.5-19c9.5-12.2,22.7-20.6,34.3-30.6
			c11.6-10.1,23.4-19.9,35.3-29.7c12.1-9.6,23.9-19.4,36.2-28.8c0.6-0.4,1.4-0.3,1.9,0.3c0.4,0.5,0.4,1.1,0,1.6
			c-9.3,12.3-19.2,24.1-28.8,36.2c-9.7,11.9-19.6,23.7-29.7,35.3c-10,11.6-18.4,24.9-30.6,34.3c-6,4.9-12.2,9.4-19,13.5
			c-6.7,4.1-13.8,7.9-21.9,10.6c-0.8,0.3-1.6-0.2-1.9-0.9C170.6,194.7,170.6,194.4,170.7,194.1z"/>
	</g>
	<g>
		<g>
			<path class="st0" d="M199.1,9.1c99.2,0,182.9,77.4,190.6,176.2c0.2,2.2-0.9,3.7-1.5,4.4c-0.7,0.7-2.1,1.9-4.4,1.9H14.3
				c-2.2,0-3.7-1.2-4.4-1.9c-0.6-0.7-1.7-2.2-1.5-4.4C16.1,86.5,99.9,9.1,199.1,9.1 M199.1,0.3C93.9,0.3,7.7,81.5-0.3,184.6
				c-0.7,8.5,6.1,15.7,14.6,15.7h369.5c8.5,0,15.3-7.3,14.6-15.7C390.4,81.5,304.2,0.3,199.1,0.3L199.1,0.3z"/>
		</g>
		<g>
			<path class="st0" d="M71.3,134.9c-0.5,0-0.9-0.1-1.4-0.2l-45.7-15.3c-2.3-0.8-3.5-3.3-2.8-5.6c0.8-2.3,3.3-3.5,5.6-2.8l45.7,15.3
				c2.3,0.8,3.5,3.3,2.8,5.6C74.9,133.7,73.2,134.9,71.3,134.9z"/>
		</g>
		<g>
			<path class="st0" d="M326.9,134.9c-1.8,0-3.5-1.2-4.2-3c-0.8-2.3,0.5-4.8,2.8-5.6l45.7-15.3c2.3-0.8,4.8,0.5,5.6,2.8
				c0.8,2.3-0.5,4.8-2.8,5.6l-45.7,15.3C327.8,134.8,327.3,134.9,326.9,134.9z"/>
		</g>
		<g>
			<path class="st0" d="M199.1,58.8c-2.4,0-4.4-2-4.4-4.4V7.9c0-2.4,2-4.4,4.4-4.4c2.4,0,4.4,2,4.4,4.4v46.5
				C203.5,56.9,201.5,58.8,199.1,58.8z"/>
		</g>
	</g>
</g>
</svg>
