<svg xmlns="http://www.w3.org/2000/svg" fill="none" viewBox="0 0 115 19"><path fill="#559BD0" stroke="#53A1D8" d="M10.41 2.09l1.887 5.811h6.11l-4.943 3.592 1.888 5.81-4.943-3.591-4.943 3.591 1.888-5.81L2.412 7.9h6.11l1.887-5.81zM33.955 2.09l1.888 5.811h6.109l-4.943 3.592 1.888 5.81-4.942-3.591-4.943 3.591 1.888-5.81L25.957 7.9h6.11l1.888-5.81zM57.5 2.09l1.888 5.811h6.11l-4.943 3.592 1.888 5.81-4.943-3.591-4.943 3.591 1.888-5.81L49.502 7.9h6.11l1.888-5.81zM81.045 2.09l1.888 5.811h6.11L84.1 11.493l1.888 5.81-4.943-3.591-4.942 3.591 1.888-5.81L73.047 7.9h6.11l1.887-5.81zM104.591 2.09l1.888 5.811h6.109l-4.942 3.592 1.887 5.81-4.942-3.591-4.943 3.591 1.888-5.81L96.593 7.9h6.11l1.888-5.81z"/></svg>