<svg xmlns="http://www.w3.org/2000/svg" fill="none" viewBox="0 0 95 95"><circle cx="47.5" cy="47.5" r="47.5" fill="#53A1D8"/><path fill="#fff" d="M27.827 44H25.81l.864-10.784h2.304l1.472 3.92c.256.661.496 1.323.72 1.984.224.65.384 1.136.48 1.456l.144.496c.33-1.11.79-2.421 1.376-3.936l1.504-3.92h2.304L38.035 44h-2.016l-.384-4.208-.288-3.776a174.54 174.54 0 0 1-1.376 3.776l-1.504 4.048H31.09l-1.472-4.048-1.264-3.728c0 .523-.07 1.765-.208 3.728L27.827 44zm22.014-5.424c0 1.664-.464 3.003-1.392 4.016-.917 1.013-2.15 1.52-3.696 1.52-1.547 0-2.784-.507-3.712-1.52-.928-1.013-1.392-2.352-1.392-4.016 0-1.675.459-3.019 1.376-4.032.928-1.013 2.165-1.52 3.712-1.52 1.568 0 2.81.507 3.728 1.52.917 1.003 1.376 2.347 1.376 4.032zm-8.032 0c0 1.13.267 2.027.8 2.688s1.248.992 2.144.992c.907 0 1.621-.325 2.144-.976.523-.661.784-1.563.784-2.704 0-1.141-.261-2.043-.784-2.704s-1.243-.992-2.16-.992c-.907 0-1.621.33-2.144.992-.523.661-.784 1.563-.784 2.704zm16.346 2.4c0 .96-.346 1.728-1.04 2.304-.682.565-1.584.848-2.704.848-1.216 0-2.224-.23-3.024-.688v-2.064c.918.661 1.92.992 3.008.992.491 0 .886-.117 1.184-.352.3-.245.448-.57.448-.976a1.13 1.13 0 0 0-.112-.512c-.074-.15-.229-.299-.464-.448-.224-.15-.4-.256-.528-.32a13.054 13.054 0 0 0-.752-.352 3.488 3.488 0 0 0-.24-.112 13.27 13.27 0 0 1-.96-.48 6.357 6.357 0 0 1-.8-.592 2.415 2.415 0 0 1-.656-.88 3.084 3.084 0 0 1-.208-1.168c0-.917.336-1.653 1.008-2.208.683-.555 1.584-.832 2.704-.832 1.014 0 1.888.176 2.624.528v1.952c-.8-.48-1.653-.72-2.56-.72-.5 0-.896.112-1.184.336a1.061 1.061 0 0 0-.416.864c0 .352.15.645.448.88.31.224.768.475 1.376.752.427.192.774.363 1.04.512.267.139.555.336.864.592.32.256.555.565.704.928.16.352.24.757.24 1.216zm8.57-6.096h-2.736V44h-2.032v-9.12H59.22v-1.664h7.504v1.664zM16.622 58.336h-1.408V62h-2.016V51.216h3.376c1.216 0 2.187.33 2.912.992.736.661 1.104 1.51 1.104 2.544 0 1.099-.378 1.973-1.136 2.624-.747.64-1.69.96-2.832.96zm-.224-5.472h-1.184v3.84h1.136c.736 0 1.285-.176 1.648-.528.363-.352.544-.827.544-1.424 0-.587-.181-1.045-.544-1.376-.363-.341-.896-.512-1.6-.512zm15.45 3.712c0 1.664-.463 3.003-1.391 4.016-.918 1.013-2.15 1.52-3.696 1.52-1.547 0-2.784-.507-3.712-1.52-.928-1.013-1.392-2.352-1.392-4.016 0-1.675.458-3.019 1.376-4.032.928-1.013 2.165-1.52 3.712-1.52 1.568 0 2.81.507 3.728 1.52.917 1.003 1.376 2.347 1.376 4.032zm-8.031 0c0 1.13.266 2.027.8 2.688.533.661 1.248.992 2.144.992.906 0 1.621-.325 2.144-.976.522-.661.784-1.563.784-2.704 0-1.141-.262-2.043-.784-2.704-.523-.661-1.243-.992-2.16-.992-.907 0-1.622.33-2.144.992-.523.661-.784 1.563-.784 2.704zm13.258 1.76h-1.408V62h-2.016V51.216h3.376c1.216 0 2.187.33 2.912.992.736.661 1.104 1.51 1.104 2.544 0 1.099-.378 1.973-1.136 2.624-.746.64-1.69.96-2.832.96zm-.224-5.472h-1.184v3.84h1.136c.736 0 1.286-.176 1.648-.528.363-.352.544-.827.544-1.424 0-.587-.181-1.045-.544-1.376-.362-.341-.896-.512-1.6-.512zm14.059 4.992c0 1.397-.379 2.464-1.136 3.2-.747.725-1.776 1.088-3.088 1.088-1.28 0-2.304-.357-3.072-1.072-.758-.725-1.136-1.76-1.136-3.104v-6.752h2.016v6.736c0 .821.203 1.419.608 1.792.405.363.933.544 1.584.544 1.472 0 2.208-.805 2.208-2.416v-6.656h2.016v6.64zM59.313 62h-6.224V51.216h2.016v8.992h4.208V62zm4.406-4.56l-.144.464h3.04l-.144-.48a251.983 251.983 0 0 1-.896-2.896c-.224-.79-.363-1.285-.416-1.488l-.064-.32c-.096.533-.555 2.107-1.376 4.72zM62.279 62h-2.112l3.648-10.784h2.608L70.07 62h-2.176l-.768-2.448h-4.08L62.279 62zm12.669-9.12h-1.312v3.52h1.344c.619 0 1.083-.155 1.392-.464.31-.32.464-.763.464-1.328 0-.555-.165-.981-.496-1.28-.32-.299-.784-.448-1.392-.448zM73.636 62H71.62V51.216h3.328c1.227 0 2.187.31 2.88.928.704.619 1.056 1.445 1.056 2.48-.01.768-.197 1.419-.56 1.952a3.255 3.255 0 0 1-1.488 1.168L79.604 62h-2.416l-2.448-3.936h-1.104V62z"/><path stroke="#fff" d="M14 24.5h66M14 72.5h66"/></svg>