<svg xmlns="http://www.w3.org/2000/svg" fill="none" viewBox="0 0 60 61"><path fill="#18212C" fill-rule="evenodd" d="M45.509 33.845a3.866 3.866 0 0 1-2.517-3.624V27.13a3.866 3.866 0 0 1 3.866-3.865h7.73a3.866 3.866 0 0 1 3.866 3.865v3.092a3.85 3.85 0 0 1-.97 2.561A3.868 3.868 0 0 1 60 36.407v3.092a3.865 3.865 0 0 1-2.517 3.624 3.85 3.85 0 0 1 .97 2.56v3.093a3.864 3.864 0 0 1-3.864 3.865 3.85 3.85 0 0 1 .773 2.32v1.546a3.865 3.865 0 0 1-3.866 3.865h-7.73a3.864 3.864 0 0 1-3.866-3.865v-1.547a3.866 3.866 0 0 1 3.865-3.865 3.847 3.847 0 0 1-.773-2.319v-3.092a3.868 3.868 0 0 1 2.516-3.624 3.85 3.85 0 0 1-.97-2.56v-3.093c0-.982.367-1.88.97-2.561zm8.306 21.114v1.547a2.319 2.319 0 0 1-2.319 2.319h-7.73a2.319 2.319 0 0 1-2.32-2.32V54.96a2.32 2.32 0 0 1 2.32-2.319h7.73a2.32 2.32 0 0 1 2.32 2.32zm-37.571-.772h1.587c1.536 0 2.463 1.093 3.587 2.117 1.397 1.274 3.001 2.521 5.69 2.521h12.328v-1.546H27.108c-2.694 0-4.043-1.582-5.4-2.807-1.134-1.022-2.279-1.832-3.877-1.832h-1.587v1.547zm38.344-10.824h-7.73a2.32 2.32 0 0 0-2.32 2.32v3.092a2.319 2.319 0 0 0 2.32 2.32h7.73a2.319 2.319 0 0 0 2.32-2.32v-3.092a2.32 2.32 0 0 0-2.32-2.32zM20.535 26.356l5.834-6.562c3.922-4.414 6.11-8.406 6.11-14.311V3.255c0-1.441.834-2.481 2.028-2.966 1.62-.658 3.975-.245 5.54 1.78 2.274 2.942 3.255 4.911 3.255 10.248 0 3.631-.78 5.976-1.25 7.453-.162.513-.297.892-.297 1.174v7.747c-.155 7.685-4.92 14.859-12.557 17.716l-.542-1.448c7.026-2.63 11.41-9.229 11.553-16.284v-7.73c0-.393.144-.93.37-1.644.44-1.384 1.176-3.58 1.176-6.984 0-4.84-.869-6.634-2.93-9.302-1.064-1.376-2.636-1.74-3.737-1.293-.62.251-1.063.784-1.063 1.533v2.228c0 6.322-2.3 10.613-6.501 15.338l-6.295 7.081H17.79v-1.546h2.745zm27.869 15.462h7.73a2.319 2.319 0 0 0 2.32-2.32v-3.092a2.32 2.32 0 0 0-2.32-2.32h-7.73a2.32 2.32 0 0 0-2.32 2.32v3.092a2.319 2.319 0 0 0 2.32 2.32zm8.503-14.69v3.093a2.319 2.319 0 0 1-2.319 2.32h-7.73a2.319 2.319 0 0 1-2.32-2.32V27.13a2.32 2.32 0 0 1 2.32-2.32h7.73a2.32 2.32 0 0 1 2.32 2.32z" clip-rule="evenodd"/><path fill="#53A1D8" fill-rule="evenodd" d="M17.008 58.827V23.265H0v35.562h17.008zM1.546 24.81v32.47h13.916V24.81H1.546zm6.185 3.866v6.184h1.546v-6.184H7.73z" clip-rule="evenodd"/></svg>