<svg xmlns="http://www.w3.org/2000/svg" fill="none" viewBox="0 0 12 10"><path fill="#53A1D8" fill-rule="evenodd" d="M10.517 2.95a1.074 1.074 0 0 0 0-1.414.848.848 0 0 0-1.283 0l-4.488 4.95-1.924-2.122a.848.848 0 0 0-1.282 0 1.074 1.074 0 0 0 0 1.414l2.556 2.819a.848.848 0 0 0 1.291.01l5.13-5.657z" clip-rule="evenodd"/><path fill="#53A1D8" d="M10.517 1.536l-.336.37.336-.37zm0 1.414l.335.37-.335-.37zM9.234 1.536l.336.37-.336-.37zm-4.488 4.95l-.336.37.336.37.336-.37-.336-.37zM1.54 4.363l.336.37-.336-.37zm2.556 4.233l.34-.366-.004-.005-.336.37zm1.291.01l-.336-.37.336.37zm4.794-6.701a.512.512 0 0 1 0 .673l.671.741c.54-.595.54-1.56 0-2.155l-.671.741zm-.61 0a.404.404 0 0 1 .61 0l.671-.74a1.293 1.293 0 0 0-1.954 0l.672.74zm-4.49 4.95l4.49-4.95-.673-.74L4.41 6.114l.672.74zM2.487 4.734L4.41 6.856l.672-.741-1.924-2.122-.672.741zm-.61 0a.404.404 0 0 1 .61 0l.672-.74a1.293 1.293 0 0 0-1.954 0l.672.74zm0 .674a.511.511 0 0 1 0-.674l-.672-.74c-.54.595-.54 1.56 0 2.155l.672-.741zm2.556 2.818L1.876 5.408l-.672.74L3.76 8.968l.672-.74zm.009.01a.486.486 0 0 1-.005-.005l-.68.73.013.016.672-.74zm.61 0a.404.404 0 0 1-.61 0l-.672.741c.54.595 1.414.595 1.954 0l-.672-.74zm5.13-5.657L5.05 8.236l.672.741 5.13-5.657-.672-.74z"/></svg>