<svg width="40px" height="40px" viewBox="0 0 40 40" version="1.1" xmlns="http://www.w3.org/2000/svg"
	 xmlns:xlink="http://www.w3.org/1999/xlink">
	<circle id="Oval"
			fill="#66a0d3"
			cx="20" cy="20" r="20"></circle>
	<path d="M21.4558658,13.5323462 L15.8876683,17.9190467 C15.4538394,18.2608229 14.8250873,18.1861994 14.4833111,17.7523705 C14.3443763,17.5760155 14.2688278,17.3580383 14.2688278,17.13353 L14.2688278,8.36012909 C14.2688278,7.80784434 14.716543,7.36012909 15.2688278,7.36012909 C15.4933361,7.36012909 15.7113133,7.4356776 15.8876683,7.57461244 L21.4558658,11.9613129 C21.8896947,12.3030891 21.9643182,12.9318412 21.622542,13.3656701 C21.5737485,13.4276054 21.5178012,13.4835527 21.4558658,13.5323462 Z M21.4558658,26.8656795 L15.8876683,31.25238 C15.4538394,31.5941562 14.8250873,31.5195327 14.4833111,31.0857039 C14.3443763,30.9093488 14.2688278,30.6913717 14.2688278,30.4668634 L14.2688278,21.6934624 C14.2688278,21.1411777 14.716543,20.6934624 15.2688278,20.6934624 C15.4933361,20.6934624 15.7113133,20.7690109 15.8876683,20.9079458 L21.4558658,25.2946462 C21.8896947,25.6364224 21.9643182,26.2651745 21.622542,26.6990034 C21.5737485,26.7609388 21.5178012,26.816886 21.4558658,26.8656795 Z M30.662215,20.1990129 L25.0940175,24.5857133 C24.6601886,24.9274895 24.0314365,24.8528661 23.6896603,24.4190372 C23.5507255,24.2426822 23.475177,24.024705 23.475177,23.8001967 L23.475177,15.0267958 C23.475177,14.474511 23.9228922,14.0267958 24.475177,14.0267958 C24.6996853,14.0267958 24.9176625,14.1023443 25.0940175,14.2412791 L30.662215,18.6279796 C31.0960439,18.9697558 31.1706674,19.5985079 30.8288912,20.0323367 C30.7800977,20.0942721 30.7241504,20.1502194 30.662215,20.1990129 Z M17.5146547,20.1243211 C17.4527193,20.0755276 17.3967721,20.0195804 17.3479786,19.957645 C17.0062024,19.5238161 17.0808258,18.895064 17.5146547,18.5532878 L20.1943383,16.4421973 C20.3706933,16.3032624 20.5886705,16.2277139 20.8131788,16.2277139 C21.3654636,16.2277139 21.8131788,16.6754292 21.8131788,17.2277139 L21.8131788,21.4498951 C21.8131788,21.6744034 21.7376303,21.8923806 21.5986955,22.0687356 C21.2569193,22.5025645 20.6281672,22.5771879 20.1943383,22.2354117 L17.5146547,20.1243211 Z"
		  id="Combined-Shape"
		  fill="#FFFFFF"></path>
</svg>
